<svg xmlns="http://www.w3.org/2000/svg" viewBox="0 0 1080 1080" width="1080" height="1080"><path fill="#FFF" d="M0 0h1080v1080H0z"/><g transform="translate(520.0 221.0) rotate(27.730180941704905 133.0 108.0) translate(38.86889460154242 0.0) scale(2.4667773316146264 2.4746520020622103)"><svg width="92.076" height="87.285" viewBox="15.757 0 92.076 87.285"><path d="M92.208 24.88a20.439 20.439 0 0 1 8.615-4.216c1.978-.431 4.338-.463 5.685 1.056.88.973 1.094 2.408.864 3.705-.23 1.298-.865 2.478-1.53 3.609-3.841 6.551-9.766 9.103-16.451 14.571l-.157.105c6.679 9.65 11.066 23.522 10.354 35.229-.093 1.534-.532 3.848-1.661 5.864-1.469 2.656-4.713 3.236-4.838-.832-2.646-21.059-12.181-41.646-28.331-55.418C48.598 14.781 25.549 8.634 5.262 14.899c0 0-1.912.629-2.924.23C1.315 14.72.544 13.733.401 12.647c-.17-1.315.54-2.628 1.523-3.518.992-.892 2.226-1.44 3.45-1.978C25.952-.743 50.842 3.117 67.431 17.195l.107-.083c8.321-6.958 15.037-11.756 24.538-15.459C93.885.947 95.767.309 97.71.38c1.933.081 3.953 1.019 4.797 2.764.876 1.814.322 3.982-.38 5.874a44.547 44.547 0 0 1-9.992 15.773z" fill="#3D138D"/><path d="M93.088 84.346a.375.375 0 0 1-.372-.328c-2.784-22.158-13.064-42.271-28.202-55.18C47.854 14.64 24.642 9.307 5.372 15.257a.376.376 0 0 1-.221-.717c19.504-6.023 42.998-.636 59.85 13.728 15.279 13.029 25.652 33.315 28.46 55.656a.375.375 0 0 1-.373.422zm-.953-59.179a.375.375 0 0 1-.268-.637 44.317 44.317 0 0 0 9.907-15.64c.626-1.685 1.235-3.84.395-5.582-.709-1.467-2.466-2.469-4.475-2.553-1.947-.085-3.842.607-5.481 1.248C82.779 5.68 76.11 10.433 67.778 17.4a.375.375 0 1 1-.48-.576c8.391-7.016 15.114-11.806 24.643-15.52 1.71-.668 3.693-1.372 5.783-1.299 2.284.096 4.293 1.264 5.121 2.977.964 1.997.311 4.346-.367 6.168a45.073 45.073 0 0 1-10.075 15.905.373.373 0 0 1-.268.112z"/><path d="M89.39 43.981a.374.374 0 0 1-.237-.665c2.031-1.661 3.967-3.037 5.84-4.367 4.231-3.007 7.887-5.604 10.525-10.104.6-1.019 1.258-2.212 1.484-3.484.235-1.326-.054-2.593-.772-3.389-1.292-1.456-3.61-1.316-5.327-.941a20.088 20.088 0 0 0-8.456 4.138 1.604 1.604 0 0 0-.135.104.375.375 0 0 1-.482-.574c.062-.052.11-.09.171-.13a20.781 20.781 0 0 1 8.741-4.27c1.915-.415 4.518-.55 6.047 1.174.871.964 1.228 2.468.952 4.02-.248 1.396-.943 2.659-1.576 3.733-2.72 4.639-6.436 7.278-10.738 10.335-1.861 1.323-3.787 2.691-5.799 4.336a.38.38 0 0 1-.238.084zM67.431 17.57a.37.37 0 0 1-.242-.089C50.859 3.622 26.07-.388 5.509 7.502a.376.376 0 0 1-.269-.701c20.814-7.984 45.903-3.92 62.434 10.108a.374.374 0 0 1-.243.661z"/><path d="M3.198 15.637c-.355 0-.703-.044-.998-.16a3.544 3.544 0 0 1-2.172-2.781c-.171-1.321.444-2.759 1.644-3.846 1.053-.943 2.381-1.526 3.553-2.042a.375.375 0 0 1 .301.687c-1.175.516-2.39 1.05-3.352 1.912-1.016.921-1.541 2.114-1.401 3.191.125.946.811 1.823 1.705 2.181.721.287 2.17-.075 2.667-.237a.375.375 0 1 1 .235.713c-.155.05-1.2.382-2.182.382zm91.87 71.648c-.17 0-.337-.019-.501-.059-.66-.159-1.778-.794-1.854-3.244a.376.376 0 0 1 .363-.387c.172-.004.38.156.387.363.044 1.448.499 2.35 1.28 2.539.918.215 2.141-.586 2.854-1.877 1.319-2.355 1.569-4.962 1.615-5.704.684-11.239-3.355-24.975-10.289-34.993a.377.377 0 0 1 .515-.554.946.946 0 0 1 .083.104c7.042 10.171 11.132 24.092 10.438 35.488-.062 1.004-.351 3.599-1.708 6.024-.782 1.418-2.034 2.3-3.183 2.3z"/></svg></g><g transform="translate(446.0 70.0) rotate(29.53464536632991 168.0 99.5) scale(4.107730112351309 4.06163894274926)"><svg width="81.797" height="48.995" viewBox="0 0 81.797 48.995"><path d="M78.487 18.786c3.3 6.88 3.75 15 1.69 22.35-.22.79-.48 1.59-.81 2.36l-.19-.08c-2.07-5.06-6.18-9.06-10.47-11.73s-9.11-4.42-14.02-5.6c-9.4-2.26-19.37-2.47-28.71.03s-19.51 9.05-23.47 16.8c-1.3-.84-1.81-2.49-1.99-4.03-.79-6.71 1.77-13.88 6.46-18.74 9.97-10.31 16.2-3.5 16.2-3.5-.64-2.29-1.3-4.68-.9-7.03.39-2.36 2.15-4.66 4.53-4.86 1.87-.16 3.61.98 4.98 2.28 2.16 2.06 3.81 4.64 4.78 7.47 0-2.85.12-6.22 1.26-8.82 1.14-2.61 3.43-4.87 6.25-5.25 3.63-.5 6.96 2.15 9.22 5.04a30.346 30.346 0 0 1 6.32 16.38c1.1-2.82 2.65-5.74 5.07-7.56 2.42-1.81 5.78-2.57 8.56-1.36 2.45 1.07 4.08 3.44 5.24 5.85z" fill="#3D138D"/><path d="m79.177 43.416.19.08c-.72 1.72-1.73 3.3-3.26 4.32-2.22 1.48-4.59.85-6.25-1.35-5.67-7.31-13.77-12.76-22.75-14.96s-18.8-1.06-26.9 3.4c-4.19 2.31-7.9 5.46-12.2 7.55-1.73.85-3.87 1.49-5.5.46 3.96-7.75 14.13-14.3 23.47-16.8s19.31-2.29 28.71-.03c4.91 1.18 9.73 2.93 14.02 5.6s8.4 6.67 10.47 11.73z" fill="#3D138D"/><path d="M59.616 22.231a.375.375 0 0 1-.374-.348c-.423-5.825-2.639-11.57-6.241-16.176-1.614-2.065-4.917-5.438-8.874-4.9-2.465.332-4.748 2.26-5.958 5.029-1.08 2.463-1.229 5.623-1.229 8.67a.375.375 0 0 1-.75 0c0-3.129.156-6.381 1.292-8.971C38.796 2.527 41.303.431 44.025.063c4.333-.584 7.853 2.989 9.566 5.181 3.692 4.723 5.965 10.612 6.398 16.584a.374.374 0 0 1-.347.401c-.007.002-.017.002-.026.002z"/><path d="M23.177 17.021a.374.374 0 0 1-.361-.274c-.621-2.224-1.325-4.744-.908-7.192.396-2.399 2.196-4.947 4.869-5.172 1.676-.144 3.452.658 5.27 2.382a19.156 19.156 0 0 1 4.876 7.62.376.376 0 0 1-.709.245 18.406 18.406 0 0 0-4.684-7.32c-1.655-1.57-3.236-2.311-4.689-2.178-2.267.19-3.852 2.485-4.192 4.548-.389 2.284.262 4.614.891 6.867a.375.375 0 0 1-.26.462.543.543 0 0 1-.103.012zm50.451 31.977c-1.485 0-2.923-.786-4.071-2.307a.375.375 0 1 1 .598-.451c1.601 2.12 3.748 2.593 5.743 1.264 1.292-.861 2.313-2.22 3.122-4.152a18.44 18.44 0 0 0 .794-2.316c2.093-7.466 1.485-15.517-1.667-22.087-1.42-2.95-3.073-4.805-5.052-5.669-2.468-1.075-5.68-.559-8.186 1.317-1.961 1.475-3.58 3.895-4.946 7.396a.375.375 0 1 1-.698-.273c1.418-3.634 3.117-6.16 5.194-7.723 2.719-2.034 6.226-2.585 8.935-1.404 2.151.939 3.927 2.913 5.428 6.031 3.23 6.733 3.854 14.976 1.713 22.614a18.95 18.95 0 0 1-.826 2.406c-.867 2.071-1.978 3.539-3.396 4.484-.875.584-1.788.87-2.685.87z"/><path d="M69.857 46.841a.374.374 0 0 1-.297-.146c-5.745-7.406-13.751-12.671-22.543-14.825-9.026-2.211-18.731-.984-26.63 3.364-1.845 1.018-3.632 2.224-5.361 3.39-2.184 1.473-4.441 2.996-6.856 4.169-2.45 1.204-4.423 1.349-5.864.44-1.192-.771-1.918-2.218-2.162-4.305-.792-6.729 1.722-14.027 6.563-19.044 3.736-3.862 7.393-5.82 10.872-5.82l.128.001c3.623.05 5.662 2.234 5.747 2.327a.373.373 0 0 1-.023.528.374.374 0 0 1-.53-.021c-.019-.021-1.924-2.046-5.221-2.084-3.321-.076-6.808 1.843-10.433 5.591C2.558 25.265.122 32.329.89 38.842c.216 1.854.829 3.118 1.821 3.759 1.203.763 2.93.6 5.131-.481 2.369-1.15 4.604-2.659 6.766-4.117 1.742-1.176 3.544-2.391 5.418-3.424 8.063-4.438 17.964-5.693 27.17-3.437 8.956 2.194 17.109 7.555 22.957 15.095a.374.374 0 0 1-.296.604z"/><path d="M79.177 43.541a.125.125 0 0 1-.116-.078c-1.835-4.486-5.536-8.632-10.42-11.671-3.917-2.438-8.492-4.265-13.983-5.585-9.836-2.363-19.742-2.354-28.648.03-10.122 2.709-19.74 9.591-23.391 16.735a.123.123 0 0 1-.168.055.125.125 0 0 1-.055-.168c3.681-7.203 13.364-14.138 23.549-16.864 8.946-2.394 18.896-2.406 28.771-.03 5.518 1.325 10.116 3.162 14.057 5.614 4.929 3.067 8.665 7.255 10.52 11.79a.124.124 0 0 1-.068.162.125.125 0 0 1-.048.01z"/></svg></g><g transform="translate(668.0 75.0) rotate(25.488811689778597 67.0 134.5) translate(0.0 0.0) scale(2.654516640253566 2.671300893743793)"><svg width="50.103" height="82.731" viewBox="0 0 50.103 82.731"><path d="M49.73 39.02.75 99.95l15.33-48.66-12.66 7.23 12.32-42.67L48.72.75 31.47 40.4z" fill="#7E4CDB"/><path d="M.75 100.7a.74.74 0 0 1-.354-.089.75.75 0 0 1-.361-.887L14.789 52.89 3.792 59.172a.75.75 0 0 1-1.092-.86l12.32-42.67a.75.75 0 0 1 .408-.473l32.98-15.1a.75.75 0 0 1 1 .98l-16.754 38.51 17.02-1.287a.762.762 0 0 1 .72.399.75.75 0 0 1-.08.82L1.334 100.42a.748.748 0 0 1-.585.28zm15.33-50.16a.75.75 0 0 1 .715.975L2.663 96.373l45.399-56.475-16.535 1.25a.75.75 0 0 1-.745-1.047L47.25 2.248 16.365 16.389 4.654 56.952l11.054-6.314a.747.747 0 0 1 .372-.098z"/></svg></g><g transform="translate(72.0 734.0) rotate(0.0 487.5 144.5) translate(0.0 0.0) scale(1.3915923841788362 1.3918620474955343)"><svg width="606.499" height="206.917" viewBox="0 0 606.499 206.917"><path d="M687.241 33.35c13.67 13.66 15.81 36.55 8.57 43.78-7.25 7.25-17.13 2.97-24.21-9.71a38.426 38.426 0 0 0-6.16-8.33c12.15 0 21.28-11.22 17.48-29.24a28.21 28.21 0 0 1 4.32 3.5z" fill="#7E4CDB"/><path d="M619.181 47.6c-18.6 2.23-21.32 13.07-21.32 28.71 0 17.62 13.66 63.05 2.8 78.86-10.87 15.8-22.72 24.36-45.44 24.36h-135.24a72.806 72.806 0 0 0 12.13-11.92c16.99 0 112.47.28 122.78-1.47 10.32-1.76 30.14-6.3 30.14-29.38s-3.14-46.57-4.46-59.52 5.7-29.63 38.61-29.64z" fill="#3D138D"/><path d="M682.921 29.85c3.8 18.02-5.33 29.24-17.48 29.24-7.52-7.59-19.04-11.92-38.45-11.92a63.44 63.44 0 0 0-7.79.43h-.02c-32.91.01-39.93 16.69-38.61 29.64s4.46 36.44 4.46 59.52-19.82 27.62-30.14 29.38c-10.31 1.75-105.79 1.47-122.78 1.47a62.035 62.035 0 0 0 9.43-16.3h83.07c15.14 0 39.17-1.58 44.77-14.91s-5.75-59.38-5.75-76.27c0-16.9 15.96-40.28 46.9-40.28 28.05 0 57.04-.14 72.39 10z" fill="#7E4CDB"/><path d="M393.421 43.49c-11.76 5.15-26.26 8.51-42.12 9.39-.57-13.11-4.53-21.86-13.87-24.26 1.03-.04 2.07-.05 3.13-.05 18.48 0 36.81 5.51 52.86 14.92z" fill="#3D138D"/><path d="M337.431 28.62c9.34 2.4 13.3 11.15 13.87 24.26-2.71.15-5.44.22-8.21.22-21.32 0-40.68-4.49-55.06-11.85a108.908 108.908 0 0 1 49.39-12.63z" fill="#7E4CDB"/><path d="M402.341 190.23a10.998 10.998 0 0 1 .77 4.2c0 8.06-11.85 11.43-24.69 11.43h-50.7c-14.34 0-55.37 1.56-77.76.83a50.985 50.985 0 0 1 4.67-12.26c6.57-12.2 28.64-12.93 47.41-12.93h74.19c11.4 0 23.05 1.28 26.11 8.73z" fill="#3D138D"/><path d="M393.421 43.49c30.28 17.72 52.49 49.27 52.49 83.69a65.81 65.81 0 0 1-4.37 24.13 62.035 62.035 0 0 1-9.43 16.3 72.806 72.806 0 0 1-12.13 11.92 89.847 89.847 0 0 1-17.64 10.7c-3.06-7.45-14.71-8.73-26.11-8.73h-74.19c-18.77 0-40.84.73-47.41 12.93a50.985 50.985 0 0 0-4.67 12.26 100.592 100.592 0 0 1-11.46-.83c-8.63-1.34-9.55-6.47-6.28-12.29 2.34-4.17 6.84-8.68 12.2-12.4 12.85-8.89 41.16-6.91 51.36-6.91h32.27s-38.85-3.62-38.85-36.55 36.72-41.66 50.71-46.75c13.98-5.09 11.46-19.42 11.46-34.56 0-1.21-.03-2.38-.07-3.52 15.86-.88 30.36-4.24 42.12-9.39z" fill="#7E4CDB"/><path d="M32.781 183.88a4.115 4.115 0 1 1-4.11 4.12 4.114 4.114 0 0 1 4.11-4.12zm-15.19-6.66a4.115 4.115 0 1 1-4.11 4.12 4.114 4.114 0 0 1 4.11-4.12z" fill="#3D138D"/><path d="M4.611 168.22c-4.53-9 2.9-19.02 17.91-24.25 16.41-5.71 68.48-7.45 81.85-7.45a67.465 67.465 0 0 0 19.64 14.18h-52.43c-10.54 0-29.05 3.48-44.13 11.7a69.403 69.403 0 0 0-16.63 12.69 19.451 19.451 0 0 1-6.21-6.86z" fill="#7E4CDB"/><path d="M15.091 184.6a4.115 4.115 0 1 0-1.61-3.26 4.121 4.121 0 0 0 1.61 3.26zm7.95 21.54a22.823 22.823 0 0 1-12.38-.3 20.166 20.166 0 0 1-2.35-.89c-12.25-5.42-8.31-18.53 2.51-29.86a69.403 69.403 0 0 1 16.63-12.69c15.08-8.22 33.59-11.7 44.13-11.7h52.43c21.62 10.66 46.91 11.71 54.9 11.71 14.81 0 81.32-7.25 81.32-61.57a60.41 60.41 0 0 0-8.18-30.27c5.34-5.34 16.64-19.01 35.98-29.32 14.38 7.36 33.74 11.85 55.06 11.85 2.77 0 5.5-.07 8.21-.22.04 1.14.07 2.31.07 3.52 0 15.14 2.52 29.47-11.46 34.56-13.99 5.09-50.71 13.82-50.71 46.75s38.85 36.55 38.85 36.55h-32.27c-10.2 0-38.51-1.98-51.36 6.91-5.36 3.72-9.86 8.23-12.2 12.4H56.431c-11.07 0-21.66 9.83-33.39 12.57zm5.63-18.14a4.115 4.115 0 1 0 4.11-4.12 4.11 4.11 0 0 0-4.11 4.12z" fill="#3D138D"/><path d="M159.811 118.97c1.98-5.38 12.84-9.06 12.84-4.53 0 2.64-4.79 6.71-9.71 11.9-2.41-2.6-3.92-5.2-3.13-7.37z" fill="#A2423D"/><path d="M220.471 80.64a14.61 14.61 0 0 1-6.02 11.83 14.628 14.628 0 0 1-3.06-20.65 38.531 38.531 0 0 1 6.84 1.05 14.498 14.498 0 0 1 2.24 7.77z" fill="#3D138D"/><path d="M218.231 72.87a38.713 38.713 0 0 1 21.93 14.77 38.635 38.635 0 0 1-62.49 0 38.578 38.578 0 0 1 31.24-15.9c.83 0 1.66.03 2.48.08a14.628 14.628 0 0 0 3.06 20.65 14.62 14.62 0 0 0 3.78-19.6z" fill="#FFCA58"/><path d="M221.051 19.52V39.6l-13.58-4.72zm-78.03 0v15.36l-14.28 2.75z" fill="#A2423D"/><path d="M141.741 80.64a14.61 14.61 0 0 1-6.02 11.83 14.613 14.613 0 0 1-3.05-20.65 38.31 38.31 0 0 1 6.82 1.05h.01a14.498 14.498 0 0 1 2.24 7.77z" fill="#3D138D"/><path d="M139.501 72.87a38.69 38.69 0 0 1 21.92 14.77 38.626 38.626 0 0 1-62.48 0 38.564 38.564 0 0 1 31.24-15.9c.84 0 1.67.03 2.49.08a14.613 14.613 0 0 0 3.05 20.65 14.62 14.62 0 0 0 3.78-19.6z" fill="#FFCA58"/><path d="M162.941 126.34c4.92-5.19 9.71-9.26 9.71-11.9 0-4.53-10.86-.85-12.84 4.53-.79 2.17.72 4.77 3.13 7.37zm89.11-55.77a60.41 60.41 0 0 1 8.18 30.27c0 54.32-66.51 61.57-81.32 61.57-7.99 0-33.28-1.05-54.9-11.71a67.465 67.465 0 0 1-19.64-14.18c-8.8-9.41-14.69-22.21-14.69-39.61 0-61.87 62.23-96.16 62.23-96.16v34.13c16.58-6.03 37.48-2.25 43.79 0 11.63-21.73 32.92-31.82 32.92-31.82v42.47a76.088 76.088 0 0 1 23.43 25.04zm-11.89 17.07a38.509 38.509 0 0 0-28.77-15.82c-.82-.05-1.65-.08-2.48-.08a38.578 38.578 0 0 0-31.24 15.9 38.635 38.635 0 0 0 62.49 0zm-19.11-48.04V19.52l-13.58 15.36zm-59.63 48.04a38.69 38.69 0 0 0-21.92-14.77h-.01a38.31 38.31 0 0 0-6.82-1.05c-.82-.05-1.65-.08-2.49-.08a38.564 38.564 0 0 0-31.24 15.9 38.626 38.626 0 0 0 62.48 0zm-18.4-52.76V19.52l-14.28 18.11z" fill="#3D138D"/><path d="M197.984 76.702a5.76 5.76 0 0 1 2.55-.14 2.633 2.633 0 0 1 1.942 1.58 2.833 2.833 0 0 1-.349 2.368 6.781 6.781 0 0 1-1.692 1.736 29.084 29.084 0 0 1-7.52 4.257 7.194 7.194 0 0 1-2.707.604 2.975 2.975 0 0 1-2.42-1.202c-1.39-2.075 1.774-4.53 3.104-5.638a17.29 17.29 0 0 1 7.092-3.565zm-79.284-.023c1.616-.37 3.678-.37 4.511 1.066a2.823 2.823 0 0 1 .046 2.477 6.538 6.538 0 0 1-1.527 2.046 20.06 20.06 0 0 1-10.268 5.369 5.472 5.472 0 0 1-3.852-.348c-5.576-3.388 8.652-10.052 11.09-10.61z" fill="#FFF"/><path d="M178.911 163.16c-7.349 0-33.05-.85-55.232-11.787a68.196 68.196 0 0 1-19.855-14.34C93.942 126.466 88.93 112.967 88.93 96.91c0-32.209 17.033-56.822 31.322-71.799A147.23 147.23 0 0 1 151.55.094a.75.75 0 0 1 1.112.656v33.073c15.79-5.322 35.297-2.28 42.682.143C207.021 12.652 228.087 2.483 228.3 2.382a.75.75 0 0 1 1.071.678v42.06a78.092 78.092 0 0 1 23.332 25.08v-.001a61.102 61.102 0 0 1 8.278 30.642c0 23.087-12.29 41.01-35.54 51.835-17.779 8.276-37.613 10.485-46.53 10.485zM151.161 2.054a149.214 149.214 0 0 0-29.853 24.125C107.222 40.952 90.43 65.215 90.43 96.91c0 15.664 4.874 28.818 14.488 39.098a66.696 66.696 0 0 0 19.423 14.02c21.892 10.793 47.303 11.632 54.57 11.632 8.793 0 28.355-2.179 45.896-10.345 23.008-10.71 34.673-27.693 34.673-50.475a59.623 59.623 0 0 0-8.08-29.898h-.001a76.01 76.01 0 0 0-23.171-24.772.752.752 0 0 1-.358-.64V4.29c-4.441 2.377-21.616 12.46-31.509 30.944a.75.75 0 0 1-.913.353c-6.847-2.442-27.252-5.832-43.282-.002a.75.75 0 0 1-1.006-.705z"/><path d="M130.181 104.3a39.523 39.523 0 0 1-31.846-16.219.75.75 0 0 1 0-.882A39.52 39.52 0 0 1 130.18 70.99c.804 0 1.633.027 2.536.082a39.335 39.335 0 0 1 6.906 1.058.85.85 0 0 1 .059.012 39.49 39.49 0 0 1 22.345 15.056.75.75 0 0 1 0 .884A39.553 39.553 0 0 1 130.18 104.3zM99.874 87.64a37.874 37.874 0 0 0 60.614 0 37.981 37.981 0 0 0-21.119-14.03.856.856 0 0 1-.059-.012 37.752 37.752 0 0 0-6.687-1.03 40.683 40.683 0 0 0-2.442-.078 38.015 38.015 0 0 0-30.307 15.15z"/><path d="M135.721 92.72a.251.251 0 0 1-.147-.048 14.936 14.936 0 0 1-6.123-12.032 14.665 14.665 0 0 1 3.021-8.972.25.25 0 0 1 .398.304 14.167 14.167 0 0 0-2.919 8.668 14.434 14.434 0 0 0 5.77 11.519 14.436 14.436 0 0 0 5.77-11.52 14.284 14.284 0 0 0-2.184-7.607.248.248 0 0 1 .184-.412h.01a.25.25 0 0 1 .212.117 14.784 14.784 0 0 1 2.278 7.903 14.937 14.937 0 0 1-6.123 12.032.251.251 0 0 1-.147.048zm73.19 11.58a39.553 39.553 0 0 1-31.846-16.218.75.75 0 0 1 0-.884 39.549 39.549 0 0 1 31.846-16.208 41.5 41.5 0 0 1 2.525.082h.003a39.254 39.254 0 0 1 29.328 16.126.75.75 0 0 1 0 .884 39.563 39.563 0 0 1-31.856 16.218zm-30.307-16.66a37.884 37.884 0 0 0 60.624 0 37.752 37.752 0 0 0-27.885-15.071 40.012 40.012 0 0 0-2.432-.079 38.048 38.048 0 0 0-30.307 15.15z"/><path d="M214.451 92.72a.251.251 0 0 1-.147-.048 14.937 14.937 0 0 1-6.123-12.032 14.718 14.718 0 0 1 3.01-8.971.25.25 0 0 1 .4.302 14.218 14.218 0 0 0-2.91 8.669 14.436 14.436 0 0 0 5.77 11.519 14.436 14.436 0 0 0 5.77-11.52 14.287 14.287 0 0 0-2.201-7.636.25.25 0 0 1 .423-.266 14.784 14.784 0 0 1 2.278 7.903 14.937 14.937 0 0 1-6.123 12.032.251.251 0 0 1-.147.048zm-60.571 47.12a.75.75 0 0 1-.694-1.032c2.054-5.07 6.001-9.602 9.211-12.984a.75.75 0 1 1 1.088 1.032c-3.119 3.287-6.95 7.679-8.909 12.516a.75.75 0 0 1-.695.468z"/><path d="M162.941 127.09a.83.83 0 0 1-.55-.24c-3.018-3.256-4.092-5.918-3.285-8.136 1.56-4.239 8.224-7.638 11.879-6.985a2.64 2.64 0 0 1 2.416 2.711c0 2.355-2.802 5.183-6.68 9.099a209.67 209.67 0 0 0-3.236 3.317.75.75 0 0 1-.544.234zm7.09-13.94c-2.97 0-8.251 2.642-9.516 6.08-.545 1.496.276 3.516 2.443 6.007.92-.958 1.83-1.877 2.698-2.753 3.35-3.384 6.245-6.306 6.245-8.044 0-.477-.134-1.048-1.18-1.235a3.96 3.96 0 0 0-.69-.056z"/><path d="M174.96 137.33a.749.749 0 0 1-.487-.18c-.87-.747-2.025-1.653-3.246-2.612a77.936 77.936 0 0 1-8.837-7.69.75.75 0 0 1 1.102-1.017 76.8 76.8 0 0 0 8.661 7.527c1.235.97 2.4 1.884 3.296 2.653a.75.75 0 0 1-.488 1.319zm-46.219-99.45a.25.25 0 0 1-.196-.405l14.28-18.11a.25.25 0 0 1 .446.155v15.36a.25.25 0 0 1-.202.246l-14.28 2.75a.261.261 0 0 1-.048.004zm14.03-17.639-13.418 17.017 13.418-2.584zm78.28 19.609a.25.25 0 0 1-.082-.014l-13.58-4.72a.25.25 0 0 1-.105-.401l13.58-15.36a.25.25 0 0 1 .437.165V39.6a.25.25 0 0 1-.25.25zm-13.146-5.084 12.896 4.482V20.18zM10.82 175.84a.749.749 0 0 1-.438-.142 20.214 20.214 0 0 1-6.442-7.132.75.75 0 1 1 1.342-.671 18.747 18.747 0 0 0 5.979 6.587.75.75 0 0 1-.44 1.358z"/><path d="M4.612 168.97a.75.75 0 0 1-.67-.413 12.537 12.537 0 0 1-.412-10.615c2.44-6.03 9.272-11.38 18.744-14.68 17.56-6.11 72.684-7.492 82.097-7.492a.75.75 0 0 1 0 1.5c-13.3 0-65.412 1.774-81.603 7.409-9.065 3.158-15.57 8.197-17.848 13.825a10.934 10.934 0 0 0 .361 9.379.75.75 0 0 1-.67 1.087z"/><path d="M17.227 207.601a22.466 22.466 0 0 1-6.79-1.046 20.98 20.98 0 0 1-2.435-.921c-4.38-1.938-6.995-4.9-7.77-8.8-1.226-6.178 2.436-14.292 10.047-22.262a69.767 69.767 0 0 1 16.812-12.83c14.864-8.102 33.481-11.792 44.49-11.792h52.43a.75.75 0 1 1 0 1.5h-52.43c-10.824 0-29.139 3.633-43.771 11.609a68.24 68.24 0 0 0-16.446 12.548c-7.27 7.612-10.79 15.242-9.66 20.935.673 3.393 2.999 5.991 6.91 7.722a19.578 19.578 0 0 0 2.269.86 22.036 22.036 0 0 0 11.985.286c4.985-1.164 9.841-3.673 14.538-6.1 6.46-3.338 12.56-6.49 19.025-6.49h175.79a.75.75 0 0 1 0 1.5H56.431c-6.1 0-12.044 3.07-18.336 6.322-4.778 2.47-9.72 5.022-14.883 6.228a25.917 25.917 0 0 1-5.985.731zM252.051 71.32a.75.75 0 0 1-.53-1.28 159.02 159.02 0 0 0 2.727-2.836c6.29-6.643 16.82-17.76 33.43-26.615a110.186 110.186 0 0 1 49.725-12.72.758.758 0 0 1 .768.733.75.75 0 0 1-.732.768 108.703 108.703 0 0 0-49.055 12.542c-16.396 8.74-26.82 19.747-33.047 26.324a155.412 155.412 0 0 1-2.755 2.864.748.748 0 0 1-.53.22z"/><path d="M402.342 190.98a.75.75 0 0 1-.315-1.43 88.36 88.36 0 0 0 17.492-10.61 72.21 72.21 0 0 0 12.006-11.797 61.507 61.507 0 0 0 9.317-16.105 65.349 65.349 0 0 0 4.32-23.858c0-32.41-19.972-64.229-52.12-83.042-16.533-9.694-34.68-14.818-52.48-14.818-1.051 0-2.081.01-3.102.05a.75.75 0 1 1-.058-1.5c1.04-.04 2.09-.05 3.16-.05 18.066 0 36.476 5.195 53.238 15.023 32.606 19.081 52.861 51.397 52.861 84.337a66.838 66.838 0 0 1-4.421 24.402 62.99 62.99 0 0 1-9.543 16.496 73.684 73.684 0 0 1-12.254 12.043 89.85 89.85 0 0 1-17.788 10.79.748.748 0 0 1-.313.07z"/><path d="m328.051 174.51-.023-.001a60.142 60.142 0 0 1-19.517-5.953c-8.923-4.613-19.56-13.71-19.56-30.846 0-29.867 30.016-39.944 46.142-45.357 1.727-.58 3.358-1.128 4.733-1.628 11.926-4.342 11.676-15.427 11.386-28.261a266.49 266.49 0 0 1-.09-6.064c0-1.048-.022-2.13-.07-3.511-.607-13.947-5.077-21.806-13.666-24.023a.257.257 0 0 1-.058-.014c-.085-.027-.118-.037-.15-.05a.25.25 0 1 1 .187-.464l.114.037.014.003c8.842 2.272 13.44 10.283 14.058 24.491a97.68 97.68 0 0 1 .07 3.531c0 2.038.046 4.079.09 6.052.295 13.027.55 24.278-11.714 28.743-1.381.502-3.015 1.05-4.745 1.632-16.006 5.373-45.8 15.376-45.8 44.883 0 16.879 10.482 25.845 19.276 30.395a59.581 59.581 0 0 0 19.346 5.906.25.25 0 0 1-.022.499z"/><path d="M264.428 207.636c-5.289 0-10.218-.057-14.491-.196a99.61 99.61 0 0 1-11.554-.84c-4.16-.645-6.863-2.19-8.03-4.589-1.133-2.332-.713-5.378 1.214-8.808 2.351-4.19 6.88-8.8 12.427-12.649 11.354-7.856 34.474-7.374 46.895-7.118 1.894.04 3.55.074 4.892.074h32.27a.75.75 0 0 1 0 1.5h-32.27c-1.35 0-3.017-.035-4.924-.074-12.25-.255-35.055-.728-46.01 6.85-5.364 3.724-9.728 8.153-11.972 12.151-1.169 2.08-2.32 5.056-1.172 7.419.938 1.93 3.264 3.197 6.913 3.763a98.443 98.443 0 0 0 11.368.822c14.788.481 37.49-.03 55.73-.444 9.198-.207 17.142-.387 22.007-.387h50.7c11.573 0 23.94-2.806 23.94-10.68a10.285 10.285 0 0 0-.714-3.915.75.75 0 0 1 1.388-.57 11.772 11.772 0 0 1 .826 4.485c0 8.98-13.141 12.18-25.44 12.18h-50.7c-4.847 0-12.784.18-21.973.387-12.997.294-28.256.639-41.32.639z"/><path d="M249.961 206.94a.242.242 0 0 1-.058-.007.25.25 0 0 1-.185-.301 51.23 51.23 0 0 1 4.693-12.32c6.49-12.052 27.989-13.062 47.63-13.062h74.19c10.565 0 23.107 1.01 26.341 8.885a.25.25 0 1 1-.462.19c-3.122-7.6-15.47-8.575-25.879-8.575h-74.19c-19.497 0-40.83.99-47.19 12.799a50.708 50.708 0 0 0-4.647 12.2.25.25 0 0 1-.243.191zm93.13-153.59c-20.615 0-40.21-4.218-55.174-11.877a.25.25 0 0 1 .228-.445c14.895 7.623 34.409 11.822 54.946 11.822 2.807 0 5.565-.074 8.196-.22 15.46-.857 29.995-4.097 42.034-9.369a.25.25 0 0 1 .2.458c-12.092 5.295-26.687 8.55-42.206 9.41-2.64.147-5.408.22-8.224.22zM17.591 186.2a4.865 4.865 0 1 1 4.87-4.86 4.858 4.858 0 0 1-4.87 4.86zm0-8.23a3.369 3.369 0 0 0-3.36 3.37 3.33 3.33 0 0 0 1.316 2.664 3.365 3.365 0 1 0 2.044-6.034zm15.19 14.89a4.865 4.865 0 1 1 4.87-4.86 4.865 4.865 0 0 1-4.87 4.86zm0-8.23a3.365 3.365 0 1 0 3.37 3.37 3.369 3.369 0 0 0-3.37-3.37z"/><path d="M8.31 205.7a.75.75 0 0 1-.735-.608c-1.818-9.419.566-16.52 7.085-21.105a.75.75 0 1 1 .863 1.226c-5.992 4.216-8.17 10.808-6.475 19.595a.75.75 0 0 1-.738.892zm14.73 1.19a.75.75 0 0 1-.735-.606c-1.804-9.187 2.483-13.177 5.32-15.817.368-.343.718-.669 1.035-.986a.75.75 0 0 1 1.062 1.058c-.328.33-.692.67-1.075 1.026-2.749 2.558-6.513 6.062-4.87 14.43a.75.75 0 0 1-.591.88.74.74 0 0 1-.145.015zm532.181-26.61h-135.24a.75.75 0 0 1 0-1.5h135.24c23.476 0 34.897-9.608 44.822-24.035 7.252-10.557 3.216-35.226-.028-55.048-1.558-9.524-2.904-17.75-2.904-23.387 0-16.986 3.597-27.25 21.98-29.455a.75.75 0 0 1 .18 1.49c-17.368 2.082-20.66 11.435-20.66 27.965 0 5.515 1.337 13.685 2.885 23.145 3.286 20.087 7.377 45.085-.217 56.14-10.194 14.817-21.927 24.685-46.058 24.685z"/><path d="M524.611 152.06h-83.07a.75.75 0 0 1 0-1.5h83.07c25.22 0 40.05-4.862 44.079-14.45 3.465-8.25.233-29.682-2.62-48.591-1.64-10.873-3.189-21.142-3.189-27.389 0-17.202 16.56-41.03 47.65-41.03h1.128c27.689-.015 56.343-.005 71.675 10.124a29.117 29.117 0 0 1 4.437 3.596 45.582 45.582 0 0 1 12.865 31.11c0 6.09-1.526 10.966-4.295 13.731a11.454 11.454 0 0 1-9.882 3.635c-5.571-.774-11.08-5.572-15.513-13.51a37.49 37.49 0 0 0-6.038-8.169C657 51.637 644.953 47.92 626.99 47.92a62.263 62.263 0 0 0-7.697.424.75.75 0 1 1-.185-1.488 63.704 63.704 0 0 1 7.882-.436c18.388 0 30.775 3.859 38.983 12.142a38.962 38.962 0 0 1 6.282 8.492c4.137 7.41 9.389 12.059 14.41 12.756a9.889 9.889 0 0 0 8.615-3.21c2.45-2.446 3.854-7.064 3.855-12.67a44.03 44.03 0 0 0-12.425-30.05 27.625 27.625 0 0 0-4.206-3.406c-14.954-9.878-43.365-9.88-70.846-9.874h-1.128c-30.112 0-46.15 22.957-46.15 39.53 0 6.134 1.541 16.35 3.172 27.165 2.882 19.104 6.149 40.757 2.52 49.396-4.285 10.198-19.58 15.369-45.462 15.369zm-520 16.915a.745.745 0 0 1-.75-.745v-.01a.747.747 0 0 1 .052-.273c1.572-4.014 6.213-13.558 15.323-15.49a.75.75 0 0 1 .31 1.467c-8.378 1.777-12.736 10.746-14.228 14.547a.752.752 0 0 1-.707.504z"/><path d="M455.545 167.876c-6.722 0-12.532-.006-16.884-.01-2.762-.003-4.988-.006-6.55-.006a.25.25 0 0 1 0-.5c1.562 0 3.788.003 6.55.005 26.428.028 106.847.114 116.188-1.472 12.85-2.19 29.932-7.594 29.932-29.133 0-19.044-2.097-37.988-3.629-51.82-.314-2.84-.6-5.417-.83-7.675a24.384 24.384 0 0 1 5.834-19.125c6.461-7.155 17.572-10.785 33.025-10.79l.02.5c-15.325.005-26.312 3.58-32.674 10.625a23.89 23.89 0 0 0-5.707 18.74c.23 2.256.515 4.832.83 7.67 1.532 13.843 3.631 32.803 3.631 51.875 0 21.917-17.32 27.405-30.348 29.627-7.839 1.33-65.279 1.49-99.388 1.49zM665.441 59.34a.25.25 0 0 1 0-.5 16.954 16.954 0 0 0 13.441-6.285c4.387-5.408 5.735-13.453 3.794-22.653a.25.25 0 0 1 .49-.104c1.972 9.35.588 17.545-3.895 23.072a17.447 17.447 0 0 1-13.83 6.47z"/></svg></g><g transform="translate(292.0 381.0) rotate(-50.91966274490305 207.5 165.0) scale(1.6082154621197442 1.603405049268264)"><svg width="258.05" height="205.812" viewBox="0 0 258.05 205.812"><path d="M141.381 195.56c-.222 0-.448-.033-.671-.103-39.357-12.295-74.435-39.412-96.239-74.397C22.663 86.096 13.761 42.666 20.046 1.907a2.25 2.25 0 1 1 4.448.685c-6.124 39.71 2.55 82.022 23.795 116.086 21.243 34.085 55.418 60.504 93.762 72.483a2.25 2.25 0 0 1-.67 4.399zm64.392 10.289c-8.1 0-16.729-.942-26.164-2.781a2.25 2.25 0 1 1 .861-4.417c30.034 5.852 51.503 2.276 74.108-12.341a2.25 2.25 0 0 1 2.444 3.778c-16.547 10.701-32.479 15.761-51.249 15.761zM5.849 85.601a1.352 1.352 0 0 1-1.289-.949A100.714 100.714 0 0 1 0 55.328a1.349 1.349 0 0 1 1.342-1.358A1.362 1.362 0 0 1 2.7 55.312a97.982 97.982 0 0 0 4.439 28.537 1.35 1.35 0 0 1-1.29 1.752zm92.91 115.209c-.22 0-.442-.054-.648-.167-38.43-21.102-69.04-54.948-86.193-95.306a1.35 1.35 0 1 1 2.485-1.056c16.917 39.802 47.106 73.183 85.007 93.995a1.35 1.35 0 0 1-.651 2.534z"/></svg></g><g transform="translate(306.0 64.0) rotate(82.72237964830784 363.0 419.0) translate(0.0 187.43166899419128) scale(2.5594021011069588 2.555111748025734)"><svg width="250.058" height="254.614" viewBox="0 73.356 250.058 254.614"><path d="M92.83 316.415c30.1-.09 56.34-16.56 70.29-40.95 6.8-11.87 10.68-25.62 10.68-40.28 0-44.56-35.85-80.73-80.29-81.23-.31-.01-.63-.01-.94-.01-20.3 0-38.87 7.45-53.11 19.77-17.22 14.89-28.12 36.91-28.12 61.47 0 19.34 6.76 37.1 18.05 51.05 14.88 18.41 37.66 30.18 63.18 30.18zm61.22-148.88c18.4 16.68 29.96 40.77 29.96 67.56 0 14.11-3.21 27.47-8.93 39.39-7.22 15.05-18.46 27.81-32.33 36.89-14.33 9.39-31.46 14.85-49.87 14.85-.99 0-1.97-.02-2.95-.05-22.27-.71-42.53-9.41-58-23.33-18.53-16.68-30.18-40.85-30.18-67.75 0-32.11 16.61-60.34 41.71-76.57 14.24-9.22 31.21-14.56 49.42-14.56 20.67 0 39.74 6.88 55.03 18.48 2.12 1.61 4.17 3.31 6.14 5.09z" fill="#333"/><path d="M275.53 1.005c-2.27 0-4.28 1.06-5.59 2.71l-.01-.01-16.29 21.45-47.82 61.96-.22-.03-.04.37-39.86 51.85-17.49 22.75-.3.39c2.12 1.61 4.17 3.31 6.14 5.09l.36-.41s10.57-12.05 25.97-30.04c8.93-10.44 19.49-22.89 30.55-36.14l.17-.2 53.32-67.25c1.69-2.16 3.28-4.12 4.78-5.94 4.49-5.46 8.18-9.68 11.38-14.19.81-1.15 2.08-3.43 2.08-5.23 0-3.93-3.2-7.13-7.13-7.13z" fill="#333"/><path d="M92.88 327.97c-1.009 0-2.006-.02-3.004-.051-21.856-.696-42.851-9.142-59.117-23.778C11.211 286.545 0 261.377 0 235.09c0-31.654 15.892-60.827 42.51-78.039 14.994-9.709 32.412-14.841 50.37-14.841 20.451 0 39.846 6.514 56.088 18.836a95.341 95.341 0 0 1 6.258 5.188c19.404 17.591 30.534 42.688 30.534 68.856 0 14.054-3.063 27.562-9.102 40.147a93.07 93.07 0 0 1-32.949 37.597c-15.111 9.902-32.688 15.136-50.829 15.136zm0-182.26c-17.281 0-34.042 4.938-48.469 14.279C18.794 176.554 3.5 204.629 3.5 235.09c0 25.297 10.789 49.517 29.601 66.449a89.424 89.424 0 0 0 59.78 22.931c17.457 0 34.371-5.036 48.911-14.563a89.565 89.565 0 0 0 31.711-36.183c5.812-12.11 8.758-25.108 8.758-38.634 0-25.181-10.711-49.333-29.384-66.262a92.047 92.047 0 0 0-6.023-4.994c-15.63-11.857-34.293-18.124-53.974-18.124z"/><path d="M92.832 317.16h-.262c-24.877 0-48.118-11.102-63.764-30.458C17.06 272.187 10.59 253.89 10.59 235.18a81.966 81.966 0 0 1 28.38-62.037 81.933 81.933 0 0 1 53.601-19.952c.314 0 .641 0 .955.01 21.7.246 42.06 8.881 57.328 24.314 15.28 15.447 23.696 35.927 23.696 57.665 0 14.286-3.728 28.344-10.779 40.653-14.53 25.404-41.712 41.24-70.939 41.327zm-.237-162.47h-.024a80.433 80.433 0 0 0-52.62 19.587 80.468 80.468 0 0 0-27.86 60.902c0 18.367 6.351 36.33 17.883 50.579 15.359 19.003 38.176 29.901 62.598 29.901h.26c28.689-.086 55.374-15.632 69.639-40.572 6.923-12.084 10.581-25.884 10.581-39.908 0-43.883-35.686-79.986-79.549-80.479h-.015c-.296-.01-.599-.01-.893-.01zm61.815 13.43a1 1 0 0 1-.752-1.659c.105-.121 10.742-12.252 25.962-30.031a3948.524 3948.524 0 0 0 30.542-36.13l.123-.145 53.352-67.286a294.718 294.718 0 0 1 4.792-5.955 702.256 702.256 0 0 1 3.128-3.773c3.115-3.741 5.805-6.973 8.208-10.359.942-1.339 1.896-3.299 1.896-4.651 0-3.38-2.75-6.13-6.13-6.13-1.878 0-3.63.85-4.808 2.332a.889.889 0 0 1-.098.105l-16.189 21.317-48.083 62.304-57.35 74.601a1 1 0 1 1-1.586-1.218l57.61-74.938 47.82-61.963 16.286-21.443a.893.893 0 0 1 .135-.146A8.098 8.098 0 0 1 275.53 0c4.482 0 8.13 3.647 8.13 8.13 0 2.467-1.885 5.27-2.263 5.806-2.449 3.453-5.162 6.711-8.304 10.484a750.492 750.492 0 0 0-3.121 3.765 297.865 297.865 0 0 0-4.766 5.922l-53.324 67.255-.069.084-.126.147a3965.707 3965.707 0 0 1-30.548 36.138c-15.229 17.789-25.872 29.929-25.978 30.049a.995.995 0 0 1-.751.34z"/></svg></g><g transform="translate(126.0 81.0) rotate(89.60488121847922 39.5 94.5) scale(1.625514403292181 1.6212043232115285)"><svg width="48.6" height="116.58" viewBox="0 0 48.6 116.58"><path d="M.375 105.425c15.95-35.01 31.9-70.03 47.85-105.05-4.03 38.66-6.87 77.18-10.9 115.83-12.04-3.3-24.91-7.47-36.95-10.78z" fill="#3D138D"/><path d="M37.325 116.58c-.013 0-.025 0-.039-.002a.375.375 0 0 1-.334-.412c2.016-19.33 3.763-38.952 5.452-57.928 1.688-18.965 3.434-38.577 5.448-57.902a.368.368 0 0 1 .412-.334.375.375 0 0 1 .334.412c-2.014 19.32-3.76 38.928-5.447 57.891-1.69 18.979-3.437 38.604-5.453 57.939a.376.376 0 0 1-.373.336z"/><path d="M.375 105.8a.376.376 0 0 1-.341-.531C15.984 70.26 31.934 35.24 47.884.22a.374.374 0 1 1 .682.311c-15.95 35.02-31.9 70.04-47.85 105.05a.374.374 0 0 1-.341.219z"/><path d="M37.325 116.58a.38.38 0 0 1-.099-.013c-6.075-1.665-12.462-3.582-18.639-5.436-6.069-1.821-12.346-3.705-18.312-5.345a.377.377 0 0 1-.262-.461.373.373 0 0 1 .461-.262c5.974 1.643 12.254 3.527 18.327 5.35 6.173 1.853 12.556 3.768 18.621 5.43a.376.376 0 0 1-.097.737z"/></svg></g><g transform="translate(178.0 52.0) rotate(-6.042530917956092 70.5 73.0) scale(1.9405450041288193 1.9663299663299663)"><svg width="72.66" height="74.25" viewBox="0 0 72.66 74.25"><g fill="#3D138D"><path d="M69.161 53.571a3.503 3.503 0 0 1-3.27-2.249c-1.337-3.491-3.022-8.291-4.973-13.848-3.561-10.142-7.991-22.763-12.171-32.606a3.5 3.5 0 1 1 6.444-2.736c4.267 10.05 8.739 22.788 12.332 33.024 1.934 5.507 3.603 10.263 4.905 13.662a3.502 3.502 0 0 1-3.267 4.753zM47.523 74.25a3.493 3.493 0 0 1-2.806-1.404 9497.465 9497.465 0 0 1-21.596-29.034A8458.843 8458.843 0 0 0 .697 13.667a3.5 3.5 0 0 1 5.605-4.193 8987.069 8987.069 0 0 1 22.442 30.167 9280.415 9280.415 0 0 0 21.578 29.014 3.498 3.498 0 0 1-2.799 5.595z"/></g></svg></g><g transform="translate(936.0 564.0) rotate(62.439872652677494 -135.0 156.5) translate(-0.0 0.0) scale(-0.7827516329068787 0.7828346618179272)"><svg width="344.937" height="148.179" viewBox="0 0 344.937 148.179"><path d="M340.855 71.109c-7.15-23.98-25.79-43.55-48-55.08-22.2-11.53-47.69-15.6-72.71-15.26-61.09.81-121.36 28.13-162.26 73.51-40.89 45.39-61.79 108.18-56.26 169.03 5.24 57.69 32.4 112.52 76.47 149.82 2.41 2.04 4.86 4.02 7.37 5.95l40.56-59.81s-44.91-24.43-60.57-52.46l-.03-.06c-24.44-52.29-19.98-118.1 11.86-166.24s90.98-77.88 148.66-75.86l.11.09c-9.19 11.72-14.78 26.23-16.03 41.07 5.97-1.5 12.7.62 16.74 5.26 4.08 4.7 5.21 11.76 2.8 17.5-2.4 5.73-8.23 9.87-14.44 10.25l-.17.08c2.25 5.37 5.31 10.36 9.29 14.58.46.5.94.98 1.43 1.45 7.79 7.5 19.04 11.78 29.65 9.7 4.1-.8 8.13-2.6 10.92-5.72 1.9-2.13 3.12-4.95 3.27-7.77.07-1.31-.1-2.62-.54-3.87-1.38-3.95-5.64-4.66-9.34-6.11-10.48-4.68-17.89-15.58-18.4-27.05s5.92-22.97 15.94-28.57c10.03-5.59 23.2-5 32.69 1.46 8.7 5.92 13.93 16.52 13.58 27.01-.03.96-.11 1.91-.24 2.86-1.52 11.38-8.88 22.03-18.55 24.74-2.08.62-5.22 1.09-7.25 1.18-.34.02-.66.05-.98.1-4.8.83-6.71 5.89-6.83 8.25-.01.13-.01.25-.01.36.92 7.77 7.72 9.93 13.18 10.66 5.47.73 10.88-1.07 16.02-3.07 3.92-1.52 7.29-3.53 10.22-5.92l.03.04c2.38 3.53 7.07 5.05 11.28 4.37 4.2-.69 7.9-3.28 10.72-6.47s4.87-6.97 6.9-10.72c4.08-8.47 6.07-17.28 6.24-26.25.14-7.599-1.03-15.32-3.32-23.03z" fill="#3D138D"/><path d="M226.76 91.069c4.08 4.7 5.21 11.76 2.8 17.5-2.4 5.73-8.23 9.87-14.44 10.25l-.17.08h-.01c-1.68-3.99-2.93-8.19-3.78-12.42-1.37-6.8-1.72-13.77-1.14-20.67 5.97-1.5 12.7.62 16.74 5.26z" fill="#333"/><path d="M85.465 399.829a.753.753 0 0 1-.457-.155 202.115 202.115 0 0 1-7.397-5.972C34.185 356.947 6.217 302.155.879 243.377c-5.528-60.824 15.575-124.226 56.45-169.6C98.224 28.401 159.087.829 220.135.02c28.144-.366 52.725 4.78 73.066 15.344 23.922 12.42 41.553 32.66 48.373 55.532 2.361 7.95 3.489 15.775 3.351 23.258-.176 9.294-2.3 18.23-6.314 26.562a.75.75 0 1 1-1.351-.65c3.919-8.136 5.994-16.863 6.166-25.939.135-7.328-.971-15-3.289-22.802-6.704-22.484-24.063-42.396-47.627-54.628-20.119-10.45-44.469-15.533-72.355-15.177-60.638.803-121.091 28.191-161.712 73.261-40.6 45.068-61.561 108.045-56.07 168.46 5.303 58.39 33.08 112.813 76.208 149.316a203.095 203.095 0 0 0 6.712 5.44l39.653-58.472c-5.863-3.305-45.65-26.407-60.145-52.351a11.196 11.196 0 0 1-.055-.108c-12.069-25.822-17.341-55.231-15.244-85.047 2.104-29.914 11.495-58.243 27.158-81.925 15.643-23.65 38.094-43.359 64.926-56.995 26.684-13.559 55.863-20.189 84.386-19.201a.75.75 0 0 1 .723.776c-.014.415-.345.756-.776.724-58.219-2.07-116.316 27.608-148.008 75.526-31.737 47.984-36.372 112.95-11.806 165.509 15.382 27.533 59.832 51.935 60.279 52.178a.751.751 0 0 1 .262 1.08l-40.56 59.81a.748.748 0 0 1-.621.328z"/><path d="M318.296 138.49c-4.033 0-7.835-1.818-9.888-4.862a.75.75 0 1 1 1.243-.838c2.092 3.101 6.328 4.725 10.539 4.049 4.616-.759 8.137-3.806 10.277-6.228 2.772-3.134 4.821-6.919 6.803-10.58a.75.75 0 1 1 1.32.715c-2.022 3.734-4.113 7.597-6.998 10.859-2.302 2.604-6.106 5.883-11.16 6.714-.713.116-1.428.171-2.136.171zm-33.646-16.132a.751.751 0 0 1-.202-1.473c9.046-2.534 16.451-12.452 18.01-24.117.126-.923.205-1.859.233-2.783.344-10.306-4.858-20.654-13.252-26.366-9.279-6.317-22.1-6.89-31.903-1.425-9.802 5.478-16.054 16.683-15.556 27.881.499 11.216 7.715 21.825 17.957 26.398a.75.75 0 1 1-.612 1.369c-10.747-4.799-18.32-15.932-18.843-27.701-.522-11.751 6.037-23.509 16.323-29.257 10.288-5.735 23.741-5.134 33.478 1.494 8.809 5.994 14.268 16.85 13.907 27.655-.03.975-.113 1.963-.246 2.936-1.635 12.239-9.485 22.669-19.091 25.361a.715.715 0 0 1-.203.028z"/><path d="M285.286 143.072c-.872 0-1.748-.054-2.625-.171-8.418-1.124-13.07-4.932-13.825-11.314a.75.75 0 1 1 1.49-.176c.674 5.694 4.774 8.967 12.534 10.004 5.41.728 10.914-1.183 15.648-3.025a36.96 36.96 0 0 0 10.018-5.802c5.516-4.486 10.009-10.815 13.737-19.349 4.556-10.413 6-22.45 4.175-34.812a.751.751 0 0 1 .633-.852.76.76 0 0 1 .852.633c1.865 12.64.383 24.961-4.285 35.631-3.825 8.758-8.458 15.271-14.164 19.911a38.433 38.433 0 0 1-10.422 6.037c-4.161 1.62-8.907 3.285-13.766 3.285z"/><path d="M249.898 145.896c-8.722 0-17.813-3.75-24.748-10.428-.5-.479-.991-.971-1.462-1.482-3.831-4.062-6.99-9.007-9.386-14.695a.702.702 0 0 1-.053-.102c-1.65-3.919-2.937-8.146-3.824-12.563-1.361-6.756-1.749-13.781-1.152-20.88 1.267-15.047 7.016-29.774 16.187-41.471a72.768 72.768 0 0 1 5.456-6.223.75.75 0 1 1 1.069 1.053 71.302 71.302 0 0 0-5.344 6.095c-8.993 11.47-14.63 25.913-15.874 40.671-.585 6.958-.205 13.842 1.128 20.459.86 4.282 2.103 8.378 3.693 12.176.02.032.038.066.053.103 2.332 5.564 5.408 10.395 9.144 14.355.456.495.925.965 1.403 1.424 8.085 7.783 19.19 11.427 28.987 9.505 3.095-.604 7.43-2.045 10.505-5.484 1.819-2.038 2.941-4.703 3.08-7.31a9.23 9.23 0 0 0-.499-3.581c-1.011-2.896-3.842-3.876-6.839-4.914-.694-.24-1.39-.481-2.068-.747a.75.75 0 1 1 .547-1.397c.659.258 1.336.492 2.011.727 3.202 1.108 6.513 2.255 7.763 5.835.463 1.313.658 2.713.581 4.157-.157 2.94-1.417 5.939-3.459 8.229-3.354 3.751-8.016 5.311-11.336 5.958-1.818.356-3.682.53-5.563.53z"/><path d="M269.581 132.249a.75.75 0 0 1-.75-.75c0-.128.001-.268.012-.418.127-2.503 2.117-8.009 7.45-8.932.356-.056.7-.088 1.065-.109 1.841-.082 4.941-.513 7.079-1.15a.751.751 0 0 1 .429 1.438c-2.252.672-5.51 1.125-7.431 1.211a9.446 9.446 0 0 0-.898.092c-4.385.758-6.092 5.5-6.196 7.547-.01.129-.009.229-.009.322a.752.752 0 0 1-.751.749zm-54.461-13.181a.25.25 0 0 1-.015-.5c6.136-.375 11.853-4.433 14.225-10.097 2.38-5.669 1.272-12.597-2.758-17.239-3.985-4.575-10.613-6.654-16.49-5.182-.068.013-.116.021-.163.035a.244.244 0 0 1-.315-.16.249.249 0 0 1 .16-.314c.072-.024.145-.038.218-.05 6.036-1.519 12.863.628 16.969 5.343 4.152 4.783 5.294 11.921 2.842 17.761-2.444 5.836-8.334 10.017-14.655 10.403h-.018z"/></svg></g><g transform="translate(127.0 144.0) rotate(-31.05316226940445 300.0 272.5) scale(8.104275005065173 8.093017730391137)"><svg width="74.035" height="67.342" viewBox="0 0 74.035 67.342"><g><path d="M24.917 2.732c.825-2.057-2.382-3.46-3.495-1.602-1.904 3.178-4.61 8.571-6.099 11.823-2.578 5.631-3.812 6.561-6.659 9.629-.512.552-3.061 2.693-3.586 2.071-.572-.678 1.104-6.053 1.365-7.137 1.026-4.254 3.767-7.745 5.37-11.832 1.733-4.418-2.221-5.748-3.474-3.192C6.687 5.866 4.62 9.275 3.288 12.853 2.065 16.138.999 19.53.281 22.964c-.785 3.753-.15 8.5 4.867 7.967.841-.089 4.652-1.753 5.494-2.187-2.515 8.891-7.09 14.758-5.521 16.241 1.72 1.626 3.211 1.885 4.888.394 2.638-2.344 3.372-5.326 4.627-8.559a150.32 150.32 0 0 0 3.836-11.237c2.259-7.524 5.04-15.112 6.445-22.851zm25.09 2.376c-.957-3.409-4.39-5.242-7.735-5.1-9.89.419-13.7 14.528-16.776 21.876-2.396 5.724-4.73 11.517-6.772 17.379-1.549 4.447-2.076 8.821 3.05 10.715 1.099.406 4.126-.109 7.106-2.62 6.621-5.579 12.326-18.505 17.529-29.87 1.612-3.522 4.735-8.332 3.598-12.38zM45.182 8.37c-.288 3.12-3.404 7.592-4.868 10.422-1.606 3.105-3.185 6.229-4.874 9.29-3.006 5.447-6.05 10.819-9.64 15.873-.883 1.049-2.157.078-1.925-.84.156-.619 6.088-17.368 7.066-19.549 1.519-3.391 2.633-6.96 4.091-10.378.723-1.696 1.458-3.48 2.554-4.987 1.681-2.309 8.171-6.053 7.596.169zm24.813 9.203c-2.895 5.166-5.881 10.278-8.884 15.379-2.881 3.295-10.446 12.485-11.797 8.185-1.621-5.16 5.118-22.142 10.523-32.283 1.06-1.988-1.512-5.488-4.244-1.663-8.31 11.635-11.761 20.697-12.215 35.488-.172 5.596 3.836 8.046 5.907 6.765a57.843 57.843 0 0 0 3.545-2.392c-2.861 4.916-5.682 9.854-8.393 14.857-2.15 3.968 3.801 7.717 5.959 3.734 6.192-11.426 11.815-23.139 17.639-34.754a63.525 63.525 0 0 0 5.863-11.527c.88-2.284-2.707-3.922-3.903-1.789z"/></g></svg></g><g transform="translate(136.0 139.0) rotate(-31.05316226940445 296.5 269.0) scale(8.009725130006078 7.989070713670518)"><svg width="74.035" height="67.342" viewBox="0 0 74.035 67.342"><g fill="#7E4CDB"><path d="M24.917 2.732c.825-2.057-2.382-3.46-3.495-1.602-1.904 3.178-4.61 8.571-6.099 11.823-2.578 5.631-3.812 6.561-6.659 9.629-.512.552-3.061 2.693-3.586 2.071-.572-.678 1.104-6.053 1.365-7.137 1.026-4.254 3.767-7.745 5.37-11.832 1.733-4.418-2.221-5.748-3.474-3.192C6.687 5.866 4.62 9.275 3.288 12.853 2.065 16.138.999 19.53.281 22.964c-.785 3.753-.15 8.5 4.867 7.967.841-.089 4.652-1.753 5.494-2.187-2.515 8.891-7.09 14.758-5.521 16.241 1.72 1.626 3.211 1.885 4.888.394 2.638-2.344 3.372-5.326 4.627-8.559a150.32 150.32 0 0 0 3.836-11.237c2.259-7.524 5.04-15.112 6.445-22.851zm25.09 2.376c-.957-3.409-4.39-5.242-7.735-5.1-9.89.419-13.7 14.528-16.776 21.876-2.396 5.724-4.73 11.517-6.772 17.379-1.549 4.447-2.076 8.821 3.05 10.715 1.099.406 4.126-.109 7.106-2.62 6.621-5.579 12.326-18.505 17.529-29.87 1.612-3.522 4.735-8.332 3.598-12.38zM45.182 8.37c-.288 3.12-3.404 7.592-4.868 10.422-1.606 3.105-3.185 6.229-4.874 9.29-3.006 5.447-6.05 10.819-9.64 15.873-.883 1.049-2.157.078-1.925-.84.156-.619 6.088-17.368 7.066-19.549 1.519-3.391 2.633-6.96 4.091-10.378.723-1.696 1.458-3.48 2.554-4.987 1.681-2.309 8.171-6.053 7.596.169zm24.813 9.203c-2.895 5.166-5.881 10.278-8.884 15.379-2.881 3.295-10.446 12.485-11.797 8.185-1.621-5.16 5.118-22.142 10.523-32.283 1.06-1.988-1.512-5.488-4.244-1.663-8.31 11.635-11.761 20.697-12.215 35.488-.172 5.596 3.836 8.046 5.907 6.765a57.843 57.843 0 0 0 3.545-2.392c-2.861 4.916-5.682 9.854-8.393 14.857-2.15 3.968 3.801 7.717 5.959 3.734 6.192-11.426 11.815-23.139 17.639-34.754a63.525 63.525 0 0 0 5.863-11.527c.88-2.284-2.707-3.922-3.903-1.789z"/></g></svg></g><g transform="translate(306.0 64.0) rotate(82.72237964830784 363.0 419.0) translate(276.68484470571104 333.21185598967344) scale(2.5594021011069588 2.555111748025734)"><svg width="85.958" height="171.03" viewBox="108.105 130.41 85.958 171.03"><path d="M92.83 316.415c30.1-.09 56.34-16.56 70.29-40.95 6.8-11.87 10.68-25.62 10.68-40.28 0-44.56-35.85-80.73-80.29-81.23-.31-.01-.63-.01-.94-.01-20.3 0-38.87 7.45-53.11 19.77-17.22 14.89-28.12 36.91-28.12 61.47 0 19.34 6.76 37.1 18.05 51.05 14.88 18.41 37.66 30.18 63.18 30.18zm61.22-148.88c18.4 16.68 29.96 40.77 29.96 67.56 0 14.11-3.21 27.47-8.93 39.39-7.22 15.05-18.46 27.81-32.33 36.89-14.33 9.39-31.46 14.85-49.87 14.85-.99 0-1.97-.02-2.95-.05-22.27-.71-42.53-9.41-58-23.33-18.53-16.68-30.18-40.85-30.18-67.75 0-32.11 16.61-60.34 41.71-76.57 14.24-9.22 31.21-14.56 49.42-14.56 20.67 0 39.74 6.88 55.03 18.48 2.12 1.61 4.17 3.31 6.14 5.09z" fill="#333"/><path d="M275.53 1.005c-2.27 0-4.28 1.06-5.59 2.71l-.01-.01-16.29 21.45-47.82 61.96-.22-.03-.04.37-39.86 51.85-17.49 22.75-.3.39c2.12 1.61 4.17 3.31 6.14 5.09l.36-.41s10.57-12.05 25.97-30.04c8.93-10.44 19.49-22.89 30.55-36.14l.17-.2 53.32-67.25c1.69-2.16 3.28-4.12 4.78-5.94 4.49-5.46 8.18-9.68 11.38-14.19.81-1.15 2.08-3.43 2.08-5.23 0-3.93-3.2-7.13-7.13-7.13z" fill="#333"/><path d="M92.88 327.97c-1.009 0-2.006-.02-3.004-.051-21.856-.696-42.851-9.142-59.117-23.778C11.211 286.545 0 261.377 0 235.09c0-31.654 15.892-60.827 42.51-78.039 14.994-9.709 32.412-14.841 50.37-14.841 20.451 0 39.846 6.514 56.088 18.836a95.341 95.341 0 0 1 6.258 5.188c19.404 17.591 30.534 42.688 30.534 68.856 0 14.054-3.063 27.562-9.102 40.147a93.07 93.07 0 0 1-32.949 37.597c-15.111 9.902-32.688 15.136-50.829 15.136zm0-182.26c-17.281 0-34.042 4.938-48.469 14.279C18.794 176.554 3.5 204.629 3.5 235.09c0 25.297 10.789 49.517 29.601 66.449a89.424 89.424 0 0 0 59.78 22.931c17.457 0 34.371-5.036 48.911-14.563a89.565 89.565 0 0 0 31.711-36.183c5.812-12.11 8.758-25.108 8.758-38.634 0-25.181-10.711-49.333-29.384-66.262a92.047 92.047 0 0 0-6.023-4.994c-15.63-11.857-34.293-18.124-53.974-18.124z"/><path d="M92.832 317.16h-.262c-24.877 0-48.118-11.102-63.764-30.458C17.06 272.187 10.59 253.89 10.59 235.18a81.966 81.966 0 0 1 28.38-62.037 81.933 81.933 0 0 1 53.601-19.952c.314 0 .641 0 .955.01 21.7.246 42.06 8.881 57.328 24.314 15.28 15.447 23.696 35.927 23.696 57.665 0 14.286-3.728 28.344-10.779 40.653-14.53 25.404-41.712 41.24-70.939 41.327zm-.237-162.47h-.024a80.433 80.433 0 0 0-52.62 19.587 80.468 80.468 0 0 0-27.86 60.902c0 18.367 6.351 36.33 17.883 50.579 15.359 19.003 38.176 29.901 62.598 29.901h.26c28.689-.086 55.374-15.632 69.639-40.572 6.923-12.084 10.581-25.884 10.581-39.908 0-43.883-35.686-79.986-79.549-80.479h-.015c-.296-.01-.599-.01-.893-.01zm61.815 13.43a1 1 0 0 1-.752-1.659c.105-.121 10.742-12.252 25.962-30.031a3948.524 3948.524 0 0 0 30.542-36.13l.123-.145 53.352-67.286a294.718 294.718 0 0 1 4.792-5.955 702.256 702.256 0 0 1 3.128-3.773c3.115-3.741 5.805-6.973 8.208-10.359.942-1.339 1.896-3.299 1.896-4.651 0-3.38-2.75-6.13-6.13-6.13-1.878 0-3.63.85-4.808 2.332a.889.889 0 0 1-.098.105l-16.189 21.317-48.083 62.304-57.35 74.601a1 1 0 1 1-1.586-1.218l57.61-74.938 47.82-61.963 16.286-21.443a.893.893 0 0 1 .135-.146A8.098 8.098 0 0 1 275.53 0c4.482 0 8.13 3.647 8.13 8.13 0 2.467-1.885 5.27-2.263 5.806-2.449 3.453-5.162 6.711-8.304 10.484a750.492 750.492 0 0 0-3.121 3.765 297.865 297.865 0 0 0-4.766 5.922l-53.324 67.255-.069.084-.126.147a3965.707 3965.707 0 0 1-30.548 36.138c-15.229 17.789-25.872 29.929-25.978 30.049a.995.995 0 0 1-.751.34z"/></svg></g><g transform="translate(862.0 744.0) rotate(0.0 47.0 49.5) translate(27.948938232763375 0.0) scale(0.9569767678618696 0.9498771875959472)"><svg width="69.021" height="100.013" viewBox="29.205 0 69.021 100.013"><path d="M97.041 5.331c1.89 4.22-.4 9.21-3.58 12.57-3.18 3.35-7.25 5.84-10.08 9.49-2.83 3.66-4.04 9.29-.97 12.74 1.83 2.07 4.8 2.91 6.51 5.08 2.72 3.43.99 8.85-2.48 11.52-3.47 2.66-7.05 1.26-11.41 1.65-3.34.3-7.65 1.44-7.83 4.79-.09 1.71.81 3.31 1.66 4.79 3.53 6.09 1.47 11.63-6.06 13.13-5.17 1.03-19.66-3.66-15.87 2.75 4.9 8.32-1.15 17.66-15.89 13.09-11.72-3.63-6.26 5.33-16.84 6.52-3.64.4-10.37.87-12.8-2.64-3.43-4.98 3.78-7.02 7.49-9.62 8.98-6.27 16.66-14.13 24.39-21.87 16.83-16.87 28.12-37.82 38.54-55.14 2.85-4.74 5.93-9.72 10.82-12.3 4.9-2.59 12.13-1.59 14.4 3.45z" fill="#3D138D"/><path d="M9.89 104.228c-3.242 0-7.123-.565-8.9-3.132-.856-1.244-1.158-2.436-.897-3.544.527-2.24 3.18-3.706 5.744-5.123 1.014-.56 1.972-1.089 2.768-1.647 8.443-5.896 15.858-13.329 23.03-20.518l1.293-1.295c14.457-14.492 24.881-32.116 34.077-47.666 1.487-2.515 2.946-4.982 4.388-7.378C74.01 9.569 77.268 4.15 82.408 1.439c2.977-1.574 6.778-1.881 9.923-.802 2.434.835 4.22 2.388 5.166 4.489 2.071 4.624-.539 9.809-3.673 13.119-1.362 1.435-2.898 2.726-4.384 3.974-1.997 1.677-4.062 3.412-5.664 5.479-2.65 3.428-3.899 8.834-.992 12.101.829.937 1.902 1.607 3.038 2.315 1.252.781 2.546 1.588 3.491 2.788 1.155 1.456 1.633 3.311 1.381 5.363-.319 2.605-1.833 5.235-3.948 6.863-2.539 1.946-5.136 1.842-7.886 1.732-1.213-.048-2.467-.098-3.784.019-2.158.194-7.198 1.003-7.376 4.319-.084 1.594.808 3.146 1.595 4.514 1.844 3.181 2.236 6.316 1.103 8.825-1.153 2.553-3.747 4.297-7.499 5.045-1.837.366-4.762.044-7.588-.267-3.405-.375-7.643-.841-8.388.314-.31.48.067 1.33.439 1.958 2.34 3.973 2.312 8.312-.073 11.323-3.063 3.87-9.04 4.779-16.396 2.499-6.072-1.881-7.173-.323-8.698 1.832-1.305 1.846-2.93 4.144-7.938 4.707-.933.102-2.55.28-4.367.28zM88.374.997c-1.909 0-3.842.45-5.499 1.326-4.894 2.582-7.939 7.647-10.625 12.115-1.441 2.395-2.898 4.859-4.385 7.372-9.227 15.601-19.684 33.282-34.23 47.864l-1.292 1.295C25.141 78.189 17.694 85.655 9.178 91.6c-.839.588-1.819 1.13-2.856 1.703-2.374 1.312-4.829 2.668-5.255 4.477-.196.833.048 1.731.747 2.746 2.433 3.514 9.885 2.696 12.333 2.427 4.561-.513 5.979-2.52 7.231-4.29 1.635-2.31 3.044-4.306 9.811-2.21 6.843 2.121 12.565 1.311 15.317-2.164 2.121-2.68 2.119-6.587-.005-10.195-.759-1.284-.896-2.268-.418-3.009 1.08-1.675 4.909-1.253 9.337-.766 2.753.303 5.598.616 7.283.28 3.422-.682 5.768-2.229 6.783-4.475.997-2.207.621-5.017-1.058-7.914-.814-1.417-1.826-3.177-1.727-5.067.212-3.95 5.281-4.992 8.284-5.262 1.384-.124 2.67-.072 3.914-.022 2.674.107 4.987.199 7.236-1.526 1.91-1.47 3.276-3.843 3.565-6.192.152-1.241.072-3.051-1.173-4.621-.839-1.064-2.003-1.791-3.236-2.56-1.146-.715-2.333-1.455-3.257-2.5-3.265-3.668-1.947-9.631.949-13.377 1.669-2.152 3.774-3.921 5.812-5.632 1.465-1.23 2.979-2.502 4.302-3.896 2.777-2.934 5.357-7.844 3.486-12.021-1.049-2.327-3.068-3.434-4.578-3.953a11.265 11.265 0 0 0-3.631-.584zM71.821 14.181h.01z"/></svg></g><g transform="translate(278.0 60.0) rotate(82.72237964830784 342.0 395.0) translate(477.9035660289831 0.0) scale(2.4113375167453994 2.4087568984968137)"><svg width="85.015" height="82.2" viewBox="198.19 0 85.015 82.2"><path d="M92.83 316.415c30.1-.09 56.34-16.56 70.29-40.95 6.8-11.87 10.68-25.62 10.68-40.28 0-44.56-35.85-80.73-80.29-81.23-.31-.01-.63-.01-.94-.01-20.3 0-38.87 7.45-53.11 19.77-17.22 14.89-28.12 36.91-28.12 61.47 0 19.34 6.76 37.1 18.05 51.05 14.88 18.41 37.66 30.18 63.18 30.18zm61.22-148.88c18.4 16.68 29.96 40.77 29.96 67.56 0 14.11-3.21 27.47-8.93 39.39-7.22 15.05-18.46 27.81-32.33 36.89-14.33 9.39-31.46 14.85-49.87 14.85-.99 0-1.97-.02-2.95-.05-22.27-.71-42.53-9.41-58-23.33-18.53-16.68-30.18-40.85-30.18-67.75 0-32.11 16.61-60.34 41.71-76.57 14.24-9.22 31.21-14.56 49.42-14.56 20.67 0 39.74 6.88 55.03 18.48 2.12 1.61 4.17 3.31 6.14 5.09z" fill="#333"/><path d="M275.53 1.005c-2.27 0-4.28 1.06-5.59 2.71l-.01-.01-16.29 21.45-47.82 61.96-.22-.03-.04.37-39.86 51.85-17.49 22.75-.3.39c2.12 1.61 4.17 3.31 6.14 5.09l.36-.41s10.57-12.05 25.97-30.04c8.93-10.44 19.49-22.89 30.55-36.14l.17-.2 53.32-67.25c1.69-2.16 3.28-4.12 4.78-5.94 4.49-5.46 8.18-9.68 11.38-14.19.81-1.15 2.08-3.43 2.08-5.23 0-3.93-3.2-7.13-7.13-7.13z" fill="#333"/><path d="M92.88 327.97c-1.009 0-2.006-.02-3.004-.051-21.856-.696-42.851-9.142-59.117-23.778C11.211 286.545 0 261.377 0 235.09c0-31.654 15.892-60.827 42.51-78.039 14.994-9.709 32.412-14.841 50.37-14.841 20.451 0 39.846 6.514 56.088 18.836a95.341 95.341 0 0 1 6.258 5.188c19.404 17.591 30.534 42.688 30.534 68.856 0 14.054-3.063 27.562-9.102 40.147a93.07 93.07 0 0 1-32.949 37.597c-15.111 9.902-32.688 15.136-50.829 15.136zm0-182.26c-17.281 0-34.042 4.938-48.469 14.279C18.794 176.554 3.5 204.629 3.5 235.09c0 25.297 10.789 49.517 29.601 66.449a89.424 89.424 0 0 0 59.78 22.931c17.457 0 34.371-5.036 48.911-14.563a89.565 89.565 0 0 0 31.711-36.183c5.812-12.11 8.758-25.108 8.758-38.634 0-25.181-10.711-49.333-29.384-66.262a92.047 92.047 0 0 0-6.023-4.994c-15.63-11.857-34.293-18.124-53.974-18.124z"/><path d="M92.832 317.16h-.262c-24.877 0-48.118-11.102-63.764-30.458C17.06 272.187 10.59 253.89 10.59 235.18a81.966 81.966 0 0 1 28.38-62.037 81.933 81.933 0 0 1 53.601-19.952c.314 0 .641 0 .955.01 21.7.246 42.06 8.881 57.328 24.314 15.28 15.447 23.696 35.927 23.696 57.665 0 14.286-3.728 28.344-10.779 40.653-14.53 25.404-41.712 41.24-70.939 41.327zm-.237-162.47h-.024a80.433 80.433 0 0 0-52.62 19.587 80.468 80.468 0 0 0-27.86 60.902c0 18.367 6.351 36.33 17.883 50.579 15.359 19.003 38.176 29.901 62.598 29.901h.26c28.689-.086 55.374-15.632 69.639-40.572 6.923-12.084 10.581-25.884 10.581-39.908 0-43.883-35.686-79.986-79.549-80.479h-.015c-.296-.01-.599-.01-.893-.01zm61.815 13.43a1 1 0 0 1-.752-1.659c.105-.121 10.742-12.252 25.962-30.031a3948.524 3948.524 0 0 0 30.542-36.13l.123-.145 53.352-67.286a294.718 294.718 0 0 1 4.792-5.955 702.256 702.256 0 0 1 3.128-3.773c3.115-3.741 5.805-6.973 8.208-10.359.942-1.339 1.896-3.299 1.896-4.651 0-3.38-2.75-6.13-6.13-6.13-1.878 0-3.63.85-4.808 2.332a.889.889 0 0 1-.098.105l-16.189 21.317-48.083 62.304-57.35 74.601a1 1 0 1 1-1.586-1.218l57.61-74.938 47.82-61.963 16.286-21.443a.893.893 0 0 1 .135-.146A8.098 8.098 0 0 1 275.53 0c4.482 0 8.13 3.647 8.13 8.13 0 2.467-1.885 5.27-2.263 5.806-2.449 3.453-5.162 6.711-8.304 10.484a750.492 750.492 0 0 0-3.121 3.765 297.865 297.865 0 0 0-4.766 5.922l-53.324 67.255-.069.084-.126.147a3965.707 3965.707 0 0 1-30.548 36.138c-15.229 17.789-25.872 29.929-25.978 30.049a.995.995 0 0 1-.751.34z"/></svg></g></svg>