<svg xmlns="http://www.w3.org/2000/svg" viewBox="0 0 1200 800" width="1200" height="800"><path fill="#FFF" d="M0 0h1200v800H0z"/><g transform="translate(369.0 171.0) rotate(0.0 231.5 229.0) scale(1.00022467249663 1.0006751279793573)"><svg width="462.896" height="457.691" viewBox="0 0 462.896 457.691"><path d="M258.139 219.049c5.73-7.7 11.51-15.29 18.01-22.83 20.5-23.77 38.94-64.18 25.29-87.14-18.55-31.2-74.89-8.8-86.4-5.21l-.32-.9c11.31-12.19 22.34-21.72 34.83-32.7l-34.41-7.63 27.3-24.45c-2.95-.04-33.11-1-33.11-1l4.04-12.9c15.58-4.86 35.59-8.56 53.3-9.39h.02c13.1.21 78.39 3.87 97.39 55.88 21.14 57.9-7.8 121.02-29.08 152.09l.11.08c-15.23 21.48-31.25 43.2-39.05 70.69 23.48-.6 48.33-1.63 70.1 2.2 3.09.55 6.16 1.16 9.23 1.86l.85.2c4.32 1 8.61 2.17 12.84 3.52 3.97-26.19 11.85-48.29 25.93-68.17h.02c.58 4.75 1.09 9.48 1.78 14.27 8.15-.85 16.3-1.11 24.46-1.96 1.31 3.05 2.58 6.14 3.85 9.23l-.31.13c-3.52 21.89-13.25 41.9-25.29 60.28 2.65 1.66 5.01 3.45 7.52 5.35l.24.18.48.01.27.57c17.15 13.31 30.22 32.53 33.41 53.99 3.26 21.86-4.84 48.76-22.56 61.98-14.02 10.45-33.12 15.46-50.51 17.36-35.3 3.84-70.17 2.17-105.47.08l.04-.69c-26.15-1.93-40.9-7.8-53.01-25.45-22.71-33.09-16.44-90.05-11.22-121.77 4.54-27.59 16.41-55.67 33.89-80.32 1.86-2.5 3.7-4.98 5.54-7.44zm174.65 196.75c14.23-4.05 16.76-19.12 15.29-24.13-1.8-6.14-7.87-10.59-14.25-11.05s-12.75 2.81-16.62 7.9c-10.04 13.24-4.14 32.88 15.58 27.28zm-8.24-141.49c1.04-5.76 1.8-14.94-5.45-13.18-2.38.58-5.29 3.31-6.94 5.11-6.3 6.83-10.14 15.8-10.66 25.08-.18 3.27.49 6.15 2.46 7.77 1.08.89 2.57 1.39 4.52 1.37 2.24-.03 4.08-1.72 5.55-3.41 4.89-5.64 8.3-12.53 9.92-19.81.17-.77.39-1.78.6-2.93zm-22.4 81.48c.03-6.43-.25-13.6-4.84-18.09-4.91-4.79-14.04-4.06-18.11 1.46-3.01 4.08-3.15 9.53-3.15 14.59.02 11.87.3 23.72.56 35.58.17 7.77 4.36 18.16 14.24 16.65 4.5-.68 7.99-4.53 9.58-8.78 1.59-4.26 1.62-8.91 1.63-13.45l.09-27.96zm-10.04 84.75c4.42-.31 5.4-8.98-1.29-8.96l-105.24 1.23c-2.71-.16-3.95 1.48-4.19 3.55-.23 2.08.6 4.56 4.05 4.64 34.08-.1 65.16-.24 99.24-.34 0 0 5.08.05 7.43-.12zm-99.46-109.26c.28-9.36.89-16.84-3.57-23.61-3.96-6.01-11.13-10.29-18.27-11.2-7.26-.93-15.1 1.46-20.69 6.18-4.66 3.95-7.34 9.84-8.51 15.84-1.18 6-.99 12.17-.8 18.27l2.1 66.34c.81 8.82 3.53 14.37 10.26 20.12 6.72 5.76 19.23 5.91 26.55.94 10.33-7.02 9.98-16.88 10.64-27.12 1.43-21.92 1.64-43.81 2.29-65.76z" fill="#7E4CDB"/><path d="M448.079 391.669c1.47 5.01-1.06 20.08-15.29 24.13-19.72 5.6-25.62-14.04-15.58-27.28 3.87-5.09 10.24-8.36 16.62-7.9s12.45 4.91 14.25 11.05z" fill="#00739D"/><path d="M445.119 254.789c1.74 4.22 3.46 8.46 5.25 12.63-4.64 22.47-12.55 37.7-22.61 53.32l-.48-.01-.24-.18c-2.51-1.9-4.87-3.69-7.52-5.35 12.04-18.38 21.77-38.39 25.29-60.28zm-26.02 6.34c7.25-1.76 6.49 7.42 5.45 13.18l-.7-.09c-2.04-3.32-5.29-4.31-9.44-.77-6.89 5.87-8.42 16.84-9.3 25.49l-1.15.15c-1.97-1.62-2.64-4.5-2.46-7.77.52-9.28 4.36-18.25 10.66-25.08 1.65-1.8 4.56-4.53 6.94-5.11z" fill="#FF4040"/><path d="m423.849 274.219.7.09c-.21 1.15-.43 2.16-.6 2.93-1.62 7.28-5.03 14.17-9.92 19.81-1.47 1.69-3.31 3.38-5.55 3.41-1.95.02-3.44-.48-4.52-1.37l1.15-.15c.88-8.65 2.41-19.62 9.3-25.49 4.15-3.54 7.4-2.55 9.44.77z" fill="#00739D"/><path d="M415.029 233.249h-.02c-14.08 19.88-21.96 41.98-25.93 68.17-4.23-1.35-8.52-2.52-12.84-3.52l-.85-.2.52-.03c2.67-22.44 8.62-43.95 18.07-64.49l-.03-.44c6.7-2.4 13.43-4.34 20.14-6.74.35 2.43.65 4.84.94 7.25z" fill="#FF4040"/><path d="M397.309 337.699c4.59 4.49 4.87 11.66 4.84 18.09l-.09 27.96c-.01 4.54-.04 9.19-1.63 13.45-1.59 4.25-5.08 8.1-9.58 8.78-9.88 1.51-14.07-8.88-14.24-16.65-.26-11.86-.54-23.71-.56-35.58 0-5.06.14-10.51 3.15-14.59 4.07-5.52 13.2-6.25 18.11-1.46z" fill="#6FFFB0"/><path d="M390.819 431.579c6.69-.02 5.71 8.65 1.29 8.96-2.35.17-7.43.12-7.43.12-34.08.1-65.16.24-99.24.34-3.45-.08-4.28-2.56-4.05-4.64.24-2.07 1.48-3.71 4.19-3.55l105.24-1.23z" fill="#010100"/><path d="M369.919 59.539c16.88 37.78 11.19 78.37-9.85 123.1-6.67 14.19-15.67 27.21-24.96 40.31l-.11-.08c21.28-31.07 50.22-94.19 29.08-152.09-19-52.01-84.29-55.67-97.39-55.88 4.03-.18 7.95-.22 11.67-.09 65.74 2.3 84.58 29.09 91.56 44.73z" fill="#FF4040"/><path d="M289.079 307.669c4.46 6.77 3.85 14.25 3.57 23.61-.65 21.95-.86 43.84-2.29 65.76-.66 10.24-.31 20.1-10.64 27.12-7.32 4.97-19.83 4.82-26.55-.94-6.73-5.75-9.45-11.3-10.26-20.12l-2.1-66.34c-.19-6.1-.38-12.27.8-18.27 1.17-6 3.85-11.89 8.51-15.84 5.59-4.72 13.43-7.11 20.69-6.18 7.14.91 14.31 5.19 18.27 11.2zm-3.7 23.07c.18-6.01.29-12.33-2.54-17.63-2.79-5.24-8.45-8.84-14.38-9.12-5.93-.27-11.91 2.82-15.09 7.83-3.52 5.56-3.48 12.58-3.32 19.16.57 23.89.13 47.77.7 71.65.3 17.38 18.71 19.17 25.44 14.12 6.29-4.71 7.07-13.69 7.3-21.55l1.89-64.46z" fill="#00739D"/><path d="M282.839 313.109c2.83 5.3 2.72 11.62 2.54 17.63l-1.89 64.46c-.23 7.86-1.01 16.84-7.3 21.55-6.73 5.05-25.14 3.26-25.44-14.12-.57-23.88-.13-47.76-.7-71.65-.16-6.58-.2-13.6 3.32-19.16 3.18-5.01 9.16-8.1 15.09-7.83 5.93.28 11.59 3.88 14.38 9.12z" fill="#FFCA58"/><path d="m282.939 454.029-.04.69-17.04-1.02c-21.68-1.28-36.56-6.22-48.23-17.75-10.61-10.5-15.02-25.62-16.01-37.76-1.52-21.16-1.24-40.33.88-58.06.55-4.61 1.23-9.12 2.02-13.54 2.84-15.66 7.25-30.22 13.28-44.11 7.04-16.26 16.3-31.59 27.82-46.69 2.39-3.13 4.7-6.23 6.98-9.3-17.48 24.65-29.35 52.73-33.89 80.32-5.22 31.72-11.49 88.68 11.22 121.77 12.11 17.65 26.86 23.52 53.01 25.45z" fill="#FF4040"/><path d="m217.709 282.439.09.04c-6.03 13.89-10.44 28.45-13.28 44.11h-.01c-19.98-9.99-37.42-29.57-50.15-50.32-21.1-34.4-38.99-79.79-51.56-107.86l-1.43-.4c.98-1.02 1.98-2.05 3.01-3.09 8.94-9.1 19-17.94 29.45-26.32l.94 1.19c11.47 33.91 24.52 63.77 40.58 95.78 12.04 24 27.96 45.54 42.36 46.87z" fill="#FF4040"/><path d="M88.979 255.159a53.58 53.58 0 0 0-3.68-4.14c-5.94-5.99-13.8-10.44-22.23-10.81-1.8-.08-3.62.06-5.41.4-6.56 1.25-12.63 5.21-15.44 11.21-2.21 4.71-2.3 10.24-.94 15.26 1.35 5.03 4.06 9.6 7.23 13.72 9.16 11.91 23.67 23.13 39.62 20.57 5.58-.9 10.35-3.56 12.73-8.17.55-1.06.97-2.23 1.25-3.5 1.23-5.7-.25-12.49-2.86-17.7-2.94-5.88-6.17-11.71-10.27-16.84zm122.98-185.77-32.93 36.72c-14.47 9.47-30.24 20.5-45.2 32.49-10.45 8.38-20.51 17.22-29.45 26.32-1.03 1.04-2.03 2.07-3.01 3.09-2.95 3.07-5.67 6.03-8.07 8.99-5.29 6.55-8.99 13.08-10.03 20.66-1.35 9.79 2.42 28.14 24.26 54.33 9.28 11.53 15.55 19.94 15.78 36.6.31 22.18-22.15 37.34-42.55 33.77-12.89-2.26-24.19-10.26-33.32-19.64-9.14-9.38-16.92-17.79-24.01-28.79-1.4-1.99-2.73-3.99-4-5.99a.055.055 0 0 1-.03-.05c-12.02-20.6-13.47-50.37-7.57-72.98 6.5-24.93 21.11-46.98 37.31-67.01 18.39-22.75 43.82-48.49 66.49-66.97l-.12-.16c18.17-13.41 37.03-25.88 56.72-37.34l.94.23-3.33 13.67 29.38.94s-13.41 18.64-19.79 29.22z" fill="#7E4CDB"/><path d="m160.629 306.709-.2-.28c-32.13-43.2-49.48-85.49-67.03-129.35l-.1-.08c2.4-2.96 5.12-5.92 8.07-8.99l1.43.4c12.57 28.07 30.46 73.46 51.56 107.86 12.73 20.75 30.17 40.33 50.15 50.32h.01c-.79 4.42-1.47 8.93-2.02 13.54l-.42-.05-.05-.14c-4.66-2.22-9.11-4.76-13.34-7.59-5.35-3.57-10.36-7.6-15.04-12.03l-.23-.2a144.743 144.743 0 0 1-24.32 16.5c3.08.38 6.11 1.99 7.7 4.66 1.61 2.71 1.42 6.52-.84 8.71-1.83 1.79-4.66 2.25-7.17 1.74s-4.76-1.87-6.86-3.34c-3.42-2.4-6.8-5.51-7.48-9.63-.78-4.69 2.16-9.13 5.2-12.79 5.62-6.79 13.63-13.89 20.98-19.26z" fill="#FF4040"/><g fill="#FF4040"><path d="M188.009 353.809c2.22.99 4.27 2.5 5.41 4.63 1.23 2.29 1.2 5.36-.53 7.29-1.53 1.71-4.01 2.22-6.3 2.15-5.61-.18-11.37-4.13-12.04-9.71-.55-4.54 2.18-8.76 4.79-12.51 3.13-4.51 6.14-8.69 9.27-13.2l.08-.11c4.23 2.83 8.68 5.37 13.34 7.59l.05.14c-4.69 4.57-9.37 9.14-14.06 13.7zm-84.33-284.1c3.91-3.02 7.85-6 11.83-8.94l.12.16c-22.67 18.48-48.1 44.22-66.49 66.97-16.2 20.03-30.81 42.08-37.31 67.01-5.9 22.61-4.45 52.38 7.57 72.98-18.24-28.69-23.45-58.12-14.08-87.66 9.15-28.88 30.79-51.96 53.15-72.41l.96-.87c2.77-2.53 5.56-5.04 8.37-7.51 11.67-10.33 23.61-20.25 35.88-29.73z"/><path d="M47.329 81.999c-8.03 3.8-16.05 7.61-24.07 11.41 4.66 5.27 5.8 19.54-1.57 20.35-1.84.2-4.48-1.08-5.74-2.43-4.77-5.16-7.97-11.77-9.04-18.71-.44-2.81-.52-5.76.49-8.41 1.02-2.65 3.21-3.78 5.21-4.69 9.05-4.74 18.08-9.48 27.13-14.21.23-.13.47-.25.7-.37l.15-.17c-5.36-12.15-5.33-26.57.08-38.7 2.82-6.31 7.18-12.12 13.19-15.52 6.02-3.4 15.09-3.79 21.58.61 5.77 6.51 9.31 14.64 12.75 22.63 5.17 11.97 10.33 23.95 15.49 35.92-12.27 9.48-24.21 19.4-35.88 29.73l-.56-.63c-3.37-7.03-7.12-14.26-10.48-21.28-3.14 1.49-6.29 2.98-9.43 4.47z"/></g><path d="M88.979 255.159c4.1 5.13 7.33 10.96 10.27 16.84 2.61 5.21 4.09 12 2.86 17.7-.28 1.27-.7 2.44-1.25 3.5-12.95.15-26.12-7.85-33.19-17.4-7.07-9.57-16.08-19.45-9.92-34.68l-.09-.51c1.79-.34 3.61-.48 5.41-.4 8.43.37 16.29 4.82 22.23 10.81 1.3 1.31 2.52 2.7 3.68 4.14z" fill="#7360C9"/><path d="M67.669 275.799c7.07 9.55 20.24 17.55 33.19 17.4-2.38 4.61-7.15 7.27-12.73 8.17-15.95 2.56-30.46-8.66-39.62-20.57-3.17-4.12-5.88-8.69-7.23-13.72-1.36-5.02-1.27-10.55.94-15.26 2.81-6 8.88-9.96 15.44-11.21l.09.51c-6.16 15.23 2.85 25.11 9.92 34.68zm-.43-176.99.56.63c-2.81 2.47-5.6 4.98-8.37 7.51l-.32-.35c-4.44-7.8-8.3-16.03-11.78-24.6 3.14-1.49 6.29-2.98 9.43-4.47 3.36 7.02 7.11 14.25 10.48 21.28zm8.2-87.65c-6.49-4.4-15.56-4.01-21.58-.61-6.01 3.4-10.37 9.21-13.19 15.52-5.41 12.13-5.44 26.55-.08 38.7l-.15.17c-.23.12-.47.24-.7.37l-.28-.54c-2.95-7-5.91-14.06-7.66-21.44-.2-.86-.39-1.72-.56-2.59-.86-4.47-1.21-9.1-.8-13.63.35-3.91 1.26-7.75 2.9-11.32 3.52-7.72 10.78-14 19.21-14.92 8.64-.94 17.13 3.79 22.89 10.29z" fill="#FF4040"/><path d="m31.799 43.329-.09.02c-3.21.22-9.12.3-12.22.39.59 4.26 1.17 14.33-6.06 14.9-8.23.64-8.93-15.11-7.37-21.28.3-1.15 1.34-6.13 4.52-6.97l19.51-3.3.35.02c-.41 4.53-.06 9.16.8 13.63.17.87.36 1.73.56 2.59z" fill="#FF4040"/><path d="M342.45 457.704c-19.322 0-38.903-1.012-59.596-2.236l-17.04-1.02c-22.759-1.345-37.327-6.717-48.712-17.966-12.874-12.74-15.639-30.981-16.23-38.233a.75.75 0 0 1 .687-.808c.417-.048.775.273.809.687.578 7.085 3.273 24.901 15.79 37.288 11.104 10.97 25.383 16.214 47.747 17.534l17.041 1.02c37.072 2.195 70.586 3.705 105.344-.077 14.456-1.578 34.89-5.847 50.143-17.215 18.552-13.842 25.244-41.299 22.267-61.269-2.969-19.969-15.043-39.472-33.128-53.508a.751.751 0 0 1 .919-1.186c18.387 14.271 30.667 34.125 33.692 54.473 3.044 20.41-3.829 48.498-22.854 62.692-15.523 11.569-36.235 15.904-50.877 17.503-15.446 1.682-30.642 2.321-46.002 2.321z"/><path d="M427.279 320.854a.13.13 0 0 1-.075-.024l-.312-.234c-2.479-1.876-4.82-3.649-7.44-5.29a.126.126 0 0 1-.04-.172.123.123 0 0 1 .172-.039c2.63 1.646 4.975 3.422 7.458 5.302l.31.232c.055.042.067.12.025.176a.121.121 0 0 1-.098.049zm-38.2-19.31a.13.13 0 0 1-.038-.006 164.566 164.566 0 0 0-12.83-3.518.126.126 0 0 1-.094-.15c.016-.066.084-.104.15-.094a164.956 164.956 0 0 1 12.85 3.523.125.125 0 0 1 .081.157.125.125 0 0 1-.119.088z"/><path d="M375.39 298.45a.738.738 0 0 1-.167-.019 193.68 193.68 0 0 0-9.195-1.854c-20.036-3.525-42.672-2.919-64.561-2.331l-5.388.143a.75.75 0 1 1-.038-1.5l5.386-.142c21.964-.591 44.676-1.199 64.863 2.354a195.01 195.01 0 0 1 9.267 1.867.75.75 0 0 1-.167 1.482z"/><path d="M375.91 298.419a.75.75 0 0 1-.746-.839c2.694-22.645 8.795-44.418 18.133-64.715a.751.751 0 0 1 1.363.627c-9.272 20.154-15.331 41.776-18.006 64.266a.75.75 0 0 1-.744.661zm51.848 23.071a.751.751 0 0 1-.63-1.156c10.203-15.842 17.935-30.929 22.506-53.065a.744.744 0 0 1 .886-.583.75.75 0 0 1 .583.886c-4.619 22.365-12.42 37.592-22.714 53.575a.75.75 0 0 1-.631.343zm-19.387-20.53c-1.943 0-3.533-.5-4.73-1.485-1.935-1.591-2.848-4.421-2.641-8.183.527-9.4 4.359-18.418 10.792-25.392 1.242-1.356 4.432-4.585 7.189-5.257 2.046-.496 3.666-.202 4.811.876 2.027 1.91 2.448 6.243 1.25 12.878v.001a79.797 79.797 0 0 1-.604 2.948c-1.657 7.447-5.126 14.373-10.031 20.029-1.435 1.65-3.405 3.549-5.921 3.583a4.41 4.41 0 0 1-.115.002zm12.421-39.554c-.477 0-1 .07-1.574.21-2.56.623-5.767 3.955-6.689 4.962-6.277 6.805-10.016 15.602-10.53 24.771-.132 2.392.157 5.61 2.278 7.355 1.033.852 2.454 1.264 4.197 1.256 2.118-.028 3.88-1.746 5.178-3.238 4.796-5.531 8.188-12.306 9.809-19.59.169-.765.387-1.769.596-2.911 1.118-6.192.789-10.332-.952-11.973-.596-.563-1.36-.842-2.313-.842zm3.757 12.903h.01z"/><path d="m405.109 299.064-.013-.001a.125.125 0 0 1-.112-.137c.686-6.739 1.961-19.283 9.343-25.571 2.037-1.738 3.95-2.487 5.694-2.204 1.513.239 2.874 1.277 3.934 3.003a.125.125 0 1 1-.213.131c-1.035-1.686-2.301-2.656-3.76-2.888-1.665-.266-3.513.46-5.492 2.147-7.305 6.225-8.575 18.703-9.257 25.407a.124.124 0 0 1-.124.113zm-16.03 2.48-.019-.001a.126.126 0 0 1-.105-.143c4.155-27.413 12.402-49.092 25.951-68.224a.125.125 0 0 1 .174-.029c.056.039.07.117.03.174-13.527 19.099-21.759 40.743-25.908 68.116a.124.124 0 0 1-.123.107zm30.44 13.781a.123.123 0 0 1-.068-.021.125.125 0 0 1-.036-.173c13.899-21.219 22.166-40.921 25.271-60.231.011-.068.077-.118.143-.104a.125.125 0 0 1 .104.143c-3.111 19.347-11.39 39.081-25.309 60.329a.125.125 0 0 1-.105.057zm-71.79 73.814c-.417 0-.832-.173-1.129-.512a264.955 264.955 0 0 0-10.251-11.057 258.577 258.577 0 0 0-10.747-10.319 1.5 1.5 0 0 1 2.014-2.224 262.139 262.139 0 0 1 10.873 10.44 266.435 266.435 0 0 1 10.368 11.184 1.5 1.5 0 0 1-1.128 2.488z"/><path d="M324.67 389.089a1.5 1.5 0 0 1-.984-2.633l22.61-19.63a1.5 1.5 0 0 1 1.967 2.265l-22.61 19.63a1.492 1.492 0 0 1-.983.368zm64.271 18.04c-2.693 0-5.094-.873-7.159-2.606-4.388-3.686-6.066-10.254-6.173-15.172l-.056-2.566c-.239-10.821-.485-22.01-.504-33.033v-.002c0-5.611.256-10.995 3.345-15.184 2.108-2.859 5.552-4.681 9.449-4.998 3.909-.323 7.612.928 10.163 3.416 4.804 4.698 5.174 11.869 5.142 18.811l-.09 27.958c-.01 4.366-.021 9.314-1.693 13.797-1.506 4.024-5.02 8.61-10.368 9.419-.702.107-1.388.16-2.056.16zm-11.892-53.382c.019 11.004.265 22.183.503 32.992l.056 2.568c.094 4.275 1.58 10.424 5.46 13.683 2.116 1.778 4.683 2.449 7.629 2 3.702-.56 7.153-3.755 8.795-8.142 1.547-4.146 1.557-8.698 1.566-13.102l.09-27.961c.031-6.515-.295-13.221-4.539-17.372-2.136-2.084-5.273-3.12-8.604-2.854-3.321.271-6.238 1.799-8.002 4.192-2.728 3.701-2.954 8.733-2.954 13.996z"/><path d="M390.57 399.899a2.494 2.494 0 0 1-1.919-.896c-1.527-1.827-3.497-5.904-1.193-9.597.575-.923 1.197-1.817 1.799-2.683.622-.896 1.209-1.74 1.746-2.609.615-.988 1.15-2.419.645-3.215-.354-.55-1.318-1.09-2.25-1.612-1.502-.84-3.204-1.793-4.202-3.617-1.573-2.901-.615-6.384 2.693-9.815l.6-.615c1.396-1.424 2.84-2.896 2.87-4.179.028-1.213-1.259-2.65-2.383-3.768-.213-.212-.433-.423-.654-.637-1.573-1.516-3.531-3.401-3.909-6.088-.764-5.472 2.881-8.536 4.915-9.393a2.5 2.5 0 0 1 1.971 4.595c-.407.189-2.334 1.248-1.935 4.104.137.977 1.301 2.098 2.427 3.182.24.231.479.461.709.69 1.948 1.936 3.929 4.332 3.857 7.433-.077 3.255-2.418 5.643-4.298 7.561l-.571.586c-1.573 1.631-2.32 3.184-1.902 3.953.303.555 1.295 1.109 2.253 1.646 1.399.783 2.985 1.671 4.021 3.282 1.513 2.384 1.288 5.493-.61 8.543-.604.977-1.257 1.917-1.889 2.826-.593.854-1.153 1.659-1.663 2.477-.958 1.535.769 3.722.787 3.743a2.5 2.5 0 0 1-1.915 4.103zm-104.991 33.035a.125.125 0 0 1-.001-.25l105.24-1.229h.001a.125.125 0 0 1 .001.25l-105.24 1.229h-.001z"/><path d="M285.439 441.124h-.003c-1.433-.033-2.529-.473-3.259-1.307-1.002-1.145-1.002-2.667-.913-3.473.287-2.473 1.867-3.8 4.322-3.661a.124.124 0 0 1 .117.133.125.125 0 0 1-.125.117h-.007c-3.159-.198-3.9 2.074-4.058 3.439-.084.764-.086 2.207.853 3.28.681.778 1.716 1.189 3.076 1.221a.125.125 0 0 1 .122.128.124.124 0 0 1-.125.123z"/><path d="M285.439 441.124a.125.125 0 0 1 0-.25c16.875-.05 33.015-.109 49.148-.169 16.448-.061 32.888-.121 50.093-.171a.125.125 0 0 1 0 .25c-17.205.05-33.645.11-50.092.171-16.133.06-32.273.12-49.149.169z"/><path d="M386.339 440.791c-.966 0-1.643-.007-1.661-.007a.125.125 0 0 1 .001-.25h.001c.05 0 5.102.049 7.42-.12 2.229-.156 3.48-2.448 3.403-4.574-.073-2.001-1.337-4.136-4.659-4.136h-.024a.125.125 0 0 1-.125-.125c0-.076.071-.123.149-.125 3.505 0 4.836 2.355 4.91 4.377.082 2.244-1.255 4.665-3.635 4.833-1.485.108-4.08.127-5.78.127zm-118.903-20.593c-2.796 0-5.761-.573-8.488-1.907-5.805-2.839-9.072-8.394-9.199-15.639-.285-11.949-.318-24.093-.35-35.837-.032-11.738-.065-23.876-.35-35.813-.148-6.104-.333-13.703 3.475-19.718 3.381-5.327 9.644-8.571 15.98-8.294 6.281.296 12.253 4.083 15.217 9.648 3.03 5.675 2.823 12.581 2.657 18.131l-1.89 64.459c-.24 8.189-1.052 17.343-7.7 22.321-2.151 1.615-5.599 2.649-9.352 2.649zm.283-115.225c-5.383 0-10.626 2.845-13.506 7.383-3.483 5.501-3.306 12.764-3.165 18.599.285 11.958.318 24.106.35 35.854.032 11.734.065 23.868.35 35.797v.006c.143 8.278 4.472 12.118 8.078 13.883 5.698 2.785 12.489 1.91 15.762-.545 5.936-4.445 6.674-13.057 6.9-20.779l1.89-64.46c.167-5.59.357-11.925-2.423-17.131-2.639-4.956-7.956-8.328-13.545-8.591-.229-.011-.46-.016-.691-.016z"/><path d="M264.442 411.57a2.998 2.998 0 0 1-1.684-5.484c3.014-2.04 5.14-5.512 5.833-9.527.693-4.013-.145-7.993-2.299-10.922-.694-.943-1.539-1.864-2.433-2.839-2.209-2.406-4.713-5.134-5.375-8.944-1.054-6.023 2.911-10.641 6.409-14.714 2.855-3.324 5.552-6.464 5.185-9.714-.276-2.461-2.216-4.521-4.463-6.904-1.495-1.586-3.04-3.226-4.254-5.179-2.514-4.036-3.072-9.191-1.527-14.141 1.545-4.949 4.935-8.874 9.303-10.766a3 3 0 1 1 2.384 5.506c-2.764 1.197-4.936 3.766-5.96 7.047s-.698 6.628.894 9.185c.898 1.444 2.174 2.799 3.525 4.232 2.606 2.766 5.561 5.9 6.06 10.35.659 5.845-3.195 10.333-6.596 14.293-3.014 3.509-5.616 6.539-5.05 9.773.361 2.08 1.994 3.859 3.885 5.919.963 1.049 1.959 2.134 2.847 3.341 3.116 4.237 4.347 9.886 3.378 15.497-.969 5.615-4.025 10.526-8.383 13.476-.516.348-1.1.515-1.679.515zm-62.824-12.631a.75.75 0 0 1-.747-.696c-1.534-21.36-1.246-40.398.883-58.202a238.383 238.383 0 0 1 2.026-13.583c2.844-15.684 7.205-30.166 13.33-44.277 6.912-15.965 16.042-31.288 27.912-46.846a883.794 883.794 0 0 0 6.974-9.292l1.427-1.919c1.377-1.853 2.746-3.693 4.115-5.523 6.337-8.517 11.832-15.666 18.042-22.87 18.803-21.803 39.057-62.981 25.213-86.268-16.715-28.113-65.712-11.551-81.813-6.109a174.399 174.399 0 0 1-3.971 1.312c-.397.111-.852-.099-.97-.494-.118-.396.066-.801.461-.92l.088-.026c.062-.018.127-.036.192-.061.976-.305 2.219-.726 3.719-1.232 16.385-5.538 66.248-22.393 83.583 6.765 8.007 13.468 4.542 31.303.226 43.893-5.224 15.237-14.552 31.318-25.593 44.12-6.182 7.171-11.657 14.296-17.976 22.787-1.369 1.831-2.737 3.671-4.113 5.521l-1.427 1.919a876.517 876.517 0 0 1-6.986 9.308c-11.794 15.459-20.865 30.681-27.728 46.532-6.08 14.005-10.407 28.38-13.23 43.946a236.06 236.06 0 0 0-2.013 13.495c-2.117 17.708-2.404 36.653-.876 57.917a.75.75 0 0 1-.694.802l-.054.001z"/><path d="M296.059 294.389a.751.751 0 0 1-.722-.955c7.462-26.298 22.462-47.413 36.969-67.832l2.191-3.086c9.377-13.224 18.337-26.248 24.893-40.196 22.591-48.026 25.719-86.943 9.844-122.475-12.366-27.709-42.949-42.609-90.901-44.286-3.573-.127-7.48-.095-11.61.089-.421.044-.764-.303-.783-.716a.749.749 0 0 1 .716-.782c4.17-.187 8.116-.217 11.729-.091 48.573 1.7 79.6 16.898 92.219 45.175 15.846 35.467 12.622 75.938-9.856 123.725-6.608 14.059-15.609 27.145-25.027 40.425l-2.192 3.088c-14.433 20.315-29.357 41.322-36.749 67.373a.75.75 0 0 1-.721.544z"/><path d="M213.369 25.039a.75.75 0 0 1-.223-1.465c16.338-5.097 36.334-8.62 53.488-9.424a.738.738 0 0 1 .784.714.75.75 0 0 1-.714.784c-17.034.799-36.889 4.297-53.112 9.357a.72.72 0 0 1-.223.034zM107.53 252.74a.747.747 0 0 1-.576-.27c-24.783-29.72-25.338-48.303-24.427-54.913.962-7.009 4.104-13.494 10.189-21.029 2.138-2.637 4.64-5.424 8.113-9.038a285.238 285.238 0 0 1 3.018-3.098c8.328-8.477 18.258-17.353 29.514-26.378 13.141-10.532 28.368-21.478 45.259-32.533a.75.75 0 1 1 .821 1.256c-16.851 11.028-32.039 21.945-45.142 32.447-11.209 8.989-21.095 17.824-29.384 26.261a291.395 291.395 0 0 0-3.004 3.084c-3.442 3.583-5.918 6.341-8.028 8.943-5.903 7.309-8.947 13.566-9.87 20.289-.884 6.414-.306 24.488 24.093 53.748a.751.751 0 0 1-.576 1.231zM19.4 268.639a.75.75 0 0 1-.634-.348C.099 238.931-4.666 209.226 4.604 180.002c9.409-29.698 32.253-53.435 53.359-72.736l.963-.872a590.963 590.963 0 0 1 8.378-7.519c11.851-10.49 23.935-20.503 35.917-29.76a688.248 688.248 0 0 1 11.843-8.95c18.428-13.601 37.535-26.179 56.788-37.385a.75.75 0 0 1 .754 1.296c-19.207 11.179-38.267 23.727-56.652 37.295a689.188 689.188 0 0 0-11.817 8.931C92.183 79.539 80.124 89.531 68.296 100a588.306 588.306 0 0 0-8.361 7.503l-.962.872c-20.956 19.166-43.636 42.72-52.938 72.08-9.129 28.781-4.42 58.063 13.998 87.031a.75.75 0 0 1-.633 1.153z"/><path d="M86.853 323.633c-2.085 0-4.168-.176-6.223-.535-11.522-2.021-22.87-8.701-33.728-19.855-8.517-8.74-16.769-17.528-24.103-28.907a154.344 154.344 0 0 1-4.003-5.994.75.75 0 1 1 1.266-.805c1.311 2.065 2.65 4.07 3.98 5.961 7.276 11.288 15.472 20.015 23.934 28.698 10.634 10.925 21.707 17.46 32.912 19.425 10.518 1.84 21.801-1.326 30.185-8.47 7.539-6.425 11.618-15.144 11.486-24.551-.224-16.211-6.079-24.294-15.614-36.14a.75.75 0 0 1 1.168-.942c9.771 12.14 15.72 20.691 15.946 37.06.138 9.862-4.128 18.994-12.013 25.714-7.084 6.036-16.163 9.341-25.193 9.341z"/><path d="M83.407 302.497c-17.171 0-30.342-14.544-35.492-21.241-3.727-4.844-6.135-9.418-7.36-13.982-1.514-5.59-1.164-11.191.985-15.772 2.764-5.902 8.738-10.25 15.979-11.629a24.082 24.082 0 0 1 5.584-.412c7.948.349 16.021 4.267 22.729 11.03a54.268 54.268 0 0 1 3.732 4.198c4.399 5.505 7.704 11.67 10.357 16.976 2.997 5.982 4.09 12.783 2.922 18.193a15.048 15.048 0 0 1-1.317 3.688c-2.333 4.519-7.048 7.56-13.276 8.564a30.55 30.55 0 0 1-4.843.387zm-21.331-61.56c-1.412 0-2.846.138-4.277.409-6.77 1.289-12.34 5.324-14.901 10.792-1.999 4.26-2.317 9.497-.895 14.745 1.174 4.372 3.496 8.773 7.101 13.459 5.005 6.508 17.795 20.652 34.31 20.654 1.503 0 3.035-.117 4.597-.367 5.746-.928 10.073-3.688 12.182-7.773l.001-.002c.522-1.006.92-2.121 1.183-3.315 1.081-5.008.009-11.601-2.798-17.203-2.618-5.235-5.875-11.314-10.185-16.708a52.193 52.193 0 0 0-3.626-4.08c-6.442-6.496-14.159-10.256-21.73-10.589a22.054 22.054 0 0 0-.962-.022z"/><path d="M100.5 293.327c-6.039 0-12.428-1.753-18.501-5.08-5.718-3.133-10.843-7.527-14.43-12.373-.577-.781-1.167-1.563-1.76-2.352-6.813-9.045-13.859-18.397-8.175-32.449a.125.125 0 0 1 .232.094c-5.631 13.921 1.372 23.216 8.143 32.205a312.79 312.79 0 0 1 1.762 2.354c7.591 10.254 21.015 17.351 32.754 17.352l.334-.002h.082a.125.125 0 0 1 0 .25h-.08l-.361.001zm-77.071-19.273a.126.126 0 0 1-.099-.049 56.697 56.697 0 0 1-3.996-5.98.182.182 0 0 1-.056-.094c-5.676-9.736-9.31-22.104-10.509-35.768-1.102-12.558-.059-25.799 2.939-37.285 3.044-11.677 7.961-23.248 15.031-35.375 5.77-9.897 13.066-20.262 22.303-31.683 18.672-23.099 44.156-48.768 66.508-66.988.053-.045.132-.036.176.018s.036.133-.018.176c-22.34 18.211-47.81 43.865-66.472 66.951C29 152.998 17.501 173.65 11.95 194.941c-5.379 20.614-5.128 51.145 7.557 72.886a.086.086 0 0 1 .011.024.15.15 0 0 1 .019.025 56.263 56.263 0 0 0 3.991 5.977.126.126 0 0 1-.023.176.13.13 0 0 1-.076.025zm194.281 9.135a.837.837 0 0 1-.07-.003c-18.211-1.683-36.111-33.625-42.961-47.28-17.385-34.652-29.913-64.222-40.62-95.876a.75.75 0 1 1 1.421-.48c10.684 31.586 23.187 61.096 40.54 95.685 14.242 28.389 29.462 45.322 41.759 46.458a.75.75 0 0 1-.069 1.496z"/><path d="M103.809 70.749a.75.75 0 0 1-.697-.473 2.953 2.953 0 0 0-.104-.232l-3.885-9.009c-3.872-8.983-7.745-17.969-11.623-26.948-3.371-7.829-6.856-15.924-12.623-22.431C68.571 4.539 60.255.795 52.63 1.615c-7.674.838-14.978 6.523-18.609 14.486-1.52 3.308-2.474 7.033-2.835 11.074-.381 4.205-.115 8.721.789 13.423.168.858.356 1.71.554 2.562 1.754 7.398 4.737 14.475 7.621 21.318a.75.75 0 1 1-1.382.582c-2.908-6.899-5.915-14.035-7.698-21.558a73.966 73.966 0 0 1-.566-2.618c-.931-4.843-1.204-9.499-.811-13.843.377-4.212 1.375-8.103 2.965-11.565C36.502 7.044 44.279 1.018 52.468.124 60.574-.764 69.372 3.181 76 10.662c5.927 6.687 9.62 15.264 12.878 22.83 3.878 8.979 7.751 17.966 11.623 26.949l3.867 8.971c.042.081.09.188.138.31a.752.752 0 0 1-.697 1.027zm-82.505 43.78c-2.051 0-4.629-1.322-5.903-2.688-4.867-5.265-8.145-12.05-9.233-19.107-.553-3.529-.379-6.405.531-8.792 1.101-2.86 3.37-4.091 5.6-5.105a.75.75 0 0 1 .621 1.365c-2.028.923-3.923 1.944-4.821 4.277-.813 2.133-.96 4.759-.449 8.024 1.043 6.768 4.186 13.271 8.85 18.317 1.098 1.176 3.519 2.357 5.108 2.193 1.791-.197 3.095-1.323 3.877-3.348 1.711-4.429.33-12.234-2.788-15.76a.751.751 0 0 1 1.124-.995c3.486 3.942 4.975 12.347 3.064 17.294-.986 2.553-2.754 4.039-5.114 4.298a3.768 3.768 0 0 1-.467.027z"/><path d="M12.61 80.269a.75.75 0 0 1-.349-1.414l9.848-5.16c5.76-3.02 11.517-6.037 17.282-9.051.159-.09.344-.186.528-.28l.173-.09a.751.751 0 0 1 .694 1.33l-.179.093c-.167.086-.336.173-.5.266-5.786 3.024-11.543 6.042-17.302 9.061l-9.849 5.16a.74.74 0 0 1-.346.085zM23.26 94.16a.75.75 0 0 1-.322-1.428l9.075-4.304c4.996-2.369 9.994-4.74 14.995-7.106l9.429-4.47a.75.75 0 1 1 .643 1.355l-9.43 4.47c-5.002 2.367-9.999 4.737-14.995 7.106l-9.075 4.304a.747.747 0 0 1-.32.073z"/><path d="M59.11 107.349a.75.75 0 0 1-.653-.379c-4.221-7.416-8.089-15.491-11.823-24.688l-.047-.127a.749.749 0 0 1 .477-.947.749.749 0 0 1 .945.468c3.726 9.18 7.565 17.196 11.753 24.553a.749.749 0 0 1-.652 1.12zm8.129-8.415a.126.126 0 0 1-.113-.071c-1.67-3.483-3.463-7.075-5.197-10.549-1.764-3.534-3.588-7.189-5.283-10.73a.124.124 0 0 1 .059-.166.122.122 0 0 1 .167.059c1.694 3.539 3.518 7.193 5.282 10.727 1.734 3.475 3.527 7.067 5.198 10.553a.124.124 0 0 1-.059.166.145.145 0 0 1-.054.011zm-26.65-34.04a.123.123 0 0 1-.114-.074c-5.364-12.158-5.334-26.663.08-38.801 2.206-4.938 6.294-11.647 13.243-15.578 5.639-3.187 14.908-3.998 21.712.615a.125.125 0 1 1-.141.207c-6.719-4.555-15.876-3.752-21.448-.605-6.889 3.898-10.947 10.561-13.137 15.463-5.385 12.075-5.415 26.504-.08 38.598a.125.125 0 0 1-.115.175zm-21.1-20.404a.75.75 0 0 1-.021-1.5c.842-.024 1.891-.048 3.037-.074 3.044-.069 6.831-.155 9.154-.314a.752.752 0 0 1 .8.696.751.751 0 0 1-.697.8c-2.357.162-6.164.249-9.222.318-1.142.025-2.188.049-3.027.074h-.024z"/><path d="M12.939 59.409c-1.888 0-3.509-.789-4.824-2.35-4-4.745-3.94-15.306-2.783-19.884l.066-.261c.391-1.57 1.583-6.351 4.99-7.251a.752.752 0 0 1 .383 1.451c-2.549.673-3.579 4.805-3.917 6.163l-.069.271c-1.237 4.892-.888 14.553 2.477 18.544 1.128 1.338 2.472 1.935 4.109 1.799 1.58-.124 2.797-.742 3.719-1.889 2.572-3.198 2.015-9.569 1.656-12.16a.75.75 0 1 1 1.486-.205c.479 3.457.86 9.783-1.973 13.306-1.178 1.465-2.784 2.287-4.771 2.444a7.28 7.28 0 0 1-.549.022z"/><path d="M10.578 31.139a.75.75 0 0 1-.124-1.489l19.51-3.3a.749.749 0 1 1 .25 1.478l-19.51 3.3a.67.67 0 0 1-.126.011zm149.852 276.04a.745.745 0 0 1-.602-.303c-33.114-44.523-51.183-89.679-67.125-129.519a.75.75 0 0 1 1.393-.557c15.908 39.755 33.938 84.813 66.936 129.181a.75.75 0 0 1-.602 1.198zm44.079 19.535a.114.114 0 0 1-.056-.014c-17.954-8.977-35.782-26.864-50.2-50.366-16.608-27.076-31.146-60.771-42.827-87.844-3.117-7.225-6.062-14.049-8.74-20.03a.125.125 0 0 1 .063-.165.126.126 0 0 1 .165.063c2.679 5.982 5.624 12.808 8.742 20.033 11.678 27.066 26.212 60.751 42.811 87.812 14.395 23.463 32.187 41.317 50.099 50.274.062.03.087.105.056.167a.126.126 0 0 1-.113.07zm-2.48 13.975a.741.741 0 0 1-.322-.073 106.818 106.818 0 0 1-13.434-7.644c-5.275-3.519-10.369-7.593-15.139-12.107a.75.75 0 0 1 1.031-1.09c4.708 4.457 9.735 8.478 14.941 11.95a105.496 105.496 0 0 0 13.246 7.537.748.748 0 0 1 .354.999.747.747 0 0 1-.677.428z"/><path d="M148.969 337.439a.749.749 0 0 1-.331-1.424l.131-.069a144.3 144.3 0 0 0 24.167-16.4.75.75 0 0 1 .965 1.149 145.773 145.773 0 0 1-24.446 16.586l-.157.083a.77.77 0 0 1-.329.075z"/><path d="M150.753 352.68c-.69 0-1.399-.071-2.114-.216-2.727-.554-5.14-2.061-7.14-3.461-2.971-2.084-7.011-5.401-7.79-10.122-.852-5.12 2.419-9.847 5.363-13.392 5.268-6.365 12.965-13.432 21.115-19.386.664-.484 1.308-.946 1.951-1.398a.751.751 0 0 1 .862 1.229c-.636.446-1.273.904-1.929 1.382-7.934 5.797-15.727 12.949-20.844 19.132-2.741 3.3-5.79 7.667-5.038 12.188.687 4.165 4.422 7.21 7.171 9.139 1.874 1.312 4.121 2.72 6.578 3.219 2.514.514 5.003-.079 6.496-1.54 1.904-1.846 2.219-5.267.72-7.791-1.375-2.309-4.047-3.916-7.147-4.299a.84.84 0 0 1-.1-.019.75.75 0 0 1 .082-1.496c.067 0 .229.025.294.043 3.465.422 6.55 2.299 8.161 5.004 1.87 3.147 1.456 7.288-.963 9.632-1.43 1.399-3.482 2.152-5.728 2.152zm36.242 15.955c-.142 0-.285-.002-.429-.006-5.684-.183-12.01-4.111-12.762-10.37-.568-4.685 2.119-9.005 4.919-13.028a912.984 912.984 0 0 1 4.657-6.631 950.929 950.929 0 0 0 4.613-6.568.75.75 0 1 1 1.232.856 953.832 953.832 0 0 1-4.62 6.578c-1.54 2.18-3.08 4.359-4.65 6.622-2.745 3.943-5.166 7.827-4.662 11.992.647 5.387 6.379 8.892 11.319 9.05 1.46.048 4.144-.143 5.717-1.9 1.408-1.57 1.588-4.276.428-6.436-1.189-2.22-3.405-3.563-5.055-4.3a10.418 10.418 0 0 0-.44-.202l.567-1.389-.302.687.337-.671c.16.07.319.141.479.22 2.643 1.179 4.636 2.894 5.735 4.947 1.471 2.738 1.211 6.088-.633 8.145-1.392 1.557-3.673 2.404-6.45 2.404z"/><path d="M188.019 354.53a.75.75 0 0 1-.523-1.289c3.037-2.952 6.069-5.909 9.103-8.867l4.957-4.832a.75.75 0 1 1 1.047 1.075l-4.956 4.831a9489.918 9489.918 0 0 1-9.104 8.87.754.754 0 0 1-.524.212zm-67.97-82.995a.126.126 0 0 1-.105-.058c-11.848-18.383-29.026-16.473-30.947-16.193-.042.007-.066.014-.07.015a.125.125 0 0 1-.077-.238s.036-.012.108-.023c1.938-.283 19.262-2.211 31.195 16.306a.125.125 0 0 1-.037.173.143.143 0 0 1-.067.018zm214.949-47.916a.75.75 0 0 1-.618-1.174c9.18-13.402 53.719-83.691 28.994-151.409-18.83-51.544-83.854-55.182-96.697-55.388-.412-.007-.751-.344-.748-.756s.328-.744.74-.744h.02c13.028.209 78.928 3.907 98.094 56.373 24.977 68.408-19.913 139.263-29.166 152.771a.745.745 0 0 1-.619.327z"/><path d="M264.399 15.024a.125.125 0 0 1-.003-.25c.008 0 .819-.021 2.275 0a.125.125 0 0 1-.002.25h-.002c-1.45-.02-2.257 0-2.265 0h-.003z"/></svg></g></svg>