<svg xmlns="http://www.w3.org/2000/svg" viewBox="0 0 1080 1080" width="1080" height="1080"><path fill="#FFF" d="M0 0h1080v1080H0z"/><g transform="translate(410.0 37.0) rotate(-116.53733091577928 263.5 255.0) translate(0.0 0.0) scale(6.128619606931039 6.183317167798254)"><svg width="85.99" height="82.48" viewBox="0 0 85.99 82.48"><g fill="#FFCA58"><path d="M24.101 18.87a1.996 1.996 0 0 1-1.523-.703l-7.07-8.3a2 2 0 0 1 3.045-2.594l7.07 8.3a2 2 0 0 1-1.522 3.297zm28.981-6.979a2.001 2.001 0 0 1-1.96-2.41l1.66-7.89a2 2 0 0 1 3.916.819l-1.66 7.89a2 2 0 0 1-1.956 1.591zm22.607 20.54a2 2 0 0 1-.573-3.916l8.298-2.489a2 2 0 1 1 1.152 3.83l-8.302 2.491a2.042 2.042 0 0 1-.575.084zM70.392 69.7a1.999 1.999 0 0 1-1.638-.85l-5.971-8.49a2 2 0 1 1 3.271-2.301l5.971 8.49a2 2 0 0 1-1.633 3.151zM40.62 82.48a2 2 0 0 1-2-2v-9.55a2 2 0 0 1 4 0v9.55a2 2 0 0 1-2 2zM1.998 60.471a2 2 0 0 1-.412-3.957c1.894-.4 3.998-.904 6.034-1.39 1.797-.43 3.495-.835 4.771-1.102a1.996 1.996 0 0 1 2.366 1.55 2 2 0 0 1-1.55 2.366c-1.22.254-2.89.653-4.658 1.076-2.061.493-4.191 1.002-6.136 1.413a2.033 2.033 0 0 1-.415.044z"/></g></svg></g><g transform="translate(86.0 430.0) rotate(0.0 389.5 289.0) scale(3.525779171172143 3.527971565281635)"><svg width="220.944" height="163.834" viewBox="0 0 220.944 163.834"><path d="M208.061 123.076c8.18 11.93 2.77 22.4-5.65 30.6-9.92 9.66-26.09 14.35-42 1.83-6.37-5.01-8.06-10.59-8.12-16.34v-.01c7.61-4.85 12.14-9.93 19.07-8.87 9.86 1.51 25.97.18 36.7-7.21z" fill="#7D4CDB"/><path d="M147.101 105.936c11.28 9.72 5.04 21.81 5.19 33.22v.01a48.042 48.042 0 0 1-20.84 7.47c-15.45 1.89-28.18-7.57-25.83-19.83 1.14-5.94 1.23-10.29.52-13.57a10.983 10.983 0 0 0 3.4-.77c7.82-3.4 26.8-15.8 37.56-6.53zm4.389-79.32a26.836 26.836 0 0 1-4.36 10.98c-9.18 13.98-16.12 20.61-13 32.43-5.55 3.05-5.73 12.42-15.72 13.22-13.05 1.04-32.76-12.22-36 7.82a16.594 16.594 0 0 0 4.57 14.77 26.232 26.232 0 0 0 15.47 7.31c-5.31 8.18-15.42 16.8-31.26 14.45-21.28-3.17-22.65-12.96-28.15-18.95-.02-.02-.04-.03-.05-.04a14.889 14.889 0 0 0-1.47-1.39 13 13 0 0 0-3.46-2.06C23.3 99.186.75 104.636.75 83.506c0-12.91 9.43-17.99 18.27-19.02 1.67-3.26 2.19-7.33 1.56-12.55-1.04-8.6 3.91-18.26 10.96-19.56a76.221 76.221 0 0 0 14.04-3.85 15.864 15.864 0 0 1 .83-9.72c4.95-12 19.3-18.52 30-13.3 10.69 5.22 18 12.52 29.21 4.17 11.22-8.34 23.74-11.74 33.65-6.26 7.43 4.11 13.72 12.75 12.22 23.2z" fill="#7D4CDB"/><path d="M217.66 110.926a24.48 24.48 0 0 1-9.6 12.15c-10.73 7.39-26.84 8.72-36.7 7.21-6.93-1.06-11.46 4.02-19.07 8.87-.15-11.41 6.09-23.5-5.19-33.22-10.76-9.27-29.74 3.13-37.56 6.53a10.982 10.982 0 0 1-3.4.77 16.2 16.2 0 0 1-2.1.03 14.542 14.542 0 0 1-1.59-.12 26.232 26.232 0 0 1-15.47-7.31 16.594 16.594 0 0 1-4.57-14.77c3.24-20.04 22.95-6.78 36-7.82 9.99-.8 10.17-10.17 15.72-13.22-3.12-11.82 3.82-18.45 13-32.43a26.836 26.836 0 0 0 4.36-10.98c16.96-1.37 29.39.89 45.7 14.63 9.22 7.76 8.56 15.93 4.54 23.33 17.99 15.54 21.75 29.6 15.93 46.35z" fill="#7D4CDB"/><path d="M201.491 64.576c4.02-7.4 4.68-15.57-4.54-23.33-16.16-13.614-28.514-15.955-45.237-14.665 10.49 1.064 20.003 5.054 31.411 14.665 9.22 7.76 15.106 26.075 11.086 33.474 9.456 8.981 15.204 19.456 9.384 36.206a24.482 24.482 0 0 1-9.6 12.15c-6.205 4.274-14.206 6.511-21.76 7.354 9.924 1.253 25.245-.232 35.586-7.354a24.481 24.481 0 0 0 9.6-12.15c5.82-16.75 2.06-30.81-15.93-46.35zm-99.041 48.57c-5.31 8.18-15.42 16.8-31.26 14.45a58.264 58.264 0 0 1-6.3-1.27c-.27-.07-.53-.14-.79-.21-1.05-.29-2.02-.6-2.94-.94-.23-.08-.45-.16-.67-.25-.23-.08-.44-.17-.66-.26-.43-.17-.84-.34-1.24-.53-.4-.18-.79-.37-1.16-.56-.57-.28-1.1-.57-1.6-.87-.17-.1-.34-.21-.5-.31-.49-.3-.96-.61-1.39-.93-.44-.31-.85-.63-1.24-.95-.14-.11-.28-.23-.42-.34-.12-.12-.24-.22-.36-.33-.25-.22-.49-.44-.72-.67-.45-.44-.87-.88-1.28-1.33 0-.01-.01-.02-.02-.03-.2-.23-.4-.46-.59-.69-.03-.04-.07-.08-.11-.13-.53-.64-1.02-1.29-1.48-1.94-.25-.35-.5-.7-.74-1.05-.23-.33-.45-.66-.67-.99-.06-.09-.12-.17-.18-.26-.18-.28-.37-.55-.56-.82-.28-.41-.55-.81-.84-1.19-.28-.39-.57-.77-.87-1.13-.26-.34-.53-.66-.82-.97 9.68 8.37 34.8 18.38 43.94-2.81a26.232 26.232 0 0 0 15.47 7.31z" fill="#3D138D"/><g fill="none" stroke="#000" stroke-linecap="round" stroke-linejoin="round"><path d="M160.14 92.636c-8.6-1.04-13.56-4.43-13.3-13.57.26-9.13-5.74-12-12-9.39a5.849 5.849 0 0 0-.71.35c-5.55 3.05-5.73 12.42-15.72 13.22-13.05 1.04-32.76-12.22-36 7.82a16.593 16.593 0 0 0 4.57 14.77 26.232 26.232 0 0 0 15.47 7.31" stroke-width=".5"/><path d="M152.291 139.156c-.15-11.41 6.09-23.5-5.19-33.22-10.76-9.27-29.74 3.13-37.56 6.53a10.983 10.983 0 0 1-3.4.77" stroke-width=".5"/><path d="M208.061 123.076c8.18 11.93 2.77 22.4-5.65 30.6-9.92 9.66-26.09 14.35-42 1.83-6.37-5.01-8.06-10.59-8.12-16.34" stroke-width="1.5"/><path d="M201.731 64.576c-4.62 8.51-13.7 16.02-17.32 20.76-6.32 8.25 2.34 18.26 7.82 22.17" stroke-width=".5"/><path d="M151.491 26.616c16.96-1.37 29.39.89 45.7 14.63 9.22 7.76 8.56 15.93 4.54 23.33m-.001 0c17.99 15.54 21.75 29.6 15.93 46.35a24.481 24.481 0 0 1-9.6 12.15 37.656 37.656 0 0 1-7.69 4.01 60.744 60.744 0 0 1-25.94 3.56c-1.08-.09-2.1-.21-3.07-.36-3.45-.53-6.3.47-9.24 2.2-2.96 1.74-6.01 4.23-9.83 6.67v.01a48.042 48.042 0 0 1-20.84 7.47c-15.45 1.89-28.18-7.57-25.83-19.83 1.14-5.94 1.23-10.29.52-13.57a16.194 16.194 0 0 1-2.1.03 5.74 5.74 0 0 1-.71-.04c-.29-.01-.58-.04-.88-.08-5.31 8.18-15.42 16.8-31.26 14.45a58.255 58.255 0 0 1-6.3-1.27c-.27-.06-.53-.13-.79-.21-1.05-.29-2.02-.6-2.94-.94-.23-.08-.45-.16-.67-.25-.23-.08-.44-.16-.66-.26-.43-.17-.84-.34-1.24-.53-.4-.18-.79-.36-1.16-.56-.57-.28-1.1-.57-1.6-.87-.17-.1-.34-.2-.5-.31-.49-.3-.96-.61-1.39-.93a15.01 15.01 0 0 1-1.24-.95c-.14-.11-.28-.23-.42-.34q-.195-.165-.36-.33c-.25-.22-.49-.44-.72-.67-.46-.44-.88-.88-1.28-1.33 0-.01-.01-.02-.02-.03-.21-.23-.41-.46-.59-.69-.03-.04-.07-.08-.11-.13-.54-.64-1.02-1.29-1.48-1.94-.26-.35-.5-.7-.74-1.05-.23-.33-.46-.66-.67-.99-.06-.09-.12-.17-.18-.26a39.8 39.8 0 0 1-.56-.82c-.28-.41-.55-.81-.84-1.19-.29-.39-.57-.77-.87-1.13-.26-.34-.53-.66-.82-.97a13.548 13.548 0 0 0-4.98-3.49C23.3 99.186.75 104.636.75 83.506c0-12.91 9.43-17.99 18.27-19.02" stroke-width="1.5"/><path d="M60.231 56.116c-5.22 7.3 4.18 8.35 12.78 10.77 8.61 2.43 6.9 19.07-7.04 23.14-27.65 8.09-16.17-15.13-34.17-24-2.79-1.37-7.69-2.12-12.78-1.54m26.56-35.96c2.1 9.12 12.39 17.07 31.09 15.33 25.3-2.35 32.08.26 33.39 6.52 1.3 6.26-6.52 12-15.65 9.39" stroke-width=".5"/><path d="M151.491 26.616c1.5-10.45-4.79-19.09-12.22-23.2-9.91-5.48-22.43-2.08-33.65 6.26-11.21 8.35-18.52 1.05-29.21-4.17-10.7-5.22-25.05 1.3-30 13.3a15.863 15.863 0 0 0-.83 9.72" stroke-width="1.5"/><path d="M134.131 70.026c-3.12-11.82 3.82-18.45 13-32.43a26.833 26.833 0 0 0 4.36-10.98" stroke-width=".5"/><path d="M19.021 64.486c1.67-3.26 2.19-7.33 1.56-12.55-1.04-8.6 3.91-18.26 10.96-19.56a76.22 76.22 0 0 0 14.04-3.85" stroke-width="1.5"/><path d="M200.37 127.089c2.218 6.102 1.043 26.082-20.609 35.984m7.827-32.791c1.695 4.996 1.38 21.836-15.614 31.481m2.44-31.18c2.217 5.739 2.36 22.414-9.907 27.772m-2.387-25.873c2.12 4.883 3.946 15.97-3.62 21.057" stroke-width=".5"/></g></svg></g><g transform="translate(809.0 181.0) rotate(-17.405884982569706 -141.5 193.5) scale(-3.3592705421174185 3.349659823435709)"><svg width="84.244" height="115.534" viewBox="0 0 84.244 115.534"><path d="M81.809 89.669c2.166 8.355 3.033 17.818-2.331 20.933-8.342 4.849-14.263 6.458-20.72-.536a34.296 34.296 0 0 1-.826-.921c8.63-1.768 19.352-6.774 23.877-19.476z" fill="#00739D"/><path d="M77.862 78.047a85.533 85.533 0 0 1 3.947 11.622c-4.525 12.702-15.246 17.708-23.877 19.476h-.007a32.469 32.469 0 0 1-5.164-7.792c7.743-2.318 21.696-11.56 22.927-26.38a7.64 7.64 0 0 1 2.174 3.074z" fill="#333"/><path d="M73.33 34.694A36.229 36.229 0 0 1 69.1 54.24a5.185 5.185 0 0 0-.447 3.789l4.285 15.92a10.935 10.935 0 0 0-5.873 1.926c-2.806-7.029-6.203-15.728-8.04-21.243-3.5-10.495-.81-17.757-.543-27.983.193-7.22-3.645-16.181-7.427-23.1A36.461 36.461 0 0 1 73.33 34.695z" fill="#6FFFB0"/><path d="M72.938 73.948a4.675 4.675 0 0 1 2.75 1.025c-1.23 14.82-15.184 24.062-22.927 26.38-1.837-4.085-2.229-8.204-.11-11.684a10.853 10.853 0 0 1 1.258-1.671l5.653-6.19a94.61 94.61 0 0 1 1.203-1.1 43.507 43.507 0 0 1 6.3-4.834 10.935 10.935 0 0 1 5.873-1.926z" fill="#00739D"/><path d="M60.765 80.708a94.61 94.61 0 0 0-1.203 1.1l-5.653 6.19a10.853 10.853 0 0 0-1.258 1.67c-3.081-3.891-7.833-9.868-11.499-14.372a5.169 5.169 0 0 0-4.05-1.884h-.028A36.331 36.331 0 0 1 8.033 15.26c2.565 10.941 6.423 23.904 12.777 28.072 8.61 5.646 20.72 2.689 28.258 13.451 4.236 6.059 8.65 16.21 11.697 23.925z" fill="#FD6FFF"/><path d="M51.055 3.549c3.782 6.918 7.62 15.879 7.427 23.1-.268 10.225-2.957 17.487.544 27.982 1.836 5.515 5.233 14.214 8.039 21.243a43.507 43.507 0 0 0-6.3 4.834c-3.046-7.716-7.461-17.866-11.697-23.925C41.53 46.021 29.42 48.978 20.81 43.332c-6.354-4.168-10.212-17.13-12.777-28.072A36.283 36.283 0 0 1 39.846.853a35.728 35.728 0 0 1 11.21 2.689z" fill="#81FCED"/><g fill="none" stroke="#000" stroke-linecap="round" stroke-linejoin="round"><path d="M57.925 109.145a32.469 32.469 0 0 1-5.164-7.792c-1.837-4.085-2.229-8.204-.11-11.684a10.853 10.853 0 0 1 1.258-1.671l5.653-6.19a94.61 94.61 0 0 1 1.203-1.1 43.507 43.507 0 0 1 6.3-4.834 10.935 10.935 0 0 1 5.873-1.926 4.675 4.675 0 0 1 2.75 1.025 7.64 7.64 0 0 1 2.174 3.074 85.533 85.533 0 0 1 3.947 11.622c2.166 8.355 3.033 17.818-2.331 20.933-8.342 4.849-14.263 6.458-20.72-.536a34.296 34.296 0 0 1-.826-.921M51.055 3.549A36.327 36.327 0 0 1 69.1 54.239a5.185 5.185 0 0 0-.447 3.789l4.285 15.92" stroke-width="1.5"/><path d="M52.65 89.669c-3.08-3.892-7.832-9.869-11.498-14.373a5.169 5.169 0 0 0-4.05-1.884h-.028A36.332 36.332 0 1 1 39.846.852a35.728 35.728 0 0 1 11.21 2.69" stroke-width="1.5"/><path d="M8.033 15.26c2.565 10.941 6.423 23.904 12.777 28.072 8.61 5.646 20.72 2.689 28.258 13.451 4.236 6.059 8.65 16.21 11.697 23.925m6.3-4.834c-2.806-7.029-6.203-15.728-8.04-21.243-3.5-10.495-.811-17.757-.543-27.983.193-7.22-3.645-16.181-7.427-23.1v-.006m1.705 97.811c7.744-2.318 21.697-11.56 22.928-26.38v-.007m-17.763 34.179h.007c8.63-1.768 19.352-6.774 23.877-19.476" stroke-width=".5"/></g></svg></g></svg>