<svg xmlns="http://www.w3.org/2000/svg" viewBox="0 0 1500 1500" width="1500" height="1500"><path fill="#FFF" d="M0 0h1500v1500H0z"/><g transform="translate(298.0 202.0) rotate(0.0 450.5 545.5) scale(2.1411596958174903 2.138796314448147)"><svg width="420.8" height="510.1" viewBox="0 0 420.8 510.1"><path d="M288.5 483c23.2 2.4 47-1 69.6-7 3.3-.9 6.6-1.8 10-1.4s6.8 2.5 7.6 5.8c1.3 5.4-4.7 9.6-9.9 11.6-2.8 1.1-5.7 2.1-8.5 3h-.1c-22.2 6.6-45.8 6.3-69.2 2.7h-.1c-.4-1-.7-2.1-.9-3.3-.8-3.9-.2-7.9 1.3-11.6zm31.8-220.2c-.6.2-1.3.3-2 .4-9.6 1.9-19.9 3.5-30.4 4.9v-.1c26.4-6.6 52.7-29.1 57.1-56.1 0-.2.1-.4.1-.5s0-.3.1-.5c1.5 9.3 1.8 18.8-.8 27.8-3.4 11.3-11.3 21-24.1 24.1z" fill="#00739D"/><path d="M316.5 231.1c2.4-1.1 4.7-2.2 7-3.4-1.7 2.6-3.7 5-5.9 7.3-.4-1.3-.7-2.6-1.1-3.9z" fill="#FFF"/><path d="M315.7 177.8v-.1c7.4.1 14.4 1.6 19.5 6.6 4.6 4.5 6.5 11 8 17.2.7 3.1 1.4 6.1 1.9 9.3 0 .2 0 .3-.1.5 0 .2-.1.4-.1.5-1.5 7.7-9.3 11.6-15.8 13.9-1.8.6-3.6 1.1-5.4 1.5 1.6-2.6 3.1-5.3 4.2-8.1 5.7-14.1 1.3-35-12.2-41.3z" fill="#7E4CDB"/><path d="M317.6 235.1c-1.6 1.7-3.3 3.4-5.1 5-.6-2-1.2-4.2-1.8-6.4 2-.8 3.9-1.7 5.9-2.6.3 1.3.6 2.6 1 4zm5.9-7.4c-2.3 1.2-4.7 2.3-7 3.4-.2-.9-.5-1.7-.7-2.6 2.6-.2 5.3-.6 7.9-1.1v.2c-.1 0-.1 0-.2.1z" fill="#FFF"/><path d="M313.5 311.4c3.2-.4 6.4-.7 9.5-1 13.2-1.2 27.1-.2 38.7 6.4s19.8 18.3 24 31 4.9 26.3 4.1 39.7c-.9 15.2-3.7 30.6-10.8 44.1-6.9 13.2-13.8 24.8-37.7 30.2 4.4-1 8.4-2.6 12-5.5 7.7-6.1 10.4-16.1 11.2-26.1.2-2.9.3-5.7.3-8.5 0-9.3-.5-18.7-1.4-28-.9-8.9-2.3-17.8-4.2-26.6-1.5-7.3-3.6-14.9-6.7-21.8 0-.1-.1-.1-.1-.2-7.3-16.9-18.3-28.4-33.3-32.5-1.9-.5-3.8-.9-5.6-1.2z" fill="#00739D"/><g fill="#FFF"><path d="M310.7 233.7c.6 2.2 1.3 4.3 1.8 6.4-2 1.8-4.2 3.5-6.4 5.1-.7-2.8-1.6-5.7-2.5-8.6 2.4-1 4.7-1.9 7.1-2.9zm-1.4-4.8c2.1-.1 4.3-.3 6.5-.5.3.9.5 1.7.7 2.6-1.9.9-3.9 1.8-5.9 2.6-.4-1.5-.9-3.1-1.3-4.7z"/><path d="M310.7 233.7c-2.4 1-4.7 2-7.1 2.9-.8-2.4-1.5-4.8-2-7.1 2.1-.1 4.3-.3 6.4-.4.5 0 .9-.1 1.4-.1.4 1.5.8 3.1 1.3 4.7z"/><path d="m303.6 236.6-7.8 3c-1-3.3-2-6.7-2.8-9.5v-.1c2.9-.2 5.7-.4 8.6-.6.5 2.4 1.3 4.8 2 7.2z"/><path d="M298.9 250c-.9-3.1-2-6.8-3.1-10.4 2.6-.9 5.2-1.9 7.8-3 .9 2.9 1.8 5.7 2.5 8.6-2.3 1.7-4.8 3.4-7.2 4.8z"/><path d="M295.8 239.5c1.1 3.6 2.2 7.3 3.1 10.4l.1.1c-.6.4-1.3.8-2 1.2-2 1.2-4 2.3-6.1 3.4v-.1c-1-3.6-2.2-7.9-3.4-12.1 2.7-.9 5.5-1.8 8.3-2.9z"/><path d="M295.8 239.5c-2.8 1-5.6 2-8.4 2.9-1.2-4.1-2.3-8.2-3.3-11.7v-.1c3-.3 5.9-.5 8.9-.7v.1c.8 2.9 1.8 6.2 2.8 9.5z"/></g><path d="M288 497.7c23.4 3.6 47 3.9 69.2-2.7h.1c33.4-8.2 52.7-33.1 57-63.8h.1c-.3 3.1-.7 6.3-1 9.5-1.6 14.6-3.9 29.8-12.3 41.9-9.7 13.9-26.3 21.7-43.1 24.3s-45.9 2.2-45.9 2.2c-15.9-.4-21.8-4.7-24.1-11.4z" fill="#00739D"/><path d="M290.9 254.7c-2.4 1.3-4.7 2.5-7.1 3.6v-.1c-.8-2.9-2.4-7.9-4-13.2 2.6-.8 5.1-1.6 7.7-2.5 1.1 4.2 2.3 8.5 3.4 12.2z" fill="#FFF"/><path d="M287.4 242.5c-2.6.9-5.1 1.7-7.7 2.5-1.4-4.6-2.9-9.4-4-13.3v-.1l8.4-.9v.1c1 3.5 2.2 7.6 3.3 11.7z" fill="#FFF"/><path d="M211.6 99.5c1-3.6 1.1-7.4-1.3-10.1-1.3-1.4-2.9-2.1-4.7-2.3-3.4-.4-7.4 1.2-10 3.6-4 3.8-6.1 9.1-9.6 13.3-4.9 6-12.4 9.8-20.1 10.1-19.9.6-35.5 1.2-55.4 1.8-2.6.1-5.3.2-7.9.2-6.2-6-10.7-12.8-12.2-19.5s-.9-14.3 3.2-19.9c4.2-5.7 11.2-9.4 17.9-11.4 13.1-4 29-6 42.7-6.6 5.7 0 11.5.1 17.4.3 10.4-.1 16.6-2 25.3-7.5 8.6-5.5 16.1-12.8 24.6-18.4s18.9-9.7 29-7.7c.9.2 1.9.5 2.8.8 4.2 1.5 8 4.3 10.6 7.8 2.9 3.9 4.4 8.6 3.4 13.4-.8 3.8-3 7.2-4.4 10.8s-1.6 8.2 1 11.1c3.3 3.7 9.2 2.9 13.6 5.2 8 4.3 6.6 15.7 9.8 24.5-2.8-6.9-8.3-11.5-14.8-12s-13.1 3.3-15.9 9.2c-1.9 4-1.8 9-4.5 12.5-5.3 6.7-11.2 4.2-18.6 5.4-5 .7-9.9 2.9-14.8 1.8-3.5-.8-6.6-3.6-7.8-7-.6-1.8-.8-3.8-.5-5.6.4-1.3.9-2.5 1.2-3.8z" fill="#7E4CDB"/><path d="M276.3 261.2c-1-2.9-2.5-8.4-4.1-14 2.5-.7 5-1.5 7.5-2.3 1.6 5.3 3.2 10.3 4 13.2v.1c-2.4 1.1-4.9 2.2-7.4 3.2z" fill="#FFF"/><path d="M263.9 33.9c-2.6-3.5-6.4-6.3-10.6-7.8l.3-.9 16.3-21.5c1.3-1.7 3.3-2.7 5.6-2.7 3.9 0 7.1 3.2 7.1 7.1 0 1.8-1.3 4.1-2.1 5.2-3.2 4.5-6.9 8.7-11.4 14.2-1.5 1.8-3.1 3.8-4.8 5.9z" fill="#3D138D"/><path d="M253.5 357.3c-.1 5.4.4 11 1.2 16.3 2.9 21.6 7.5 43 13.5 64 2.3 8.1 4.9 16.1 7.7 24.1 2.3 6.5 4.7 13.5 5 20.2h-.2c-1.9-.3-3.7-.6-5.5-1-3.5-.7-6.6-1.7-9.5-2.7-1.5-17.2-6.5-34.2-14.5-49.5-7.4-14-17.3-26.7-23.8-41.1s-9.2-31.9-1.8-45.9c8.4-15.8 27.1-22.9 44.5-27.1 14.2-3.4 29.2-5.8 43.5-3.3-19.6 2.4-39.8 7.5-52.7 23.2-.6.7-1.2 1.5-1.7 2.3-4.1 6.1-5.6 13.2-5.7 20.5z" fill="#00739D"/><path d="M268 232.5c2.5-.4 5.1-.7 7.7-1v.1c1.1 4 2.6 8.8 4 13.3-2.5.8-5 1.5-7.5 2.3-1.6-5.5-3.2-11.2-4.2-14.7zm8.4 29c-2.8 1.1-5.6 2.2-8.4 3.2v-.1c-.9-3.1-2.5-9.1-4.2-14.9l8.4-2.4c1.6 5.6 3.2 11.1 4.1 14z" fill="#FFF"/><path d="M263.8 249.6c-1.9-6.7-3.8-13.4-4.4-15.6v-.1c2.9-.5 5.8-1 8.6-1.4 1 3.4 2.6 9.1 4.2 14.7-2.8.9-5.6 1.7-8.4 2.4z" fill="#FFF"/><path d="M265.9 481.4c-.1-1.1-.1-2.1-.2-3.2 2.9 1 6.1 2 9.5 2.7 1.8.4 3.7.7 5.5 1h.2c.2 3.6-.3 7.3-1.7 10.7-.5 1.1-1.1 2.3-1.7 3.3-4-.8-8-1.6-11.9-2.5.6-4 .5-8 .3-12z" fill="#7E4CDB"/><path d="M254.9 252.1c2.9-.8 5.9-1.6 8.8-2.4 1.6 5.8 3.3 11.7 4.2 14.9v.1c-2.9 1-5.8 1.9-8.8 2.7v-.1c-.9-3.4-2.5-9.1-4.2-15.2z" fill="#FFF"/><path d="M262.4 501.6c1-1.6 1.8-3.3 2.3-5.1.3-1.1.6-2.1.8-3.2 4 .9 7.9 1.8 11.9 2.5-4.8 3.4-9.9 5.2-15 5.8z" fill="#7E4CDB"/><path d="M299.7 320c-14.2 1-30 3.9-38.9 14.6 12.9-15.7 33.1-20.8 52.7-23.2 1.9.3 3.8.8 5.6 1.3 14.9 4.1 26 15.6 33.3 32.5-3.6-7.8-8.6-14.6-15.8-19.1-10.8-6.8-24.2-7-36.9-6.1z" fill="#00739D"/><path d="M263.8 249.6c-3 .8-5.9 1.6-8.8 2.4-1.6-5.6-3.2-11.5-4.4-16.3v-.1c2.9-.7 5.9-1.3 8.9-1.8v.1c.5 2.4 2.4 9 4.3 15.7zm-17.9 4.9c3-.8 6.1-1.6 9.1-2.4 1.7 6.1 3.3 11.8 4.3 15.3v.1c-3 .9-6.1 1.6-9.2 2.3v-.2c-1.4-4.7-2.8-9.9-4.2-15.1z" fill="#FFF"/><path d="M255.3 508c3-1.3 5.4-3.6 7.1-6.4 5.1-.7 10.2-2.5 15-5.8-4.6 7.3-13.4 11.3-22.1 12.2z" fill="#00739D"/><path d="M254.9 252.1c-3 .8-6.1 1.6-9.1 2.4-1.6-5.7-3.1-11.4-4.5-16.4v-.1c3-.9 6.1-1.6 9.2-2.3v.1c1.2 4.7 2.9 10.7 4.4 16.3zm-17.5 4.6c2.8-.7 5.6-1.5 8.4-2.2 1.4 5.2 2.9 10.4 4.1 15v.2c-2.8.6-5.6 1.1-8.4 1.6v-.2c-1.2-4.5-2.6-9.4-4.1-14.4z" fill="#FFF"/><path d="M245.9 254.5c-2.8.7-5.6 1.5-8.4 2.2-1.6-5.5-3.2-11-4.6-16v-.1c2.5-.9 4.9-1.6 7.4-2.4.4-.1.7-.2 1.1-.3v.1c1.3 5.1 2.9 10.8 4.5 16.5zm-17 4.5c2.8-.8 5.7-1.5 8.6-2.3 1.4 5 2.9 9.9 4.1 14.4v.2c-1.3.2-2.7.4-4 .6-1.5.2-3 .4-4.6.5-1.4-4.2-2.8-8.8-4.1-13.4z" fill="#FFF"/><path d="M124.3 480.6c1-2.4 1.7-4.9 2.4-7.6 5-21.2.2-49.9-2-72.9-.9-9.2-1-20.5 0-32.1 2.1-23.1 8.9-47.7 24.3-59.5 59-22.7 126.3-14.9 187.9-29.4 9.5-2.3 19.4-5.3 26.2-12.4 8.4-8.7 10.4-21.5 11.4-33.6 1.5-18.9 1.4-38-.4-56.9-.9-9-2.5-18.7-9.1-24.8-8.5-7.8-21.6-6.7-33-5.1-22.9 3.2-41 6.9-64 10.2-7.3.1-10.8-.8-13.3-4.6-2.6-4-2.8-9-2.6-13.8s.6-9.7-1.1-14.1c-2.3-6-8.5-10.3-14.9-10.2-.9 0-1.7.1-2.6.2 7.4-1.3 13.3 1.2 18.6-5.4 2.8-3.5 2.6-8.5 4.5-12.5 2.8-5.9 9.4-9.7 15.9-9.2 6.4.5 12 5.1 14.8 12 .4 1 .8 2 1.3 2.9 3.1 5.7 9.3 9 15.7 10.3 6.3 1.3 12.9.7 19.3.2 18.3-1.3 37.5-1.4 54.2 6.3 1.4.6 2.8 1.3 4.1 2 14.4 7.7 23.9 19.1 26 38.7 13.8 90.6 16.1 180.8 6.6 271.8h-.1c-4.3 30.8-23.6 55.6-57 63.8 2.9-.9 5.7-1.9 8.5-3 5.2-2 11.1-6.2 9.9-11.6-.8-3.3-4.2-5.4-7.6-5.8s-6.7.6-10 1.4c-22.6 6-46.4 9.4-69.6 7l-.2-.1c1.8-4.3 4.9-8.2 8.7-10.9 7-5.1 15.8-7.1 24.4-8 6.5-.6 13.5-.8 19.8-2.3 23.9-5.4 30.8-17 37.7-30.2 7.1-13.5 9.9-28.9 10.8-44.1.8-13.4.2-27-4.1-39.7-4.2-12.7-12.4-24.4-24-31-11.5-6.5-25.5-7.6-38.7-6.4-3.1.3-6.3.6-9.5 1-14.3-2.5-29.3-.2-43.5 3.3-17.4 4.2-36.1 11.3-44.4 27.1-7.4 14-4.7 31.4 1.8 45.9s16.4 27.1 23.8 41.1c8.1 15.3 13 32.3 14.5 49.5-19.2-6.9-27-18.8-37.9-13.9-6.7 3-7.2 9.8-1.2 15.8 4.2 4.2 12.1 6.3 17.8 7.9 6.9 1.9 14 3.8 21.1 5.4-.2 1.1-.4 2.2-.8 3.2-.5 1.8-1.3 3.5-2.3 5.1-9 1.2-18.1-.9-26.5-3.8-13.1-4.5-25.3-11.6-38.8-15-26.1-6.6-52.7.2-71.2 19.7 1.7-3.1 1.7-7 .8-10.4-.8-2.9-2.3-5.6-3.9-8.2.5-1 1-2.1 1.5-3.3z" fill="#7E4CDB"/><path d="M227.7 464.3c11-4.9 18.7 7 37.9 13.9.1 1 .2 2.1.2 3.2.3 4 .3 8-.4 12-7.1-1.6-14.2-3.5-21.1-5.4-5.7-1.6-13.6-3.7-17.8-7.9-6-6.1-5.4-12.8 1.2-15.8z" fill="#00739D"/><path d="M233 272.4c1.5-.1 3-.3 4.6-.5 1.4-.2 2.7-.4 4-.6 2.8-.5 5.6-1 8.4-1.6 3.1-.7 6.1-1.4 9.2-2.3 3-.8 5.9-1.7 8.8-2.7 2.8-1 5.7-2 8.4-3.2 2.5-1 4.9-2.1 7.4-3.2 2.4-1.1 4.8-2.3 7.1-3.6 2-1.1 4.1-2.2 6.1-3.4.6-.4 1.3-.8 2-1.2 2.4-1.5 4.9-3.1 7.2-4.9 2.2-1.6 4.3-3.3 6.4-5.1 1.8-1.6 3.5-3.3 5.1-5 2.2-2.3 4.2-4.8 5.9-7.3 0-.1.1-.1.1-.2v-.2h.2c1.8-.4 3.6-.9 5.4-1.5 6.5-2.4 14.3-6.2 15.8-13.9-4.4 27-30.7 49.5-57.1 56.1v.1c-18.5 2.4-37.7 4-54.9 4.6v-.1c-.1-.2-.1-.2-.1-.3z" fill="#7E4CDB"/><path d="M237.4 256.7c-2.9.8-5.7 1.5-8.6 2.3-1.5-5.1-2.9-10.3-4.2-15.1v-.1c2.7-1.1 5.4-2.2 8.2-3.1v.1c1.4 4.9 3 10.5 4.6 15.9zm-8.5 2.3c1.3 4.6 2.7 9.1 4.1 13.4-3 .3-6.1.6-9.1.8v-.1c-1.1-3.7-2.4-7.7-3.7-11.6 2.9-.9 5.8-1.7 8.7-2.5z" fill="#FFF"/><path d="M228.9 259c-2.9.8-5.8 1.6-8.6 2.4-1.5-4.6-3-9.3-4.3-13.6 2.8-1.4 5.7-2.8 8.6-4v.1c1.4 4.9 2.8 10 4.3 15.1zm-16.7 4.8c2.7-.8 5.4-1.6 8.1-2.3 1.3 4 2.5 7.9 3.7 11.6v.1c-2.7.2-5.5.3-8.2.4-1.1-3.1-2.3-6.5-3.6-9.8z" fill="#FFF"/><path d="M220.3 261.4c-2.7.8-5.4 1.5-8.1 2.3-1.5-3.9-2.9-7.9-4.1-11.4l-.1-.1c2.6-1.6 5.2-3.1 8-4.4 1.3 4.3 2.8 9 4.3 13.6zm-15.4 4.6c2.4-.8 4.9-1.5 7.3-2.2 1.3 3.4 2.5 6.7 3.5 9.8-2.6.1-5.2.1-7.9.2v-.1c-.9-2.4-1.9-5-2.9-7.7z" fill="#FFF"/><path d="M207.6 117.7c-1.8-4.6.6-9.7 2.6-14.2 0-.1.1-.2.1-.3-.3 1.9-.2 3.8.5 5.6 1.3 3.4 4.3 6.1 7.8 7 4.9 1.2 9.8-1.1 14.8-1.8.9-.1 1.7-.2 2.6-.2 6.4 0 12.6 4.2 14.9 10.2 1.7 4.4 1.3 9.4 1.1 14.1s0 9.8 2.6 13.8c2.5 3.7 6 4.7 13.3 4.6h1.4c-5.3.2-10.7.5-15.8-1.1s-9.8-5.3-11-10.5c-.9-4.1.4-8.6-1.3-12.4-2.6-5.9-10.4-7-16.9-7.2-6.5-.4-14.3-1.6-16.7-7.6z" fill="#00739D"/><path d="M201.3 256.6c2.2-1.6 4.4-3 6.7-4.4l.1.1c1.2 3.6 2.7 7.5 4.1 11.4-2.4.7-4.9 1.5-7.3 2.2-1.2-3.1-2.4-6.4-3.6-9.3zm-3.9 11.9c2.5-.9 5-1.7 7.5-2.5 1 2.7 2 5.3 3 7.7v.1c-2.8 0-5.6.1-8.4.1v-.1c-.7-1.7-1.4-3.5-2.1-5.3z" fill="#FFF"/><path d="M154.1 167.5c-2-1.8-4-3.5-6.1-5.1l.3-.4 17.5-22.8 39.9-51.8V87c1.8.2 3.4.9 4.7 2.3 2.4 2.7 2.3 6.5 1.3 10.1-.3.5-.5 1-.7 1.5-11.1 13.3-21.6 25.7-30.6 36.1-15.4 18-26 30-26 30z" fill="#3D138D"/><path d="M204.9 266c-2.5.8-5 1.6-7.5 2.5-.9-2.3-1.7-4.6-2.6-6.7l-.1-.1c2.1-1.8 4.2-3.4 6.5-5 1.3 2.8 2.5 6.1 3.7 9.3zm-5.1-84c1.2-.1 2.3-.1 3.5 0 2.9.2 12.9.3 12.7 4.4-.1 1.8-2.2 2.7-3.9 3.1-2.9.7-5.9 1.2-8.9 1.5-1 .1-1.9.2-2.9.3l-.2-2.6c1.1-.1 2-1.1 2-2.2 0-1.2-1-2.2-2.2-2.2z" fill="#FFF"/><path d="M197.7 186.4c0-1.2 1-2.2 2.2-2.2s2.2 1 2.2 2.2c0 1.1-.9 2.1-2 2.2h-.2c-1.3 0-2.2-1-2.2-2.2z"/><path d="M200.3 191.3c-4.1.3-8.1.2-12.2-.1-1.3-.1-2.7-.4-3.2-1.6-.7-1.5.9-3.1 2.4-3.9 3.8-2.2 8.2-3.4 12.5-3.7l.1 2.2c-1.2 0-2.2 1-2.2 2.2s1 2.2 2.2 2.2h.2z" fill="#FFF"/><path d="M188.1 191.1c4.1.4 8.1.4 12.2.1 1-.1 1.9-.1 2.9-.3 3-.3 5.9-.8 8.9-1.5 1.8-.4 3.8-1.3 3.9-3.1.2-4.1-9.8-4.2-12.7-4.4-1.2-.1-2.3-.1-3.5 0-4.4.2-8.8 1.5-12.5 3.7-1.5.8-3 2.4-2.4 3.9.5 1.2 2 1.5 3.2 1.6zm-33.7-24s10.6-12.1 26-30c8.1-1.3 17-2.3 22.9 3.1 8.1 7.3 4.9 21.2 11 30.2 5.4 7.9 16.1 9.8 25.7 10.4 20 1.4 40 .8 59.9-1.8 5.1-.7 10.6-1.4 15.8-1.3v.1c13.5 6.3 17.9 27.2 12.3 41.3-1.1 2.9-2.5 5.6-4.2 8.1h-.2c-2.6.6-5.2.9-7.9 1.1-2.1.2-4.3.4-6.5.5-.5 0-.9.1-1.4.1-2.1.1-4.3.2-6.4.4-2.9.2-5.7.4-8.6.6-3 .2-5.9.4-8.9.7-2.8.2-5.6.5-8.4.9-2.6.3-5.1.6-7.7 1-2.9.4-5.8.9-8.6 1.4-3 .5-5.9 1.1-8.9 1.8-3.1.7-6.1 1.5-9.2 2.3-.4.1-.7.2-1.1.3-2.5.7-5 1.5-7.4 2.4-2.8.9-5.5 2-8.2 3.1-2.9 1.2-5.8 2.6-8.6 4-2.7 1.4-5.4 2.9-8 4.4-2.3 1.4-4.5 2.9-6.7 4.4-2.2 1.6-4.4 3.3-6.5 5-4.1 3.5-7.9 7.3-11.4 11.5-.2.2-.3.4-.5.6l-.1.3c-2.6.1-5.1.2-7.8.3 5.7-11.9 8.9-25.3 8.9-39.4 0-26.8-11.6-50.9-30-67.6z" fill="#7E4CDB"/><path d="M183.4 273.2c3.4-4.2 7.3-8 11.4-11.5l.1.1c.9 2.2 1.7 4.5 2.6 6.7-4.6 1.6-9.1 3.2-13.7 5z" fill="#FFF"/><path d="M182.9 273.8c.2-.2.3-.4.5-.6l.3.3c4.5-1.8 9.1-3.5 13.7-5 .7 1.8 1.4 3.6 2 5.3v.1c-5 0-10 .1-15.1.2-.6 0-.5.1-1.1.1h-.4z" fill="#FFF"/><path d="M43.3 158.3c2.7-12 16.4-20.3 28.5-22.2s24.4.8 36.6 2.5c18.9 2.6 38.2 2.9 57.2.7l.1.1-17.5 22.6-.3.4c-15.3-11.6-34.4-18.5-55-18.5-18.2 0-35.2 5.3-49.4 14.6z" fill="#7E4CDB"/><path d="M163.1 275.5c-13.9 24.4-40.2 40.9-70.3 41v-.4c7.4-16.1 22.6-27.7 39.3-33.9 7.4-2.8 15.4-4.6 23.6-5.8 2.4-.4 4.9-.7 7.4-.9zm-14.1 33c-2 1.1-3.9 2.3-5.8 3.6l-.4-.7c13.9-9.1 25.1-21.8 32.3-36.9l7.8-.3h.4c.6 0 .5-.1 1.1-.1 5-.1 10-.1 15.1-.2 2.8 0 5.6 0 8.4-.1 2.6 0 5.2-.1 7.9-.2s5.5-.2 8.2-.4c3-.2 6.1-.4 9.1-.8v.2c17.3-.6 36.4-2.2 54.9-4.6 10.5-1.4 20.8-3 30.4-4.9.7-.1 1.3-.3 2-.4 16-3.1 40.2-7.4 47.5-21.4 4.5-8.7 3.4-19.2 2.2-29-1.4-11.3-2.8-22.6-4.3-34-.9-6.9-2-14.4-7-19.3-6.1-6-15.8-6-24.3-5.6-21.8 1-43.5 2-65.2 2.9h-1.4c22.9-3.2 41-6.9 64-10.2 11.4-1.6 24.5-2.7 33 5.1 6.6 6.1 8.3 15.8 9.1 24.8 1.8 18.9 2 38 .4 56.9-1 12-3 24.9-11.4 33.6-6.8 7-16.7 10.1-26.2 12.4-61.5 14.7-128.9 6.9-187.8 29.6z" fill="#00739D"/><path d="M117.7 407.3c.3 4.5 2.9 8.6 3.3 13.4.3 4.3-.5 8.2-1 12.5-.9 7.9 1 13.7 1.8 21.6.5 4.5 3.5 7.5 4.9 18.2-.6 2.6-1.4 5.2-2.3 7.6l-.2-.1c-2.3-8-4-7.5-5.1-12.4-1.2-5.1-.8-10.4-1.3-15.6-.5-5.3-3.1-9.9-4-15-.7-4.4 1.1-8.5 1.3-12.8.4-5.2-1.7-10.4-1.8-15.6-.1-6.1 1.6-11.4 3.1-17.1 2.7-10.3-.8-21.7 4.5-31.3 3.4-6.2 4.8-12.3 6.8-19.2 1.9-6.9 7.8-16.3 8.7-23.2l-.5-.6c2.3-2 4.8-3.9 7.4-5.6 1.9-1.3 3.8-2.5 5.8-3.6-15.3 11.9-22.1 36.4-24.3 59.5h-.1c-.5 6.3-2.8 17-3.5 22.8-.7 5.4-3.8 11.1-3.5 16.5zm103.1 95.9c-32.8-7.2-68.6-4.5-101.9 4.7v-.1c2.1-.6 4-1.5 5.5-3 .6-.6 1.2-1.4 1.6-2.2 18.5-19.5 45.1-26.4 71.2-19.7 13.4 3.4 25.7 10.4 38.8 15 8.3 2.9 17.5 5 26.5 3.8-1.7 2.8-4.1 5.1-7.1 6.4v.1c-.8.1-1.7.2-2.5.2-11 .4-21.5-2.9-32.1-5.2z" fill="#00739D"/><path d="M120 433.2c.5-4.3 1.3-8.2 1-12.5-.3-4.7-3-8.9-3.3-13.4-.3-5.4 2.8-11.1 3.5-16.5.7-5.7 3-16.4 3.5-22.8h.1c-1.1 11.7-.9 23 0 32.1 2.2 23 7 51.6 2 72.9-1.3-10.8-4.4-13.7-4.9-18.2-.9-7.9-2.9-13.8-1.9-21.6z" fill="#00739D"/><path d="M113.3 409.1c.1 5.2 2.2 10.4 1.8 15.6-.3 4.3-2.1 8.4-1.3 12.8.8 5.1 3.5 9.7 4 15 .5 5.2.1 10.5 1.3 15.6 1.2 4.8 2.8 4.4 5.1 12.4l.2.1c-.5 1.2-1 2.3-1.5 3.4-.4-.7-.9-1.4-1.4-2.1-5.7-10.9-8.3-22.3-9.5-31.2-.8-6-.6-10.5-2.2-16.4-1.4-4.8-1.7-8.6-1.3-13.6 1-10.9-3-19.9 1.2-30.5 3.5-8.9 2.3-18.1 5.8-26.9 2.8-6.9 7.1-12.5 8.5-20 1.4-7.4 3.8-13.7 7.8-19.7l-.5-.4c-.8.7-1.5 1.4-2.2 2.1l-.5-.5c2.3-2.5 4.8-4.9 7.4-7.1l.5.6c-.9 6.9-6.7 16.3-8.7 23.2-1.9 6.9-3.4 13-6.8 19.2-5.3 9.6-1.8 21-4.5 31.3-1.6 5.7-3.3 11-3.2 17.1z" fill="#00739D"/><path d="M114 468.9c-3.4-8.8-7-16.6-7.4-25.9-.2-5.6-1.2-9.8-2.8-15.1-1.8-6.1-.9-11.3-.1-17.4.6-5.1-.9-10-.6-15.1.3-5.5 2.5-9.5 3.9-14.5 1.3-4.7 0-9.5 1.5-14.2 1.8-5.7 5-9.9 7.7-15.1 4.3-8.2 6.2-19.1 12.8-26.3.7-.7 1.4-1.5 2.2-2.1l.5.4c-4 6-6.5 12.3-7.8 19.7-1.4 7.5-5.7 13-8.5 20-3.5 8.8-2.3 18-5.8 26.9-4.2 10.6-.2 19.6-1.2 30.5-.4 5.1-.1 8.9 1.3 13.6 1.7 5.9 1.4 10.3 2.2 16.4 1.2 8.9 3.8 20.3 9.5 31.2-.3-.5-.6-.9-.9-1.4-2.4-3.8-4.6-7.6-6.5-11.6z" fill="#00739D"/><path d="M113.9 469c-11.7-22.7-17.5-48.5-15.3-73.9 2-22.5 11.5-50.3 29.8-70.2l.5.5c-6.5 7.2-8.5 18.1-12.8 26.3-2.7 5.2-6 9.4-7.7 15.1-1.5 4.7-.2 9.5-1.5 14.2-1.4 5-3.6 9.1-3.9 14.5-.3 5.1 1.3 10 .6 15.1-.8 6.1-1.7 11.3.1 17.4 1.6 5.3 2.6 9.5 2.8 15.1.4 9.2 4.1 17 7.4 25.9z" fill="#00739D"/><path d="M90.4 96.5c1.5 6.8 6.1 13.6 12.2 19.5-6.3 0-12.5-.5-18.4-2.6-8.4-2.9-16-9.8-17.2-18.6-1.2-8.6 4.2-17.1 11.3-22s17.2-8.4 25.7-10.1c16.9-3.2 33.4-4.2 50.3-4.2-13.7.6-29.6 2.6-42.7 6.6-6.7 2-13.7 5.8-17.9 11.4-4.1 5.7-4.8 13.3-3.3 20z" fill="#7E4CDB"/><path d="M93.5 153.9c44.4.5 80.3 36.7 80.3 81.2 0 14.7-3.9 28.4-10.7 40.3h-.1c-2.5.3-5 .6-7.4.9v-.1c13.1-16.9 18.1-42.2 10.6-62.2s-25.9-35.6-46.9-39.6c-6.2-1.2-12.7-1.5-18.3-4.4s-9.9-9.6-7.6-15.4z" fill="#86aeba"/><path d="M28.9 214c-2.1 12.1-2.7 31.3-2.5 39.7l.1.1-.1.2c.3 7.4.8 15.2 1.9 23.6l.6 4.2c.2 1.4.4 2.8.7 4.3l-.3.2c14.9 18.4 37.7 30.2 63.2 30.2h.3v-.4c7.4-16.1 22.6-27.7 39.3-33.9 7.4-2.8 15.4-4.6 23.6-5.8v-.1c13.1-16.9 18.1-42.2 10.6-62.2s-25.9-35.5-46.9-39.6c-6.2-1.2-12.7-1.5-18.3-4.4s-9.9-9.6-7.6-15.5v-.6h-.9c-20.3 0-38.9 7.5-53.1 19.8-1.5 5.8-6.9 18.8-10.2 38.5" fill="#7E4CDB"/><path d="M98.6 395.1c-2.2 25.4 3.5 51.2 15.3 73.9 2 3.9 4.2 7.8 6.6 11.5.3.5.6.9.9 1.4.5.7.9 1.4 1.4 2.1-.1.1-.1.2-.2.3-4.2 5.3-16.9 7.6-29.1 8.1v-.5c-12-54.3-13.8-110.8-3.6-165.5v-.3h2.9c18.4 0 35.5-5.5 49.9-14.9l.4.7c-2.6 1.7-5 3.6-7.4 5.6-2.6 2.2-5.1 4.6-7.4 7.1-18.1 20.1-27.7 48-29.7 70.5z" fill="#00739D"/><path d="M92.8 316.4c30.1-.1 56.3-16.6 70.3-41 6.8-11.9 10.7-25.6 10.7-40.3 0-44.6-35.9-80.7-80.3-81.2h-.9c-20.3 0-38.9 7.4-53.1 19.8-17.2 14.9-28.1 36.9-28.1 61.5 0 19.3 6.8 37.1 18 51 14.9 18.4 37.7 30.2 63.2 30.2zm.1-172.4c20.7 0 39.7 6.9 55 18.5 2.1 1.6 4.2 3.3 6.1 5.1 18.4 16.7 30 40.8 30 67.6 0 14.1-3.2 27.5-8.9 39.4-7.2 15-18.5 27.8-32.3 36.9-14.3 9.4-31.5 14.9-49.9 14.9H90c-22.3-.7-42.5-9.4-58-23.3-18.6-16.9-30.2-41.1-30.2-68 0-32.1 16.6-60.3 41.7-76.6 14.2-9.2 31.2-14.5 49.4-14.5z" fill="#3D138D"/><path d="M93.5 492v.5c-5 .2-10 .1-14.2-.2-14.3-1.1-30.1-9.7-36.3-22.6l-.2-.1c1.7-6.7 4.3-13.1 6-19.8 4-15.9 2.6-32.5.7-48.8-3.9-33-9.8-65.7-17.7-98l.1-.1c15.5 13.9 35.7 22.6 58 23.3v.3c-10.2 54.7-8.4 111.2 3.6 165.5z" fill="#7E4CDB"/><path d="M93.5 492.4c12.2-.5 25-2.8 29.1-8.1.1-.1.1-.2.2-.3 1.6 2.6 3.1 5.3 3.9 8.2 1 3.4.9 7.3-.8 10.4-.4.8-.9 1.5-1.6 2.2-1.5 1.5-3.4 2.5-5.5 3-2.1.6-4.3.8-6.4 1-18 1.3-36.9.5-53.5-2.6-7.2-1.3-13.1-6-16.3-12.7-3.2-6.6-1.9-15.5-.2-22.6.1-.5.2-.9.3-1.4l.2.1c6.2 12.9 22 21.5 36.3 22.6 4.3.3 9.2.4 14.3.2zM29.8 212.6c-.3.5-.6.9-.9 1.4.1-.6.2-1.2.3-1.7z" fill="#00739D"/><path d="M28.4 277.5c-1.1-8.3-1.7-16.2-1.9-23.6v-.3c-.3-8.3.3-27.6 2.5-39.7.1-.6.2-1.2.3-1.7 3.4-19.8 8.7-32.8 10.2-38.5-17.2 14.9-28.1 36.9-28.1 61.5 0 19.3 6.8 37.1 18 51l.3-.2c-.2-1.4-.5-2.9-.7-4.3l-.6-4.2zm-8.1-27.8c0 .1-.1.2-.1.3 0-.1.1-.2.1-.3l.3.1z" fill="#00739D"/><path d="m28.4 277.5.6 4.2-.6-4.2zM26.5 254c.3 7.4.9 15.2 1.9 23.6-1.1-8.4-1.7-16.2-1.9-23.6z" fill="#7E4CDB"/><path d="m26.6 253.8-.1.2v-.3l.1.1z" fill="#00739D"/><path d="M318.3 264c-.4 0-.7-.3-.7-.6-.1-.4.2-.8.6-.9.6-.1 1.2-.2 1.8-.4h.1c11.4-2.7 19.8-11.2 23.5-23.7 2.3-7.8 2.6-16.8.8-27.4-.1-.4.2-.8.6-.9s.8.2.9.6c1.8 10.9 1.5 20.1-.9 28.1-3.9 13-12.6 21.8-24.5 24.7h-.1c-.7.2-1.4.3-2 .4 0 .1 0 .1-.1.1z"/><path d="M345.2 211.6c-.4 0-.7-.3-.7-.6-.5-2.9-1.1-5.9-1.9-9.2-1.5-6.2-3.5-12.5-7.9-16.8s-10.4-6.4-19-6.4c-5.4-.1-10.9.7-15.7 1.3-19.9 2.6-40.1 3.2-60 1.8-9.3-.6-20.6-2.5-26.2-10.8-2.8-4.2-3.7-9.4-4.6-14.4-1.1-6.1-2.1-11.8-6.3-15.7-5.7-5.2-14.5-4.2-22.3-2.9l-.6.1c-.4.1-.8-.2-.9-.6s.2-.8.6-.9l.6-.1c8.2-1.3 17.4-2.3 23.5 3.3 4.6 4.2 5.7 10.5 6.8 16.5.8 4.8 1.7 9.9 4.4 13.8 5.3 7.8 16.2 9.5 25.1 10.1 19.9 1.4 40 .8 59.7-1.8 4.9-.6 10.5-1.4 15.9-1.3 8.9.1 15.4 2.3 20.1 6.9 4.6 4.6 6.7 11.2 8.3 17.6.8 3.4 1.4 6.4 1.9 9.3.1.4-.2.8-.6.9-.1-.1-.1-.1-.2-.1zM43.3 159h-.2c-.4-.1-.7-.5-.6-.9 2.8-12.4 16.8-20.9 29.1-22.8 10.1-1.6 20.4 0 30.4 1.5 2.1.3 4.3.6 6.4.9 18.9 2.6 38 2.8 57 .7.4 0 .8.2.8.7 0 .4-.2.8-.7.8-19.1 2.2-38.4 1.9-57.4-.7-2.1-.3-4.3-.6-6.4-.9-9.9-1.5-20.1-3-29.9-1.5-11.9 1.8-25.2 9.9-27.9 21.6 0 .4-.3.6-.6.6z"/><path d="M323.9 227.4c-.1 0-.1 0 0 0-.1-.1-.1-.1-.1-.2 1.7-2.6 3.1-5.3 4.2-8.1 5.5-13.8 1.3-34.8-12.3-41.1-.1 0-.1-.1-.1-.2s.1-.1.2-.1c13.7 6.4 17.9 27.5 12.4 41.4-1.1 2.8-2.5 5.5-4.2 8.2l-.1.1z"/><path d="M183.3 274.7c-.3 0-.5-.2-.5-.5s.2-.5.5-.5h1.1c5-.1 10.1-.1 15.1-.2 2.8 0 5.6 0 8.4-.1 2.8 0 5.4-.1 7.8-.2 2.8-.1 5.6-.2 8.2-.4 3.1-.2 6.2-.4 9.1-.8 1.5-.1 3.1-.3 4.5-.5 1.3-.2 2.7-.4 4-.6 2.9-.5 5.7-1 8.4-1.6 2.9-.6 6-1.4 9.2-2.3 3-.8 5.9-1.8 8.7-2.7 2.7-.9 5.6-2 8.4-3.2 2.4-1 4.9-2.1 7.3-3.2s4.8-2.3 7.1-3.6c2-1 4-2.2 6.1-3.4l.4-.2c.5-.3 1-.6 1.6-1 2.5-1.6 4.9-3.2 7.2-4.9 2.2-1.6 4.4-3.4 6.3-5.1 1.8-1.6 3.5-3.3 5.1-4.9 2.2-2.4 4.2-4.8 5.9-7.3l.1-.2c.2-.2.5-.3.7-.1s.3.5.1.7l-.1.1c-1.7 2.5-3.7 5-6 7.4-1.6 1.7-3.3 3.4-5.2 5-2 1.8-4.2 3.5-6.4 5.2-2.3 1.7-4.7 3.3-7.2 4.9-.5.3-1.1.6-1.6 1l-.4.2c-2.1 1.2-4.1 2.4-6.1 3.4-2.3 1.2-4.7 2.4-7.2 3.6s-4.9 2.2-7.4 3.2c-2.9 1.2-5.7 2.2-8.5 3.2-2.9 1-5.8 1.9-8.8 2.7-3.2.9-6.3 1.7-9.2 2.3-2.7.6-5.6 1.1-8.4 1.6-1.3.2-2.7.4-4 .6-1.5.2-3 .4-4.6.5-2.9.3-5.9.6-9.1.8-2.6.2-5.4.3-8.2.4-2.5.1-5 .1-7.9.2-2.8.1-5.6.1-8.4.1-4.9 0-10 .1-15 .2h-.5c-.1.1-.2.2-.6.2z"/><path d="m174.7 274.9-.1-.7h.4c2.3-.1 4.9-.2 7.8-.3.2 0 .4.2.4.4s-.2.4-.4.4c-2.9.1-5.4.2-7.8.3-.1-.1-.2-.1-.3-.1zm-81.9 41.3c-.1 0-.1-.1-.1-.2 3.5-7.7 9-14.7 16.2-20.7 6.5-5.5 14.5-10 23.1-13.3 6.8-2.5 14.8-4.5 23.6-5.8 2.4-.4 4.9-.7 7.4-.9.1 0 .1 0 .1.1s0 .1-.1.1c-2.6.3-5.1.6-7.4.9-8.8 1.3-16.7 3.2-23.5 5.8-18.2 6.8-32.5 19.1-39.2 33.8 0 .1 0 .2-.1.2zm252.3-103.6h-.2c-.4-.1-.7-.5-.6-.9 0-.2.1-.3.1-.5 0-.4.4-.7.8-.7s.7.4.7.8c0 .2-.1.4-.1.6-.1.4-.4.7-.7.7z"/><path d="M182.9 274.3c-.1 0-.2 0-.3-.1-.2-.2-.2-.5-.1-.7.2-.2.3-.4.5-.6 3.4-4.1 7.2-8 11.4-11.6 2.1-1.8 4.3-3.5 6.5-5 2.2-1.6 4.4-3.1 6.7-4.4 2.6-1.6 5.3-3.1 8-4.4 2.8-1.4 5.7-2.8 8.7-4 2.7-1.1 5.5-2.2 8.2-3.1 2.5-.9 5-1.7 7.5-2.4.4-.1.7-.2 1.1-.3 2.9-.8 6-1.6 9.2-2.3 2.9-.7 5.9-1.3 8.9-1.8 2.8-.5 5.8-1 8.7-1.4 2.8-.4 5.3-.7 7.7-1 2.9-.3 5.7-.6 8.4-.9 2.9-.3 5.8-.5 8.9-.7 3-.2 6-.4 8.6-.6 2.1-.1 4.1-.3 6.2-.4l1.6-.1c1.9-.1 4.2-.2 6.4-.5 3-.3 5.5-.6 7.8-1.1h.2c1.8-.4 3.6-.9 5.3-1.5 6-2.2 14-5.9 15.5-13.5.1-.3.3-.4.6-.4.3.1.4.3.4.6-1.6 8.1-9.9 12-16.1 14.3-1.7.6-3.6 1.2-5.5 1.6h-.2c-2.3.5-4.9.9-7.9 1.2-2.3.2-4.6.4-6.5.5l-1.6.1c-2.1.1-4.1.2-6.2.4-2.5.2-5.6.3-8.6.6-3.1.2-6 .5-8.9.7-2.7.2-5.5.5-8.4.9-2.4.3-4.9.6-7.7 1-2.9.4-5.8.9-8.6 1.4-3 .5-5.9 1.1-8.9 1.8-3.2.7-6.2 1.5-9.2 2.3-.4.1-.7.2-1.1.3-2.4.7-4.9 1.5-7.4 2.4-2.7.9-5.5 2-8.2 3.1-2.9 1.2-5.8 2.6-8.6 4-2.6 1.3-5.3 2.8-7.9 4.4-2.3 1.4-4.5 2.9-6.7 4.4-2.2 1.6-4.4 3.2-6.4 5-4.2 3.6-8 7.4-11.3 11.5-.2.2-.3.4-.5.6.1-.3 0-.3-.2-.3z"/><path d="M183.8 273.7c-.1 0-.2-.1-.2-.2-.1-.1 0-.3.1-.3 4.3-1.7 8.8-3.4 13.7-5 2.4-.8 5-1.7 7.5-2.5 2.1-.7 4.5-1.4 7.3-2.2s5.5-1.6 8.1-2.3c2.5-.7 5.3-1.5 8.6-2.4 2.8-.8 5.7-1.5 8.6-2.3 2.8-.7 5.6-1.5 8.4-2.2l3.4-.9 5.7-1.5c3-.8 6-1.6 8.8-2.4 2.6-.7 5.3-1.5 8.4-2.4 2.3-.7 4.8-1.4 7.5-2.3s5.2-1.7 7.7-2.5c2.8-.9 5.7-1.9 8.4-2.9 2.9-1 5.4-2 7.8-3 2.4-.9 4.8-1.9 7.1-2.9 1.8-.8 3.7-1.6 5.8-2.6 2.4-1.1 4.7-2.2 7-3.4.1-.1.3 0 .3.1.1.1 0 .3-.1.3-2.3 1.1-4.6 2.3-7 3.4-2.2 1-4.1 1.8-5.9 2.6-2.3 1-4.7 2-7.1 2.9-2.4 1-5 1.9-7.8 3-2.7 1-5.5 2-8.4 2.9-2.5.8-5 1.6-7.7 2.5-2.7.8-5.2 1.6-7.5 2.3-3.1.9-5.9 1.7-8.4 2.4-2.8.8-5.8 1.6-8.8 2.4l-5.7 1.5-3.4.9c-2.8.7-5.6 1.5-8.4 2.2-2.9.8-5.7 1.5-8.5 2.3-3.3.9-6.1 1.7-8.6 2.4-2.6.7-5.3 1.5-8.1 2.3s-5.1 1.6-7.3 2.2c-2.5.8-5 1.6-7.5 2.5-4.9 1.7-9.4 3.4-13.8 5.1zm48.3-.3c-.4 0-.7-.3-.8-.7 0-.4.3-.8.7-.8h1c17.6-.6 36.6-2.2 54.8-4.6 10.7-1.4 20.9-3 30.3-4.8.4-.1.8.2.9.6s-.2.8-.6.9c-9.4 1.8-19.7 3.5-30.4 4.9-18.3 2.4-37.4 4-55 4.6zm113-60.8h-.1c-.4-.1-.7-.5-.6-.9l.2-1c0-.4.3-.7.7-.7s.7.4.7.8v.1l-.2 1c-.1.4-.4.7-.7.7z"/><path d="M288 268c-.1 0-.1 0-.1-.1s0-.1.1-.2c24.2-6 52.4-27.7 57-56 0-.1.1-.1.1-.1.1 0 .1.1.1.1-2.1 12.8-9.1 25.2-20.4 35.8-10.4 10-23.5 17.2-36.8 20.5zm-132.4 8.3c-.1-.1-.1-.1-.1-.2 13.5-17.3 17.8-42.8 10.6-62.1-7.5-20-25.8-35.5-46.8-39.6-1.6-.3-3.2-.6-4.7-.8-4.6-.7-9.4-1.5-13.6-3.7-5.5-2.9-10-9.7-7.7-15.6 0-.1.1-.1.2-.1s.1.1.1.2c-2.3 5.8 2.1 12.5 7.6 15.3 4.1 2.2 8.9 2.9 13.5 3.6 1.6.2 3.2.5 4.7.8 21 4.1 39.4 19.7 47 39.7 3.6 9.7 4.5 20.9 2.4 32.3-2 11.2-6.6 21.9-13.2 30.2zm-125.9 9.8c-.1 0-.1 0-.1-.1-.2-1.4-.4-2.8-.7-4.3-.2-1.3-.4-2.5-.5-3.8l-.1-.4c-1-7.8-1.7-15.7-1.9-23.6v-.3c-.2-7.7.3-27.2 2.5-39.7.1-.5.2-1.1.3-1.7 2.5-14.7 6.1-25.5 8.4-32.7.8-2.4 1.4-4.4 1.8-5.9 0-.1.1-.1.1-.1.1 0 .1.1.1.1v.1c-.4 1.5-1 3.4-1.8 5.9-2.3 7.1-5.9 18-8.4 32.7-.1.7-.2 1.2-.3 1.7-2.2 12.4-2.7 32-2.5 39.6v.3c.3 7.8.9 15.7 1.9 23.6l.1.4c.2 1.2.3 2.5.5 3.8.2 1.5.4 2.9.7 4.3 0 .1-.1.1-.1.1zm63.8 206c-.1 0-.1 0-.1-.1-6-27.4-9.4-55.2-10.1-82.6-.7-28.1 1.5-56 6.5-82.9 0-.1.1-.1.1-.1.1 0 .1.1.1.1-10 53.7-8.8 109.3 3.5 165.4.1.1.1.2 0 .2z"/><path d="M96.1 510.1c-12.9 0-25.7-1.1-37.2-3.2-7.4-1.4-13.5-6.1-16.9-13.1-3.3-7-1.9-16-.3-23.1.1-.5.2-.9.3-1.4.8-3.4 2-6.7 3-10 1-3.2 2.1-6.5 3-9.8 4-15.9 2.6-32.7.7-48.5-3.9-32.8-9.8-65.8-17.7-97.9-.1-.4.1-.8.5-.9s.8.1.9.5c7.9 32.2 13.9 65.2 17.7 98.1 1.9 16 3.4 32.9-.7 49-.8 3.3-1.9 6.7-3 9.9s-2.2 6.6-3 9.9c-.1.4-.2.9-.3 1.3-1.6 6.9-3 15.6.2 22.1 3.1 6.5 8.9 11 15.8 12.3 16.2 3 35.2 3.9 53.3 2.6 2.1-.2 4.2-.4 6.3-.9 2.2-.6 3.9-1.5 5.1-2.8.6-.6 1.1-1.3 1.5-2 1.4-2.7 1.7-6.3.7-9.8-.8-3-2.4-5.7-3.9-8-.4-.7-.9-1.4-1.4-2.1-.3-.5-.6-.9-.9-1.4-2.4-3.8-4.7-7.7-6.7-11.6C101 445.7 95.7 420 97.9 395c2.3-26.3 13.5-52.8 30-70.7 2.4-2.6 4.9-5 7.4-7.2 2.3-2 4.8-3.9 7.4-5.7 1.9-1.3 3.9-2.5 5.8-3.6.4-.2.8-.1 1 .3s.1.8-.3 1c-1.9 1.1-3.9 2.3-5.7 3.5-2.5 1.7-5 3.6-7.3 5.6-2.5 2.2-5 4.6-7.3 7.1-19.2 20.8-27.9 49.7-29.6 69.8-2.2 24.7 3.1 50.1 15.2 73.5 2 3.9 4.2 7.7 6.6 11.4.3.5.6 1 .9 1.4.5.7.9 1.4 1.4 2.2 1.5 2.4 3.1 5.3 4 8.4 1.1 3.9.8 7.9-.8 10.9-.5.9-1 1.7-1.7 2.3-1.5 1.5-3.4 2.5-5.8 3.2-2.1.6-4.4.8-6.6 1-5.4.5-10.9.7-16.4.7z"/><path d="M88.1 492.7c-3 0-6-.1-8.8-.3-7.2-.6-14.7-3-21.2-6.9-7-4.2-12.2-9.6-15.2-15.8 0-.1 0-.1.1-.2.1 0 .1 0 .2.1 5.8 12.1 20.7 21.4 36.2 22.6 4.4.3 9.3.4 14.1.2 7.1-.3 24-1.7 29-8.1 0-.1.1-.1.2 0 .1 0 .1.1 0 .2-5.1 6.5-22.1 7.9-29.2 8.2-1.8-.1-3.6 0-5.4 0z"/><path d="M122.6 484.8c-.1 0-.2 0-.2-.1-.2-.1-.3-.4-.2-.7l.1-.2c.6-1.1 1.1-2.3 1.6-3.5v-.1c.9-2.3 1.7-4.8 2.3-7.4 4.1-17.2 1.6-39.7-.6-59.5-.5-4.6-1-8.9-1.4-13.2-.9-10-.9-21.4 0-32.2 1.5-16.4 6.7-46.1 24.4-59.9.2-.2.5-.1.7.1s.1.5-.1.7c-17.5 13.6-22.6 42.9-24.1 59.2-1 10.7-1 22.1 0 32 .4 4.2.9 8.6 1.4 13.2 2.2 19.9 4.7 42.5.6 59.9-.6 2.7-1.4 5.2-2.4 7.6v.1c-.5 1.2-1 2.3-1.5 3.4l-.2.3c0 .2-.2.3-.4.3zm189.5 25c-14.5-.3-21.9-3.7-24.8-11.6v-.1c-.4-1-.7-2.1-.9-3.4-.8-3.9-.3-8 1.3-12 1.8-4.4 5-8.4 8.9-11.3 6.1-4.5 14-7 24.8-8.1 1.8-.2 3.6-.3 5.4-.5 4.8-.4 9.8-.8 14.4-1.8 4.8-1.1 8.6-2.9 11.7-5.3 6.4-5.1 9.9-13.4 10.9-25.6.2-2.5.3-5.3.3-8.4 0-9.3-.5-18.7-1.4-27.9-.9-8.9-2.3-17.8-4.1-26.5s-4-15.8-6.7-21.6c-.2-.4 0-.8.4-1s.8 0 1 .4c2.8 6 4.9 13 6.8 21.9 1.8 8.8 3.2 17.8 4.2 26.7 1 9.3 1.5 18.7 1.4 28 0 3.2-.1 6-.3 8.6-1 12.6-4.8 21.3-11.5 26.6-3.3 2.6-7.3 4.4-12.3 5.6-4.7 1.1-9.7 1.5-14.6 1.9-1.8.1-3.6.3-5.3.4-10.6 1-18.2 3.5-24.1 7.8-3.7 2.7-6.7 6.5-8.4 10.6-1.6 3.7-2 7.6-1.3 11.1.2 1.1.5 2.1.8 3.1v.1c1.8 5.1 6.1 10.4 23.5 10.8.4 0 .7.4.7.8-.1.3-.4.7-.8.7z"/><path d="M250.6 509.1c-8 0-16-1.9-23.7-3.7l-6.3-1.5c-30.8-6.8-65.9-5.2-101.5 4.7-.3.1-.6.2-.9.2-.4.1-.8-.1-.9-.5s.1-.8.5-.9l.9-.3c35.9-9.9 71.2-11.5 102.3-4.7l6.3 1.5c8.3 2 16.9 4 25.4 3.6.9 0 1.7-.1 2.5-.2 9.4-1 17.5-5.5 21.6-11.9.6-1 1.2-2 1.7-3.2 1.3-3.1 1.8-6.5 1.7-10.4-.3-6.6-2.7-13.4-5-20-2.8-8-5.4-16.2-7.7-24.2-6.1-21-10.6-42.6-13.6-64.1-.6-4.6-1.3-10.6-1.2-16.4.2-8.5 2.1-15.4 5.8-20.8.5-.8 1.1-1.5 1.7-2.3 9.7-11.6 27.1-14.1 39.4-14.9s26.3-.8 37.3 6.2c6.7 4.2 12 10.6 16.1 19.4.2.4 0 .8-.4 1s-.8 0-1-.4c-4-8.6-9-14.7-15.5-18.8-10.7-6.7-24.4-6.8-36.4-5.9-12 .8-29 3.2-38.4 14.4-.6.7-1.2 1.5-1.6 2.2-3.6 5.2-5.4 11.8-5.5 20-.1 5.8.6 11.7 1.2 16.2 2.9 21.5 7.5 43 13.5 63.9 2.3 8 4.9 16.1 7.7 24 2.3 6.7 4.8 13.6 5.1 20.4.2 4.1-.4 7.7-1.8 11-.5 1.2-1.1 2.3-1.8 3.4-4.4 6.8-12.9 11.4-22.7 12.5-.8.1-1.6.2-2.6.2-.7.3-1.5.3-2.2.3zM103.1 116.8h-.4c-5.3 0-12.2-.3-18.7-2.6-9.6-3.4-16.6-10.9-17.7-19.2-1.1-8.2 3.5-17.1 11.6-22.7 6.6-4.5 16.3-8.3 26-10.2 15.2-2.9 31.1-4.2 50.2-4.2h.2c5.4 0 11.1.1 17.4.3.4 0 .7.4.7.8s-.3.7-.8.7c-6.4-.2-12.1-.3-17.6-.3-18.9 0-34.8 1.3-49.9 4.2-9.5 1.8-19 5.5-25.4 9.9-7.7 5.3-12 13.7-11 21.3 1 7.7 7.6 14.8 16.7 18 6.3 2.2 13 2.5 18.2 2.5 2.7 0 5.3-.1 7.9-.2 9.9-.3 18.8-.6 27.7-.9s17.8-.6 27.7-.9c.4 0 .8.3.8.7s-.3.8-.7.8c-9.9.3-18.8.6-27.7.9s-17.8.6-27.7.9c-2.4.1-5 .2-7.5.2z"/><path d="M320.3 263.6c-.4 0-.7-.3-.7-.6-.1-.4.2-.8.6-.9l1.1-.2c15.5-3 38.9-7.4 45.9-20.8 4.6-8.8 3.2-19.8 2.1-28.5l-4.3-34c-.9-7.3-2.1-14.3-6.8-18.8-5.8-5.7-14.9-5.8-23.8-5.4l-3 .1c-20.8.9-41.5 1.9-62.3 2.8-5.3.2-10.8.5-16-1.2-4.6-1.4-10.1-5.1-11.5-11-.4-1.8-.4-3.8-.4-5.6 0-2.4 0-4.7-.9-6.7-2.4-5.6-10-6.6-16.3-6.8-6.2-.2-14.8-1.3-17.4-8-1.8-4.7.4-9.7 2.3-14.1l.4-1c.6-1.3 1-2.5 1.3-3.6 1.1-4.1.7-7.3-1.2-9.4-1.1-1.2-2.5-1.9-4.2-2.1-3.1-.4-6.8 1-9.4 3.4-2.3 2.1-3.9 4.8-5.6 7.6-1.2 1.9-2.4 3.9-3.9 5.7-5 6.2-12.7 10-20.6 10.4-.4 0-.8-.3-.8-.7s.3-.8.7-.8c7.5-.3 14.8-4 19.5-9.8 1.4-1.7 2.6-3.7 3.8-5.5 1.7-2.7 3.5-5.6 5.9-7.8 2.9-2.7 7-4.2 10.6-3.8 2.1.2 3.9 1.1 5.2 2.6 2.3 2.5 2.8 6.1 1.5 10.8-.3 1.2-.8 2.4-1.3 3.8l-.5 1c-1.9 4.3-3.9 8.8-2.3 12.9 2.3 5.8 10.3 6.8 16.1 7 6.7.2 14.8 1.3 17.6 7.7 1 2.3 1 4.9 1 7.3 0 1.8 0 3.6.4 5.3 1.2 5.3 6.2 8.6 10.5 9.9 5 1.5 10.3 1.3 15.5 1.1 20.8-.9 41.5-1.9 62.3-2.8l3-.1c9.2-.4 18.6-.3 24.9 5.8 5 4.9 6.2 12.1 7.2 19.7l4.3 34c1.1 9 2.5 20.2-2.3 29.4-7.3 14-31.2 18.6-46.9 21.6l-1.1.2c-.1-.1-.1-.1-.2-.1z"/><path d="M316.8 509.8h-4.7c-.4 0-.7-.3-.7-.8 0-.4.3-.7.8-.7.3 0 29.2.4 45.7-2.2 18.5-2.9 34-11.6 42.6-24 8.2-11.9 10.5-27 12.2-41.6.4-3.2.7-6.3 1-9.5 9.4-89.9 7.1-181.3-6.6-271.6-1.9-17.8-10-29.9-25.6-38.2-1.3-.7-2.6-1.3-4-2-16.6-7.6-35.7-7.5-53.8-6.2l-1 .1c-6.1.4-12.4.9-18.4-.3-7.4-1.5-13.3-5.3-16.2-10.6-.5-.9-1-1.9-1.4-3.1-1-2.8-1.6-6-2.1-9-1.1-6.3-2.2-12.3-7.3-15.1-1.7-.9-3.7-1.3-5.6-1.7-3-.6-6-1.3-8.1-3.6-2.4-2.7-2.8-7.1-1.1-11.8.5-1.4 1.2-2.8 1.8-4.2 1-2.2 2-4.3 2.5-6.5.9-4.3-.2-8.8-3.2-12.8-2.6-3.4-6.2-6.1-10.2-7.5-.9-.3-1.8-.6-2.7-.7-11-2.3-21.7 2.8-28.7 7.4-4.1 2.7-8 5.8-11.7 8.8-4.1 3.3-8.4 6.7-12.9 9.6-8.9 5.7-15.4 7.6-25.7 7.7-.4 0-.7-.3-.8-.7 0-.4.3-.8.7-.8 10-.1 16.3-1.9 24.9-7.4 4.5-2.8 8.7-6.2 12.8-9.5 3.8-3 7.7-6.2 11.9-8.9 7.3-4.8 18.3-10.1 29.5-7.8.9.2 1.9.5 2.9.8 4.3 1.5 8.2 4.4 11 8.1 3.3 4.3 4.5 9.3 3.5 14-.5 2.4-1.6 4.7-2.6 6.9-.6 1.3-1.3 2.7-1.8 4.1-.6 1.6-2.2 6.9.8 10.3 1.8 2 4.5 2.6 7.3 3.2 2 .4 4.2.9 6 1.9 5.8 3.1 6.9 9.7 8.1 16.1.5 3 1.1 6 2 8.7.4 1 .8 2 1.3 2.8 2.7 4.9 8.2 8.5 15.2 9.9 5.9 1.2 12.1.7 18 .3l1-.1c18.4-1.3 37.7-1.4 54.6 6.3 1.4.7 2.8 1.3 4.1 2 16 8.5 24.4 21 26.4 39.3 13.8 90.5 16 182 6.6 272-.3 3.1-.7 6.3-1 9.5-1.7 14.7-4 30.1-12.4 42.2-8.8 12.7-24.7 21.7-43.6 24.6-12.6 2-32.4 2.3-41.3 2.3z"/><path d="M195.1 192.2c-2.3 0-4.7-.1-7-.3-1.3-.1-3.1-.5-3.8-2-.9-2 .9-3.9 2.7-4.9 3.9-2.2 8.3-3.5 12.9-3.8 1.1-.1 2.4-.1 3.6 0 .3 0 .7 0 1.1.1 4.4.2 12.6.7 12.3 5.1-.1 1.8-1.7 3.1-4.5 3.8-3 .7-6 1.2-8.9 1.5-1.1.1-2 .2-2.9.3-2 .1-3.8.2-5.5.2zm6.3-9.5c-.5 0-1.1 0-1.6.1-4.3.2-8.5 1.5-12.2 3.6-.9.5-2.6 1.8-2 3 .3.6 1.1 1 2.6 1.1 4 .4 8.1.4 12.1.1.9-.1 1.8-.1 2.9-.3 2.9-.3 5.9-.8 8.8-1.5 1.2-.3 3.3-1 3.3-2.4.1-3-7.9-3.4-10.9-3.6-.4 0-.8 0-1.1-.1h-1.9z"/><path d="M189.2 196.1c-.3 0-.5-.2-.5-.5v-4c0-.3.2-.5.5-.5s.5.2.5.5v4c0 .2-.2.5-.5.5zm7.2.6c-.3 0-.5-.2-.5-.5v-4.7c0-.3.2-.5.5-.5s.5.2.5.5v4.7c0 .3-.2.5-.5.5zm7.4-.6c-.2 0-.5-.2-.5-.4-.2-1.5-.4-3-.6-4.6v-.2c0-.3.2-.5.5-.5s.5.2.5.5v.1l.6 4.5c.1.3-.1.5-.5.6.1 0 .1 0 0 0zm8.8-.7c-.2 0-.4-.2-.5-.4l-1-5.3c-.1-.3.1-.5.4-.6s.5.1.6.4l1 5.3c.1.3-.1.6-.5.6.1 0 .1 0 0 0zM199.5 274c-.1 0-.2-.1-.2-.2-.6-1.6-1.3-3.3-2-5.3l-.5-1.3c-.7-1.8-1.4-3.6-2-5.4-.1-.1 0-.3.1-.3.1-.1.3 0 .3.1.7 1.7 1.4 3.6 2.1 5.4l.5 1.3c.8 2 1.4 3.7 2 5.3 0 .2-.1.4-.3.4zm8.4-.1c-.1 0-.2-.1-.2-.2-1-2.3-1.9-4.8-3-7.7l-.4-1.2c-1.1-2.8-2.1-5.7-3.2-8.2v-.1c0-.1.1-.3.3-.3.1 0 .2.1.2.1 1 2.5 2.1 5.4 3.2 8.2l.4 1.2c1.1 2.8 2 5.4 3 7.7 0 .3-.1.4-.3.5zm7.8-.1c-.1 0-.2-.1-.2-.2-1-3-2.1-6.1-3.5-9.8l-.4-1.1c-1.3-3.5-2.7-7.1-3.7-10.3 0-.1 0-.3.2-.3.1 0 .3 0 .3.2 1.1 3.2 2.4 6.8 3.7 10.3l.4 1.1c1.4 3.8 2.6 6.9 3.5 9.8 0 .1 0 .3-.3.3.1 0 .1 0 0 0zm8.2-.5c-.1 0-.2-.1-.2-.2-1-3.3-2.2-6.9-3.3-10.4l-.8-2.5c-1.3-4.1-2.7-8.4-3.9-12.4v-.1c0-.1.1-.3.3-.3.1 0 .2.1.2.2 1.2 4 2.6 8.2 3.9 12.4l.8 2.5c1.1 3.5 2.2 7 3.3 10.4 0 .2-.1.4-.3.4zm9.2-.5c-.1 0-.2-.1-.2-.2v-.1c-1.3-3.9-2.7-8.3-4.1-13.4-1.3-4.3-2.5-8.7-3.6-12.9l-.6-2.2c0-.1 0-.3.2-.3.1 0 .3 0 .3.2l.6 2.2c1.2 4.2 2.4 8.6 3.6 12.9 1.5 5.1 2.8 9.5 4.1 13.4v.1l-.3.3zm8.5-1.5c-.1 0-.2-.1-.2-.2-1.1-3.9-2.3-8.1-3.6-12.5l-.5-1.9c-1.6-5.4-3.2-10.9-4.6-15.9 0-.1 0-.3.2-.3.1 0 .3 0 .3.2 1.4 4.9 3 10.5 4.6 15.9l.5 1.9c1.3 4.4 2.5 8.6 3.6 12.6-.1.1-.1.2-.3.2zm8.4-1.5c-.1 0-.2-.1-.2-.2-1.3-4.6-2.7-9.8-4.1-15l-4.5-16.4c0-.1 0-.3.2-.3.1 0 .3 0 .3.2l4.5 16.4c1.4 5.2 2.9 10.4 4.1 15 0 .1-.1.2-.3.3zm9.2-2.2c-.1 0-.2-.1-.2-.2-.7-2.5-1.7-6-2.8-10.1l-1.4-5.1c-1.9-6.7-3.4-12.2-4.4-16.3 0-.1 0-.3.2-.3.1 0 .3 0 .3.2 1 4.1 2.5 9.6 4.4 16.3l1.4 5.1c1.2 4.1 2.1 7.7 2.8 10.1-.1.1-.1.2-.3.3zm8.7-2.8c-.1 0-.2-.1-.2-.2-.8-2.8-2.1-7.7-3.6-12.9l-1.2-4.2c-1.6-5.8-3.2-11.4-3.7-13.4 0-.1 0-.3.2-.3.1 0 .3 0 .3.2.5 2 2.1 7.5 3.7 13.3l1.2 4.2c1.5 5.2 2.8 10.1 3.6 12.9 0 .2-.1.3-.3.4zm8.4-3.3c-.1 0-.2-.1-.2-.2-1-2.9-2.6-8.7-4.1-14-.6-2.1-1.2-4.2-1.7-6.2-.9-3.3-1.8-6.4-2.4-8.5 0-.1 0-.3.2-.3.1 0 .3 0 .3.2.6 2.1 1.5 5.2 2.4 8.5.6 2 1.2 4.1 1.7 6.2 1.5 5.3 3.1 11.1 4.1 14 0 .1-.1.2-.3.3zm7.4-3.1c-.1 0-.2-.1-.2-.2-.6-2.1-1.6-5.2-2.7-8.8l-1.4-4.4c-1.5-4.8-2.9-9.5-4-13.3 0-.1 0-.3.2-.3.1 0 .3 0 .3.2 1.1 3.8 2.5 8.5 4 13.3l1.4 4.4c1.1 3.6 2.1 6.7 2.7 8.8 0 .1-.1.3-.3.3zm7.2-3.6c-.1 0-.2-.1-.2-.2-1-3.6-2.2-7.9-3.4-12.1l-1.3-4.7c-.7-2.5-1.4-4.8-2-7 0-.1 0-.3.2-.3.1 0 .3 0 .3.2.6 2.2 1.3 4.5 2 7l1.3 4.7c1.2 4.2 2.4 8.5 3.4 12.1-.1.2-.1.3-.3.3zm8-4.6c-.1 0-.2-.1-.2-.2-.7-2.3-1.4-4.9-2.2-7.6l-.8-2.9c-1-3.4-2-6.7-2.8-9.5 0-.1 0-.3.2-.3.1 0 .3 0 .3.2.8 2.8 1.8 6.1 2.8 9.5l.8 2.9c.8 2.7 1.6 5.3 2.2 7.6-.1.1-.1.3-.3.3zm7.2-4.8c-.1 0-.2-.1-.2-.2-.6-2.5-1.4-5.1-2.2-7.6l-.3-1c-.7-2.3-1.5-4.8-2-7.1 0-.1.1-.3.2-.3s.3.1.3.2c.6 2.4 1.3 4.8 2 7.1l.3 1c.8 2.5 1.6 5.1 2.2 7.6 0 .1-.1.2-.3.3zm6.4-5.1c-.1 0-.2 0-.2-.1v-.1c-.5-1.8-1-3.7-1.6-5.5l-.3-.9c-.5-1.6-.9-3.2-1.3-4.7 0-.1 0-.3.2-.3.1 0 .3 0 .3.2.4 1.5.9 3.1 1.3 4.7l.3.9c.5 1.8 1.1 3.7 1.6 5.5 0 .1 0 .3-.2.3h-.1zm5.1-5c-.1 0-.2-.1-.2-.2-.3-1.2-.6-2.2-.9-3.3l-.2-.6c-.2-.8-.5-1.7-.7-2.5v-.1c0-.1 0-.3.2-.3.1 0 .3 0 .3.2v.1c.2.9.5 1.7.7 2.5l.2.6.9 3.3c0 .1-.1.3-.3.3.1 0 .1 0 0 0zm-51-78.6c-6.7 0-9.9-1.2-12.1-4.6-2.6-4-2.8-9-2.6-13.9 0-.5 0-1 .1-1.5.2-4.3.4-8.6-1.1-12.6-2.2-5.9-8.4-10.1-14.7-10.1-.8 0-1.7.1-2.7.2-1.6.2-3.1.6-4.6 1-3.3.8-6.8 1.6-10.2.8-3.6-.8-6.7-3.6-7.9-7-.7-1.8-.8-3.8-.5-5.7.1-.8.3-1.5.6-2.2.2-.5.4-1 .7-1.5.2-.3.4-.7.7-1.1 0-.1.1-.1.2 0s.1.1 0 .2c-.3.4-.5.7-.7 1-.3.4-.5.9-.7 1.4-.3.7-.5 1.4-.6 2.2-.3 1.9-.2 3.8.5 5.6 1.2 3.4 4.3 6.1 7.7 6.9 3.3.8 6.7 0 10.1-.8 1.5-.4 3.1-.7 4.7-1 1-.1 1.8-.2 2.6-.2h.1c6.4 0 12.7 4.3 14.9 10.3 1.5 4 1.3 8.4 1.2 12.7 0 .5 0 1-.1 1.5-.2 4.8 0 9.8 2.6 13.7 2.4 3.6 5.6 4.7 13.2 4.5h1.4c.1 0 .1.1.1.1 0 .1-.1.1-.1.1h-2.8z"/><path d="M233.4 114.1c-.1 0-.1 0-.1-.1s0-.1.1-.1c2.2-.4 4.2-.4 6.1-.5 4.7-.1 8.7-.2 12.4-4.9 1.6-2 2.2-4.7 2.9-7.2.4-1.8.9-3.6 1.7-5.3 2.6-5.5 8.7-9.3 14.8-9.3.4 0 .8 0 1.2.1 6.5.5 12 5.1 14.9 12.1 0 .1.1.2.1.3s0 .1-.1.2c-.1 0-.1 0-.2-.1 0-.1-.1-.2-.1-.2-2.8-7-8.3-11.4-14.6-12-6.4-.5-13 3.3-15.8 9.1-.8 1.6-1.2 3.5-1.6 5.2-.6 2.6-1.3 5.2-2.9 7.3-3.8 4.8-7.9 4.9-12.6 5-2 0-4 0-6.2.4zm-130.7 2.1c-.1 0-.1 0 0 0-6.7-6.4-11-13.2-12.4-19.7-1.7-7.6-.5-14.9 3.2-20 5-6.8 13.4-10.1 18-11.5 16.1-4.8 33.7-6.2 42.7-6.6.1 0 .1.1.1.1 0 .1-.1.1-.1.1-9 .4-26.6 1.7-42.7 6.6-4.5 1.4-12.9 4.6-17.8 11.4-3.7 5-4.9 12.2-3.2 19.8 1.4 6.4 5.6 13.1 12.2 19.5.1.1.1.2 0 .3zM149 308.6c-.1 0-.1 0-.1-.1s0-.1.1-.2c34.1-13.1 71.6-16.1 107.9-19 26.5-2.1 54-4.3 80-10.4 9.6-2.3 19.4-5.3 26.2-12.3 8.3-8.6 10.4-21.2 11.4-33.5 1.5-18.9 1.4-38-.4-56.9-.9-9.3-2.6-18.8-9.1-24.7-8.4-7.7-21.4-6.7-32.9-5.1s-21.9 3.4-32 5.1-20.5 3.5-32 5.1c-.1 0-.1 0-.1-.1s0-.1.1-.1c11.5-1.6 21.9-3.4 32-5.1s20.5-3.5 32-5.1c11.6-1.6 24.6-2.7 33.1 5.1 6.5 6 8.3 15.5 9.2 24.9 1.8 18.9 1.9 38.1.4 57-1 12.4-3.1 25-11.4 33.6-6.8 7.1-16.7 10.1-26.3 12.4-26 6.1-53.4 8.3-80 10.4-36.5 2.9-74 5.9-108.1 19zm208.3 186.5c-.1 0-.1 0-.1-.1s0-.1.1-.2c2.9-.9 5.8-1.9 8.5-2.9 5.5-2.2 11-6.3 9.8-11.5-.8-3.4-4.4-5.4-7.5-5.7-3.2-.4-6.4.5-9.5 1.3l-.5.1c-26 6.9-48.8 9.2-69.6 7-.1 0-.1-.1-.1-.1 0-.1.1-.1.1-.1 20.8 2.2 43.5-.1 69.5-7l.5-.1c3.1-.8 6.3-1.7 9.6-1.3 3.1.4 6.9 2.4 7.7 5.9 1.3 5.3-4.3 9.6-9.9 11.8-2.8 1-5.7 2-8.6 2.9z"/><path d="M318.9 500.4c-9.7 0-20-.9-31-2.5-.1 0-.1-.1-.1-.1 0-.1.1-.1.1-.1 26.7 4.1 49.3 3.2 69.1-2.7.1 0 .1 0 .2.1 0 .1 0 .1-.1.2-11.6 3.4-24.3 5.1-38.2 5.1zm-41.5-4.4c-4-.8-8-1.6-11.9-2.5-6.5-1.5-13.4-3.3-21.1-5.4l-.7-.2c-5.5-1.5-13.1-3.6-17.2-7.7-3.2-3.2-4.7-6.8-4.1-9.9.5-2.6 2.4-4.8 5.3-6.1 6.8-3 12.3.3 20 4.9 5 3 10.6 6.4 18.1 9 3.1 1.1 6.3 2 9.5 2.7 1.7.4 3.5.7 5.5 1 .1 0 .1.1.1.1 0 .1-.1.1-.1.1-2-.3-3.8-.7-5.5-1-3.2-.7-6.5-1.6-9.6-2.7-7.5-2.7-13.1-6.1-18.1-9.1-7.6-4.6-13.1-7.9-19.7-4.9-2.9 1.3-4.7 3.3-5.2 5.9-.6 3.1.9 6.5 4 9.7 4 4 11.5 6.1 17.1 7.6l.7.2c7.7 2.2 14.6 3.9 21.1 5.4 4 .9 8 1.8 11.9 2.5.1 0 .1.1.1.1-.1.3-.2.3-.2.3z"/><path d="M255.3 508.2s-.1 0-.1-.1 0-.1.1-.2c2.8-1.2 5.2-3.4 7.1-6.3 1-1.6 1.8-3.3 2.3-5 .3-1 .6-2.1.8-3.2.8-4.2.6-8.6.4-11.9-.1-1-.1-2.1-.2-3.2-1.7-17.2-6.7-34.3-14.7-49.5-3.2-6-6.9-11.9-10.4-17.5-4.8-7.5-9.7-15.3-13.4-23.6-3.5-7.7-5.6-15.7-6.1-23.1-.6-8.6.8-16.3 4.3-22.8 9-16.9 29.7-23.6 44.5-27.2 12.2-2.9 28.1-6 43.6-3.3 1.9.3 3.8.8 5.7 1.3 14.5 4 25.8 14.9 33.3 32.6 0 0 0 .1.1.2.5 1.1.9 2.3 1.4 3.5 0 .1 0 .1-.1.2-.1 0-.1 0-.2-.1-.5-1.2-.9-2.4-1.4-3.5 0-.1 0-.1-.1-.1-7.6-17.6-18.7-28.5-33.2-32.4-1.8-.5-3.7-.9-5.6-1.3-15.4-2.7-31.3.3-43.4 3.3-14.8 3.6-35.4 10.2-44.4 27-6.5 12.2-5.8 28.9 1.8 45.8 3.7 8.2 8.6 16 13.4 23.6 3.6 5.7 7.3 11.5 10.4 17.5 8 15.2 13 32.3 14.5 49.5.1 1.1.2 2.1.2 3.2.2 3.4.4 7.8-.4 12-.2 1.2-.5 2.2-.8 3.2-.6 1.8-1.3 3.5-2.3 5.1-1.8 2.8-4.3 5-7.1 6.3z"/><path d="M339.5 462.3c-.1 0-.1 0-.1-.1s0-.1.1-.1c.6-.1 1.2-.3 1.8-.4 22.9-5.2 30-15.8 37.6-30.2 6.2-11.8 9.7-26.2 10.8-44.1.9-15.9-.4-28.5-4.1-39.6-4.6-13.8-13.1-24.8-24-31-10-5.7-22.9-7.8-38.6-6.3-3.5.3-6.6.7-9.5 1-17.4 2.2-39.1 6.7-52.6 23.2-.3.4-.6.7-1 1.3 0 .1-.1.1-.2 0-.1 0-.1-.1 0-.2.4-.5.7-.9 1-1.3 13.6-16.5 35.3-21.1 52.7-23.3 2.9-.4 6-.7 9.5-1 15.7-1.4 28.7.7 38.8 6.4 10.9 6.2 19.4 17.2 24.1 31.1 3.7 11.1 5 23.7 4.1 39.7-1.1 17.9-4.6 32.4-10.8 44.2-7.6 14.5-14.7 25.1-37.8 30.3-.6.1-1.2.3-1.8.4zm17.7 32.9c-.1 0-.1 0-.1-.1s0-.1.1-.2h.1c31.6-7.8 52.3-31 56.9-63.7 0-.1.1-.1.1-.1.1 0 .1.1.1.1-4.6 32.8-25.4 56.1-57.1 63.9l-.1.1zm-231.7 8.1c-.1 0-.1 0 0 0-.1-.1-.1-.2-.1-.2l.2-.2c.1-.1.2-.2.3-.4 9-9.5 20.4-16.3 32.8-19.7 12.2-3.3 25.6-3.4 38.5-.1 8 2 15.6 5.4 23.1 8.6 5.1 2.2 10.4 4.5 15.7 6.4 10.2 3.5 18.8 4.8 26.4 3.8 5.4-.7 10.5-2.7 15-5.7h.2v.2c-4.5 3.1-9.6 5.1-15.1 5.8-7.6 1-16.3-.2-26.5-3.8-5.4-1.9-10.6-4.2-15.8-6.4-7.4-3.2-15.1-6.6-23-8.6-26.4-6.7-53 .6-71.1 19.7l-.3.3z"/><path d="M268.3 438.1c-.2 0-.5-.2-.5-.4-2.7-21.2-4.5-41.7 4-59.1 6.6-13.6 18.5-24.2 31.7-28.3 5.2-1.6 10.5-2.2 15.6-1.8 20.9 1.9 40.9 22.2 44.6 45.2 0 .3-.1.5-.4.6s-.5-.1-.6-.4c-3.6-22.6-23.2-42.4-43.7-44.3-5.1-.5-10.2.1-15.3 1.7-13 4.1-24.6 14.5-31.1 27.8-8.3 17.1-6.6 37.4-3.9 58.5.1.2-.1.4-.4.5z"/><path d="M364.5 430.6c-.2 0-.4-.2-.4-.4-6.7-39.2-33.5-61.4-58.8-78l-1.8-1.2c-10.2-6.4-18.9-9.5-27.1-9.5-10.6-.1-19.4 6.1-22.5 15.9v.1c-.1.2-.3.3-.5.2s-.3-.3-.2-.5v-.1c3.2-9.9 12.2-16.4 23-16.4h.2c8.4.1 17.2 3.1 27.5 9.6l1.8 1.2c25.4 16.7 52.4 39.1 59.1 78.5v.1c0 .3-.1.5-.3.5zM382 120.5c-.2 0-.4-.2-.4-.4-.4-9.2-9.4-15.9-17.6-18.1-5.6-1.5-11.5-1.8-17.2-2.1-3.3-.2-6.7-.3-10.1-.7-6.6-.8-18.3-3.6-23.4-13-1.2-2.2-2-4.7-2.8-7.2-1.6-5-3.2-9.8-7.6-11.8-3-1.3-6.4-.8-9.8-.3-3.7.6-7.6 1.1-10.9-.8-3.5-2-5.4-6.6-5.1-12.3.1-1.7.3-3.4.6-5.1.4-2.7.8-5.6.5-8.3-.4-4.3-4.3-10.4-8.7-12.2-.2-.1-.3-.3-.2-.5s.3-.3.5-.2c4.8 1.9 8.7 8.3 9.2 12.8.3 2.9-.1 5.7-.5 8.5-.2 1.7-.5 3.4-.6 5-.3 5.4 1.5 9.7 4.7 11.6 3 1.8 6.6 1.3 10.4.7 3.5-.5 7-1 10.2.4 4.8 2.1 6.4 7.2 8.1 12.2.8 2.4 1.6 4.9 2.7 7 4.9 9.1 16.4 11.8 22.8 12.6 3.3.4 6.7.6 10 .7 5.7.3 11.7.6 17.3 2.1 8.4 2.3 17.7 9.2 18.1 18.8.2.5 0 .6-.2.6zM114 469.1c-.1 0-.1 0-.1-.1-.5-1.3-1-2.7-1.5-4-2.9-7.2-5.6-14.1-5.9-22-.2-5.5-1.1-9.6-2.8-15.1s-1-10.2-.3-15.7c.1-.6.2-1.2.2-1.8.3-2.7 0-5.5-.3-8.1-.3-2.3-.5-4.6-.4-6.9.2-3.7 1.3-6.7 2.4-9.8.5-1.5 1.1-3.1 1.6-4.7.6-2.2.6-4.6.7-6.8 0-2.4.1-4.9.8-7.4 1.2-3.9 3.1-7 5-10.4.9-1.5 1.8-3.1 2.7-4.8 1.5-3 2.8-6.2 4-9.6 2.2-6 4.6-12.1 8.8-16.7.7-.8 1.4-1.5 2.2-2.1h.2v.2c-.8.6-1.5 1.3-2.2 2.1-4.2 4.6-6.5 10.7-8.7 16.7-1.3 3.4-2.5 6.6-4 9.6-.9 1.7-1.8 3.2-2.7 4.8-2 3.3-3.8 6.4-5 10.3-.8 2.4-.8 4.9-.8 7.3 0 2.3-.1 4.6-.7 6.9-.5 1.7-1 3.2-1.6 4.8-1.1 3.1-2.2 6.1-2.4 9.8-.1 2.3.1 4.6.4 6.9.3 2.7.6 5.4.3 8.2-.1.6-.2 1.2-.2 1.8-.7 5.4-1.3 10.1.3 15.6 1.7 5.5 2.6 9.6 2.8 15.2.3 7.9 3 14.7 5.9 21.9.5 1.3 1 2.6 1.5 4-.1-.3-.1-.2-.2-.1z"/><path d="M121.4 482c-.1 0-.1 0-.1-.1-4.8-9.1-8-19.6-9.6-31.3-.3-2.1-.4-4-.6-5.9-.3-3.4-.5-6.7-1.6-10.5-1.4-4.8-1.7-8.6-1.3-13.7.4-4.1 0-8-.3-11.8-.6-6.2-1.1-12.1 1.5-18.7 1.7-4.4 2.3-9 2.9-13.4.6-4.5 1.1-9.1 2.9-13.5 1-2.5 2.2-4.9 3.4-7.2 2.1-4.1 4.1-8 5-12.8 1.4-7.4 3.9-13.7 7.8-19.7.7-1 1.4-2.1 2.1-3 0-.1.1-.1.2 0 .1 0 .1.1 0 .2l-2.1 3c-4 6-6.4 12.2-7.8 19.6-.9 4.8-2.9 8.7-5 12.8-1.2 2.3-2.4 4.7-3.4 7.2-1.8 4.4-2.3 9-2.9 13.4s-1.1 9-2.9 13.5c-2.6 6.5-2 12.4-1.5 18.6.3 3.8.7 7.7.3 11.9-.4 5-.1 8.8 1.3 13.6 1.1 3.8 1.3 7.1 1.6 10.5.1 1.8.3 3.7.6 5.8 1.6 11.7 4.8 22.1 9.5 31.2v.1c.2.2.1.2 0 .2z"/><path d="M124.1 480.6c-.1 0-.1 0-.1-.1-1.3-4.3-2.3-6.1-3.2-7.7-.7-1.3-1.4-2.4-1.9-4.7-.8-3.2-.9-6.6-1-9.9-.1-1.9-.1-3.9-.3-5.8-.3-2.9-1.2-5.6-2.1-8.2-.7-2.2-1.5-4.5-1.9-6.8-.5-2.8.1-5.5.6-8.1.3-1.5.6-3.1.7-4.7.2-2.8-.3-5.7-.9-8.5-.4-2.3-.9-4.7-.9-7-.1-5.3 1.2-9.9 2.5-14.8.2-.8.4-1.5.6-2.3 1.1-4.2 1.2-8.8 1.2-13.1.1-6.2.2-12.6 3.3-18.2 3-5.4 4.4-10.8 6-16.5.2-.9.5-1.7.7-2.6.8-2.9 2.3-6.2 3.9-9.7 2.1-4.7 4.3-9.5 4.8-13.5 0-.1.1-.1.1-.1.1 0 .1.1.1.1-.5 4-2.7 8.8-4.8 13.5-1.6 3.5-3.1 6.8-3.9 9.7-.2.9-.5 1.8-.7 2.6-1.6 5.8-3.1 11.2-6 16.6-3.1 5.6-3.2 12-3.3 18.1-.1 4.4-.1 8.9-1.2 13.2-.2.8-.4 1.6-.6 2.3-1.3 4.9-2.6 9.5-2.5 14.8 0 2.3.5 4.7.9 7 .5 2.8 1.1 5.7.9 8.6-.1 1.6-.4 3.2-.7 4.8-.5 2.6-1.1 5.3-.6 8.1.4 2.3 1.1 4.6 1.9 6.8.9 2.6 1.8 5.3 2.1 8.2.2 1.9.3 3.9.3 5.8.1 3.2.2 6.6 1 9.8.5 2.2 1.2 3.3 1.9 4.6.9 1.5 2 3.4 3.2 7.8 0-.2 0-.1-.1-.1z"/><path d="M126.7 473.2c-.1 0-.1-.1-.1-.1-.8-6.4-2.2-10-3.3-12.9-.8-2-1.4-3.5-1.6-5.3-.3-2.5-.6-4.8-1-7-.8-4.8-1.5-9.3-.9-14.7.1-1 .3-1.9.4-2.9.5-3.3.9-6.3.6-9.7-.2-2.3-.9-4.6-1.7-6.7-.8-2.3-1.5-4.4-1.6-6.6-.2-3.2.8-6.5 1.8-9.6.7-2.3 1.4-4.6 1.7-6.9.3-2.4.9-5.6 1.4-9 .9-4.9 1.8-10.1 2-13.8 0-.4 0-.7.1-1.1v-.1c0-.1.1-.1.1-.1.1 0 .1.1.1.1v.1c0 .3 0 .7-.1 1.1-.3 3.7-1.2 8.8-2 13.8-.6 3.4-1.2 6.6-1.4 9-.3 2.3-1 4.6-1.7 6.9-1 3.2-2 6.5-1.8 9.6.1 2.2.8 4.3 1.6 6.6.7 2.2 1.5 4.4 1.7 6.8.2 3.4-.2 6.4-.6 9.7-.1.9-.3 1.9-.4 2.8-.6 5.4.1 9.8.9 14.6.4 2.2.7 4.5 1 7 .2 1.8.8 3.3 1.5 5.3 1.1 2.9 2.5 6.5 3.3 12.9v.1c.1 0 .1.1 0 .1zM92.9 328c-1 0-2 0-3-.1-21.9-.7-42.9-9.1-59.1-23.8C11.2 286.5 0 261.4 0 235.1c0-31.7 15.9-60.8 42.5-78 15-9.7 32.4-14.8 50.4-14.8 20.4 0 39.8 6.5 56.1 18.8 2.1 1.6 4.3 3.4 6.3 5.2 19.4 17.6 30.5 42.7 30.5 68.9 0 14.1-3.1 27.6-9.1 40.1-7.3 15.3-18.7 28.3-32.9 37.6-15.2 9.8-32.8 15.1-50.9 15.1zm0-182.3c-17.3 0-34 4.9-48.5 14.3-25.6 16.6-40.9 44.6-40.9 75.1 0 25.3 10.8 49.5 29.6 66.4C48.8 315.6 69 323.7 90 324.4h2.9c17.5 0 34.4-5 48.9-14.6 13.7-9 24.7-21.5 31.7-36.2 5.8-12.1 8.8-25.1 8.8-38.6 0-25.2-10.7-49.3-29.4-66.3-1.9-1.7-4-3.4-6-5-15.7-11.7-34.3-18-54-18z"/><path d="M92.8 317.2h-.3c-24.9 0-48.1-11.1-63.8-30.5-11.7-14.5-18.2-32.8-18.2-51.5 0-23.8 10.3-46.4 28.4-62 14.9-12.9 33.9-20 53.6-20h1c21.7.2 42.1 8.9 57.3 24.3 15.3 15.4 23.7 35.9 23.7 57.7 0 14.3-3.7 28.3-10.8 40.7-14.5 25.3-41.6 41.2-70.9 41.3zm-.2-162.5c-19.4 0-38 7-52.6 19.6-17.7 15.3-27.9 37.5-27.9 60.9 0 18.4 6.4 36.3 17.9 50.6 15.4 19 38.2 29.9 62.6 29.9h.3c28.7-.1 55.4-15.6 69.6-40.6 6.9-12.1 10.6-25.9 10.6-39.9 0-43.9-35.7-80-79.5-80.5h-1zm55.6 8.4c-.2 0-.4-.1-.6-.2-.4-.3-.5-1-.2-1.4l57.4-74.6c.3-.4 1-.5 1.4-.2s.5 1 .2 1.4L149 162.7c-.2.2-.5.4-.8.4zM264.4 34.5c-.2 0-.4-.1-.6-.2-.4-.3-.5-1-.2-1.4 1.5-1.9 3-3.8 4.8-6 1.1-1.3 2.1-2.6 3.1-3.8 3.1-3.7 5.8-7 8.2-10.4.9-1.3 1.9-3.3 1.9-4.7 0-3.4-2.8-6.1-6.1-6.1-1.9 0-3.6.8-4.8 2.3l-.1.1-16.2 21.3c-.3.4-1 .5-1.4.2s-.5-1-.2-1.4l16.3-21.5c0-.1.1-.1.1-.1 1.6-1.9 3.8-2.9 6.3-2.9 4.5 0 8.1 3.6 8.1 8.1 0 2.5-1.9 5.3-2.3 5.8-2.5 3.5-5.2 6.7-8.3 10.5-1 1.2-2 2.4-3.1 3.7-1.8 2.2-3.3 4-4.8 5.9-.1.5-.4.6-.7.6zm-110 133.6c-.2 0-.5-.1-.7-.2-.4-.4-.5-1-.1-1.4.1-.1 10.7-12.3 26-30 10.5-12.3 20.8-24.4 30.5-36.1l.2-.2c.4-.4 1-.5 1.4-.1s.5 1 .1 1.4l-.1.1c-9.8 11.7-20.1 23.9-30.6 36.2-15.2 17.8-25.9 29.9-26 30-.1.2-.4.3-.7.3z"/></svg></g><g transform="translate(337.0 584.0) rotate(0.0 151.5 115.0) scale(2.149530721263328 2.1580438739702377)"><svg width="140.961" height="106.578" viewBox="0 0 140.961 106.578"><path d="m137.341 58.648-.37.15c-11.36-27.98-37.8-48.97-72.7-46.35-37.92 2.85-57.09 29.09-62.99 58.81-1.39-12.89 2.47-26.07 9.55-37.35 5.37-8.55 12.59-16.02 20.78-21.46 18.98-12.61 44.58-15.21 65.32-5.76 20.75 9.45 35.7 29.65 40.41 51.96z" fill="#333"/><path d="M51.711 26.098c-22.5 6.4-41.9 22.96-50.33 44.9-.03.09-.07.17-.1.26 5.9-29.72 25.07-55.96 62.99-58.81 34.9-2.62 61.34 18.37 72.7 46.35.04.09.07.18.11.27-11.66-18.73-31.99-31.57-53.72-34.96-2.04-.32-4.09-.55-6.14-.7-3.03-.22-6.08-.25-9.12-.08-1 .05-1.99.12-2.99.22-2.3.22-4.58.56-6.84.99-2.21.42-4.4.94-6.56 1.56z" fill="#010100"/><path d="M96.331 35.428a32.947 32.947 0 0 0-7.4-7.87c-1.73-1.31-3.6-2.46-5.58-3.41l.01-.04c21.73 3.39 42.06 16.23 53.72 34.96-17.2 17.71-40.82 29.55-65.41 31.85-22.2 2.07-44.95-4.16-64.01-15.86-2.05-1.25-4.05-2.57-6.01-3.95l-.27-.11c8.43-21.94 27.83-38.5 50.33-44.9-1.14.73-2.23 1.53-3.26 2.41a32.477 32.477 0 0 0-7.51 9.01c-1.87 3.32-3.17 7-3.77 10.91-.26 1.63-.39 3.31-.39 5.01 0 2.91.38 5.72 1.1 8.4 1.25 4.68 3.51 8.94 6.54 12.53 2.98 3.54 6.7 6.43 10.92 8.43 4.23 2.01 8.95 3.14 13.94 3.14h.26c4.45-.04 8.68-.97 12.53-2.62 4.7-2.01 8.83-5.1 12.07-8.96 3.17-3.76 5.5-8.24 6.7-13.18.61-2.48.93-5.07.93-7.74a32.433 32.433 0 0 0-5.44-18.01z" fill="#FFF"/><path d="M101.281 47.798c.32 1.83.49 3.72.49 5.64 0 2.67-.32 5.26-.93 7.74l-.15-.04-14.57-5.57-.27-.11c.86-2.02 1.33-4.24 1.33-6.57l13.79-1.04z" fill="#00739D"/><path d="m101.281 47.798-.31.05-13.79 1.04c0-2.52-.55-4.92-1.56-7.07l.21-.09 10.5-6.3c2.44 3.67 4.16 7.86 4.95 12.37zm-.59 13.34.15.04c-1.2 4.94-3.53 9.42-6.7 13.18l-.13-.11-11.88-13.34c1.58-1.54 2.85-3.39 3.72-5.45l.27.11z" fill="#00739D"/><path d="m96.331 35.428-10.5 6.3-.21.09c-.95-2.09-2.34-3.95-4.03-5.47l.13-.15 7.21-8.64c2.88 2.2 5.39 4.86 7.4 7.87zm-2.32 38.82.13.11a32.416 32.416 0 0 1-12.07 8.96l-.03-.08-5.67-18.6c2.18-.84 4.13-2.11 5.76-3.73z" fill="#00739D"/><path d="m88.931 27.558-7.21 8.64-.13.15c-1.7-1.53-3.72-2.72-5.95-3.46l.03-.1 1.55-9.38c2.05.15 4.1.38 6.14.7l-.01.04c1.98.95 3.85 2.1 5.58 3.41z" fill="#00739D"/><path d="M82.131 60.908a16.638 16.638 0 0 1-5.76 3.73 16.914 16.914 0 0 1-12.6-.18c-2-.84-3.81-2.06-5.33-3.57a16.694 16.694 0 0 1-3.71-5.5c-.84-2-1.3-4.2-1.3-6.5 0-1.85.3-3.63.85-5.29a16.78 16.78 0 0 1 3.53-6.05c1.3-1.44 2.85-2.64 4.57-3.55 1.96-1.05 4.16-1.72 6.49-1.91.47-.05.95-.07 1.43-.07 1.87 0 3.66.3 5.34.87 2.23.74 4.25 1.93 5.95 3.46 1.69 1.52 3.08 3.38 4.03 5.47 1.01 2.15 1.56 4.55 1.56 7.07 0 2.33-.47 4.55-1.33 6.57-.87 2.06-2.14 3.91-3.72 5.45z"/><g fill="#00739D"><path d="m82.041 83.238.03.08a32.466 32.466 0 0 1-12.53 2.62v-.14l.76-20.03c2.14 0 4.19-.4 6.07-1.13zm-4.82-59.83-1.55 9.38-.03.1a16.56 16.56 0 0 0-5.34-.87c-.48 0-.96.02-1.43.07v-.01l-.77-8.71v-.04c3.04-.17 6.09-.14 9.12.08z"/><path d="m70.301 65.768-.76 20.03v.14h-.26c-4.99 0-9.71-1.13-13.94-3.14l.02-.04 8.39-18.26.02-.04c2.01.84 4.22 1.31 6.53 1.31zm-1.43-33.69v.01c-2.33.19-4.53.86-6.49 1.91l-.15-.28-3.93-9.03-.03-.15c2.26-.43 4.54-.77 6.84-.99 1-.1 1.99-.17 2.99-.22v.04z"/><path d="m63.771 64.458-.02.04-8.39 18.26-.02.04c-4.22-2-7.94-4.89-10.92-8.43l.05-.04 13.89-13.35.08-.09c1.52 1.51 3.33 2.73 5.33 3.57zm-1.54-30.74.15.28c-1.72.91-3.27 2.11-4.57 3.55l-.17-.14-9.01-8.69-.18-.21c1.03-.88 2.12-1.68 3.26-2.41a73.56 73.56 0 0 1 6.56-1.56l.03.15z"/><path d="M54.731 55.388c.86 2.08 2.13 3.94 3.71 5.5l-.08.09-13.89 13.35-.05.04a32.367 32.367 0 0 1-6.54-12.53l.03-.01 16.81-6.44zm2.91-17.98.17.14a16.78 16.78 0 0 0-3.53 6.05l-.35-.12-12.99-5.96c1.94-3.45 4.5-6.5 7.51-9.01l.18.21z"/><path d="M54.731 55.388h-.01l-16.81 6.44-.03.01a32.3 32.3 0 0 1-1.1-8.4c0-1.7.13-3.38.39-5.01h.01l16.25.46c0 2.3.46 4.5 1.3 6.5z"/></g><path d="m53.931 43.478.35.12c-.55 1.66-.85 3.44-.85 5.29l-16.25-.46h-.01c.6-3.91 1.9-7.59 3.77-10.91z" fill="#FFCA58"/><path d="M1.281 71.383a.126.126 0 0 1-.119-.163c.017-.051.036-.099.056-.146.016-.038.031-.076.045-.116 4.094-10.655 10.982-20.45 19.924-28.331a79.126 79.126 0 0 1 30.49-16.648 73.82 73.82 0 0 1 6.57-1.563 73.974 73.974 0 0 1 6.853-.99 57.856 57.856 0 0 1 2.995-.222 71.113 71.113 0 0 1 9.135.08c2.098.154 4.167.391 6.151.702 22.197 3.462 42.312 16.553 53.807 35.017a.126.126 0 0 1-.04.173.125.125 0 0 1-.173-.04c-11.456-18.403-31.506-31.451-53.633-34.903a75.249 75.249 0 0 0-6.13-.698 71.358 71.358 0 0 0-9.104-.08 59.639 59.639 0 0 0-2.983.22c-2.21.211-4.443.534-6.83.988a73.515 73.515 0 0 0-6.549 1.558C28.528 32.822 9.744 49.579 1.497 71.042a1.68 1.68 0 0 1-.048.126 2.425 2.425 0 0 0-.049.128.124.124 0 0 1-.119.087z"/><path d="M1.281 71.633a.376.376 0 0 1-.368-.448c6.96-35.063 30.043-56.609 63.329-59.111 32.435-2.433 60.423 15.417 73.076 46.584l.105.258a.376.376 0 0 1-.19.495.378.378 0 0 1-.495-.19l-.11-.27c-12.53-30.867-40.261-48.54-72.329-46.129-32.926 2.474-55.761 23.8-62.65 58.509a.375.375 0 0 1-.368.302z"/><path d="M1.28 72.258a1 1 0 0 1-.993-.893C-1.051 58.962 2.392 45.47 9.984 33.376c5.474-8.715 12.761-16.239 21.073-21.762C50.604-1.373 76.626-3.665 97.346 5.778c20.374 9.279 36.075 29.459 40.974 52.663a1 1 0 0 1-1.957.415c-4.77-22.596-20.038-42.235-39.846-51.257C76.407-1.565 51.15.665 32.165 13.281c-8.079 5.366-15.163 12.683-20.487 21.159C4.324 46.155.985 59.193 2.275 71.151a1 1 0 0 1-.995 1.107z"/><path d="M63.157 92.56c-19.032 0-38.672-5.707-56.15-16.437A111.751 111.751 0 0 1 .932 72.13a1.251 1.251 0 0 1-.303-1.742 1.255 1.255 0 0 1 1.742-.303 108.788 108.788 0 0 0 5.94 3.905c19.682 12.082 42.146 17.65 63.244 15.683 23.808-2.228 47.364-13.699 64.63-31.477a1.25 1.25 0 0 1 1.793 1.743c-17.673 18.197-41.799 29.941-66.19 32.223a93.086 93.086 0 0 1-8.631.398z"/><path d="M16.401 99.008a1 1 0 0 1-.921-1.39c.459-1.084 5.775-14.765 5.829-14.903a.997.997 0 0 1 1.294-.569c.515.199.77.779.569 1.294-.219.564-5.381 13.847-5.851 14.958a.995.995 0 0 1-.92.61zm30.251 7.57a1 1 0 0 1-.992-1.14c.759-5.37 1.944-14.229 1.896-15.14-.029-.537.37-1.024.906-1.073a.968.968 0 0 1 1.08.847c.133 1.041-1.285 11.288-1.901 15.646a1 1 0 0 1-.989.86zm33.468-.61a1 1 0 0 1-.988-.855l-2.11-14.44a1 1 0 0 1 .845-1.134.994.994 0 0 1 1.134.845l2.11 14.44a1 1 0 0 1-.991 1.144zm31.462-9.56c-.372 0-.729-.209-.902-.566l-6.45-13.42a1 1 0 0 1 1.803-.867l6.45 13.42a1 1 0 0 1-.901 1.433zm28.379-16.54a.998.998 0 0 1-.712-.298c-1.805-1.83-3.709-3.949-5.55-5.998-1.798-2-3.656-4.067-5.401-5.843a.999.999 0 1 1 1.426-1.402c1.777 1.808 3.65 3.893 5.463 5.908 1.826 2.032 3.714 4.134 5.486 5.931a.999.999 0 0 1-.712 1.702zm-70.68 6.445a32.61 32.61 0 0 1-14.102-3.176 33.062 33.062 0 0 1-11.046-8.528 32.496 32.496 0 0 1-6.615-12.675 32.762 32.762 0 0 1-1.112-8.496c0-1.722.133-3.427.395-5.068a32.409 32.409 0 0 1 3.813-11.035 32.7 32.7 0 0 1 7.597-9.114 29.87 29.87 0 0 1 3.541-2.592l.212-.133a.377.377 0 0 1 .52.105.376.376 0 0 1-.105.52c-.076.051-.155.099-.233.147a29.139 29.139 0 0 0-3.45 2.526 31.968 31.968 0 0 0-7.427 8.908 31.642 31.642 0 0 0-3.727 10.783 31.543 31.543 0 0 0-.386 4.953c0 2.824.365 5.617 1.087 8.302a31.774 31.774 0 0 0 6.464 12.386 32.304 32.304 0 0 0 10.794 8.334 31.863 31.863 0 0 0 13.78 3.104h.26a32.01 32.01 0 0 0 12.383-2.59 32.16 32.16 0 0 0 11.93-8.856 32.071 32.071 0 0 0 6.623-13.027c.609-2.479.919-5.053.919-7.651 0-1.861-.163-3.737-.483-5.575a31.905 31.905 0 0 0-4.894-12.227 32.43 32.43 0 0 0-7.315-7.78 32.302 32.302 0 0 0-5.515-3.37.374.374 0 1 1 .324-.676 32.965 32.965 0 0 1 5.645 3.449 33.199 33.199 0 0 1 7.485 7.961 32.629 32.629 0 0 1 5.008 12.514c.329 1.881.495 3.8.495 5.704 0 2.659-.316 5.294-.94 7.83a32.825 32.825 0 0 1-6.777 13.332 32.923 32.923 0 0 1-12.209 9.063 32.76 32.76 0 0 1-12.675 2.65h-.264z"/><path d="M57.641 37.533a.127.127 0 0 1-.087-.035l-9.01-8.689a.125.125 0 1 1 .174-.18l9.01 8.689a.125.125 0 0 1-.087.215zm-3.71 6.07a.12.12 0 0 1-.052-.012l-12.989-5.96a.124.124 0 0 1-.062-.165.127.127 0 0 1 .165-.062l12.989 5.96a.124.124 0 0 1 .062.165.125.125 0 0 1-.113.074zm-.5 5.41h-.004l-16.25-.46a.126.126 0 0 1-.121-.129.126.126 0 0 1 .125-.121h.004l16.25.46c.068.002.123.06.121.129a.126.126 0 0 1-.125.121zm-15.52 12.94a.125.125 0 0 1-.045-.242l16.81-6.439c.065-.02.137.008.162.072a.127.127 0 0 1-.072.162l-16.81 6.439a.142.142 0 0 1-.045.008zm6.56 12.5a.125.125 0 0 1-.087-.215l13.891-13.35a.125.125 0 1 1 .174.18l-13.891 13.35a.129.129 0 0 1-.087.035zm10.89 8.43a.12.12 0 0 1-.052-.012.124.124 0 0 1-.062-.165l8.39-18.261a.126.126 0 0 1 .165-.062.124.124 0 0 1 .062.165l-8.39 18.261a.123.123 0 0 1-.113.074zm14.18 3.04h-.005a.126.126 0 0 1-.12-.13l.76-20.03c.003-.069.068-.109.13-.12a.126.126 0 0 1 .12.13l-.76 20.03a.125.125 0 0 1-.125.12zm12.5-2.56a.122.122 0 0 1-.119-.089L76.24 64.627a.123.123 0 0 1 .092-.15.12.12 0 0 1 .15.092l.01.04 5.668 18.593a.123.123 0 0 1-.083.155.113.113 0 0 1-.036.006zm11.97-8.991a.128.128 0 0 1-.094-.042L81.948 60.892c-.046-.052-.042-.131.009-.177s.13-.044.177.009l.09.1 11.881 13.341a.125.125 0 0 1-.011.177.13.13 0 0 1-.083.03zm6.68-13.109a.142.142 0 0 1-.045-.008l-14.57-5.57c-.064-.025-.097-.098-.072-.162s.098-.094.162-.072l14.57 5.57a.125.125 0 0 1-.045.242zm-13.51-12.25a.126.126 0 0 1-.125-.115.127.127 0 0 1 .115-.135l13.79-1.04h.01c.064 0 .12.05.125.115a.127.127 0 0 1-.115.135l-13.79 1.04h-.01zm-1.35-7.16a.123.123 0 0 1-.107-.061.126.126 0 0 1 .043-.172l10.495-6.297a.126.126 0 0 1 .158.007c.051.046.06.12.014.171-.009.009-.027.027-.038.034l-10.5 6.3a.13.13 0 0 1-.065.018zm-4.11-5.53a.127.127 0 0 1-.08-.029.124.124 0 0 1-.016-.176l7.248-8.688a.126.126 0 0 1 .196.156l-.04.05-7.212 8.642a.127.127 0 0 1-.096.045zm-6.05-3.41-.021-.002a.125.125 0 0 1-.103-.144l1.565-9.432c.023-.063.096-.099.16-.076s.099.095.076.16l-.011.03-1.545 9.358a.12.12 0 0 1-.121.106zm-6.8-.71a.126.126 0 0 1-.125-.114l-.771-8.71a.125.125 0 0 1 .114-.135l.011-.001c.064 0 .119.049.125.114l.771 8.71a.127.127 0 0 1-.114.136h-.011zm-6.64 1.64a.124.124 0 0 1-.114-.075l-3.931-9.03a.124.124 0 0 1 .064-.164.124.124 0 0 1 .164.064l3.931 9.03a.124.124 0 0 1-.064.164.11.11 0 0 1-.05.011z"/></svg></g><g transform="translate(924.0 1051.0) rotate(0.0 58.0 58.0) scale(2.190745986779981 2.190745986779981)"><svg width="52.95" height="52.95" viewBox="0 0 52.95 52.95"><path d="M42.01 5.97C48.2 10.66 52.2 18.1 52.2 26.47c-3.32-2.69-8.11-4.09-13.18-4.3-.18-1.16-.63-2.27-1.38-3.2-1.21-1.49-3.06-2.32-4.97-2.55C35.05 12.3 38.3 8.64 41.98 6z" fill="#3D138D"/><path d="M52.2 26.47c0 11.23-7.19 20.79-17.23 24.29l-.08-.24c-3.06-4.09-5.14-9.15-5.95-14.35 1.99-1.06 3.84-2.37 5.5-3.9 1.86-1.7 3.5-3.73 4.26-6.13.41-1.27.53-2.65.32-3.97 5.07.21 9.86 1.61 13.18 4.3z" fill="#3D138D"/><path d="m42.01 5.97-.03.03c-3.68 2.64-6.93 6.3-9.31 10.42a8.14 8.14 0 0 0-1.1-.08c-2.28-.01-6.93.39-12.65 3.28-8.59 4.35-11.9 9.23-15.96 17l-.1.05c-.42-.94-.77-1.91-1.05-2.91l.11-.03c.73-9.26 5.44-18.31 11.68-23.37 6.21-5.06 16.17-8.04 24.33-6.92 1.44.71 2.81 1.56 4.08 2.53zm-2.99 16.2c.21 1.32.09 2.7-.32 3.97-.76 2.4-2.4 4.43-4.26 6.13a26.495 26.495 0 0 1-5.5 3.9c-.49-3.11-.53-6.26-.07-9.28.2-1.29.5-2.57.88-3.85 3.03-.71 6.2-1.01 9.27-.87z" fill="#7E4CDB"/><path d="M39.02 22.17c-3.07-.14-6.24.16-9.27.87.71-2.27 1.7-4.51 2.92-6.62 1.91.23 3.76 1.06 4.97 2.55.75.93 1.2 2.04 1.38 3.2zM37.93 3.44C29.77 2.32 19.81 5.3 13.6 10.36 7.36 15.42 2.65 24.47 1.92 33.73l-.11.03C1.12 31.45.75 29 .75 26.47.75 12.27 12.27.75 26.48.75c4.11 0 8 .97 11.45 2.69z" fill="#48009F"/><path d="m34.89 50.52.08.24c-2.66.93-5.52 1.44-8.49 1.44-10.59 0-19.68-6.39-23.62-15.53l.1-.05c4.06-7.77 7.37-12.65 15.96-17 5.72-2.89 10.37-3.29 12.65-3.28.37 0 .73.03 1.1.08a32.95 32.95 0 0 0-2.92 6.62c-4.96 1.18-9.52 3.47-12.54 6.79-1.56 1.71-2.96 4.05-2.15 6.22 1.08 2.92 5.14 3.18 8.15 2.38 1.99-.52 3.92-1.29 5.73-2.26.81 5.2 2.89 10.26 5.95 14.35z" fill="#3D138D"/><path d="M29.75 23.04c-.38 1.28-.68 2.56-.88 3.85-.46 3.02-.42 6.17.07 9.28-1.81.97-3.74 1.74-5.73 2.26-3.01.8-7.07.54-8.15-2.38-.81-2.17.59-4.51 2.15-6.22 3.02-3.32 7.58-5.61 12.54-6.79z" fill="#7E4CDB"/><path d="M20.256 39.075c-2.409 0-4.651-.83-5.431-2.938-.89-2.385.705-4.837 2.2-6.476 2.882-3.169 7.381-5.607 12.667-6.864a34.738 34.738 0 0 1 9.027-.89 6.42 6.42 0 0 0-1.274-2.78c-1.092-1.345-2.798-2.218-4.806-2.459a8.543 8.543 0 0 0-1.146-.078c-2.287 0-6.878.433-12.461 3.253-8.173 4.14-11.495 8.557-15.85 16.894a.25.25 0 0 1-.443-.233c3.731-7.142 7.068-12.549 16.068-17.106 5.675-2.868 10.354-3.308 12.686-3.308.395.004.763.023 1.211.082 2.133.257 3.957 1.194 5.131 2.641a6.933 6.933 0 0 1 1.398 3.116c5.318.254 9.974 1.794 13.125 4.347a.25.25 0 0 1-.315.389c-3.05-2.47-7.563-3.968-12.734-4.23a8.878 8.878 0 0 1-.37 3.783c-.686 2.161-2.102 4.202-4.33 6.237a26.763 26.763 0 0 1-5.552 3.937 26.369 26.369 0 0 1-5.783 2.281 11.95 11.95 0 0 1-3.018.402zm17.306-16.688c-2.578 0-5.231.306-7.755.896-5.188 1.234-9.596 3.619-12.412 6.715-1.4 1.535-2.902 3.816-2.101 5.965.999 2.698 4.77 3.045 7.852 2.226a25.933 25.933 0 0 0 5.676-2.239 26.222 26.222 0 0 0 5.448-3.863c2.163-1.976 3.534-3.945 4.192-6.021.384-1.188.5-2.446.34-3.653a30.024 30.024 0 0 0-1.24-.026z"/><path d="M1.92 33.855h-.01a.126.126 0 0 1-.115-.135c.714-9.051 5.316-18.259 11.726-23.457 6.369-5.188 16.415-8.046 24.426-6.947a.624.624 0 0 1 .046.009c.069 0 .124.057.124.125a.127.127 0 0 1-.126.126.458.458 0 0 1-.063-.01c-7.963-1.089-17.93 1.743-24.249 6.891-6.36 5.157-10.926 14.297-11.634 23.282a.127.127 0 0 1-.125.116zm32.97 16.79a.127.127 0 0 1-.1-.05c-3.037-4.06-5.159-9.176-5.974-14.405-.502-3.19-.525-6.325-.07-9.318.195-1.254.484-2.519.884-3.866a32.97 32.97 0 0 1 2.932-6.647c2.423-4.195 5.654-7.812 9.345-10.459a.128.128 0 0 1 .175.028.127.127 0 0 1-.028.175c-3.662 2.627-6.869 6.217-9.274 10.381a32.69 32.69 0 0 0-2.909 6.595 29.121 29.121 0 0 0-.876 3.832c-.451 2.967-.428 6.076.069 9.241.81 5.19 2.914 10.267 5.927 14.294a.125.125 0 0 1-.024.175.14.14 0 0 1-.077.024z"/><path d="M26.48 52.95A26.443 26.443 0 0 1 2.172 36.967a21.715 21.715 0 0 1-1.085-3.005A26.197 26.197 0 0 1 0 26.47C0 11.874 11.879 0 26.48 0c4.135 0 8.1.932 11.785 2.769a25.502 25.502 0 0 1 4.2 2.605C49.128 10.422 52.95 18.112 52.95 26.47c0 11.255-7.127 21.301-17.733 24.998a26.436 26.436 0 0 1-8.737 1.482zm0-51.45C12.706 1.5 1.5 12.701 1.5 26.47c0 2.409.346 4.79 1.028 7.075.273.976.614 1.92 1.017 2.818A24.949 24.949 0 0 0 26.48 51.45a24.95 24.95 0 0 0 8.243-1.398C44.728 46.564 51.45 37.087 51.45 26.47c0-7.884-3.606-15.139-9.894-19.902a24.034 24.034 0 0 0-3.959-2.455A24.678 24.678 0 0 0 26.48 1.5z"/></svg></g></svg>