<svg xmlns="http://www.w3.org/2000/svg" viewBox="0 0 1500 1500" width="1500" height="1500"><path fill="#FFF" d="M0 0h1500v1500H0z"/><g transform="translate(168.0 17.0) rotate(-8.969458909338107 542.5 497.0) scale(2.799472615481471 2.8063399567473564)"><svg width="387.573" height="354.198" viewBox="0 0 387.573 354.198"><path d="M376.325 148.118c10.09 17.68 13.12 39.31 8.16 59.06-4.51 17.95-13.84 33.8-28.26 44.63l-.06-.08c10.98-8.42 12.89-21.44 11.46-32.75-1.56-12.27-8.67-23.38-17.97-31.53s-20.67-13.6-32.3-17.79a186.498 186.498 0 0 0-53.62-10.73l-.26-.01c.05-1.09.07-2.18.06-3.28-.02-4.16-.41-8.32-1.13-12.41l.21-.04c4.48 0 8.11-3.63 8.11-8.11a8.109 8.109 0 0 0-12.54-6.79c-4.31-10.94-11.1-20.9-19.84-28.75-15.7-14.11-33.91-20.86-58.56-21.14.11-.34.21-.67.32-1.01l.21.07c47.62-5.65 96.54 3.92 139.86 24.48 21.12 10.03 41.69 23.27 54.24 43 .66 1.04 1.3 2.1 1.91 3.18zm-30.99-13.04c0-4.48-3.63-8.11-8.11-8.11s-8.11 3.63-8.11 8.11 3.63 8.11 8.11 8.11 8.11-3.63 8.11-8.11zm-37.31 0c0-4.48-3.63-8.11-8.11-8.11-4.47 0-8.11 3.63-8.11 8.11s3.64 8.11 8.11 8.11c4.48 0 8.11-3.63 8.11-8.11z" fill="#7D4CDB"/><path d="M348.525 256.798c-7.81 12.69-20.43 20.67-32.4 22.56l-.03-.04c-14.81 12.29-36.53 18.85-55.2 16.85l.09-.89c17.36-2.46 33.57-12.31 43.68-26.64 10.04-14.21 13.94-32.6 10.61-49.67l-.1.02c-10.62 20.75-26.28 39.64-48.33 47.19-3.75 1.29-7.76 2.21-11.67 1.58-3.92-.64-7.73-3.12-9.01-6.88-1.25-3.69.16-7.85 2.55-10.93 2.4-3.08 5.67-5.33 8.75-7.71 14.56-11.24 26.03-25.55 31.8-43.16a286.912 286.912 0 0 0-34.36-5.44l-.42-.21c5.25-10.86 8.54-22.48 8.99-34.51l.26.01c18.27.92 36.4 4.54 53.62 10.73 11.63 4.19 23 9.64 32.3 17.79s16.41 19.26 17.97 31.53c1.43 11.31-.48 24.33-11.46 32.75l.06.08a68.35 68.35 0 0 1-7.67 5.01zm-80.46-.12c-3.31-3.4-6.25-7.15-8.75-11.18l-.14-.31c-3.72 1.7-6.37 4.06-7.93 7.42-.97 2.1-1.42 5 .35 6.48 4.29 3.55 13.23.14 16.47-2.41z" fill="#00739D"/><circle cx="337.225" cy="135.078" fill="#00739D" r="8.11"/><path d="M260.595 295.328c-4.77 2.1-9.93 3.32-15.14 3.6l-.28.01c-2.43 19.17 3.29 39.24 15.47 54.24v.26c-13.51.25-27.07-4.32-37.65-12.72-10.78-8.55-18.39-20.99-21.11-34.47l-.46-.3c-57.91 6.64-118.11-9.27-165.19-43.64.47.34.94.67 1.42 1 31.25 15.54 61.99 18.22 95.72 12.92 33.73-5.29 65.81-20.67 91.08-43.64 12.07-10.97 22.74-24.2 29.86-38.82.06-.11.11-.22.17-.34l.42.21c11.55 1.12 23.03 2.93 34.36 5.44-5.77 17.61-17.24 31.92-31.8 43.16-3.08 2.38-6.35 4.63-8.75 7.71-2.39 3.08-3.8 7.24-2.55 10.93 1.28 3.76 5.09 6.24 9.01 6.88 3.91.63 7.92-.29 11.67-1.58 22.05-7.55 37.71-26.44 48.33-47.19l.1-.02c3.33 17.07-.57 35.46-10.61 49.67-10.11 14.33-26.32 24.18-43.68 26.64-.13.02-.26.04-.39.05z" fill="#7D4CDB"/><circle cx="299.915" cy="135.078" fill="#00739D" r="8.11"/><path d="M262.615 126.968c4.48 0 8.11 3.63 8.11 8.11s-3.63 8.11-8.11 8.11l-.21.04c-.9-5.11-2.32-10.12-4.22-14.94 1.28-.84 2.8-1.32 4.43-1.32z" fill="#00739D"/><path d="M70.575 134.728h-.01c-.72-.26-1.43-.51-2.14-.73-2.73-.85-5.59-1.32-8.45-1.39-2.41-.08-4.82.13-7.18.6-2.17.43-4.3 1.09-6.33 1.97-2.02.88-4.17 2.1-6.22 3.59-2.83 2.04-5.51 4.58-7.51 7.41-1.7 2.4-2.92 5.01-3.34 7.71-.56 3.61 1.11 6.3 4.93 6.21 1.82-.04 3.45-.67 4.93-1.61 2.47-1.57 4.53-4.02 6.37-6.08 1.26-1.41 2.59-2.82 4.09-3.96.99-.76 2.06-1.4 3.22-1.85.42-.16.85-.3 1.27-.41 2.27-.59 4.6-.47 6.97-.03 1.47.28 2.94.68 4.41 1.12 4.37 1.29 8.77 2.89 12.96 2.5 1.12-.1 2.23-.35 3.32-.78 3.16-1.26 5.58-3.94 8.38-5.85 1.09-.75 2.25-1.38 3.52-1.77 1.7-.51 3.44-.53 5.2-.36 2.34.24 4.72.83 7.07 1.09 4.11.46 9.19-.79 10.38-4.75.79-2.63-.6-5.58-2.8-7.22-.82-.62-1.74-1.08-2.71-1.42-1.61-.57-3.37-.79-5.09-.83-2.77-.05-5.55.35-8.2 1.2-1.76.54-3.46 1.28-5.06 2.2-2.7 1.55-5.21 3.63-8.02 4.84-.94.41-1.92.72-2.94.87-1.5.23-2.98.12-4.45-.18-2.21-.43-4.4-1.3-6.57-2.09zm34.58 65.84c-3.4-.46-6.92.05-9.95 1.65-.35.18-.68.38-1.01.59-3.3 2.06-5.76 5.31-7.28 8.94-.35.81-.65 1.65-.9 2.49-.73 2.46-1.26 4.88-1.46 7.38-.22 2.54-.09 5.17.5 8.04l.08.14a290.457 290.457 0 0 0-32.18 21.13l-.02-.03c.66-5.69-2-11.35-6.83-14.43-4.82-3.08-11.58-2.91-16.1.6-4.53 3.51-6.8 11.06-4.43 16.27l-.04.04c-9.57-9.38-16.55-20.64-20.92-33.8-6.04-18.19-4.96-38.64 2.95-56.1 2.23-4.92 4.95-9.55 8.07-13.91 10.36-14.51 25.04-26.02 40.42-35.35 2.97-1.8 6-3.54 9.06-5.21 13.53-7.39 27.9-13.47 42.68-18.18 11.02-3.51 22.27-6.26 33.57-8.2 3.55-10.02 8.24-21.32 14.37-31.92l.02.01c1.68-2.93 3.2-5.09 5.91-7.49 3.09-2.75 7.47-4.41 11.44-3.21 3.13.94 5.57 3.54 6.95 6.51 1.38 2.96 1.84 6.27 2.04 9.54.48 7.86-.11 14.77-2.31 22.33 24.65.28 42.86 7.03 58.56 21.14 8.74 7.85 15.53 17.81 19.84 28.75 1.9 4.82 3.32 9.83 4.22 14.94.72 4.09 1.11 8.25 1.13 12.41.01 1.1-.01 2.19-.06 3.28-.45 12.03-3.74 23.65-8.99 34.51-.06.12-.11.23-.17.34l-.47-.23c-2.63-.24-5.26-.45-7.89-.62 5.35-4.89 4.32-14.07.15-19.29-4.16-5.21-11.78-7.23-18.07-5.03-6.3 2.19-10.94 8.33-11.63 14.97-.34 3.26.81 7.25 2.5 8.8v.05c-4.03.11-8.06.3-12.08.59-2.02-6.12-4.96-11.94-8.74-17.03-.63 1.1-1.23 2.21-1.81 3.33l-.16-.08c-1.01-1.38-2.02-2.76-3.02-4.14l-.09.01c-3.63 6.3-6.4 13.09-8.21 20.13l.02.17c-9.64 1.41-19.22 3.32-28.67 5.72-12.02 3.05-23.86 6.93-35.44 11.57l-.14-.36a22.99 22.99 0 0 0-1.81-3.06c-1.55-2.23-3.49-4.19-5.74-5.68a18.65 18.65 0 0 0-3.09-1.71c-1.51-.66-3.13-1.1-4.77-1.31zm89.23-68.69c1.06-1.46.56-3.57-1.19-3.98l-.01-.01c.63-.49 1.11-1.11 1.31-1.93.66-2.59-2.35-4.91-5.02-4.66-2.66.25-4.84 2.13-6.83 3.92.73-.85 1.48-1.72 1.86-2.78.4-1.08.36-2.4-.4-3.26-1.07-1.22-3.02-1.06-4.54-.5-2.69 1-4.95 2.99-6.37 5.48.35-1.27.71-2.57.67-3.88-.05-1.32-.56-2.69-1.64-3.45-1.56-1.09-3.71-.61-5.45.15a21.513 21.513 0 0 0-8.93 7.23c1.05-1.54 1.64-2.88 2.34-4.61 1.16-2.86-2.22-6.27-6.62-3.86-6.22 3.39-11.76 10.98-12.95 16.38-.11.25-.79 2.03.12 2.64.53.37 1.17.49 1.82.51v.06c-1.23 1.26-1.02 3.77.46 4.71 1.49.95 3.37.93 5.12.86a186.73 186.73 0 0 0 41.62-6.51c1.73-.47 3.58-1.06 4.63-2.51zm-20.72-73.66c.05-1.64-.07-3.57-1.4-4.49-1-.7-2.38-.54-3.42.07s-1.8 1.6-2.52 2.58a72.369 72.369 0 0 0-7.71 13.36c-.92 2.07-5.55 10.45-3.06 12.01 1.11.7 2.53.47 3.81.22 3.8-.74 7.9-1.66 10.45-4.64 2.16-2.51 2.76-6.02 3.14-9.35.37-3.24.6-6.5.71-9.76zm-3.66 103.63c.47 0 .85-.39.84-.86s-.39-.84-.87-.83l-6.13.11c.93-2.95 1.66-5.96 2.2-8.98.33-1.9-.94-3.71-2.84-4.05-1.91-.34-3.72.94-4.06 2.84-1.44 8.24-4.58 16.33-9.05 23.39-1.15 1.81-2.44 3.65-4.09 4.76-1.34.91-2.95 1.22-4.01.77-1.11-.48-2.11-1.84-3.06-4.16-2.51-6.12-3.12-13.06-1.71-19.53.41-1.89-.79-3.75-2.68-4.16-1.89-.42-3.75.78-4.16 2.67-.59 2.73-.89 5.51-.9 8.31l-4.96.71c-.46.07-.79.5-.72.96.06.43.42.73.84.73h.12l4.75-.68c.11 2.86.52 5.71 1.23 8.48l-5.09 2.12c-.43.18-.64.68-.46 1.11.14.33.46.52.79.52.11 0 .22-.02.33-.06l4.89-2.04c.36 1.19.78 2.37 1.25 3.52.33.81 1.02 2.5 2.26 4.18l-2.85 3.38c-.31.36-.26.9.1 1.2.16.13.35.2.55.2.24 0 .48-.1.65-.3l2.66-3.15c.92.96 2.04 1.83 3.42 2.42 1.2.52 2.51.77 3.86.77.12 0 .25 0 .37-.01l-.09 3.74c-.01.47.36.86.83.88h.02c.46 0 .84-.37.85-.83l.1-3.98c1.64-.3 3.27-.96 4.75-1.97 1.11-.76 2.09-1.65 2.94-2.6l2.89 3.85c.17.22.42.34.68.34.18 0 .36-.05.51-.17.38-.28.45-.81.17-1.19l-3.13-4.16c.76-.96 1.42-1.94 2.01-2.88 1.19-1.87 2.29-3.81 3.3-5.8l5.79 2.9c.13.06.26.09.38.09.32 0 .62-.17.76-.47.21-.42.05-.93-.37-1.14l-5.81-2.91c1.23-2.57 2.31-5.22 3.23-7.92z" fill="#7D4CDB"/><path d="M259.315 245.498c2.5 4.03 5.44 7.78 8.75 11.18-3.24 2.55-12.18 5.96-16.47 2.41-1.77-1.48-1.32-4.38-.35-6.48 1.56-3.36 4.21-5.72 7.93-7.42z" fill="#48009F"/><path d="m253.845 193.538.47.23c-7.12 14.62-17.79 27.85-29.86 38.82-25.27 22.97-57.35 38.35-91.08 43.64-33.73 5.3-64.47 2.62-95.72-12.92 4.95-4.3 10.05-8.43 15.3-12.38 10.22-7.73 20.99-14.8 32.18-21.13 2.17-1.24 4.37-2.44 6.58-3.62 6.96-3.72 14.07-7.15 21.3-10.29 2.55-1.11 5.11-2.18 7.69-3.2 11.58-4.64 23.42-8.52 35.44-11.57 9.45-2.4 19.03-4.31 28.67-5.72 1.75-.27 3.51-.51 5.27-.73a87.647 87.647 0 0 0-3 13.94c-.56 4.22-.79 8.66.81 12.6 1.51 3.73 5.07 6.88 9.05 6.93v.05c4.21.96 8.61-1.78 10.76-5.53s2.47-8.27 2.27-12.59a64.652 64.652 0 0 0-3.15-17.06c4.02-.29 8.05-.48 12.08-.59 9.02-.26 18.05-.09 27.05.5 2.63.17 5.26.38 7.89.62z" fill="#7D4CDB"/><path d="M246.105 173.628c4.17 5.22 5.2 14.4-.15 19.29-9-.59-18.03-.76-27.05-.5v-.05c-1.69-1.55-2.84-5.54-2.5-8.8.69-6.64 5.33-12.78 11.63-14.97 6.29-2.2 13.91-.18 18.07 5.03z" fill="#00873D"/><path d="M196.945 228.138c-3.98-.05-7.54-3.2-9.05-6.93-1.6-3.94-1.37-8.38-.81-12.6.62-4.71 1.62-9.38 3-13.94 5.56-.72 11.14-1.28 16.74-1.66a64.652 64.652 0 0 1 3.15 17.06c.2 4.32-.12 8.84-2.27 12.59s-6.55 6.49-10.76 5.53z" fill="#48009F"/><path d="M198.085 175.978c3.78 5.09 6.72 10.91 8.74 17.03-5.6.38-11.18.94-16.74 1.66a89.212 89.212 0 0 1 8-18.69z" fill="#48009F"/><path d="M196.515 22.208c.77 2.2.07 4.61-.64 6.83-5.21 16.45-10.55 31.94-15.77 48.35-.11.34-.21.67-.32 1.01 2.2-7.56 2.79-14.47 2.31-22.33-.2-3.27-.66-6.58-2.04-9.54-1.38-2.97-3.82-5.57-6.95-6.51-3.97-1.2-8.35.46-11.44 3.21-2.71 2.4-4.23 4.56-5.91 7.49l-.02-.01c6.54-11.32 14.72-21.82 24.9-29.02 2.52-1.79 5.3-3.43 8.37-3.68 3.08-.25 6.49 1.29 7.51 4.2z" fill="#00873D"/><path d="m196.115 179.228.16.08a89.212 89.212 0 0 0-6.19 15.36c-1.76.22-3.52.46-5.27.73l-.02-.17a80.554 80.554 0 0 1 8.21-20.13l.09-.01c1 1.38 2.01 2.76 3.02 4.14zm-2.92-51.33c1.75.41 2.25 2.52 1.19 3.98-1.05 1.45-2.9 2.04-4.63 2.51a186.73 186.73 0 0 1-41.62 6.51c-1.75.07-3.63.09-5.12-.86-1.48-.94-1.69-3.45-.46-4.71v-.06c.45.02.92-.01 1.37-.04 15.02-1.2 29.98-3.1 44.81-5.7 1.54-.27 3.27-.71 4.45-1.64z" fill="#00739D"/><path d="M182.645 125.218c1.99-1.79 4.17-3.67 6.83-3.92 2.67-.25 5.68 2.07 5.02 4.66-.2.82-.68 1.44-1.31 1.93-1.18.93-2.91 1.37-4.45 1.64-14.83 2.6-29.79 4.5-44.81 5.7-.45.03-.92.06-1.37.04-.65-.02-1.29-.14-1.82-.51-.91-.61-.23-2.39-.12-2.64 1.19-5.4 6.73-12.99 12.95-16.38 4.4-2.41 7.78 1 6.62 3.86-.7 1.73-1.29 3.07-2.34 4.61 2.25-3.16 5.37-5.69 8.93-7.23 1.74-.76 3.89-1.24 5.45-.15 1.08.76 1.59 2.13 1.64 3.45.04 1.31-.32 2.61-.67 3.88 1.42-2.49 3.68-4.48 6.37-5.48 1.52-.56 3.47-.72 4.54.5.76.86.8 2.18.4 3.26-.38 1.06-1.13 1.93-1.86 2.78z" fill="#FFCA58"/><path d="M172.265 53.728c1.33.92 1.45 2.85 1.4 4.49-.11 3.26-.34 6.52-.71 9.76-.38 3.33-.98 6.84-3.14 9.35-2.55 2.98-6.65 3.9-10.45 4.64-1.28.25-2.7.48-3.81-.22-2.49-1.56 2.14-9.94 3.06-12.01 2.09-4.72 4.68-9.21 7.71-13.36.72-.98 1.48-1.97 2.52-2.58s2.42-.77 3.42-.07z" fill="#A2423D"/><path d="M170.845 160.988c.01.47-.37.86-.84.86l-6.72.12c.2-.56.39-1.13.56-1.7l6.13-.11c.48-.01.86.36.87.83zm-4.98 11.81c.42.21.58.72.37 1.14-.14.3-.44.47-.76.47-.12 0-.25-.03-.38-.09l-5.79-2.9c.26-.5.51-1.02.75-1.53z"/><path d="M163.205 147.238c1.9.34 3.17 2.15 2.84 4.05-.54 3.02-1.27 6.03-2.2 8.98l-2.31.04c.9-2.86 1.62-5.78 2.14-8.72.08-.46-.23-.9-.69-.98a.847.847 0 0 0-.99.68 67.32 67.32 0 0 1-2.38 9.42c-.93 2.82-2.05 5.58-3.34 8.25-1.11 2.3-2.35 4.54-3.71 6.68-.5.79-1.03 1.58-1.6 2.34-.92 1.22-1.97 2.34-3.23 3.2a8.263 8.263 0 0 1-3.33 1.35c-1.14.18-2.25.07-3.21-.34-1.81-.77-3.23-2.55-4.48-5.59-.66-1.61-1.19-3.26-1.6-4.95-.73-2.98-1.08-6.06-1.03-9.13.03-2.36.29-4.72.79-7.02.1-.46-.2-.91-.65-1.01-.46-.09-.92.19-1.01.65-.47 2.16-.74 4.37-.82 6.58l-2.91.41c.01-2.8.31-5.58.9-8.31a3.483 3.483 0 0 1 4.16-2.67c1.89.41 3.09 2.27 2.68 4.16-1.41 6.47-.8 13.41 1.71 19.53.95 2.32 1.95 3.68 3.06 4.16 1.06.45 2.67.14 4.01-.77 1.65-1.11 2.94-2.95 4.09-4.76 4.47-7.06 7.61-15.15 9.05-23.39.34-1.9 2.15-3.18 4.06-2.84z" fill="#FFCA58"/><path d="m161.535 160.308 2.31-.04c-.17.57-.36 1.14-.56 1.7l-2.32.05c.2-.57.39-1.14.57-1.71z"/><path d="M162.985 150.608c.46.08.77.52.69.98-.52 2.94-1.24 5.86-2.14 8.72l-.75.01c-.35.01-.65.22-.77.52l-.4-.13a67.32 67.32 0 0 0 2.38-9.42c.08-.46.52-.76.99-.68z"/><path d="m160.965 162.018 2.32-.05c-.92 2.7-2 5.35-3.23 7.92l-1.89-.94c1.06-2.25 2-4.57 2.8-6.93z" fill="#FFCA58"/><path d="m160.785 160.318.75-.01c-.18.57-.37 1.14-.57 1.71h-.17c-.46 0-.84-.37-.85-.83 0-.12.02-.24.07-.35.12-.3.42-.51.77-.52z"/><path d="M160.815 162.018h.15c-.8 2.36-1.74 4.68-2.8 6.93l-.33-.17a.864.864 0 0 0-1.15.38l-.41-.2c1.29-2.67 2.41-5.43 3.34-8.25l.4.13c-.05.11-.07.23-.07.35.01.46.39.83.85.83zm-2.65 6.93 1.89.94c-.24.51-.49 1.03-.75 1.53l-1.88-.94c.26-.51.5-1.02.74-1.53z"/><path d="m157.425 170.478 1.88.94a68.826 68.826 0 0 1-3.3 5.8c-.59.94-1.25 1.92-2.01 2.88l-1.25-1.67c.45-.62.86-1.25 1.26-1.88 1.24-1.96 2.38-3.99 3.42-6.07z" fill="#FFCA58"/><path d="m157.835 168.778.33.17c-.24.51-.48 1.02-.74 1.53l-.36-.18a.85.85 0 0 1-.38-1.14c.22-.42.73-.59 1.15-.38z"/><path d="m157.065 170.298.36.18a69.443 69.443 0 0 1-3.42 6.07c-.4.63-.81 1.26-1.26 1.88l-.14-.19a.838.838 0 0 0-1.19-.17c-.06.04-.1.09-.15.14l-.3-.23c.57-.76 1.1-1.55 1.6-2.34 1.36-2.14 2.6-4.38 3.71-6.68l.41.2a.85.85 0 0 0 .38 1.14zm.06 13.96c.28.38.21.91-.17 1.19-.15.12-.33.17-.51.17-.26 0-.51-.12-.68-.34l-2.89-3.85c.4-.43.78-.88 1.12-1.33z"/><path d="m152.745 178.428 1.25 1.67c-.34.45-.72.9-1.12 1.33l-1.2-1.6c.37-.45.73-.92 1.07-1.4z"/><path d="m151.675 179.828 1.2 1.6c-.85.95-1.83 1.84-2.94 2.6a12.422 12.422 0 0 1-4.75 1.97l.04-1.91c1.19-.25 2.37-.76 3.46-1.5 1.15-.78 2.12-1.73 2.99-2.76z" fill="#FFCA58"/><path d="m152.605 178.238.14.19c-.34.48-.7.95-1.07 1.4l-.43-.57a.855.855 0 0 1 .02-1.05c.05-.05.09-.1.15-.14.38-.29.91-.21 1.19.17z"/><path d="m151.245 179.258.43.57c-.87 1.03-1.84 1.98-2.99 2.76-1.09.74-2.27 1.25-3.46 1.5l.02-.64a.862.862 0 0 0-.83-.87l-.01-.05c1.12-.18 2.28-.63 3.33-1.35 1.26-.86 2.31-1.98 3.23-3.2l.3.23c-.24.29-.26.73-.02 1.05z"/><path d="M144.415 182.578c.47.02.84.41.83.87l-.02.64c-.57.14-1.14.21-1.7.21l.02-.89c.01-.47.43-.82.87-.83z"/><path d="m145.225 184.088-.04 1.91c-.57.11-1.14.17-1.71.19l.05-1.89c.56 0 1.13-.07 1.7-.21z"/><path d="m145.185 185.998-.1 3.98c-.01.46-.39.83-.85.83h-.02a.865.865 0 0 1-.83-.88l.09-3.74c.57-.02 1.14-.08 1.71-.19zm-.78-3.47.01.05c-.44.01-.86.36-.87.83l-.02.89c-.06.01-.11.01-.17.01-1 0-1.96-.19-2.83-.56-1.32-.57-2.36-1.49-3.18-2.54l.34-.41a.85.85 0 0 0-1.3-1.1l-.03.04c-.51-.86-.9-1.72-1.21-2.49-.57-1.4-1.06-2.84-1.46-4.31l.66-.27a.85.85 0 0 0 .51-.95l.26-.07c.41 1.69.94 3.34 1.6 4.95 1.25 3.04 2.67 4.82 4.48 5.59.96.41 2.07.52 3.21.34z"/><path d="m143.525 184.298-.05 1.89c-.12.01-.25.01-.37.01-1.35 0-2.66-.25-3.86-.77-1.38-.59-2.5-1.46-3.42-2.42l1.52-1.8c.82 1.05 1.86 1.97 3.18 2.54.87.37 1.83.56 2.83.56.06 0 .11 0 .17-.01z" fill="#FFCA58"/><path d="M137.575 179.598c.36.31.41.84.11 1.2l-.34.41c-.38-.47-.71-.97-.99-1.47l.03-.04c.3-.35.83-.4 1.19-.1z"/><path d="m137.345 181.208-1.52 1.8c-.41-.43-.79-.88-1.11-1.33l1.64-1.94c.28.5.61 1 .99 1.47z"/><path d="m136.355 179.738-1.64 1.94c-1.24-1.68-1.93-3.37-2.26-4.18-.47-1.15-.89-2.33-1.25-3.52l2.48-1.04c.4 1.47.89 2.91 1.46 4.31.31.77.7 1.63 1.21 2.49z" fill="#FFCA58"/><path d="m135.825 183.008-2.66 3.15c-.17.2-.41.3-.65.3-.2 0-.39-.07-.55-.2a.845.845 0 0 1-.1-1.2l2.85-3.38c.32.45.7.9 1.11 1.33zm-.71-11.36-.26.07c-.02-.06-.03-.11-.05-.16a.845.845 0 0 0-1.11-.46l-.42.17c-.57-2.57-.87-5.2-.9-7.84l.59-.08c.43-.05.73-.41.73-.83h.39c-.05 3.07.3 6.15 1.03 9.13z"/><path d="M134.225 154.488c.45.1.75.55.65 1.01-.5 2.3-.76 4.66-.79 7.02h-.39c0-.04 0-.09-.01-.13a.847.847 0 0 0-.96-.72l-.33.05c.08-2.21.35-4.42.82-6.58.09-.46.55-.74 1.01-.65zm.63 17.23a.85.85 0 0 1-.51.95l-.66.27c-.15-.55-.28-1.11-.41-1.67l.42-.17c.43-.18.93.02 1.11.46.02.05.03.1.05.16z"/><path d="M133.685 162.388c.01.04.01.09.01.13 0 .42-.3.78-.73.83l-.59.08c0-.57 0-1.14.02-1.71l.33-.05c.46-.07.9.26.96.72zm0 10.55-2.48 1.04c-.16-.54-.32-1.1-.46-1.65l2.53-1.06c.13.56.26 1.12.41 1.67z"/><path d="m133.275 171.268-2.53 1.06c-.71-2.77-1.12-5.62-1.23-8.48l2.86-.42c.03 2.64.33 5.27.9 7.84z" fill="#FFCA58"/><path d="m129.485 162.128 2.91-.41c-.02.57-.02 1.14-.02 1.71l-2.86.42c-.02-.57-.03-1.14-.03-1.72zm1.72 11.85-4.89 2.04a.96.96 0 0 1-.33.06c-.33 0-.65-.19-.79-.52-.18-.43.03-.93.46-1.11l5.09-2.12c.14.55.3 1.11.46 1.65z"/><path d="m129.515 163.848-4.75.68h-.12c-.42 0-.78-.3-.84-.73-.07-.46.26-.89.72-.96l4.96-.71c0 .58.01 1.15.03 1.72z"/><path d="M114.245 56.228a346.37 346.37 0 0 0-4.32 20.88l-.19-.03c2.17-15.33 2.86-21.18.72-33.25-.62-3.5-2.48-9.09-5.33-11.21-2.98-2.23-7.29-1.94-10.58-.19-3.17 1.69-5.57 4.53-7.71 7.44 5.35-10.51 11.85-20.41 19.74-29.16 3.45-3.83 7.31-7.53 12.15-9.3 2.45-.9 5.57-1.1 7.29.85 1.2 1.37 1.32 3.37 1.23 5.2-.34 7.8-3.08 15.27-5.54 22.68-2.87 8.68-5.34 17.35-7.46 26.09z" fill="#48009F"/><path d="m120.565 212.328.14.36c-2.58 1.02-5.14 2.09-7.69 3.2l-.09-.21c-.13-.9-.42-1.76-.85-2.54 2.01-1.19 4.66-2.69 6.68-3.87.68.97 1.29 2 1.81 3.06z" fill="#FFF"/><path d="M113.015 203.588c2.25 1.49 4.19 3.45 5.74 5.68-2.02 1.18-4.67 2.68-6.68 3.87-.67-1.28-1.69-2.38-2.9-3.22l.12-.18c.26-.57 3.03-4.91 3.6-5.97z" fill="#FFF"/><path d="M113.615 130.138c2.2 1.64 3.59 4.59 2.8 7.22-1.19 3.96-6.27 5.21-10.38 4.75l4.8-13.01.07-.38c.97.34 1.89.8 2.71 1.42z" fill="#FD6FFF"/><path d="m113.015 203.588-.12.18c-.57 1.06-3.34 5.4-3.6 5.97l-.12.18c-1.47-1.02-3.23-1.66-5.02-1.74h-.08v-.01c.36-2.53.73-5.07 1.08-7.6 1.64.21 3.26.65 4.77 1.31 1.08.47 2.11 1.04 3.09 1.71z" fill="#FFF"/><path d="m112.925 215.678.09.21c-7.23 3.14-14.34 6.57-21.3 10.29l-.06-.11c-.24-1.45-.33-2.93-.25-4.4.14-2.51.79-5 2.03-7.17.1-.16.2-.33.3-.49 1.08-1.71 2.58-3.18 4.32-4.22 1.83-1.08 3.9-1.69 6.02-1.61h.08c1.79.08 3.55.72 5.02 1.74 1.21.84 2.23 1.94 2.9 3.22.43.78.72 1.64.85 2.54z" fill="#7D4CDB"/><path d="m110.905 128.718-.07.38-4.8 13.01c-2.35-.26-4.73-.85-7.07-1.09l.04-.33-1.39-11.59v-.01c2.65-.85 5.43-1.25 8.2-1.2 1.72.04 3.48.26 5.09.83z" fill="#3D138D"/><path d="M110.455 43.828c2.14 12.07 1.45 17.92-.72 33.25l.19.03c-.8 4.52-1.51 9.08-2.14 13.68l.01.04c-14.78 4.71-29.15 10.79-42.68 18.18l-.08-.15c2.61-18.21 8.03-35.79 14.44-52.42 2.17-5.63 4.61-11.18 7.36-16.57 2.14-2.91 4.54-5.75 7.71-7.44 3.29-1.75 7.6-2.04 10.58.19 2.85 2.12 4.71 7.71 5.33 11.21z" fill="#00739D"/><path d="M105.155 200.568c-.35 2.53-.72 5.07-1.08 7.6v.01c-2.12-.08-4.19.53-6.02 1.61l-.12-.21c-1.08-2.03-2.59-4.66-3.68-6.68l-.06-.09c.33-.21.66-.41 1.01-.59 3.03-1.6 6.55-2.11 9.95-1.65z" fill="#FFF"/><path d="m97.615 129.098 1.39 11.59-.04.33c-1.76-.17-3.5-.15-5.2.36-1.27.39-2.43 1.02-3.52 1.77l-.17-.25-5.45-6.61-.09-.16c2.81-1.21 5.32-3.29 8.02-4.84 1.6-.92 3.3-1.66 5.06-2.2z" fill="#FD6FFF"/><g fill="#FFF"><path d="m97.935 209.578.12.21a13.103 13.103 0 0 0-4.32 4.22c-.1.16-.2.33-.3.49l-.38-.25c-2.02-.82-4.04-1.65-6.06-2.47l-.08-.03c1.52-3.63 3.98-6.88 7.28-8.94l.06.09c1.09 2.02 2.6 4.65 3.68 6.68z"/><path d="m93.055 214.248.38.25c-1.24 2.17-1.89 4.66-2.03 7.17h-6.05l-.8-.05c.2-2.5.73-4.92 1.46-7.38.25-.84.55-1.68.9-2.49l.08.03c2.02.82 4.04 1.65 6.06 2.47z"/><path d="m91.655 226.068.06.11c-2.21 1.18-4.41 2.38-6.58 3.62l-.08-.14c-.59-2.87-.72-5.5-.5-8.04l.8.05h6.05c-.08 1.47.01 2.95.25 4.4z"/></g><path d="m90.075 142.898.17.25c-2.8 1.91-5.22 4.59-8.38 5.85-1.09.43-2.2.68-3.32.78l-.06-.62-1.39-12.06.05-.28c1.47.3 2.95.41 4.45.18 1.02-.15 2-.46 2.94-.87l.09.16z" fill="#FFCA58"/><path d="m78.485 149.158.06.62c-4.19.39-8.59-1.21-12.96-2.5l.03-.09 4.95-12.46h.01c2.17.79 4.36 1.66 6.57 2.09l-.05.28z" fill="#3D138D"/><path d="m70.565 134.728-4.95 12.46-.03.09c-1.47-.44-2.94-.84-4.41-1.12l.03-.13-1.23-13.32v-.1c2.86.07 5.72.54 8.45 1.39.71.22 1.42.47 2.14.73z" fill="#3D138D"/><path d="m59.975 132.708 1.23 13.32-.03.13c-2.37-.44-4.7-.56-6.97.03l-.07-.28-1.32-12.6-.02-.1c2.36-.47 4.77-.68 7.18-.6z" fill="#FFCA58"/><path d="m54.135 145.908.07.28c-.42.11-.85.25-1.27.41-1.16.45-2.23 1.09-3.22 1.85l-.22-.28-9.04-9.1-.21-.3c2.05-1.49 4.2-2.71 6.22-3.59 2.03-.88 4.16-1.54 6.33-1.97l.02.1z" fill="#3D138D"/><path d="M46.105 236.468c4.83 3.08 7.49 8.74 6.83 14.43l.02.03c-5.25 3.95-10.35 8.08-15.3 12.38-.48-.33-.95-.66-1.42-1-.2-.14-.41-.29-.61-.44-2.51-1.93-4.96-3.91-7.37-5.95-.93-.83-1.84-1.68-2.72-2.54l.04-.04c-2.37-5.21-.1-12.76 4.43-16.27 4.52-3.51 11.28-3.68 16.1-.6z" fill="#00873D"/><path d="m49.495 148.168.22.28c-1.5 1.14-2.83 2.55-4.09 3.96-1.84 2.06-3.9 4.51-6.37 6.08l-.19-.4-5.97-11.66-.36-.25c2-2.83 4.68-5.37 7.51-7.41l.21.3z" fill="#3D138D"/><path d="m39.065 158.088.19.4c-1.48.94-3.11 1.57-4.93 1.61-3.82.09-5.49-2.6-4.93-6.21.42-2.7 1.64-5.31 3.34-7.71l.36.25z" fill="#FD6FFF"/><path d="M65.036 109.608a.75.75 0 0 1-.743-.857c2.305-16.079 7.042-33.279 14.483-52.583 2.252-5.844 4.74-11.442 7.392-16.641 5.667-11.133 12.345-20.998 19.851-29.321 3.287-3.649 7.337-7.633 12.449-9.503 2.62-.962 6.127-1.19 8.11 1.059 1.426 1.628 1.506 3.919 1.417 5.733-.312 7.17-2.635 14.096-4.881 20.795l-.697 2.084a334.279 334.279 0 0 0-7.443 26.03 348.87 348.87 0 0 0-4.31 20.832 356.225 356.225 0 0 0-2.136 13.653.75.75 0 1 1-1.486-.203c.64-4.671 1.361-9.283 2.145-13.71a349.123 349.123 0 0 1 4.329-20.924 336.103 336.103 0 0 1 7.477-26.15l.698-2.09c2.213-6.6 4.501-13.425 4.805-20.387.076-1.537.025-3.452-1.045-4.674-1.48-1.679-4.312-1.432-6.467-.641-4.804 1.758-8.687 5.586-11.851 9.099-7.418 8.227-14.022 17.982-19.629 28.998-2.629 5.153-5.095 10.704-7.329 16.499-7.399 19.197-12.109 36.291-14.397 52.257a.751.751 0 0 1-.742.645z"/><path d="M35.625 262.618a.742.742 0 0 1-.439-.143 89.64 89.64 0 0 1-7.432-6 84.288 84.288 0 0 1-2.742-2.562c-9.625-9.434-16.727-20.906-21.108-34.1-6.097-18.362-5.012-39.01 2.979-56.646 2.18-4.81 4.92-9.532 8.143-14.037 9.238-12.938 22.532-24.568 40.641-35.555a233.394 233.394 0 0 1 9.09-5.227c13.397-7.317 27.801-13.453 42.812-18.236a251.5 251.5 0 0 1 33.671-8.225.75.75 0 0 1 .254 1.478 249.939 249.939 0 0 0-33.469 8.176c-14.919 4.754-29.235 10.852-42.548 18.123a233.695 233.695 0 0 0-9.031 5.193c-17.931 10.878-31.08 22.373-40.198 35.144-3.167 4.427-5.858 9.063-7.997 13.784C.415 181.082-.65 201.331 5.33 219.34c4.305 12.965 11.281 24.236 20.733 33.501a83.769 83.769 0 0 0 2.695 2.516 88.108 88.108 0 0 0 7.31 5.902.75.75 0 0 1-.443 1.359z"/><path d="M37.655 264.058a.75.75 0 0 1-.424-.132c-.485-.334-.96-.667-1.435-1.011a.749.749 0 0 1-.168-1.047.745.745 0 0 1 1.047-.168 70.7 70.7 0 0 0 1.406.989.75.75 0 0 1-.426 1.369zm103.71-180.68a.751.751 0 0 1-.707-1c4.307-12.157 9.161-22.938 14.428-32.045 7.45-12.896 15.9-22.739 25.116-29.258 2.439-1.732 5.386-3.542 8.742-3.814 3.201-.274 7.077 1.27 8.279 4.699.822 2.348.169 4.796-.633 7.307-2.674 8.443-5.428 16.771-8.092 24.826-2.526 7.639-5.138 15.537-7.678 23.522l-.321 1.014a.751.751 0 0 1-1.427-.463l.32-1.01c2.541-7.989 5.155-15.892 7.682-23.534 2.662-8.05 5.415-16.374 8.086-24.811.723-2.261 1.316-4.446.647-6.355-.94-2.683-4.178-3.9-6.741-3.701-2.993.244-5.722 1.929-7.996 3.544-9.039 6.394-17.344 16.077-24.685 28.784-5.221 9.028-10.036 19.726-14.312 31.795a.752.752 0 0 1-.708.5z"/><path d="M179.785 78.648a.25.25 0 0 1-.24-.321c2.092-7.187 2.801-14.048 2.301-22.244-.168-2.746-.549-6.301-2.017-9.45-1.488-3.201-3.964-5.525-6.795-6.376-4.212-1.274-8.548.797-11.202 3.157-2.719 2.408-4.208 4.547-5.86 7.428-.192.328-.383.674-.579 1.027l-.149.27a.25.25 0 1 1-.437-.242l.149-.27c.198-.357.391-.706.584-1.035 1.677-2.924 3.19-5.098 5.96-7.552 2.754-2.451 7.268-4.601 11.678-3.262 2.967.892 5.557 3.313 7.104 6.644 1.503 3.225 1.892 6.841 2.063 9.63.504 8.258-.211 15.171-2.32 22.416a.251.251 0 0 1-.24.18zm-70.05-1.32a.25.25 0 0 1-.247-.285c2.227-15.731 2.831-21.275.721-33.171-.704-3.973-2.641-9.126-5.233-11.054-3.052-2.284-7.379-1.731-10.313-.17-3.193 1.702-5.552 4.547-7.626 7.368l-.207.284a.25.25 0 0 1-.409-.287l.21-.289c2.011-2.735 4.507-5.763 7.797-7.518 3.075-1.635 7.621-2.202 10.848.211 3.109 2.312 4.909 8.446 5.426 11.366 2.123 11.972 1.517 17.538-.719 33.329a.25.25 0 0 1-.248.216z"/><path d="M157.406 82.588c-.702 0-1.422-.126-2.051-.522-2.419-1.517.673-7.854 2.333-11.258.249-.51.454-.93.584-1.223a72.77 72.77 0 0 1 7.75-13.428v-.001c.774-1.054 1.557-2.052 2.633-2.682 1.29-.758 2.791-.777 3.825-.055 1.481 1.024 1.612 3.108 1.56 4.81a123.645 123.645 0 0 1-.712 9.791c-.369 3.234-.953 6.908-3.228 9.552-2.548 2.978-6.497 3.952-10.662 4.764-.571.111-1.291.252-2.032.252zm9.222-25.988a72.062 72.062 0 0 0-7.669 13.289c-.133.3-.342.728-.595 1.247-1.219 2.499-4.457 9.136-2.608 10.295.963.605 2.224.426 3.539.169 4.03-.785 7.845-1.721 10.237-4.516 2.137-2.483 2.696-6.024 3.052-9.149.357-3.129.596-6.402.708-9.729.046-1.51-.053-3.35-1.239-4.169-.967-.676-2.229-.376-3.017.085-.954.558-1.655 1.452-2.408 2.478zm181.928 200.968a.75.75 0 0 1-.368-1.403 67.818 67.818 0 0 0 7.586-4.955c13.609-10.221 23.285-25.509 27.985-44.214 4.914-19.568 1.968-40.893-8.084-58.505a71.955 71.955 0 0 0-1.892-3.151c-10.641-16.728-27.777-30.304-53.928-42.724-45.167-21.437-93.388-29.879-139.45-24.412-.414.034-.784-.245-.833-.656a.75.75 0 0 1 .656-.834c46.343-5.5 94.847 2.99 140.27 24.547 26.417 12.547 43.751 26.297 54.551 43.275a74.258 74.258 0 0 1 1.93 3.214c10.24 17.943 13.242 39.672 8.234 59.611-4.784 19.042-14.652 34.619-28.537 45.047a69.34 69.34 0 0 1-7.752 5.063.756.756 0 0 1-.368.097zM175.4 308.177c-49.71 0-99.422-15.927-139.607-45.264-.194-.135-.41-.29-.617-.444a.75.75 0 1 1 .898-1.201c.194.145.397.29.59.425 46.946 34.273 106.963 50.131 164.675 43.51a.75.75 0 1 1 .171 1.49 229.23 229.23 0 0 1-26.11 1.484z"/><path d="M259.605 354.197c-13.258 0-26.718-4.668-37.076-12.893-10.845-8.602-18.638-21.325-21.379-34.908a.75.75 0 0 1 1.471-.297c2.672 13.241 10.268 25.646 20.841 34.03 10.36 8.227 23.912 12.832 37.17 12.558.244 0 .464 0 .693-.009.426-.034.763.306.78.719a.749.749 0 0 1-.719.779c-.25.011-.49.011-.74.011-.347.008-.695.01-1.041.01z"/><path d="M260.646 353.928a.75.75 0 0 1-.583-.277c-12.229-15.061-18.073-35.549-15.632-54.808a.75.75 0 0 1 1.488.19c-2.391 18.859 3.332 38.924 15.308 53.673a.75.75 0 0 1-.581 1.222z"/><path d="M245.454 299.678a.75.75 0 0 1-.039-1.499 42.448 42.448 0 0 0 14.878-3.537c.145-.057.26-.11.375-.164a.75.75 0 1 1 .634 1.359 7.408 7.408 0 0 1-.434.189 43.89 43.89 0 0 1-15.373 3.65c-.013.002-.027.002-.041.002zm107.732-45.17a.75.75 0 0 1-.388-1.392 32.728 32.728 0 0 0 2.912-1.983c11.47-8.797 12.406-22.29 11.171-32.061-1.433-11.271-7.726-22.301-17.72-31.06-8.062-7.064-18.249-12.673-32.06-17.648a185.307 185.307 0 0 0-53.404-10.687.75.75 0 0 1-.711-.787c.021-.413.383-.757.787-.711a186.833 186.833 0 0 1 53.836 10.772c13.994 5.042 24.333 10.74 32.541 17.932 10.27 9.001 16.74 20.365 18.219 32 1.285 10.161.289 24.21-11.748 33.439a34.042 34.042 0 0 1-3.049 2.078.742.742 0 0 1-.386.108z"/><path d="M316.124 280.108a.75.75 0 0 1-.116-1.491c12.439-1.963 24.654-10.475 31.878-22.212a45.708 45.708 0 0 0 1.803-3.161c7.411-14.236 7.125-32.476-.728-46.469a.75.75 0 0 1 1.308-.734c8.095 14.423 8.39 33.223.751 47.895a47.418 47.418 0 0 1-1.859 3.261c-7.444 12.096-20.059 20.873-32.919 22.903a.936.936 0 0 1-.118.008z"/><path d="M267.697 297.275c-2.324 0-4.623-.119-6.881-.36a6.491 6.491 0 0 1-.432-.041l-.175-.02a.75.75 0 0 1-.67-.822.744.744 0 0 1 .823-.67l.195.021c.123.015.248.029.377.036 18.626 1.99 40.072-4.554 54.683-16.679a57.195 57.195 0 0 0 6.24-5.992c13.119-14.748 17.468-36.58 11.929-59.897a.749.749 0 1 1 1.459-.345c5.653 23.799 1.181 46.121-12.269 61.241a58.602 58.602 0 0 1-6.403 6.149c-13.131 10.896-31.68 17.378-48.876 17.379z"/><path d="M259.366 296.241c-.379 0-.729-.277-.774-.659-.049-.411.214-.78.625-.829l.063-.007c.398-.047.797-.094 1.196-.158.169-.017.281-.034.392-.052 17.124-2.426 33.263-12.269 43.184-26.331 9.845-13.935 13.765-32.287 10.487-49.094a47.166 47.166 0 0 0-.434-2.032.75.75 0 0 1 .559-.902c.403-.1.807.154.902.559.162.691.315 1.393.447 2.094 3.354 17.196-.658 35.979-10.734 50.241-10.155 14.394-26.673 24.468-44.188 26.949a5.547 5.547 0 0 1-.433.056c-.362.061-.781.11-1.201.16a.942.942 0 0 1-.091.005z"/><path d="M257.767 268.708c-.897 0-1.805-.063-2.711-.21-4.56-.744-8.328-3.64-9.601-7.378-1.21-3.573-.213-7.921 2.667-11.633 2.087-2.677 4.807-4.742 7.438-6.739.484-.367.967-.734 1.446-1.104 15.563-12.014 26.177-26.413 31.546-42.799a.75.75 0 1 1 1.425.467c-5.464 16.677-16.249 31.319-32.054 43.52-.482.372-.968.742-1.456 1.111-2.554 1.939-5.195 3.944-7.161 6.466-2.57 3.312-3.479 7.136-2.431 10.229 1.096 3.22 4.401 5.725 8.42 6.38 4.151.671 8.441-.563 11.305-1.549 19.262-6.596 35.38-22.349 47.906-46.823a.75.75 0 1 1 1.336.684c-12.531 24.482-29.39 40.928-48.755 47.559-2.405.826-5.776 1.819-9.32 1.819z"/><path d="M268.065 256.928a.25.25 0 0 1-.179-.075 66.06 66.06 0 0 1-8.783-11.223.25.25 0 0 1 .081-.345.253.253 0 0 1 .344.081 65.518 65.518 0 0 0 8.717 11.137.25.25 0 0 1-.18.425z"/><path d="M256.588 260.853c-1.969 0-3.792-.446-5.153-1.572-1.889-1.58-1.406-4.639-.418-6.777 1.532-3.3 4.166-5.767 8.053-7.543a.25.25 0 0 1 .208.455c-3.774 1.725-6.328 4.111-7.807 7.298-.914 1.979-1.388 4.785.284 6.184 4.127 3.417 12.837.196 16.155-2.415a.25.25 0 1 1 .309.393c-2.348 1.847-7.334 3.977-11.631 3.977zm32.678-61.025a.76.76 0 0 1-.163-.018 287.106 287.106 0 0 0-34.27-5.427.75.75 0 0 1-.674-.818.743.743 0 0 1 .819-.674 288.498 288.498 0 0 1 34.45 5.454.751.751 0 0 1-.162 1.483zM37.655 263.433a.124.124 0 0 1-.094-.043.126.126 0 0 1 .012-.177 281.93 281.93 0 0 1 15.307-12.385 291.263 291.263 0 0 1 32.194-21.139 253.55 253.55 0 0 1 6.583-3.622 292.912 292.912 0 0 1 21.309-10.294 244.555 244.555 0 0 1 7.694-3.202c11.643-4.665 23.573-8.56 35.455-11.574a284.126 284.126 0 0 1 28.683-5.724c1.651-.254 3.376-.493 5.273-.729a277.335 277.335 0 0 1 16.747-1.661c3.864-.278 7.93-.477 12.085-.59a289.236 289.236 0 0 1 27.061.5c2.532.164 5.114.367 7.894.621a.124.124 0 0 1 .113.136c-.006.068-.068.122-.136.112a296.195 296.195 0 0 0-7.887-.619c-9.003-.59-18.1-.758-27.038-.5-4.152.112-8.214.311-12.075.59-5.472.371-11.102.929-16.733 1.659a182.59 182.59 0 0 0-5.267.729 283.351 283.351 0 0 0-28.658 5.718c-11.872 3.013-23.791 6.903-35.425 11.564a249.905 249.905 0 0 0-7.687 3.198 292.837 292.837 0 0 0-21.291 10.286 259.715 259.715 0 0 0-6.577 3.618 291.153 291.153 0 0 0-32.167 21.121 281.441 281.441 0 0 0-15.293 12.375.118.118 0 0 1-.082.032z"/><path d="M103.487 278.937c-23.705.001-45.142-5.062-65.943-15.405-.124-.062-.174-.211-.113-.335s.211-.172.335-.112c29.101 14.47 59.469 18.57 95.57 12.896 33.518-5.257 65.818-20.732 90.95-43.577 12.834-11.665 23.14-25.063 29.803-38.745.044-.081.078-.152.114-.227l.057-.115c5.521-11.421 8.537-22.998 8.964-34.408.05-1.081.07-2.181.06-3.269a73.622 73.622 0 0 0-1.126-12.369 77.167 77.167 0 0 0-4.207-14.891c-4.346-11.031-11.184-20.94-19.774-28.656-15.909-14.298-33.919-20.798-58.396-21.076a.25.25 0 0 1-.247-.253c.001-.139.099-.236.253-.247 24.607.28 42.719 6.819 58.724 21.205 8.648 7.767 15.531 17.741 19.906 28.844a77.769 77.769 0 0 1 4.233 14.988 74.087 74.087 0 0 1 1.134 12.452c.01 1.096-.01 2.204-.06 3.293-.429 11.477-3.462 23.121-9.015 34.606l-.056.114c-.04.081-.077.158-.12.236-6.686 13.729-17.031 27.18-29.911 38.886-25.204 22.91-57.596 38.431-91.209 43.702-10.412 1.637-20.357 2.463-29.926 2.463zM34.143 160.6c-1.742 0-3.155-.563-4.096-1.636-1.066-1.215-1.472-3.045-1.146-5.152.408-2.623 1.561-5.289 3.426-7.923 1.913-2.706 4.55-5.31 7.625-7.526 2.004-1.457 4.188-2.717 6.313-3.643a31.634 31.634 0 0 1 6.433-2.002 32.085 32.085 0 0 1 7.294-.61 31.46 31.46 0 0 1 8.582 1.413c.701.217 1.403.464 2.115.72a.644.644 0 0 1 .058.018l.911.335c1.829.674 3.721 1.372 5.583 1.733 1.567.321 2.965.378 4.279.178.92-.136 1.84-.408 2.816-.834 1.702-.733 3.336-1.822 4.917-2.876.989-.66 2.012-1.342 3.054-1.939a25.2 25.2 0 0 1 5.162-2.244 25.58 25.58 0 0 1 8.356-1.223c2.035.048 3.75.328 5.248.858 1.076.378 2.034.88 2.844 1.493 2.553 1.902 3.778 5.095 2.977 7.762-1.263 4.204-6.542 5.59-10.915 5.104-1.159-.128-2.337-.338-3.476-.54-1.183-.211-2.406-.428-3.589-.55-1.993-.192-3.585-.084-5.005.342-1.099.338-2.206.895-3.38 1.703-.958.653-1.894 1.418-2.799 2.156-1.744 1.424-3.547 2.896-5.679 3.747a12.447 12.447 0 0 1-3.461.813c-3.718.347-7.611-.838-11.376-1.985-.59-.18-1.18-.359-1.77-.533-1.769-.528-3.113-.87-4.362-1.108-2.651-.491-4.797-.484-6.751.023-.396.104-.806.236-1.217.393-1.041.404-2.082 1.003-3.094 1.779-1.476 1.122-2.805 2.536-4.021 3.896l-.532.599c-1.71 1.928-3.649 4.113-5.943 5.57-1.727 1.098-3.423 1.649-5.187 1.688l-.194.001zm24.832-27.509c-2.017 0-4.058.204-6.082.607a30.712 30.712 0 0 0-6.229 1.938c-2.059.896-4.177 2.119-6.125 3.535-2.989 2.155-5.546 4.677-7.396 7.294-1.775 2.508-2.87 5.03-3.254 7.499-.281 1.81.042 3.352.909 4.339.774.882 1.99 1.35 3.515 1.294 1.577-.034 3.105-.536 4.674-1.532 2.175-1.382 4.064-3.512 5.731-5.391l.534-.601c1.25-1.398 2.619-2.854 4.16-4.025 1.085-.832 2.21-1.479 3.342-1.917.447-.171.892-.314 1.323-.428 2.101-.545 4.385-.559 7.188-.038 1.286.245 2.661.594 4.462 1.132.591.175 1.183.355 1.776.536 3.672 1.117 7.467 2.274 10.994 1.945a11.459 11.459 0 0 0 3.183-.746c1.987-.793 3.73-2.216 5.415-3.592.922-.752 1.875-1.53 2.866-2.207 1.258-.865 2.454-1.466 3.655-1.834 1.552-.466 3.265-.584 5.395-.381 1.223.126 2.464.347 3.665.561 1.123.199 2.284.406 3.412.53 3.971.449 8.748-.742 9.846-4.396.761-2.533-.742-5.275-2.62-6.675-.73-.553-1.596-1.006-2.576-1.35-1.398-.495-3.012-.757-4.937-.802a24.575 24.575 0 0 0-8.035 1.177 24.222 24.222 0 0 0-4.964 2.157c-1.013.581-2.022 1.254-2.997 1.904-1.618 1.078-3.291 2.193-5.074 2.961-1.056.461-2.059.758-3.065.906-1.43.218-2.943.157-4.623-.186-1.936-.377-3.866-1.089-5.733-1.777l-.862-.316c-.018-.004-.036-.01-.054-.016a48.222 48.222 0 0 0-2.118-.723 30.433 30.433 0 0 0-8.315-1.368 40.307 40.307 0 0 0-.986-.014z"/><path d="M140.616 132.618a.5.5 0 0 1-.489-.608c1.146-5.202 6.518-13.07 13.199-16.713 2.727-1.49 5.02-.848 6.257.254 1.242 1.105 1.66 2.768 1.066 4.233-.676 1.67-1.281 3.077-2.39 4.704a.5.5 0 1 1-.826-.562c1.053-1.545 1.637-2.902 2.29-4.517.434-1.069.118-2.291-.804-3.111-1.272-1.133-3.183-1.179-5.112-.123-6.231 3.396-11.598 11.041-12.702 16.05a.503.503 0 0 1-.489.393z"/><path d="M157.845 124.708a.5.5 0 0 1-.407-.79 21.889 21.889 0 0 1 9.139-7.399c2.448-1.069 4.5-1.104 5.935-.101 1.099.773 1.791 2.209 1.853 3.841.042 1.383-.326 2.72-.683 4.014-.073.267-.349.44-.617.357a.492.492 0 0 1-.352-.605c.342-1.239.69-2.503.652-3.731-.05-1.318-.584-2.462-1.428-3.056-1.432-1.001-3.489-.444-4.962.198a20.9 20.9 0 0 0-8.723 7.063.5.5 0 0 1-.407.209z"/><path d="M182.595 125.778a.5.5 0 0 1-.349-.857c.724-.847 1.441-1.683 1.788-2.651.384-1.036.264-2.117-.304-2.76-.896-1.02-2.649-.855-3.992-.362-2.544.946-4.714 2.813-6.108 5.259a.505.505 0 0 1-.682.187.502.502 0 0 1-.187-.683c1.51-2.647 3.865-4.672 6.63-5.7 2.144-.79 4.047-.55 5.09.639.807.914 1.001 2.392.493 3.764-.407 1.138-1.186 2.044-1.939 2.921l-.09.103a.508.508 0 0 1-.35.14z"/><path d="M142.863 135.775c-.111 0-.221-.002-.33-.008-.859-.025-1.543-.222-2.084-.599-1.315-.882-.333-3.155-.291-3.251a.507.507 0 0 1 .659-.257.5.5 0 0 1 .256.659c-.187.426-.549 1.694-.059 2.023.389.271.881.404 1.557.425.441.02.909-.012 1.322-.039a482.651 482.651 0 0 0 44.757-5.693c1.254-.22 3.057-.618 4.227-1.54.607-.473.977-1.014 1.133-1.655.213-.836-.026-1.71-.672-2.467-.916-1.072-2.453-1.706-3.815-1.577-2.4.226-4.383 1.852-6.542 3.794a.5.5 0 0 1-.669-.744c2.294-2.063 4.413-3.791 7.117-4.046 1.677-.16 3.551.616 4.669 1.924.864 1.011 1.177 2.203.883 3.357-.208.854-.709 1.596-1.487 2.201-1.346 1.061-3.311 1.499-4.671 1.737a483.507 483.507 0 0 1-44.856 5.706c-.331.023-.718.05-1.104.05zm-81.157 70.127c-1.471 0-3.011-.251-4.509-.873-3.803-1.58-6.525-5.106-8.092-10.481-2.492-8.508-1.976-18.977-1.599-26.62.049-.983.094-1.915.131-2.782.041-.965.861-1.731 1.822-1.675a1.75 1.75 0 0 1 1.676 1.821c-.037.875-.083 1.815-.132 2.808-.365 7.396-.864 17.523 1.463 25.467 1.256 4.31 3.3 7.078 6.075 8.23 3.058 1.273 6.321.275 7.767-.515 9.182-5.003 14.704-18.186 15.972-38.125a1.75 1.75 0 1 1 3.493.222c-1.367 21.503-7.352 35.289-17.789 40.976-1.549.844-3.817 1.547-6.278 1.547zm29.949 20.541a.374.374 0 0 1-.369-.313 20.627 20.627 0 0 1-.255-4.481c.149-2.681.868-5.217 2.079-7.336l.307-.502a13.455 13.455 0 0 1 4.446-4.344c1.979-1.168 4.134-1.737 6.227-1.663 1.885.081 3.737.723 5.3 1.808 1.298.9 2.342 2.061 3.018 3.354.452.821.753 1.719.889 2.66a.375.375 0 0 1-.317.425.37.37 0 0 1-.425-.317 7.085 7.085 0 0 0-.807-2.413c-.625-1.193-1.586-2.26-2.785-3.093-1.448-1.005-3.161-1.599-4.823-1.673-2.025-.085-4.04.466-5.893 1.559a12.682 12.682 0 0 0-4.194 4.097l-.299.488c-1.146 2.006-1.831 4.428-1.974 6.992a19.87 19.87 0 0 0 .245 4.317.376.376 0 0 1-.309.432l-.061.003z"/><path d="M85.055 230.032a.376.376 0 0 1-.367-.3c-.574-2.79-.739-5.455-.506-8.146.186-2.323.654-4.692 1.474-7.455.263-.883.571-1.734.916-2.531 1.659-3.961 4.227-7.113 7.426-9.11.337-.214.677-.42 1.037-.605 2.978-1.572 6.592-2.175 10.172-1.688 1.696.218 3.335.668 4.87 1.339a19.137 19.137 0 0 1 3.151 1.744c2.238 1.482 4.203 3.427 5.836 5.775a23.253 23.253 0 0 1 1.839 3.109.376.376 0 0 1-.674.33 22.35 22.35 0 0 0-1.781-3.01c-1.579-2.272-3.477-4.15-5.64-5.583a18.434 18.434 0 0 0-3.032-1.679 17.019 17.019 0 0 0-4.668-1.282c-3.428-.465-6.882.108-9.728 1.61-.343.176-.663.37-.983.574-3.069 1.916-5.535 4.948-7.135 8.769a21.937 21.937 0 0 0-.887 2.452c-.804 2.711-1.264 5.031-1.446 7.304-.227 2.621-.065 5.215.493 7.934a.375.375 0 0 1-.367.449z"/><path d="M91.315 221.793h-5.96a.125.125 0 0 1 0-.25h5.96a.125.125 0 0 1 0 .25zm1.74-7.42a.127.127 0 0 1-.047-.009c-1.01-.41-2.02-.823-3.03-1.236-1.01-.412-2.02-.824-3.03-1.234a.125.125 0 0 1 .094-.232c1.01.41 2.02.823 3.03 1.236 1.01.412 2.02.824 3.03 1.234.064.026.095.1.069.163a.124.124 0 0 1-.116.078zm4.88-4.67a.124.124 0 0 1-.11-.066c-.587-1.104-1.309-2.397-2.006-3.648-.578-1.037-1.176-2.109-1.674-3.031a.125.125 0 0 1 .051-.17.126.126 0 0 1 .169.051 260.1 260.1 0 0 0 1.672 3.028c.698 1.253 1.42 2.548 2.009 3.653a.125.125 0 0 1-.052.169.138.138 0 0 1-.059.014zm6.141-1.41-.018-.001a.125.125 0 0 1-.106-.142l.34-2.377c.25-1.741.5-3.484.74-5.224l.01-.055c.003-.021.006-.043.012-.067a.125.125 0 0 1 .152-.091.124.124 0 0 1 .091.151l-.008.042c-.003.021-.006.043-.012.067-.238 1.726-.488 3.47-.738 5.211l-.34 2.377a.125.125 0 0 1-.123.109zm5.219 1.57a.123.123 0 0 1-.052-.012.125.125 0 0 1-.062-.165c.136-.297.913-1.555 1.735-2.886.782-1.266 1.59-2.574 1.868-3.092a.126.126 0 0 1 .169-.051.125.125 0 0 1 .051.17c-.281.523-1.092 1.835-1.876 3.104-.782 1.267-1.591 2.576-1.72 2.858a.123.123 0 0 1-.113.074zm2.781 3.4a.125.125 0 0 1-.064-.233c1.17-.693 2.563-1.495 3.911-2.27.971-.56 1.926-1.108 2.77-1.602a.13.13 0 0 1 .18.002c.048.05.05.128.001.177a.308.308 0 0 1-.048.032c-.851.499-1.806 1.048-2.778 1.607-1.346.774-2.739 1.575-3.908 2.268a.121.121 0 0 1-.064.019zm85.054 15.254c-.067 0-.134-.001-.2-.004-3.831-.048-7.693-2.994-9.382-7.164-1.681-4.141-1.365-8.789-.834-12.791a88.19 88.19 0 0 1 3.013-13.998 89.756 89.756 0 0 1 6.216-15.424 91.037 91.037 0 0 1 1.818-3.345.375.375 0 1 1 .651.373 88.95 88.95 0 0 0-7.966 18.611 87.43 87.43 0 0 0-2.988 13.881c-.518 3.904-.83 8.432.786 12.411 1.578 3.897 5.159 6.651 8.707 6.695.225.01.439 0 .654-.019.2-.017.388.136.405.343a.374.374 0 0 1-.342.405c-.18.016-.359.026-.538.026z"/><path d="M198.682 228.758c-.602 0-1.21-.065-1.82-.205a.374.374 0 1 1 .167-.73c4.23.962 8.408-1.963 10.351-5.352 2.318-4.042 2.377-9.005 2.221-12.386a63.982 63.982 0 0 0-3.132-16.96c-2.062-6.246-4.984-11.94-8.685-16.924-.124-.166-.089-.401.077-.524s.401-.089.525.077c3.749 5.048 6.708 10.813 8.795 17.137a64.732 64.732 0 0 1 3.168 17.159c.161 3.475.096 8.582-2.319 12.794-1.803 3.145-5.428 5.913-9.348 5.914zm-159.616-70.42a.252.252 0 0 1-.223-.136l-5.97-11.66a.251.251 0 0 1 .108-.337.248.248 0 0 1 .336.108l5.97 11.66a.251.251 0 0 1-.221.365zm10.429-9.92a.246.246 0 0 1-.177-.074l-9.04-9.101c-.097-.098-.097-.256.001-.354s.256-.098.354.002l9.04 9.101a.25.25 0 0 1-.001.354.252.252 0 0 1-.177.072zm4.64-2.261a.25.25 0 0 1-.248-.224l-1.32-12.6a.25.25 0 0 1 .222-.275c.144-.02.26.086.275.223l1.32 12.6a.25.25 0 0 1-.222.275l-.027.001zm7.07.121a.25.25 0 0 1-.249-.227l-1.23-13.319a.25.25 0 0 1 .226-.272c.14-.021.259.089.272.226l1.23 13.319a.25.25 0 0 1-.226.272l-.023.001zm9.37-11.3a.25.25 0 0 1-.237-.33l.02-.06a.253.253 0 0 1 .317-.157.25.25 0 0 1 .157.317l-.02.06a.25.25 0 0 1-.237.17z"/><path d="M70.575 135.228c-.276 0-.505-.224-.505-.5s.219-.5.495-.5h.01a.5.5 0 0 1 0 1z"/><path d="M65.615 147.438a.25.25 0 0 1-.232-.343l4.95-12.46c.051-.128.196-.19.325-.14s.191.196.14.325l-4.95 12.46a.25.25 0 0 1-.233.158zm12.87 1.969a.25.25 0 0 1-.248-.222l-1.39-12.06a.249.249 0 0 1 .22-.276c.139-.008.261.083.277.22l1.39 12.06a.249.249 0 0 1-.22.276l-.029.002zm11.591-6.259a.249.249 0 0 1-.193-.091l-5.45-6.609a.25.25 0 0 1 .386-.319l5.45 6.609a.25.25 0 0 1-.193.41zm15.959-.79a.25.25 0 0 1-.234-.337l4.8-13.01a.25.25 0 0 1 .469.174l-4.8 13.01a.251.251 0 0 1-.235.163zm-7.03-1.42a.25.25 0 0 1-.248-.221l-1.39-11.59a.25.25 0 1 1 .497-.058l1.39 11.59a.25.25 0 0 1-.249.279z"/></svg></g><g transform="translate(1256.0 859.0) rotate(0.0 -137.5 301.5) scale(-1.6250928518961287 1.618705818122644)"><svg width="169.221" height="372.52" viewBox="0 0 169.221 372.52"><g fill="#A2423D"><path d="M153.275 348.37a3.277 3.277 0 0 1 1.336 6.269 3.238 3.238 0 0 1-1.336.286 3.278 3.278 0 1 1 0-6.556zm-13.703 2.418a3.274 3.274 0 1 1-3.278 3.271 3.278 3.278 0 0 1 3.278-3.27zm-57.057-2.418a3.277 3.277 0 0 1 1.486 6.194 3.233 3.233 0 0 1-1.486.36 3.278 3.278 0 0 1 0-6.555zm-9.431 7.686a3.278 3.278 0 1 1-3.278-3.278 3.288 3.288 0 0 1 3.278 3.278z"/></g><path d="m137.807 122.958-.764.048C121.691 152 93.833 154.29 72.491 144.192c-14.78-6.985-26.426-19.905-28.634-34.017h-.006a58.616 58.616 0 0 0 .51-7.762C44.362 21.282 66.816.75 95.354.75c50.345 0 42.331 70.228 42.331 118.651q0 1.779.123 3.557z" fill="#00739D"/><path d="M96.178 242.884c.02 10.214-2.91 14.562-5.84 21.778a60.65 60.65 0 0 0-7.796-26.63 42.237 42.237 0 0 0 13.636 4.852zm-45.077-16.041a42 42 0 0 1 12.668 1.867c-6.528 24.293-13.813 54.514-10.351 82.256a154.645 154.645 0 0 1-19.06-5.043h-.007a173.036 173.036 0 0 1-3.134-32.6c0-7.414.497-15.278 1.28-23.284.573-5.786 1.289-11.646 2.072-17.472 4.6-3.074 10.236-5.724 16.532-5.724z" fill="#3D138D"/><path d="M140.798 242.747c1.431 14.896 1.397 30.617 1.377 53.302h-.034a87.96 87.96 0 0 1-32.334 14.712 123.777 123.777 0 0 1-36.491 2.808 151.242 151.242 0 0 1-19.898-2.603c-3.462-27.742 3.823-57.963 10.351-82.256 7.25 2.242 12.763 6.12 18.773 9.322a60.65 60.65 0 0 1 7.796 26.63c2.93-7.216 5.86-11.564 5.84-21.778a37.527 37.527 0 0 0 5.908.456c17.37 0 29.956-10.003 36.368-17.526h.007q.45 2.463.824 4.858a197.412 197.412 0 0 1 1.513 12.075zm-68.307-98.555c1.568 14.657 2.304 34.732-.872 53.131-1.41 8.19-4.532 19.019-7.85 31.387a42 42 0 0 0-12.668-1.867c-6.296 0-11.932 2.65-16.531 5.724q.398-2.873.804-5.724c5.362-37.67 12.592-72.17-.307-72.17a14.085 14.085 0 0 0-3.394.456v.006c-5.703 1.425-12.845 6.147-19.897 13.186h-.007c11.693-17.492 28.927-34.208 32.082-58.146h.006c2.208 14.112 13.854 27.032 28.634 34.017z" fill="#7D4CDB"/><path d="M136.791 217.37a295.07 295.07 0 0 1 1.67 8.444h-.007c-6.412 7.523-18.998 17.526-36.368 17.526a37.527 37.527 0 0 1-5.908-.456 42.237 42.237 0 0 1-13.636-4.852c-6.01-3.203-11.523-7.08-18.773-9.322 3.319-12.368 6.44-23.196 7.85-31.387 3.176-18.399 2.44-38.474.872-53.131 21.343 10.099 49.2 7.809 64.552-21.186l.764-.048c.954 15.258 7.843 30.413 13.485 45.465-4.79-6.466-9.308-8.92-13.05-8.81-5.9.163-9.86 6.718-9.86 13.983 0 9.376 4.811 26.76 8.41 43.775z" fill="#3D138D"/><path d="M84 354.564a3.27 3.27 0 1 0-1.485.36 3.261 3.261 0 0 0 1.486-.36zm12.178 12.593c-2.085 2.207-5.826 3.931-12.177 4.45q-1.932.163-4.198.163c-20.532 0-38.453-29.54-45.445-65.847a154.645 154.645 0 0 0 19.06 5.043 151.242 151.242 0 0 0 19.898 2.603c5.356 24.13 25.247 37.928 25.247 47.36a8.731 8.731 0 0 1-2.385 6.228zm-24.552-8.375a3.285 3.285 0 1 0-1.82.545 3.288 3.288 0 0 0 1.82-.545zm82.984-4.143a3.274 3.274 0 1 0-1.335.286 3.238 3.238 0 0 0 1.336-.286zm-1.928 15.516c-.497.007-1.008.013-1.533.013-28.511 0-36.095-31.012-41.342-59.407a87.96 87.96 0 0 0 32.334-14.712h.034v7.414c0 33.356 26.296 49.554 26.296 56.927 0 5.152-2.821 7.877-8.456 9.05a40.389 40.389 0 0 1-7.333.715zm-13.11-12.818a3.274 3.274 0 1 0-3.278-3.278 3.279 3.279 0 0 0 3.278 3.278zm11.727-188.893c4.109 10.964 7.543 21.874 7.543 32.73 0 19.23-9.478 32.735-18.044 41.573a197.367 197.367 0 0 0-1.513-12.075q-.378-2.392-.824-4.858c-.504-2.78-1.07-5.609-1.67-8.443 19.23-24.416 7.939-48.402 1.452-57.759 3.74-.109 8.259 2.345 13.05 8.811 0 .007.006.014.006.02zM35.374 226.843q-.41 2.851-.804 5.724c-.784 5.826-1.5 11.686-2.072 17.472C18.406 242.89.75 228.117.75 198.604c0-11.162 4.702-20.838 11.019-30.283h.007c7.052-7.039 14.194-11.761 19.897-13.186-6.48 7.101-28.695 46.168 3.7 71.708z" fill="#00739D"/><path d="M138.243 159.612c6.487 9.357 17.778 33.343-1.452 57.759-3.598-17.016-8.409-34.399-8.409-43.776 0-7.264 3.96-13.819 9.86-13.983zm-103.176-4.94c12.9 0 5.67 34.501.307 72.17-32.396-25.54-10.181-64.606-3.7-71.707v-.006a14.085 14.085 0 0 1 3.393-.457z" fill="#A2423D"/><path d="M32.497 250.789a.746.746 0 0 1-.338-.081C17.489 243.266 0 228.186 0 198.604c0-12.44 5.956-22.942 11.145-30.7 2.805-4.196 5.856-8.252 9.086-12.546 10.079-13.4 20.5-27.257 22.876-45.281a58.134 58.134 0 0 0 .505-7.664C43.612 32.543 60.053 0 95.353 0c11.12 0 20.154 3.46 26.853 10.285 17.805 18.137 17.087 56.995 16.453 91.279-.116 6.246-.225 12.146-.225 17.837 0 1.164.04 2.344.12 3.506.788 12.58 5.735 25.322 10.52 37.645.986 2.539 1.97 5.075 2.92 7.608l.011.031c3.941 10.518 7.587 21.793 7.587 32.982 0 15.434-6.142 29.597-18.255 42.096a.75.75 0 1 1-1.077-1.044c12-12.381 17.832-25.81 17.832-41.052 0-10.955-3.602-22.078-7.495-32.466l-.011-.03v-.001a692.937 692.937 0 0 0-2.91-7.581c-4.826-12.43-9.817-25.281-10.618-38.09a52.646 52.646 0 0 1-.124-3.604c0-5.705.11-11.612.225-17.865.629-33.989 1.341-72.512-16.023-90.2-6.497-6.619-14.93-9.836-25.783-9.836-21.568 0-50.241 10.46-50.241 100.913a59.622 59.622 0 0 1-.518 7.86c-2.427 18.415-12.97 32.431-23.164 45.986-3.217 4.277-6.256 8.318-9.038 12.479C7.321 176.32 1.5 186.567 1.5 198.604c0 28.82 17.041 43.514 31.337 50.766a.75.75 0 0 1-.34 1.419z"/><path d="M151.15 370.918c-28.597 0-36.469-29.65-42.081-60.02a.75.75 0 1 1 1.475-.273c5.497 29.749 13.16 58.793 40.605 58.793.521 0 1.029-.006 1.523-.013a39.472 39.472 0 0 0 7.187-.7c5.438-1.13 7.862-3.695 7.862-8.315 0-2.089-2.726-5.393-6.176-9.577-8.012-9.713-20.12-24.391-20.12-47.35v-8.329c.02-21.86.035-37.656-1.373-52.315-.384-4.065-.877-8-1.508-12.03q-.376-2.382-.821-4.84a294.608 294.608 0 0 0-1.665-8.423c-.99-4.677-2.072-9.388-3.118-13.945-2.73-11.882-5.308-23.104-5.308-29.985 0-8.232 4.553-14.566 10.59-14.733 3.087-.096 7.972 1.418 13.673 9.114l.023.034a.75.75 0 0 1-1.133.973.776.776 0 0 1-.105-.127c-4.205-5.671-8.498-8.612-12.415-8.495-5.717.159-9.133 6.853-9.133 13.234 0 6.71 2.56 17.853 5.27 29.65 1.048 4.562 2.132 9.28 3.123 13.97.654 3.09 1.201 5.858 1.674 8.464q.451 2.47.827 4.875a197.473 197.473 0 0 1 1.519 12.122c1.415 14.73 1.4 30.556 1.38 52.459v8.327c0 22.42 11.901 36.848 19.777 46.396 3.785 4.588 6.52 7.904 6.52 10.53 0 5.391-2.878 8.5-9.055 9.785a40.937 40.937 0 0 1-7.468.73 97.79 97.79 0 0 1-1.55.014zM11.776 169.071a.75.75 0 0 1-.53-1.28c7.175-7.162 14.365-11.915 20.246-13.383a.75.75 0 1 1 .363 1.455c-5.54 1.383-12.665 6.118-19.55 12.989a.747.747 0 0 1-.53.22z"/><path d="M34.35 306.673a.75.75 0 0 1-.735-.608 173.096 173.096 0 0 1-3.148-32.742c0-6.885.42-14.525 1.285-23.357.522-5.28 1.2-11.004 2.074-17.5q.4-2.878.805-5.73c.729-5.116 1.491-10.174 2.234-15.095 3.91-25.923 7.286-48.31 1.904-54.565a4.615 4.615 0 0 0-3.702-1.654 13.37 13.37 0 0 0-3.212.434.75.75 0 1 1-.363-1.455 14.858 14.858 0 0 1 3.575-.479 6.113 6.113 0 0 1 4.839 2.175c5.83 6.776 2.57 28.396-1.558 55.767-.742 4.918-1.504 9.972-2.232 15.084q-.409 2.851-.804 5.722c-.87 6.474-1.547 12.18-2.068 17.442-.86 8.783-1.277 16.375-1.277 23.211a171.592 171.592 0 0 0 3.121 32.458.752.752 0 0 1-.737.892z"/><path d="M79.803 372.52c-19.656 0-38.646-27.327-46.181-66.455a.75.75 0 1 1 1.473-.284c7.397 38.412 25.781 65.239 44.708 65.239 1.48 0 2.871-.054 4.134-.161 5.546-.452 9.48-1.871 11.696-4.217a7.99 7.99 0 0 0 2.18-5.714c0-3.775-3.55-8.498-8.045-14.477-6.273-8.345-14.08-18.731-17.184-32.72a.75.75 0 0 1 1.464-.325c3.035 13.672 10.733 23.914 16.92 32.143 4.662 6.204 8.345 11.103 8.345 15.38a9.441 9.441 0 0 1-2.592 6.745c-2.476 2.621-6.736 4.197-12.66 4.68-1.302.11-2.736.166-4.258.166zm16.215-222.112a56.426 56.426 0 0 1-23.848-5.538c-15.748-7.443-26.881-20.693-29.054-34.58a.75.75 0 0 1 1.482-.232c2.097 13.403 12.908 26.222 28.214 33.456 19.376 9.168 47.65 9.206 63.569-20.86a.75.75 0 0 1 1.325.703c-10.566 19.956-26.413 27.051-41.688 27.051zm-60.645 76.685a.25.25 0 0 1-.154-.054c-10.358-8.166-16.113-18.452-17.106-30.573-1.508-18.414 8.535-36.183 13.362-41.484a.26.26 0 0 1 .448.147v.006a.25.25 0 0 1-.065.169c-4.776 5.233-14.742 22.853-13.246 41.121.98 11.977 6.672 22.145 16.916 30.221a.25.25 0 0 1-.155.447zm101.417-9.487a.236.236 0 0 1-.17-.066.233.233 0 0 1-.012-.34c20.359-25.85 6.241-50.505 1.43-57.445a.25.25 0 1 1 .41-.285c4.862 7.012 19.124 31.92-1.46 58.056a.284.284 0 0 1-.199.08zm-34.704 26.484a38.043 38.043 0 0 1-6.026-.466 42.98 42.98 0 0 1-13.87-4.93c-1.617-.862-3.222-1.786-4.775-2.68a67.345 67.345 0 0 0-13.868-6.588 41.275 41.275 0 0 0-12.446-1.833c-5.206 0-10.477 1.83-16.115 5.597a.75.75 0 1 1-.833-1.247c5.892-3.937 11.436-5.85 16.948-5.85a42.751 42.751 0 0 1 12.89 1.9 68.527 68.527 0 0 1 14.173 6.722c1.542.887 3.136 1.805 4.731 2.655a41.587 41.587 0 0 0 13.399 4.773 36.57 36.57 0 0 0 5.792.447c19.029 0 31.373-12.072 35.797-17.263a.75.75 0 0 1 1.142.973c-4.56 5.35-17.285 17.79-36.94 17.79z"/><path d="M90.338 264.912a.25.25 0 0 1-.25-.242 60.304 60.304 0 0 0-7.759-26.507.25.25 0 0 1 .426-.262 61.274 61.274 0 0 1 7.784 25.62c.4-.95.795-1.853 1.182-2.735 2.266-5.17 4.223-9.635 4.207-17.902a.25.25 0 0 1 .25-.25.25.25 0 0 1 .25.25c.017 8.372-1.96 12.881-4.25 18.103a146.22 146.22 0 0 0-1.608 3.77.25.25 0 0 1-.232.155zm-20.532 95.165a4.015 4.015 0 1 1 2.24-.674 4.029 4.029 0 0 1-2.24.674zm0-6.549a2.527 2.527 0 1 0 2.528 2.528 2.53 2.53 0 0 0-2.528-2.528zm12.709 2.147a4.032 4.032 0 1 1 1.825-.442 3.951 3.951 0 0 1-1.825.442zm0-6.555a2.528 2.528 0 1 0 0 5.055 2.47 2.47 0 0 0 1.142-.278 2.527 2.527 0 0 0-1.142-4.777zm57.056 8.967a4.024 4.024 0 1 1 4.028-4.028 4.032 4.032 0 0 1-4.028 4.028zm0-6.549a2.524 2.524 0 1 0 2.528 2.521 2.527 2.527 0 0 0-2.528-2.52zm13.704 4.137a4.033 4.033 0 1 1 1.641-.352 3.972 3.972 0 0 1-1.64.352zm0-6.555a2.528 2.528 0 1 0 0 5.055 2.487 2.487 0 0 0 1.028-.22 2.527 2.527 0 0 0-1.028-4.836z"/><path d="M84 372.357a.75.75 0 0 1-.294-.06c-7.269-3.1-10.637-8.681-12.759-13.196a.75.75 0 0 1 1.357-.638c3.025 6.435 6.61 10.16 11.99 12.453a.75.75 0 0 1-.294 1.44zm12.179-4.45a.75.75 0 0 1-.643-.362c-2.151-3.554-6.551-9.877-11.847-12.3a.75.75 0 0 1 .624-1.364c5.377 2.46 9.77 8.366 12.506 12.887a.75.75 0 0 1-.64 1.139zm56.534 3.011a.735.735 0 0 1-.289-.059.75.75 0 0 1-.066-.028c-5.7-2.736-11.187-8.312-13.046-13.257a.75.75 0 1 1 1.404-.528c1.733 4.608 6.882 9.824 12.254 12.415a.755.755 0 0 1 .406 1.053.749.749 0 0 1-.663.404zm7.302-.728-.06-.003a.75.75 0 0 1-.688-.808c.602-7.486-3.171-12.753-5.093-14.13a.75.75 0 0 1 .874-1.22c2.544 1.824 6.345 7.636 5.714 15.47a.75.75 0 0 1-.747.69zM53.418 311.215a.25.25 0 0 1-.248-.219c-3.281-26.292 3.039-55.117 10.358-82.351q.904-3.371 1.78-6.583c2.636-9.707 4.912-18.09 6.065-24.782 3.515-20.369 2.054-41.988.87-53.062a.25.25 0 0 1 .497-.053c1.187 11.1 2.651 32.771-.875 53.2-1.156 6.715-3.435 15.109-6.075 24.828q-.87 3.208-1.78 6.582c-7.305 27.184-13.614 55.953-10.344 82.16a.25.25 0 0 1-.217.279.228.228 0 0 1-.031.001z"/><path d="M82.286 314.61q-4.452 0-9.018-.293a152.207 152.207 0 0 1-19.996-2.616 155.52 155.52 0 0 1-19.132-5.06.75.75 0 0 1 .211-1.468h.007a.75.75 0 0 1 .238.039 154.02 154.02 0 0 0 18.967 5.018 150.724 150.724 0 0 0 19.8 2.59 122.588 122.588 0 0 0 36.27-2.788 87.166 87.166 0 0 0 32.06-14.585.75.75 0 0 1 .895 1.204 88.654 88.654 0 0 1-32.608 14.84 119.396 119.396 0 0 1-27.694 3.12z"/><path d="M92.988 313.668a.249.249 0 0 1-.173-.069c-16.31-15.486-4.148-45.646-2.707-49.035a.25.25 0 0 1 .46.196c-1.427 3.355-13.474 33.223 2.592 48.476a.25.25 0 0 1-.172.432z"/></svg></g><g transform="translate(1175.0 835.0) rotate(0.0 -73.0 41.0) scale(-2.3567233281065727 2.3753258106958026)"><svg width="61.95" height="34.522" viewBox="0 0 61.95 34.522"><path d="M60.878 3.416a76.999 76.999 0 0 1 .176 11.71 3.9 3.9 0 0 1-.828-.043 22.47 22.47 0 0 1-2.844-.91 3.341 3.341 0 0 0-2.865.235c-.572.41-.916 1.092-1.54 1.415-1.839.945-3.708-1.986-5.752-1.62-.975.176-1.642 1.055-2.44 1.65a4.613 4.613 0 0 1-4.34.57c-1.223-.476-2.19-1.458-3.392-1.97a2.17 2.17 0 0 0-.22-.081c.037-.499.08-.99.125-1.488a5.86 5.86 0 0 0-.44-3.378L56.825.983a2.923 2.923 0 0 1 4.053 2.433z" fill="#7D4CDB"/><path d="M60.226 15.083a3.9 3.9 0 0 0 .828.044 38.805 38.805 0 0 1-3.218 13.924 2.947 2.947 0 0 1-4.184 1.253c-6.2-3.738-17.581-9.19-17.581-9.19a3.188 3.188 0 0 0 .293-1.282c.154-1.818.308-3.643.469-5.46.073.022.147.051.22.08 1.202.513 2.169 1.495 3.393 1.972a4.613 4.613 0 0 0 4.338-.572c.8-.593 1.466-1.473 2.44-1.649 2.045-.366 3.914 2.565 5.754 1.62.623-.323.967-1.004 1.539-1.415a3.341 3.341 0 0 1 2.865-.234 22.47 22.47 0 0 0 2.844.909z" fill="#3D138D"/><path d="M36.833 14.372c-.161 1.817-.315 3.642-.469 5.46a3.188 3.188 0 0 1-.293 1.282 2.74 2.74 0 0 1-1.29 1.019 10.513 10.513 0 0 1-5.474.967 1.87 1.87 0 0 1-1.254-.689c-1.048-1.18-1.51-3.635-1.736-5.738-.14-1.224-.198-2.33-.25-2.99a4.975 4.975 0 0 1 .11-1.832 3.073 3.073 0 0 1 .836-1.297 4.78 4.78 0 0 1 .953-.719 13.195 13.195 0 0 1 5.049-1.363 4.195 4.195 0 0 1 2.755.264 2.207 2.207 0 0 1 .748.77 5.86 5.86 0 0 1 .44 3.378c-.044.498-.088.99-.125 1.488z" fill="#7D4CDB"/><path d="M26.317 16.673c.227 2.103.688 4.558 1.736 5.738a189.002 189.002 0 0 0-16.701 10.766 2.913 2.913 0 0 1-4.075-.543 33.797 33.797 0 0 1-6.273-16.928 5.07 5.07 0 0 1 3.767.124c1.378.645 2.653 1.928 4.14 1.642.968-.19 1.679-1.004 2.536-1.488a4.033 4.033 0 0 1 4.412.374 5.67 5.67 0 0 0 1.18.916c2.008.894 4.045-2.44 6.097-1.656.616.227 1.048.791 1.656 1.048a2.122 2.122 0 0 0 1.517.007z" fill="#3D138D"/><path d="M26.067 13.683c.052.66.11 1.766.25 2.99h-.008a2.122 2.122 0 0 1-1.517-.007c-.608-.257-1.04-.821-1.656-1.048-2.052-.785-4.09 2.55-6.097 1.656a5.67 5.67 0 0 1-1.18-.916 4.033 4.033 0 0 0-4.412-.374c-.857.484-1.568 1.297-2.536 1.488-1.487.285-2.762-.997-4.14-1.642a5.07 5.07 0 0 0-3.767-.124A49.632 49.632 0 0 1 .96 6.135a2.928 2.928 0 0 1 3.789-2.529l22.264 6.948a3.073 3.073 0 0 0-.836 1.297 4.975 4.975 0 0 0-.11 1.832z" fill="#7D4CDB"/><path d="M30.29 23.896q-.527 0-1.054-.05a2.622 2.622 0 0 1-1.748-.942c-.958-1.079-1.587-3.092-1.917-6.15a54.678 54.678 0 0 1-.212-2.46l-.04-.553a5.655 5.655 0 0 1 .142-2.111 3.805 3.805 0 0 1 1.032-1.617 5.509 5.509 0 0 1 1.099-.828 13.827 13.827 0 0 1 5.326-1.456 4.895 4.895 0 0 1 3.245.368 2.961 2.961 0 0 1 1 1.025 6.602 6.602 0 0 1 .542 3.83c-.05.554-.09 1.011-.124 1.475q-.223 2.513-.431 5.011l-.039.457a3.881 3.881 0 0 1-.382 1.579 3.455 3.455 0 0 1-1.632 1.339 11.188 11.188 0 0 1-4.808 1.083zM34.246 9.12a8.83 8.83 0 0 0-1.133.096 12.7 12.7 0 0 0-4.769 1.266 4.035 4.035 0 0 0-.809.609 2.335 2.335 0 0 0-.642.981 4.343 4.343 0 0 0-.079 1.557l.04.562c.045.64.103 1.485.207 2.397v.004c.363 3.363 1.045 4.75 1.552 5.321a1.136 1.136 0 0 0 .76.44 9.714 9.714 0 0 0 5.085-.898 2.138 2.138 0 0 0 .962-.715 2.603 2.603 0 0 0 .196-.97l.038-.458c.141-1.668.283-3.34.43-5.007.035-.46.076-.924.117-1.395a5.476 5.476 0 0 0-.329-3.02 1.458 1.458 0 0 0-.495-.515 2.14 2.14 0 0 0-1.131-.255z"/><path d="M9.583 34.522a3.632 3.632 0 0 1-2.903-1.434A34.167 34.167 0 0 1 .258 15.785a50.63 50.63 0 0 1-.045-9.72A3.678 3.678 0 0 1 4.97 2.89l22.266 6.948a.75.75 0 0 1-.447 1.432L4.525 4.322a2.184 2.184 0 0 0-1.866.273 2.16 2.16 0 0 0-.952 1.607 49.092 49.092 0 0 0 .043 9.426A32.69 32.69 0 0 0 7.875 32.18a2.159 2.159 0 0 0 3.024.398A191.096 191.096 0 0 1 27.68 21.76a.75.75 0 0 1 .745 1.302 189.502 189.502 0 0 0-16.62 10.71 3.67 3.67 0 0 1-2.223.75zm45.597-3.043a3.713 3.713 0 0 1-1.915-.533c-6.098-3.676-17.405-9.101-17.518-9.156a.75.75 0 0 1 .648-1.352c.114.054 11.485 5.51 17.644 9.224a2.172 2.172 0 0 0 1.76.227 2.195 2.195 0 0 0 1.362-1.165 37.598 37.598 0 0 0 3.144-13.648 76.183 76.183 0 0 0-.174-11.593 2.173 2.173 0 0 0-3.015-1.809l-20.308 8.523a.75.75 0 0 1-.58-1.383L56.535.291a3.673 3.673 0 0 1 5.09 3.058 77.725 77.725 0 0 1 .177 11.827 39.064 39.064 0 0 1-3.29 14.2 3.728 3.728 0 0 1-2.286 1.951 3.67 3.67 0 0 1-1.046.152z"/><path d="M8.48 17.763a5.276 5.276 0 0 1-2.652-1.047 11.93 11.93 0 0 0-1.163-.66 4.794 4.794 0 0 0-3.58-.114.258.258 0 0 1-.335-.237.248.248 0 0 1 .2-.245 5.288 5.288 0 0 1 3.925.143 12.315 12.315 0 0 1 1.216.687 4.048 4.048 0 0 0 2.773.936 4.073 4.073 0 0 0 1.57-.854 8.612 8.612 0 0 1 .89-.606 4.265 4.265 0 0 1 4.693.398c.12.098.236.203.351.309a3.005 3.005 0 0 0 .772.572c.894.398 1.835-.179 2.83-.79 1.045-.64 2.125-1.303 3.255-.871a3.544 3.544 0 0 1 .924.572 3.444 3.444 0 0 0 .74.48 1.86 1.86 0 0 0 1.341 0 .25.25 0 0 1 .158.474 2.371 2.371 0 0 1-1.69-.013 3.87 3.87 0 0 1-.854-.546 3.124 3.124 0 0 0-.794-.499c-.904-.345-1.834.225-2.818.83-1.062.651-2.16 1.325-3.295.82a3.428 3.428 0 0 1-.907-.66 6.033 6.033 0 0 0-.329-.29 3.806 3.806 0 0 0-4.131-.35 8.242 8.242 0 0 0-.838.571 4.504 4.504 0 0 1-1.772.944 2.535 2.535 0 0 1-.48.046zm33.587-.79a4.7 4.7 0 0 1-1.712-.316 9.334 9.334 0 0 1-1.819-1.042 9.555 9.555 0 0 0-1.581-.933c-.06-.023-.123-.049-.187-.069a.252.252 0 0 1-.189-.241.247.247 0 0 1 .247-.25h.007a.25.25 0 0 1 .072.01c.08.024.16.056.24.088a10.071 10.071 0 0 1 1.672.981 8.828 8.828 0 0 0 1.72.99 4.373 4.373 0 0 0 4.1-.54c.226-.169.442-.362.658-.554a4.013 4.013 0 0 1 1.885-1.14 4.405 4.405 0 0 1 2.947.951c.968.582 1.883 1.131 2.736.692a2.987 2.987 0 0 0 .802-.714 4.423 4.423 0 0 1 .706-.68 3.542 3.542 0 0 1 3.081-.272c.365.108.72.242 1.075.376a8.822 8.822 0 0 0 1.737.526 3.642 3.642 0 0 0 .777.04.25.25 0 0 1 .026.5 4.146 4.146 0 0 1-.881-.047 9.337 9.337 0 0 1-1.836-.551c-.343-.13-.687-.26-1.04-.365a3.192 3.192 0 0 0-2.647.198 3.989 3.989 0 0 0-.624.608 3.402 3.402 0 0 1-.946.826c-1.102.566-2.18-.082-3.223-.708a4.065 4.065 0 0 0-2.601-.888 3.595 3.595 0 0 0-1.641 1.021 10.45 10.45 0 0 1-.694.583 4.866 4.866 0 0 1-2.867.92z"/></svg></g><g transform="translate(816.0 43.0) rotate(10.358993303580672 111.0 75.0) scale(1.9550858652575958 1.9601949740600866)"><svg width="113.55" height="76.523" viewBox="0 0 113.55 76.523"><g fill="#7D4CDB"><path d="m111.69 57.06 1.36 6.35S98.81 51.9 59.41 54.53 9.55 71.19 9.55 71.19v-6.42s17.08-13.18 50.7-15.28c31.46-1.97 51.22 7.62 51.22 7.62z"/><path d="m104.11 21.65 7.58 35.41-.22.05s-19.76-9.59-51.22-7.62c-33.62 2.1-50.7 15.28-50.7 15.28V31.1l17.08 20.49 13.39-29.94 16.81 22.06 14.19-24.95 12.87 22.85z"/><circle cx="104.97" cy="11.37" r="6.5"/></g><path d="M113.05 63.41S94.66 73.65 58.94 75.7C27.6 77.5 9.55 71.19 9.55 71.19s10.46-14.03 49.86-16.66 53.64 8.88 53.64 8.88z" fill="#333"/><circle cx="71.81" cy="7" fill="#7D4CDB" r="6.5"/><circle cx="37.89" cy="10.21" fill="#7D4CDB" r="6.5"/><path d="M7 13.5c3.59 0 6.5 2.91 6.5 6.5s-2.91 6.51-6.5 6.51S.5 23.59.5 20s2.91-6.5 6.5-6.5z" fill="#7D4CDB"/><path d="M9.55 71.69a.498.498 0 0 1-.5-.5V31.1a.5.5 0 0 1 .884-.321l16.567 19.875 13.063-29.208a.501.501 0 0 1 .853-.099l16.352 21.458 13.816-24.293a.501.501 0 0 1 .435-.253h.001c.181 0 .347.098.435.255l12.548 22.28 19.755-19.5a.501.501 0 0 1 .841.251l8.939 41.76a.5.5 0 0 1-.803.494c-.142-.115-14.597-11.361-53.293-8.771C20.8 57.608 10.054 71.352 9.95 71.49a.502.502 0 0 1-.4.2zm.5-39.21v37.393c3.248-3.322 15.877-13.609 49.327-15.842 33.69-2.24 48.948 5.683 52.917 8.238l-8.481-39.622-19.572 19.319a.497.497 0 0 1-.787-.11L71.018 19.774 57.265 43.957a.5.5 0 0 1-.401.252c-.156.024-.329-.062-.431-.196l-16.3-21.39-13.047 29.171a.499.499 0 0 1-.84.116z"/><path d="M47.945 76.519c-24.346 0-38.401-4.802-38.561-4.857a.5.5 0 1 1 .33-.944c.18.063 18.335 6.25 49.197 4.482 35.172-2.019 53.711-12.126 53.895-12.228a.5.5 0 0 1 .487.873c-.185.104-18.899 10.32-54.324 12.353-3.875.224-7.555.321-11.024.321zM9.55 64.895a.126.126 0 0 1-.099-.049.124.124 0 0 1 .022-.175c.171-.133 17.495-13.229 50.769-15.307 31.122-1.953 51.084 7.537 51.282 7.633a.125.125 0 1 1-.109.225c-.197-.097-20.095-9.555-51.157-7.607C27.059 51.688 9.797 64.738 9.626 64.869a.123.123 0 0 1-.076.026zM7 27.01c-3.859 0-7-3.145-7-7.01 0-3.859 3.141-7 7-7s7 3.141 7 7c0 3.865-3.141 7.01-7 7.01zM7 14c-3.309 0-6 2.691-6 6 0 3.313 2.691 6.01 6 6.01s6-2.696 6-6.01c0-3.309-2.692-6-6-6zm30.89 3.21c-3.859 0-7-3.141-7-7s3.141-7 7-7 7 3.141 7 7-3.141 7-7 7zm0-13c-3.309 0-6 2.691-6 6s2.691 6 6 6 6-2.691 6-6-2.692-6-6-6zM71.81 14c-3.859 0-7-3.141-7-7s3.141-7 7-7 7 3.141 7 7-3.14 7-7 7zm0-13c-3.309 0-6 2.691-6 6s2.691 6 6 6 6-2.691 6-6-2.691-6-6-6zm33.16 17.37c-3.859 0-7-3.141-7-7s3.141-7 7-7 7 3.141 7 7-3.141 7-7 7zm0-13c-3.309 0-6 2.691-6 6s2.691 6 6 6 6-2.691 6-6-2.692-6-6-6z"/></svg></g><g transform="translate(1083.0 949.0) rotate(0.0 -24.0 20.0) scale(-2.054340736378437 2.0431576183728906)"><svg width="23.365" height="19.578" viewBox="0 0 23.365 19.578"><path d="M8.853 13.824A9.54 9.54 0 0 1 .078 7.99a1 1 0 0 1 1.844-.776 7.517 7.517 0 0 0 13.89-.073 7.469 7.469 0 0 0-.03-5.753 1 1 0 0 1 1.844-.775 9.456 9.456 0 0 1 .038 7.284 9.54 9.54 0 0 1-8.811 5.927z"/><path d="M14.324 18.316a1 1 0 0 1-.923-.613l-2.17-5.163a1 1 0 0 1 1.844-.775l2.17 5.163a1.001 1.001 0 0 1-.921 1.388zM4.097 19.578a1.017 1.017 0 0 1-.212-.023 1 1 0 0 1-.767-1.189l1.395-6.454a1 1 0 0 1 1.955.422L5.073 18.79a1 1 0 0 1-.976.789zm18.267-7.681a.997.997 0 0 1-.532-.153l-5.588-3.52a1 1 0 0 1 1.066-1.692l5.588 3.52a1 1 0 0 1-.534 1.845z"/></svg></g><g transform="translate(1137.0 1001.0) rotate(-7.22823455205159 -28.0 15.0) scale(-1.919250286002565 1.9881993739822905)"><svg width="29.178" height="15.089" viewBox="0 0 29.178 15.089"><path d="M.5.5h28.178a14.096 14.096 0 0 1-8.747 13.043l-.007-.015A11.276 11.276 0 0 0 2.453 7.655 13.98 13.98 0 0 1 .5.5z"/><path d="m19.924 13.528.007.015a14.117 14.117 0 0 1-5.342 1.046A14.07 14.07 0 0 1 2.453 7.655a11.276 11.276 0 0 1 17.471 5.873z" fill="#e64337"/><path d="M14.589 15.09A14.649 14.649 0 0 1 2.023 7.91 14.532 14.532 0 0 1 0 .5.5.5 0 0 1 .5 0h28.178a.5.5 0 0 1 .5.5 14.548 14.548 0 0 1-9.057 13.505 14.57 14.57 0 0 1-5.532 1.084zM1.009 1a13.517 13.517 0 0 0 1.874 6.4v.001a13.645 13.645 0 0 0 11.706 6.688 13.577 13.577 0 0 0 5.153-1.01A13.549 13.549 0 0 0 28.17 1z"/><path d="M19.924 14.028a.5.5 0 0 1-.48-.357A10.835 10.835 0 0 0 9.122 5.974 10.672 10.672 0 0 0 2.75 8.058a.5.5 0 1 1-.593-.806 11.664 11.664 0 0 1 6.965-2.278 11.841 11.841 0 0 1 11.282 8.411.5.5 0 0 1-.48.643z"/></svg></g><g transform="translate(1113.0 947.0) rotate(0.0 25.5 21.0) scale(2.1827370324020894 2.1453154992915353)"><svg width="23.365" height="19.578" viewBox="0 0 23.365 19.578"><path d="M8.853 13.824A9.54 9.54 0 0 1 .078 7.99a1 1 0 0 1 1.844-.776 7.517 7.517 0 0 0 13.89-.073 7.469 7.469 0 0 0-.03-5.753 1 1 0 0 1 1.844-.775 9.456 9.456 0 0 1 .038 7.284 9.54 9.54 0 0 1-8.811 5.927z"/><path d="M14.324 18.316a1 1 0 0 1-.923-.613l-2.17-5.163a1 1 0 0 1 1.844-.775l2.17 5.163a1.001 1.001 0 0 1-.921 1.388zM4.097 19.578a1.017 1.017 0 0 1-.212-.023 1 1 0 0 1-.767-1.189l1.395-6.454a1 1 0 0 1 1.955.422L5.073 18.79a1 1 0 0 1-.976.789zm18.267-7.681a.997.997 0 0 1-.532-.153l-5.588-3.52a1 1 0 0 1 1.066-1.692l5.588 3.52a1 1 0 0 1-.534 1.845z"/></svg></g><g transform="translate(960.0 92.0) rotate(148.25417016087053 185.0 277.0) translate(0.0 0.0) scale(4.247990815154995 4.227071570273157)"><svg width="35.782" height="131.06" viewBox="0 0 35.782 131.06"><g fill="#333"><path d="M13.222 91.59a2 2 0 0 1-1.044-3.708l7.47-4.56a2 2 0 0 1 2.084 3.414l-7.47 4.56c-.325.2-.684.294-1.04.294zm-.811-41.94c-.173 0-.349-.022-.523-.07l-10.41-2.81a2.001 2.001 0 0 1 1.045-3.862l10.411 2.81a2.001 2.001 0 0 1-.523 3.932zm1.24-35.27c-.768 0-1.5-.444-1.83-1.191a4174.602 4174.602 0 0 1-4.192-9.52l-.38-.865a1.999 1.999 0 1 1 3.662-1.609l.38.865c1.394 3.17 2.786 6.34 4.188 9.51a2 2 0 0 1-1.828 2.81zm41.877 14.09a2 2 0 0 1-1.786-2.898c.962-1.917 1.92-3.834 2.875-5.748l1.273-2.549a2 2 0 0 1 3.579 1.789l-1.272 2.547c-.957 1.917-1.916 3.836-2.88 5.755a2 2 0 0 1-1.789 1.104zm17.081 29.51a2 2 0 0 1-.083-3.999l9.97-.42a2 2 0 1 1 .168 3.996l-9.97.42c-.028.003-.057.003-.085.003zm12.49 39.371c-.251 0-.506-.047-.752-.148-2.313-.94-4.62-1.886-6.93-2.833l-2.216-.909a2 2 0 0 1 1.515-3.701l2.218.909c2.307.946 4.609 1.891 6.918 2.83a2 2 0 0 1-.753 3.852zm-28.27 33.709a2 2 0 0 1-1.997-1.922c-.141-3.592-.28-7.194-.41-10.796a2.001 2.001 0 0 1 1.927-2.071 1.986 1.986 0 0 1 2.071 1.927c.13 3.598.27 7.196.408 10.784a1.999 1.999 0 0 1-1.92 2.076c-.028.002-.054.002-.079.002z"/></g></svg></g><g transform="translate(176.0 499.0) rotate(124.22027379823693 199.0 298.5) translate(234.448423169418 0.0) scale(4.569460390355913 4.555165573019991)"><svg width="35.792" height="131.06" viewBox="51.308 0 35.792 131.06"><g fill="#333"><path d="M13.222 91.59a2 2 0 0 1-1.044-3.708l7.47-4.56a2 2 0 0 1 2.084 3.414l-7.47 4.56c-.325.2-.684.294-1.04.294zm-.811-41.94c-.173 0-.349-.022-.523-.07l-10.41-2.81a2.001 2.001 0 0 1 1.045-3.862l10.411 2.81a2.001 2.001 0 0 1-.523 3.932zm1.24-35.27c-.768 0-1.5-.444-1.83-1.191a4174.602 4174.602 0 0 1-4.192-9.52l-.38-.865a1.999 1.999 0 1 1 3.662-1.609l.38.865c1.394 3.17 2.786 6.34 4.188 9.51a2 2 0 0 1-1.828 2.81zm41.877 14.09a2 2 0 0 1-1.786-2.898c.962-1.917 1.92-3.834 2.875-5.748l1.273-2.549a2 2 0 0 1 3.579 1.789l-1.272 2.547c-.957 1.917-1.916 3.836-2.88 5.755a2 2 0 0 1-1.789 1.104zm17.081 29.51a2 2 0 0 1-.083-3.999l9.97-.42a2 2 0 1 1 .168 3.996l-9.97.42c-.028.003-.057.003-.085.003zm12.49 39.371c-.251 0-.506-.047-.752-.148-2.313-.94-4.62-1.886-6.93-2.833l-2.216-.909a2 2 0 0 1 1.515-3.701l2.218.909c2.307.946 4.609 1.891 6.918 2.83a2 2 0 0 1-.753 3.852zm-28.27 33.709a2 2 0 0 1-1.997-1.922c-.141-3.592-.28-7.194-.41-10.796a2.001 2.001 0 0 1 1.927-2.071 1.986 1.986 0 0 1 2.071 1.927c.13 3.598.27 7.196.408 10.784a1.999 1.999 0 0 1-1.92 2.076c-.028.002-.054.002-.079.002z"/></g></svg></g></svg>