<svg xmlns="http://www.w3.org/2000/svg" viewBox="0 0 1500 1500" width="1500" height="1500"><path fill="#FFF" d="M0 0h1500v1500H0z"/><g transform="translate(474.0 258.0) rotate(0.0 514.5 623.5) scale(2.6169888097660223 2.6104249528993093)"><svg width="393.2" height="477.7" viewBox="0 0 393.2 477.7"><g><path d="M356.1 240.2c30.9 30.5 41.8 77.8 33.8 120.5-7.4 39.7-30.8 77-65.4 97.8-22.8 13.7-49.8 20.1-76.3 18s-55-13.8-77.2-33.5c25.4 8.3 53.9 5.8 78.7-4 24.7-9.8 47.2-26.5 65-46.1 17.1-18.8 30.1-40.8 37.7-65 7.6-24.3 8.3-51-.2-75-4.6-12.9-10.7-24.6-21.8-31.4 2.1 1.1 4.1 2.3 6.2 3.5 7 4.3 13.6 9.4 19.5 15.2z" style="fill:#3d138d"/></g><g><path d="M352.2 252.9c8.5 24 7.8 50.7.2 75-7.5 24.3-20.6 46.2-37.7 65-17.8 19.6-40.3 36.4-65 46.1-24.8 9.7-53.4 12.2-78.7 4-13.2-4.3-25.2-11.2-37.7-17.3-12.4-6.1-25.6-11.4-39.4-12-13.8-.6-28.5 4.1-37 15v.3l-23.8-3.7c4-9.1 9.3-17.7 15.8-25.5 2.7-3.2 5.5-6.3 8.6-9.2 11.6-11.1 25.5-19.9 40.4-25.1 37.6 5.5 76.4 8.1 113-2 35-9.7 67.8-33.5 80.7-67.1 4.8-11 4.2-25.1-4-33.8-3.3-3.5-7.4-5.8-12-7.1 3-3 5.8-6.2 8.6-9.4 8.7-10.2 16.4-21.4 22.7-33.3 8.1 1.9 15.9 4.8 23.3 8.7h.1c11.2 6.8 17.3 18.5 21.9 31.4z" style="fill:#7e4cdb"/></g><g><path d="M330.4 221.4c-7.4-3.8-15.2-6.8-23.3-8.7 16.7-31.3 24.4-67.4 19-102.4-3.4-22.1-14.5-45.9-33.2-57.4 14.2 7.7 26.8 18.3 36.2 31.4 14.3 19.9 20.9 44.7 21.1 69.2.3 24.5-5.3 48.4-13.6 71.4-2-1.2-4.1-2.3-6.2-3.5 0 .1 0 .1 0 0z" style="fill:#7e4cdb"/></g><g><path d="M57.8 203.6c.8 2.3 1.6 4.6 2.5 7 .8 2.2 1.6 4.4 2.5 6.5.2.4.3.9.5 1.3 3 7.4 6.4 14.8 10 21.2 6.1 10.9 14.5 20.8 25.5 26.7s24.7 7.5 36 2.2c15.9-7.5 24.1-18.6 28.7-31.5 8.4-23.4 6.1-53-1.5-78.2-.1-.3-.1-.5-.2-.8-7.9 9.2-19.9 14.6-32 14.5-4.5-.1-9.2-.8-13.3 1.1-4.5 2.1-7.2 6.9-8.7 11.6-1.1 3.4-2.3 7.5-5.7 8.3-2.4.6-4.9-.8-6.8-2.4-1.9-1.6-3.6-3.6-6-4.4-4-1.5-8.6.8-11.6 3.9-3 3.1-5.1 7-8.3 9.9-3.2 2.9-8 4.8-11.8 2.7.2.2.2.3.2.4zm75.6-87.3c6.2 2.8 13.7 4.1 21.9 3.8 6-.3 12.4-1.4 18.8-3.6 1.6-.5 3.1-1.1 4.6-1.8l.1.3c-1 .6-2 1.2-2.9 2-13.2 10.5-17.9 29-7.4 45.8 5.8 9.4 14.6 15.5 23.8 17.6 8.4 3.1 17.8 3.2 26.4.8 9.1-2.6 17.3-7.8 24-14.5 14.5-14.5 21.8-36.4 17.4-56.5-4.5-20-21.2-37.2-41.4-40.7-5.6-10-12.5-19.2-20.9-26.8l1-2.7c23.3-4 47.5-3.6 70.2 3.1 5.5 1.6 10.9 3.6 16.1 6 2.7 1.2 5.3 2.5 7.9 3.9 18.7 11.5 29.8 35.3 33.2 57.4 5.4 35-2.2 71.1-19 102.4-2.1-.5-4.2-.9-6.3-1.3-27.6-4.5-57 4-77.9 22.5-20.9 18.5-33.2 47.6-32 75.6-10 3.8-20.3 6.9-30.7 9.5-1.6.4-3.2.8-4.9 1.1-9.7-8.2-19.1-16.7-30.5-22.2-22.4-10.7-50.8-6.5-69.9 9.2-9.7-7.1-17.7-16.2-22.8-27.1-7.2-15.6-7.9-33.6-5-50.6 2.9-16.6 8.9-32.5 15.1-48.2 3.4-6.8 5.9-13.9 7-21.6 1.3-9.1.4-18.2-1.1-27.3 2.1.7 4.2 1.4 6.3 2 8.8-7.4 16.9-15.9 23.8-25.1-2 4-4 8-6 11.9-5.5 10.9-10.9 21.8-16.4 32.7-1.3 2.7-2.7 5.4-2.9 8.4-.2 3 1 6.3 3.8 7.6 4.2 2.2 9.1 1.9 14.1.3 1.3-.4 2.6-.9 3.9-1.4 6.4-2.6 12.6-6.4 19.5-6.3 2.9.1 6 .8 8.7-.3 4.1-1.6 5.7-6.4 6.7-10.7 3.6-16.3 4.8-33 5.2-49.8 1.3.4 2.6.8 3.9 1.3l.9-.4c2.3 6.2 7.2 10.8 13.7 13.7z" style="fill:#3d138d"/></g><g><path d="M300.8 211.5c2.1.3 4.2.8 6.3 1.3-6.3 11.9-14 23.1-22.7 33.3-2.8 3.2-5.6 6.4-8.6 9.4-7.2-2.1-15.4-1.9-22.8 0-22.7 5.7-40.9 23.4-45.3 47.1-5.5 2.5-11.1 4.9-16.8 7-1.1-27.9 11.1-57 32-75.6 20.9-18.5 50.3-27 77.9-22.5z" style="fill:#3d138d"/></g><g><path d="M291.8 296.4c0 .1-.1.1-.1.2-4.9 11.1-14.4 19.5-24.4 26.3-12.7 8.7-26.8 15.6-41.8 18.7-15.1 3-31.2 2-45.2-4.3-9.2-4.2-17.2-10.5-25-17.1 1.6-.4 3.3-.8 4.9-1.1 10.4-2.6 20.6-5.7 30.7-9.5 5.7-2.1 11.3-4.5 16.8-7 25.3-11.6 48.7-27.3 68.1-47.1 4.5 1.4 8.7 3.7 12 7.1 8.2 8.7 8.8 22.8 4 33.8z" style="fill:#a2423d"/></g><g><path d="M291.7 296.6c0-.1.1-.1.1-.2-13 33.6-45.8 57.4-80.7 67.1-36.6 10.2-75.4 7.5-113 2 2.5-.9 5.1-1.7 7.7-2.3-8.8-4.8-20.2-6.1-29.4-2.2v-.1c-15.1-4.2-29.4-11.5-41.5-21.4 2-8.2 5.5-15.9 10.6-22.5 2.8-3.6 6-6.9 9.5-9.8 9.9 7.2 21.4 12.3 33.3 15.1 22 5.1 45 3 67.1-2.1 7.8 6.6 15.8 12.9 25 17.1 14 6.4 30.1 7.4 45.2 4.3 15.1-3 29.2-10 41.8-18.7 9.9-6.8 19.3-15.2 24.3-26.3z" style="fill:#7e4cdb"/></g><g><path d="M252.9 255.4c7.4-1.9 15.6-2.1 22.8 0-19.4 19.8-42.7 35.6-68.1 47.2 4.4-23.8 22.7-41.4 45.3-47.2z" style="fill:#3d138d"/></g><g><path d="M197.7 102.7c6.2-5.8 10.3-12.5 11.7-19.2.7-3.1.7-6.3.1-9.3 3.2-2.3 7.1-3.1 11.3-.5-.7-1.4-1.5-2.8-2.3-4.3 20.2 3.6 36.9 20.7 41.4 40.7 4.5 20.1-2.8 42-17.4 56.5-6.7 6.7-14.9 11.9-24 14.5-8.6 2.5-18.1 2.4-26.4-.8 7.3 1.7 14.8.7 21.2-3.3 14.3-8.9 17.4-29.8 6.9-46.7-9.8-15.7-28-23.3-41.6-15.5l-.1-.3c7.7-2.8 14.2-7 19.2-11.8z" style="fill:#7e4cdb"/></g><g><path d="M218.6 69.4c.8 1.4 1.6 2.8 2.3 4.3-4.3-2.5-8.1-1.7-11.3.5-.2-.9-.4-1.9-.7-2.8-2.4-7.1-8.3-12.4-16.2-15.4l5-13.4c8.4 7.7 15.3 16.9 20.9 26.8z" style="fill:#a2423d"/></g><g><path d="M132.6 98c1.8 3.8 6.2 5.8 10.4 6.8 15.7 3.4 32.2-3.2 44.9-13.1 4.3-3.4 8.6-7.8 8.8-13.2.1-5-3.4-9.5-7.9-11.7-4.4-2.2-9.6-2.4-14.6-2-12.3 1.1-24.3 6.1-33.6 14.2-2.9 2.5-5.6 5.3-7.2 8.8-1.5 3.1-2 6.9-.8 10.2zm76.8-14.5c-1.4 6.7-5.6 13.4-11.7 19.2-5.1 4.8-11.5 9-19 12.1-1.5.6-3.1 1.2-4.6 1.8-6.4 2.2-12.7 3.3-18.8 3.6-8.2.3-15.7-1-21.9-3.8-6.5-2.9-11.5-7.5-13.9-13.5-.2-.4-.3-.8-.4-1.2-1.3-3.9-1.4-8-.6-12.1 1.7-7.8 7-15.5 14.9-21.9 5.6-4.6 12.6-8.4 20.5-11.1 2.3-.8 4.6-1.4 6.9-1.9 5.4-1.2 10.7-1.8 15.8-1.7 5.9.1 11.4 1.2 16.2 3 7.9 3 13.8 8.3 16.2 15.4.3.9.6 1.8.7 2.8.5 3.1.4 6.2-.3 9.3z" style="fill:#a2423d"/></g><g><path d="M59.4 51.2c-10.6 7-16.5 20.4-17.5 33-.1.8-.1 1.6-.1 2.4-3.8 1.3-8.5-.3-10.7-3.7-1.1-1.7-1.6-3.8-3-5.3-1.7-1.9-4.5-2.6-7.1-2.4-2.6.2-5 1.2-7.4 2.1l-.1-.1c12.6-19.4 30.8-38.4 50.8-47.3.3 2.1.7 4.1 1.1 6.2 6.8-3 13.8-5.5 21-7.6v-.2c-.6-1.5-1.2-3-1.9-4.5 22.5-8.4 48.2-10 71.4-3-.9 2-1.7 4-2.4 6.1l.2.1c7.8 1.9 15.3 4.7 22.3 8.5.6-1.9 1.1-4 1.6-6l.3.1c6.4 3 12.2 6.8 17.4 11.2l2.4 2.1-5 13.4c-4.8-1.8-10.3-2.9-16.2-3-1.2-5.4-7.1-9.3-12.5-8.3-1.7.3-3.4 1.1-5.1 1.8-2.1.9-4.2 1.6-6.3 1.2-5.3-1-7.9-8.1-13.2-8.9-3.9-.6-7.3 2.3-10 5.2-2.7 2.8-5.9 5.9-9.8 5.7-3.1-.2-5.6-2.4-8.1-4.4-2.4-2-5.4-3.8-8.4-3.1-3.3.8-5.1 4.4-7.6 6.6-3.5 3.1-9.1 3.5-13.1 1-3.1-1.9-5.7-5.5-9.3-5-3.3.5-5.1 4.2-7.9 5.9-1.8.7-3.9.8-5.8.2z" style="fill:#a2423d"/></g><g><path d="M171.8 91c1.6-.7 3.1-1.6 4.4-2.7.5-.4.9-.9 1.3-1.4 1.6-2 2.3-5 1.1-7.3-.6-1.2-1.6-2-2.8-2.6-1.4-.7-3.1-1-4.8-1.1h-.9c-1.4 0-2.7.1-4.1.3-1.8.2-3.5.6-5.2 1.2-1.7.6-3.4 1.3-5 2.1-1.6.9-3.2 1.9-4.6 3.1-.1.1-.2.2-.3.2-2.3 1.9-4.2 4.6-3.9 7.6.3 3.6 3.1 4.9 5.7 5.3 2.3.3 4.4 0 4.4 0h.2c1.7-.3 3.4-.7 5-1.1 1.7-.4 3.4-1 5.1-1.6 1.3-.5 2.6-1 3.8-1.6.2-.2.4-.3.6-.4zm17-24.3c4.4 2.2 8 6.7 7.9 11.7-.1 5.5-4.4 9.8-8.8 13.2-12.7 9.9-29.2 16.5-44.9 13.1-4.2-.9-8.6-3-10.4-6.7-1.2-3.3-.7-7.1.8-10.3 1.6-3.4 4.3-6.3 7.2-8.8 9.4-8.1 21.3-13.1 33.6-14.2 5-.4 10.2-.2 14.6 2z" style="fill:#00739d"/></g><g><path d="M179.5 9.4c.3 6.3-.5 13.3-2 19.8-.5 2.1-1 4.1-1.6 6-7-3.8-14.5-6.7-22.3-8.5l-.2-.1c.7-2.1 1.5-4.1 2.4-6.1 2.3-5.1 5.2-9.8 8.6-14.2 1.5-1.9 3.1-3.7 5.2-4.8 2.1-1.1 4.9-1.3 6.8.1 2.5 1.8 3 5 3.1 7.8z" style="fill:#3d138d"/></g><g><path d="M178.6 79.6c1.2 2.3.5 5.3-1.1 7.3-.4.5-.8.9-1.3 1.4-.3-3.2-.4-9.1-.4-11.3 1.2.5 2.2 1.4 2.8 2.6z" style="fill:#a2423d"/></g><g><path d="M176.5 53c-5-.1-10.3.4-15.8 1.7l-1.9-8.2c1.7-.7 3.3-1.4 5.1-1.8 5.5-1 11.5 2.9 12.6 8.3z" style="fill:#3d138d"/></g><g><path d="M175.8 77c0 2.2.1 8.1.4 11.3-1.3 1.1-2.8 2-4.4 2.7-.3-4.7-.6-10.3-.8-15v-.1c1.6.1 3.3.4 4.8 1.1z" style="fill:#a2423d"/></g><g><path d="M171.8 91c-.2.1-.4.2-.7.3-1.3.6-2.5 1.1-3.8 1.6-.4-5.1-.9-11.7-1.3-16.8 1.4-.2 2.7-.3 4.1-.3h.9v.1c.2 4.8.5 10.4.8 15.1z" style="fill:#a2423d"/></g><g><path d="M166.1 76.1c.4 5 .9 11.7 1.3 16.8-1.7.6-3.4 1.2-5.1 1.6-.4-5.3-1.1-11.9-1.4-17.2 1.6-.5 3.4-.9 5.2-1.2z" style="fill:#a2423d"/></g><g><path d="M163.9 184.2c.3-8.5-.3-17-1.9-25.3 7.6 25.2 9.9 54.8 1.5 78.2-4.6 12.9-12.8 24-28.7 31.5-11.3 5.3-25 3.7-36-2.2s-19.4-15.8-25.5-26.7c-3.6-6.4-7-13.8-10-21.2 2 4.8 4.2 9.5 6.7 14 1.6 2.8 3.3 5.5 5.2 8.1 4.5 6.2 10.4 11.7 17.1 15.4 5.3 3 11.2 4.9 17.4 5.1 3.7.1 7.4-.3 11-1.3 7.4-2 14.2-6.2 19.6-11.6 1.8-1.7 3.4-3.6 4.9-5.5 5.5-7 9.4-15.2 12.3-23.6 1.3-3.7 2.4-7.5 3.3-11.3 1.8-7.8 2.9-15.7 3.1-23.6z" style="fill:#a2423d"/></g><g><path d="M162.1 158.9c1.5 8.3 2.1 16.8 1.9 25.3-1.6 2.2-3.4 4.4-5.2 6.5-1.4-7.3-3.4-14.4-5.8-21l-.1-.1c3.4-3.7 6.4-7.5 9-11.5 0 .3.1.6.2.8z" style="fill:#fff"/></g><g><path d="M160.8 77.3c.4 5.3 1.1 11.8 1.4 17.2-1.6.4-3.3.8-5 1.1v-.2c-.2-3.4-1.1-12.1-1.4-16 1.6-.8 3.3-1.5 5-2.1z" style="fill:#a2423d"/></g><g><path d="M163.9 184.2c-.3 7.9-1.3 15.8-3.1 23.4-.3-5.6-1-11.3-2.1-16.9 1.8-2.1 3.6-4.3 5.2-6.5z" style="fill:#fff"/></g><g><path d="M160.8 207.6c0 .1 0 .1 0 0-.9 3.9-2 7.6-3.3 11.4-2.9 8.4-6.8 16.6-12.3 23.6-1.8-11-4-22.2-6.6-33.3 7.4-5.5 14.2-11.8 20-18.6 1.2 5.7 2 11.4 2.2 16.9z" style="fill:#fff"/></g><g><path d="M133.4 67.7c-7.9 6.4-13.2 14.1-14.9 21.9l-3.5-.8c0-2.6.1-5.2.1-7.8 0-3.9-.2-8.3-3.2-10.8-2.8-2.3-7.2-1.8-10.3.3-3.1 2.1-5.1 5.3-6.9 8.5-5.8 9.8-11 19.8-16.2 29.9l-1.2-.6c-1 .1-1.9.2-2.8.3 1.8-9.4 2.3-23.3 2.1-34.2-.1-2.7-.4-5.9-2.6-7.4-2-1.4-5-.8-6.9.7-1.9 1.6-3.1 3.8-4.1 6.1-5.2 11.6-8 24.9-8.1 37.7-3.5.7-6.9 1.4-10.3 2.3-1.8-9-3.2-18-2.8-27.1 0-.8.1-1.6.1-2.4 1-12.7 6.9-26 17.5-33 1.9.6 4 .5 5.7-.5 2.9-1.7 4.6-5.4 7.9-5.9 3.6-.5 6.2 3 9.3 5 4 2.5 9.6 2.1 13.1-1 2.6-2.2 4.3-5.8 7.6-6.6 3-.8 6 1.1 8.4 3.1 2.4 2 4.9 4.2 8.1 4.4 3.9.2 7.1-2.9 9.8-5.7 2.7-2.8 6.2-5.8 10-5.2 5.4.8 7.9 8 13.2 8.9 2.2.4 4.2-.3 6.3-1.2l1.9 8.2c-2.3.5-4.6 1.2-6.9 1.9-7.8 2.6-14.7 6.4-20.4 11zM76.9 57.4c.5-.7.6-1.8.1-2.5-.6-.8-1.8-.9-2.9-.8-3.3.3-6.6 1.5-9.4 3.3-3.9 2.5-2.5 5.5 2 4.5 2.8-.6 5.6-1.6 8.1-2.9.8-.4 1.6-.9 2.1-1.6z" style="fill:#3d138d"/></g><g><path d="M152.9 169.8c2.3 6.6 4.3 13.7 5.8 21-5.8 6.8-12.6 13.1-20 18.6-1.7-7.6-3.6-15.1-5.6-22.6 7.3-5 14-10.7 19.8-17z" style="fill:#fff"/></g><g><path d="M157.2 95.4v.2h-.2s-2.1.3-4.4 0c-.4-3.1-.9-9.3-1.4-13.1 1.4-1.2 3-2.2 4.6-3.1.3 4 1.2 12.6 1.4 16z" style="fill:#a2423d"/></g><g><path d="M124.8 298.1c11.4 5.4 20.8 14 30.5 22.2-22.1 5-45.1 7.1-67.1 2.1-11.9-2.7-23.5-7.9-33.3-15.1 19.1-15.7 47.5-20 69.9-9.2z" style="fill:#3d138d"/></g><g><path d="M133.1 186.7c-8.5 5.8-17.9 10.7-27.7 14.4-6.4 2.4-13 4.4-19.6 5.7-2.1.4-4.3.8-6.5 1.1-7.6.9-15.5.2-21.5-4.2 0-.1-.1-.2-.1-.3 3.8 2.1 8.6.2 11.8-2.7 3.2-2.9 5.3-6.8 8.3-9.9 3-3.1 7.5-5.4 11.6-3.9 2.3.9 4.1 2.8 6 4.4 1.9 1.6 4.4 3 6.8 2.4 3.4-.9 4.6-5 5.7-8.3 1.5-4.8 4.2-9.5 8.7-11.6 4.1-1.9 8.8-1.1 13.3-1.1 12.1.1 24.1-5.3 32-14.5-2.6 4-5.7 7.9-9 11.5-5.8 6.2-12.5 11.9-19.8 17z" style="fill:#a2423d"/></g><g><path d="M151.2 82.5c.5 3.8 1.1 10 1.4 13.1-2.6-.4-5.3-1.7-5.7-5.3-.3-3 1.6-5.7 3.9-7.6.2 0 .3-.1.4-.2z" style="fill:#a2423d"/></g><g><path d="M145.3 242.6c-1.5 2-3.2 3.8-4.9 5.5-5.5 5.4-12.3 9.5-19.6 11.6-3.6-11.6-6.9-23.2-9.8-35 9.9-3.9 19.3-9.2 27.8-15.5 2.4 11.3 4.6 22.4 6.5 33.4z" style="fill:#fff"/></g><g><path d="M133.1 186.7c2 7.5 3.9 15.1 5.6 22.6-8.5 6.3-17.9 11.6-27.8 15.5-1.9-7.8-3.7-15.6-5.4-23.5l-.1-.2c9.8-3.7 19.2-8.6 27.7-14.4z" style="fill:#fff"/></g><g><path d="M120.7 259.8c-3.6 1-7.3 1.5-11 1.3-6.2-.2-12-2.1-17.4-5.1-3.2-7.9-5.9-16-8.1-24.3 9.1-1.1 18.1-3.5 26.6-6.9 3 11.7 6.3 23.4 9.9 35z" style="fill:#fff"/></g><g><path d="M115 88.8c-.1 4.4-.1 8.8-.2 13.2-.2-.1-.4-.1-.6-.2-12-3.1-25-1.5-35.1 6.4-.3.4-.6.8-.8 1.1.1-.2.2-.3.3-.5C83.8 98.7 89 88.6 94.8 78.9c1.9-3.2 3.9-6.4 6.9-8.5 3.1-2.1 7.4-2.6 10.3-.3 3 2.5 3.2 6.9 3.2 10.8-.1 2.7-.1 5.3-.2 7.9z" style="fill:#00873d"/></g><g><path d="M114.2 101.8c.2.1.4.1.6.2-.4 16.7-1.6 33.4-5.2 49.7-.9 4.3-2.6 9.1-6.7 10.7-2.7 1.1-5.8.3-8.7.3-6.9-.1-13.2 3.6-19.5 6.3-1.3.5-2.6 1-3.9 1.4-4.8-4.8-1.7-12.6 1.4-18.3 10.5-19.4 23.6-38 42-50.3z" style="fill:#7e4cdb"/></g><g><path d="M114.2 101.8c-18.3 12.3-31.5 30.9-42 50.2-3.1 5.7-6.2 13.5-1.4 18.3-5 1.6-9.9 1.9-14.1-.3-2.7-1.3-4-4.6-3.8-7.6.2-3 1.6-5.7 2.9-8.4 5.5-10.9 10.9-21.8 16.4-32.7 2-4 4-8 6-11.9.3-.4.6-.8.8-1.1 10.2-8 23.2-9.6 35.2-6.5z" style="fill:#00873d"/></g><g><path d="M105.5 201.3c1.7 7.9 3.4 15.7 5.4 23.5-8.6 3.4-17.5 5.7-26.6 6.9-2.1-7.8-3.7-15.8-4.9-23.8 2.2-.3 4.4-.6 6.5-1.1 6.6-1.4 13.2-3.3 19.6-5.7v.2z" style="fill:#fff"/></g><g><path d="M105.7 363.2c-2.6.7-5.2 1.5-7.7 2.3-14.9 5.2-28.8 14-40.4 25.1.3-11.1 6.4-22.7 16-28.2.9-.5 1.8-1 2.8-1.4 9.1-3.9 20.5-2.5 29.3 2.2z" style="fill:#00873d"/></g><g><path d="M92.3 255.9c-6.7-3.7-12.5-9.2-17.1-15.4-1.9-2.6-3.6-5.3-5.2-8.1l.1-.1c4.7.1 9.4-.2 14.1-.7 2.3 8.3 5 16.4 8.1 24.3z" style="fill:#fff"/></g><g><path d="M84.5 23.6c.7 1.5 1.4 3 1.9 4.5v.2c-7.2 2.1-14.2 4.6-21 7.6-.4-2-.8-4.1-1.1-6.2-.8-5.4-1-10.9-.8-16.3.2-2.9.9-6.4 3.6-7.5C70 4.9 73 7.1 75 9.4c3.8 4.2 7.1 9.1 9.5 14.2z" style="fill:#3d138d"/></g><g><path d="M79.4 207.8c1.2 8 2.8 16 4.9 23.8-4.7.6-9.3.8-14.1.7l-.1.1c-2.6-4.5-4.8-9.2-6.7-14-.2-.4-.4-.9-.5-1.3-.9-2.2-1.7-4.4-2.5-6.5-.9-2.4-1.7-4.7-2.5-7 6 4.5 13.8 5.1 21.5 4.2z" style="fill:#fff"/></g><g><path d="M54.8 111.4c6.4-1.3 12.9-2.2 19.7-2.9.9-.1 1.9-.2 2.8-.3l1.2.6c-.1.2-.2.3-.3.5-6.8 9.2-15 17.7-23.8 25.1-2.1-.6-4.2-1.3-6.3-2-.6-3.5-1.3-7-2-10.5-.6-2.7-1.1-5.5-1.7-8.2 3.5-.9 6.9-1.6 10.4-2.3z" style="fill:#3d138d"/></g><g><path d="M77 54.9c.5.7.4 1.8-.1 2.5s-1.3 1.2-2.1 1.6c-2.5 1.4-5.3 2.4-8.1 2.9-4.6.9-5.9-2-2-4.5 2.8-1.8 6.1-3 9.4-3.3 1.1-.1 2.3 0 2.9.8z" style="fill:#00739d"/></g><g><path d="M76.5 74.3c.2 10.8-.2 24.8-2.1 34.2-6.7.7-13.3 1.6-19.7 2.9.1-12.8 2.9-26.1 8.1-37.7 1-2.3 2.2-4.6 4.1-6.1 1.9-1.5 4.9-2.1 6.9-.7 2.4 1.5 2.7 4.7 2.7 7.4zM71.1 85c.1-1.4.7-5.2-.6-6.2-1.6-1.3-3 .3-3.6 1.8-2.7 6.2-3.8 13.1-3 19.8.1.6.2 1.3.7 1.7.5.3 1.3.2 1.8-.2s.8-1 1.1-1.6c2.1-4.8 3.3-10 3.6-15.3z" style="fill:#00873d"/></g><g><path d="M76.3 361c-.9.5-1.9.9-2.8 1.5-9.6 5.6-15.7 17.1-16 28.2-3 2.9-5.9 6-8.6 9.2-14.5-15.7-19.2-39.5-14.2-60.3 12.2 9.9 26.5 17.2 41.6 21.4z" style="fill:#3d138d"/></g><g><path d="M70.5 78.8c1.3 1 .7 4.8.6 6.2-.3 5.3-1.5 10.5-3.8 15.3-.3.6-.6 1.2-1.1 1.6-.5.4-1.2.6-1.8.2s-.7-1.1-.7-1.7c-.7-6.7.3-13.6 3-19.8.8-1.5 2.1-3.1 3.8-1.8z" style="fill:#a2423d"/></g><g><path d="M54.9 307.2c-3.5 2.9-6.7 6.1-9.5 9.8-5.1 6.6-8.6 14.3-10.6 22.5-7.4-6.1-14-13.2-19.3-21.3-.2-.3-.4-.5-.6-.8C1.1 296-3.5 268.1 5.1 243.9c8.1-22.8 26.7-41.3 37.2-62.6-6.1 15.7-12.2 31.6-15 48.2-2.9 17-2.3 35 5 50.6 4.9 10.9 12.9 20.1 22.6 27.1z" style="fill:#7e4cdb"/></g><g><path d="M46.1 121.9c.7 3.5 1.4 7 2 10.5-9.1-3.2-17.7-7.2-26.3-11.8 7.6-2.7 15.1-5 22.6-6.9.6 2.7 1.2 5.5 1.7 8.2z" style="fill:#00739d"/></g><g><path d="M152.9 121.1c-7.3 0-14.2-1.3-19.9-3.9-7-3.1-12-8-14.4-14-.2-.4-.3-.8-.5-1.2-1.3-4-1.5-8.2-.6-12.6 1.7-7.9 7.1-15.9 15.2-22.5 5.9-4.8 13.1-8.6 20.8-11.3 2.4-.8 4.7-1.4 7-2 5.4-1.2 10.8-1.8 16-1.7 6 .1 11.6 1.2 16.5 3.1 8.4 3.2 14.4 8.9 16.8 16 .3.9.6 1.9.8 2.9.6 3.1.6 6.4-.2 9.7-1.5 6.9-5.6 13.7-12 19.7-5.3 5-11.9 9.2-19.3 12.3-1.5.6-3.1 1.2-4.7 1.8-6.3 2.1-12.7 3.4-19.1 3.6-.8.1-1.6.1-2.4.1zM175.1 54c-4.6 0-9.3.6-14.1 1.6-2.2.5-4.5 1.1-6.8 1.9-7.5 2.5-14.5 6.3-20.2 10.9-7.8 6.3-12.9 13.8-14.5 21.3-.9 4-.7 7.9.5 11.6.1.4.3.7.4 1.1 2.2 5.6 6.8 10 13.3 13 6.1 2.7 13.5 4 21.4 3.7 6.1-.3 12.3-1.4 18.5-3.5 1.6-.5 3.1-1.1 4.6-1.7 7.1-3 13.6-7.1 18.7-11.9 6.1-5.7 10.1-12.2 11.4-18.7.7-3 .7-6 .1-8.9-.2-.9-.4-1.8-.7-2.6-2.2-6.6-7.6-11.7-15.6-14.8-4.7-1.8-10-2.8-15.8-2.9-.2-.1-.7-.1-1.2-.1z"/></g><g><path d="M192.7 57c-.6 0-1-.4-1-1 0-.1 0-.2.1-.4l6.6-17.9c.2-.5.8-.8 1.3-.6.5.2.8.8.6 1.3l-6.6 17.8c-.2.5-.6.8-1 .8z"/></g><g><path d="M160.8 55.7c-.5 0-.9-.3-1-.8L156 38.4c-.1-.5.2-1.1.8-1.2.5-.1 1.1.2 1.2.8l3.8 16.5c.1.5-.2 1.1-.8 1.2h-.2z"/></g><g><path d="M133.4 68.7c-.3 0-.6-.1-.8-.4l-10.9-13c-.4-.4-.3-1.1.1-1.4.4-.4 1.1-.3 1.4.1l10.9 13c.4.4.3 1.1-.1 1.4-.1.2-.3.3-.6.3z"/></g><g><path d="M118.6 90.6h-.2l-13.1-3c-.5-.1-.9-.7-.8-1.2.1-.5.7-.9 1.2-.8l13.1 3c.5.1.8.5.8 1s-.5 1-1 1z"/></g><g><path d="M125.1 133.1c-.2 0-.3 0-.5-.1-.5-.3-.7-.9-.4-1.4l8.4-15.8c.3-.5.9-.7 1.4-.4.5.3.7.9.4 1.4l-8.4 15.8c-.2.3-.6.5-.9.5z"/></g><g><path d="M155.3 138.4c-.6 0-1-.4-1-1v-17.3c0-.6.4-1 1-1s1 .4 1 1v17.3c0 .5-.4 1-1 1z"/></g><g><path d="M185.7 131.1c-.4 0-.7-.2-.9-.6l-6.9-15.3c-.2-.5 0-1.1.5-1.3.5-.2 1.1 0 1.3.5l.1.3 6.8 15.1c.2.5 0 1.1-.5 1.3h-.4z"/></g><g><path d="M208.9 114.6c-.3 0-.5-.1-.7-.3L197 103.4c-.4-.4-.4-1 0-1.4.4-.4 1-.4 1.4 0l11.1 10.9c.4.4.4 1 0 1.4-.1.2-.4.3-.6.3z"/></g><g><path d="M225.4 84.5h-16c-.6 0-1-.4-1-1s.4-1 1-1h16c.6 0 1 .4 1 1s-.4 1-1 1z"/></g><g><path d="M132.6 98.2c-.1 0-.2-.1-.2-.1-.2-.4-.3-.8-.5-1.3 0-.1 0-.3.2-.3.1 0 .3 0 .3.2.1.4.3.8.4 1.2.1.1 0 .3-.1.3h-.1z"/></g><g><path d="M151.6 105.9c-2.9 0-5.8-.3-8.6-.9-2.9-.6-7.9-2.2-10.2-6.2h-.1.1-.1c-.1-.2-.2-.4-.3-.7V98c-1.2-3.2-.9-7 .8-10.5 1.4-3 3.7-5.8 7.3-8.8 9.4-8.1 21.4-13.2 33.8-14.2 6.1-.5 10.9.1 14.7 2 4.9 2.4 8.1 7.2 8 11.9-.2 5.9-5.1 10.5-8.8 13.4-11.8 9.2-24.7 14.1-36.6 14.1zm-18.7-8c2 4.3 7.3 6 10.2 6.6 14 3 30.2-1.7 44.7-13 3.6-2.9 8.5-7.3 8.7-13 .1-4.5-3-9.1-7.7-11.5-3.8-1.9-8.5-2.5-14.4-2-12.3 1.1-24.2 6.1-33.5 14.1-3.5 3-5.7 5.8-7.1 8.7-1.8 3.4-2 7-.9 10.1z"/></g><g><path d="M154.8 96.3c-.7 0-1.5 0-2.3-.2-3.7-.6-5.8-2.5-6.1-5.7-.4-3.8 2.4-6.7 4.1-8.1.2-.1.3-.2.4-.3 1.4-1.1 3-2.2 4.7-3.1 1.6-.9 3.4-1.6 5.1-2.2 1.7-.6 3.5-1 5.3-1.2 1.6-.2 3.3-.3 5-.3 2 .1 3.7.5 5 1.2 1.4.7 2.4 1.6 3.1 2.8 1.4 2.7.4 5.9-1.2 7.8-.4.5-.8 1-1.4 1.4-1.1 1-2.6 1.9-4.5 2.8-.2.1-.5.2-.7.3-1.3.6-2.6 1.1-3.8 1.6-1.7.6-3.4 1.2-5.1 1.6-1.7.5-3.4.8-5.1 1.1h-.2c-.1.3-1 .5-2.3.5zm15.3-20c-1.4 0-2.7.1-4 .3-1.7.2-3.5.6-5.2 1.2-1.7.5-3.4 1.2-4.9 2.1-1.6.9-3.2 1.9-4.5 3-.1.1-.2.1-.2.2l-.1.1c-1.5 1.3-4.1 3.9-3.7 7.2.3 2.7 2 4.3 5.3 4.8 2.2.3 4.3 0 4.3 0h.1c1.7-.3 3.3-.6 5-1.1 1.7-.4 3.4-1 5-1.6 1.2-.4 2.5-1 3.8-1.6.2-.1.4-.2.7-.3 1.9-.9 3.2-1.7 4.3-2.7.5-.4.9-.9 1.2-1.3 1.4-1.7 2.2-4.5 1.1-6.8-.5-1-1.4-1.8-2.6-2.4-1.2-.6-2.8-1-4.6-1.1-.4.1-.7 0-1 0z"/></g><g><path d="M152.6 95.8c-.1 0-.1 0-.1-.1-.1-1.2-.3-2.8-.5-4.6-.3-2.9-.6-6.2-.9-8.5 0-.1 0-.1.1-.1s.1 0 .1.1c.3 2.4.7 5.7 1 8.5.2 1.8.4 3.4.5 4.6-.1 0-.1 0-.2.1z"/></g><g><path d="M157.2 95.5c-.1 0-.1-.1-.1-.1-.1-1.9-.4-5.3-.8-8.7-.3-2.8-.5-5.5-.7-7.3 0-.1 0-.1.1-.1s.1 0 .1.1c.1 1.8.4 4.4.7 7.3.3 3.4.7 6.8.8 8.7.1.1 0 .1-.1.1z"/></g><g><path d="M162.3 94.6c-.1 0-.1-.1-.1-.1-.2-2.7-.5-5.7-.7-8.6-.3-2.9-.5-5.9-.7-8.6 0-.1 0-.1.1-.1s.1.1.1.1c.2 2.7.5 5.7.7 8.6.3 2.9.6 5.9.7 8.6 0 .1-.1.1-.1.1z"/></g><g><path d="M167.3 92.9h-.1c-.2-2.6-.4-5.6-.7-8.6-.2-2.9-.4-5.7-.6-8.2 0-.1 0-.1.1-.1s.1 0 .1.1c.2 2.5.4 5.3.6 8.2.2 3 .5 6 .7 8.6h-.1z"/></g><g><path d="M171.8 91h-.1c-.1-2.3-.3-4.8-.4-7.4-.1-2.6-.3-5.3-.4-7.7 0-.1 0-.1.1-.1s.1 0 .1.1c.1 2.4.3 5 .4 7.7.1 2.5.3 5.1.4 7.4h-.1z"/></g><g><path d="M176.2 88.4c-.1 0-.1 0-.1-.1-.3-3.1-.4-9-.4-11.3 0-.1.1-.1.1-.1l.1.1c0 2.3.1 8.2.4 11.3 0 0 0 .1-.1.1z"/></g><g><path d="M176 36h-.2c-.4-.1-.6-.5-.5-.9.6-1.9 1.1-3.9 1.6-6 1.5-6.7 2.2-13.7 2-19.6-.1-2.5-.5-5.6-2.6-7.1-1.6-1.1-3.9-1.1-6-.1-2 1-3.6 2.8-5 4.6-3.4 4.3-6.3 9.1-8.5 14-.9 2-1.7 4-2.4 6v.1c-.1.3-.4.4-.7.4-.4 0-.8-.3-.8-.7 0-.1 0-.2.1-.3.7-2 1.5-4.1 2.5-6.1 2.3-5.1 5.2-9.9 8.7-14.4 1.5-1.9 3.2-3.8 5.5-5 2.6-1.3 5.6-1.3 7.6.2 2.6 1.9 3.1 5.4 3.2 8.3.3 6.2-.4 13.1-2 20-.5 2.1-1 4.1-1.6 6.1-.3.3-.6.5-.9.5z"/></g><g><path d="M176 36c-.1 0-.2 0-.4-.1-7-3.8-14.4-6.6-22.1-8.4-.4-.1-.7-.5-.6-.9.1-.4.5-.7.9-.6 7.8 1.9 15.4 4.7 22.5 8.6.4.2.5.7.3 1-.1.3-.4.4-.6.4z"/></g><g><path d="M65.5 36.7c-.3 0-.6-.2-.7-.5v-.1c-.5-2.2-.8-4.2-1.1-6.2-.8-5.4-1-11-.8-16.4.2-4.5 1.6-7.2 4.1-8.2 3.3-1.3 6.5 1.3 8.6 3.6 3.9 4.3 7.2 9.2 9.7 14.5.7 1.5 1.4 3.1 2 4.6.1.4 0 .8-.4 1-.4.1-.8 0-1-.4-.6-1.5-1.2-3-1.9-4.5-2.5-5.2-5.6-9.9-9.4-14.1-1.5-1.6-4.3-4.2-6.9-3.2-1.9.7-2.9 3-3.1 6.8-.3 5.4 0 10.8.7 16.2.3 2 .6 4 1.1 6.1v.2c-.2.3-.5.6-.9.6z"/></g><g><path d="M65.3 36.7c-.3 0-.6-.2-.7-.5-.2-.4 0-.8.4-1l.3.7-.2-.7h.1c6.9-3 14-5.6 21.1-7.6.4-.1.8.1.9.5.1.4-.1.8-.5.9-7 2-14.1 4.6-20.9 7.6l-.2.1h-.3z"/></g><g><path d="M176.5 53.5c-.3 0-.5-.2-.5-.5-1.1-5-6.8-8.8-11.9-7.8-1.4.3-2.8.8-4.2 1.4l-.8.3c-2 .8-4.2 1.6-6.6 1.2-2.8-.5-4.8-2.6-6.8-4.6-2-2-3.9-3.9-6.4-4.3-3.6-.6-6.9 2.2-9.6 5-2.4 2.4-5.9 6.1-10.2 5.8-3-.2-5.5-2.1-7.8-4.1l-.5-.4c-2-1.6-5-3.7-8-3-2 .5-3.5 2.2-5 3.9-.8.9-1.6 1.8-2.4 2.6-3.7 3.2-9.6 3.7-13.7 1.1-.9-.6-1.8-1.3-2.6-2-2-1.7-4-3.2-6.3-2.9-1.8.3-3.2 1.6-4.6 3.1-1 1-1.9 2-3.1 2.7-1.7 1-4 1.2-6.1.5-2.5-.8-4.4-2.6-5.1-4.9-.1-.3.1-.5.3-.6.3-.1.5.1.6.3.6 1.9 2.3 3.5 4.5 4.2 1.9.6 3.8.4 5.3-.5 1.1-.6 2-1.6 2.9-2.5 1.5-1.5 3-3.1 5.2-3.4 2.7-.4 4.9 1.4 7 3.1.8.7 1.7 1.4 2.5 1.9 3.8 2.4 9.1 1.9 12.5-1 .8-.7 1.6-1.6 2.3-2.5 1.5-1.8 3.1-3.7 5.5-4.2 3.4-.8 6.7 1.4 8.9 3.2l.6.4c2.2 1.8 4.5 3.7 7.2 3.8 3.6.2 6.5-2.5 9.5-5.5 2.9-3 6.4-5.9 10.5-5.3 2.9.4 4.9 2.6 7 4.6 2 2 3.8 3.9 6.3 4.3 2.1.4 4.1-.4 6-1.2l.8-.3c1.4-.6 2.8-1.2 4.3-1.5 5.8-1.1 11.9 2.9 13.1 8.7v.1c-.1.6-.3.8-.6.8z"/></g><g><path d="M65.2 62.5c-1.5 0-2.6-.5-2.9-1.4-.5-1.2.4-2.7 2.3-4 2.8-1.9 6.1-3 9.5-3.4 1.6-.2 2.7.2 3.2.9.6.8.5 2-.1 2.9-.6.8-1.4 1.3-2.2 1.8-2.6 1.4-5.3 2.4-8.2 3-.6.1-1.1.2-1.6.2zm8.9-8c-3.3.3-6.5 1.5-9.2 3.2-1.6 1-2.4 2.2-2 3.1.3.7 1.4 1.3 3.8.8 2.8-.6 5.5-1.5 8-2.9.7-.4 1.5-.8 1.9-1.5.4-.6.6-1.4.1-2.1-.4-.5-1.2-.7-2.6-.6z"/></g><g><path d="M13.5 77.6c-.1 0-.2 0-.3-.1-.2-.2-.3-.5-.1-.7 14.4-22.2 33-39.5 51-47.5.3-.1.5 0 .7.3.1.3 0 .5-.3.7C46.7 38.2 28.3 55.4 14 77.4c-.1.1-.3.2-.5.2z"/></g><g><path d="M76.3 361.7h-.2c-15.4-4.3-29.8-11.7-41.7-21.6-7.6-6.3-14.2-13.5-19.4-21.4-.2-.3-.4-.6-.6-.8-14.4-22.3-18.3-50.7-10-74.2 4.6-13.2 12.9-25 20.8-36.5 5.9-8.4 11.9-17.2 16.4-26.2 3.7-7.4 5.9-14.4 6.9-21.4 1.4-9.8.2-19.6-1.1-27-.6-3.6-1.4-7.3-2-10.5-.6-2.7-1.1-5.5-1.7-8.2-1.7-8.7-3.2-17.9-2.8-27.3 0-.8.1-1.6.1-2.4 1.1-14.2 8-27.1 17.8-33.6.3-.2.8-.1 1 .2.2.3.1.8-.2 1-9.3 6.2-15.9 18.7-17 32.4-.1.8-.1 1.6-.1 2.3-.4 9.2 1.1 18.4 2.7 27 .5 2.7 1.1 5.5 1.7 8.2.6 3.2 1.4 6.9 2 10.5 1.3 7.5 2.5 17.5 1.1 27.5-1 7.1-3.3 14.2-7.1 21.8-4.5 9.2-10.6 17.9-16.5 26.4C18.5 219.3 10.3 231 5.7 244c-8.1 23.1-4.3 51 9.9 72.9.2.3.3.5.5.8 5.2 7.8 11.6 14.9 19.2 21.1 11.8 9.7 26 17.1 41.2 21.3.4.1.6.5.5.9-.1.5-.4.7-.7.7z"/></g><g><path d="M38.9 87.5c-3.2 0-6.5-1.6-8.3-4.4-.5-.7-.8-1.5-1.2-2.3-.5-1.1-1-2.1-1.8-3-1.5-1.6-4-2.5-6.7-2.3-2.5.2-5 1.2-7.2 2.1-.2.1-.6 0-.7-.2-.1-.2 0-.5.2-.6 2.3-1 4.9-2 7.6-2.2 3-.2 5.8.7 7.5 2.6.9 1 1.4 2.1 1.9 3.2.3.7.7 1.5 1.1 2.2 2.1 3.2 6.5 4.7 10.1 3.5.3-.1.5 0 .6.3.1.3 0 .5-.3.6-.8.4-1.8.5-2.8.5z"/></g><g><path d="M84.5 24.2c-.2 0-.4-.1-.4-.3-.1-.2 0-.5.2-.7h.1c23.7-8.8 49.2-9.9 71.7-3 .3.1.4.4.3.6-.1.3-.4.4-.6.3-22.4-6.8-47.6-5.7-71.1 3-.1 0-.1.1-.2.1z"/></g><g><path d="M220.9 74.2c-.2 0-.4-.1-.4-.3-.7-1.4-1.5-2.8-2.3-4.2-6-10.6-13-19.6-20.8-26.7-.7-.7-1.5-1.4-2.4-2.1-.2-.2-.2-.5-.1-.7.2-.2.5-.2.7-.1.9.8 1.7 1.4 2.4 2.1 7.9 7.2 15 16.2 21 26.9.8 1.4 1.6 2.9 2.3 4.3.1.2 0 .5-.2.7 0 .1-.1.1-.2.1z"/></g><g><path d="M195.2 41c-.1 0-.2 0-.3-.1-5.3-4.5-11.2-8.2-17.3-11.1-.3-.1-.4-.4-.2-.7.1-.2.4-.4.7-.2 6.3 3 12.2 6.7 17.5 11.3.2.2.2.5.1.7-.2.1-.3.1-.5.1z"/></g><g><path d="M209.6 74.7c-.2 0-.3-.1-.4-.2-.2-.2-.1-.5.1-.7 3.8-2.7 7.9-2.9 11.8-.6.2.1.3.4.2.7-.1.2-.4.3-.7.2-3.6-2.2-7.3-2-10.8.5 0 .1-.1.1-.2.1z"/></g><g><path d="M79 109.5c-.4 0-.7-.2-1-.5-.4-.5-.3-1.3.2-1.8 9.8-7.6 23-10.1 36.2-6.7.2 0 .4.1.7.2 1.3.4 2.7.8 4 1.3.6.2 1 1 .7 1.6-.2.6-1 1-1.6.7-1.3-.5-2.6-.9-3.8-1.2-.2-.1-.4-.1-.6-.1-12.5-3.2-24.9-.9-34.1 6.2-.1.2-.4.3-.7.3z"/></g><g><path d="M21.9 121.1c-.2 0-.4-.1-.5-.3-.1-.3 0-.5.3-.6 7.9-2.8 15.3-5.1 22.7-6.9 3.3-.8 6.6-1.6 10.3-2.3 6.5-1.3 12.9-2.2 19.7-2.9.9-.1 1.9-.2 2.9-.3.3 0 .5.2.5.5s-.2.5-.5.5c-1 .1-1.9.2-2.8.3-6.7.7-13.2 1.6-19.6 2.9-3.7.7-7.1 1.5-10.3 2.3-7.3 1.8-14.7 4.1-22.6 6.8h-.1z"/></g><g><path d="M54.5 135h-.1c-2.1-.6-4.2-1.3-6.3-2-8.3-2.9-16.9-6.8-26.4-11.9-.2-.1-.3-.4-.2-.7.1-.2.4-.3.7-.2 9.4 5.1 18 8.9 26.2 11.8 2.1.8 4.2 1.4 6.3 2 .3.1.4.4.3.6-.1.2-.3.4-.5.4z"/></g><g><path d="M54.5 135c-.1 0-.3-.1-.4-.2-.2-.2-.2-.5.1-.7 9.1-7.6 17-16.1 23.7-25l.8-1.1c.2-.2.5-.3.7-.1.2.2.3.5.1.7l-.8 1.1c-6.7 9-14.7 17.5-23.9 25.2-.1 0-.2.1-.3.1z"/></g><g><path d="M54.8 111.9c-.1 0-.3-.1-.3-.3v-.2c.1-12.9 3-26.3 8.1-37.8 1-2.2 2.2-4.6 4.2-6.2 1.9-1.5 5-2.2 7.2-.7 2.3 1.6 2.7 4.8 2.7 7.6.1 5 .3 22.4-2.1 34.2v.2c0 .1-.2.2-.3.2-.1 0-.2-.2-.2-.3v-.2c2.3-11.8 2.2-29.1 2.1-34.1-.1-2.8-.4-5.8-2.5-7.2-2-1.4-4.8-.7-6.6.7-2 1.6-3.1 3.9-4 6-5.1 11.4-7.9 24.8-8.1 37.6v.2c.1.1-.1.3-.2.3z"/></g><g><path d="M65.2 103.1c-.4 0-.8-.1-1.1-.3-.9-.6-1-1.7-1.1-2.2-.7-6.9.3-13.9 3.1-20.2.3-.7 1.1-2.3 2.6-2.6.5-.1 1.3-.1 2.2.5 1.3 1 1.2 3.5 1 6 0 .3-.1.6-.1.8-.3 5.4-1.6 10.8-3.8 15.6-.3.6-.6 1.3-1.3 1.8-.4.4-.9.6-1.5.6zm4.1-24h-.2c-.5.1-1.2.8-1.6 1.8-2.7 6.1-3.7 12.8-3 19.4 0 .4.1 1 .4 1.2.2.1.6.1.9-.2.4-.3.6-.8.8-1.3 2.1-4.7 3.4-9.9 3.7-15.1 0-.2 0-.5.1-.9.1-1.2.4-4.1-.4-4.7-.3-.2-.6-.2-.7-.2z"/></g><g><path d="M63.4 172c-2.6 0-4.9-.5-6.9-1.6-3.1-1.5-4.2-5.1-4-8 .2-3.1 1.6-5.9 3-8.6 5.5-10.9 10.9-21.8 16.4-32.7l.8-1.7c1.7-3.4 3.4-6.8 5.2-10.3l.1-.2c.1-.1.1-.2.2-.3 4.6-9 10.1-19.5 16.2-30 2-3.4 4-6.6 7.1-8.6 3-2.1 7.8-2.8 10.9-.2 3.2 2.6 3.4 7.1 3.4 11.2 0 2.6 0 5.2-.1 7.8-.1 5.1-.1 9.3-.2 13.2-.4 13.8-1.3 32-5.3 49.8-.9 4.3-2.6 9.4-7 11.1-2.1.8-4.3.6-6.5.4-.8-.1-1.6-.1-2.4-.2-5.2-.1-10.2 2.2-15 4.3-1.4.6-2.9 1.3-4.3 1.9-1.4.6-2.7 1-3.9 1.4-3 .9-5.5 1.3-7.7 1.3zm43.9-102.9c-1.9 0-3.9.7-5.5 1.7-2.9 1.9-4.8 4.9-6.8 8.3-6.1 10.4-11.6 21-16.2 29.9 0 .1-.1.2-.2.3l-.1.2c-1.7 3.4-3.5 6.8-5.2 10.3l-.8 1.7c-5.5 10.9-10.9 21.8-16.4 32.7-1.3 2.6-2.7 5.3-2.9 8.2-.2 2.6.8 5.8 3.5 7.1 3.6 1.9 8.1 2 13.7.3 1.2-.4 2.4-.8 3.8-1.4 1.4-.6 2.9-1.2 4.3-1.9 4.9-2.2 10-4.5 15.5-4.4.8 0 1.7.1 2.5.2 2.2.2 4.2.4 6.1-.4 3.9-1.5 5.5-6.3 6.4-10.3 3.9-17.7 4.9-35.9 5.2-49.7.1-3.9.2-8.1.2-13.2 0-2.6.1-5.2.1-7.8 0-3.8-.2-8.1-3-10.4-1.1-.9-2.6-1.4-4.2-1.4z"/></g><g><path d="M70.8 170.4c-.1 0-.1 0 0 0-3.9-3.8-3.4-9.8 1.3-18.5 12.9-23.7 26.2-39.6 42-50.2h.2v.2c-15.8 10.5-29.1 26.4-41.9 50.1-4.7 8.5-5.1 14.5-1.5 18.1 0 .1 0 .2-.1.3z"/></g><g><path d="M199.1 181.9c-2.3 0-4.6-.3-7-.8-9.7-2.2-18.5-8.7-24.2-17.9-10-16-6.9-35.3 7.5-46.8.9-.8 2-1.4 3-2.1 13.5-7.8 32.2-.9 42.6 15.7 5.2 8.3 7.3 17.8 6 26.8-1.3 9-6 16.5-13.1 20.9-4.4 2.8-9.5 4.2-14.8 4.2zm-8.4-69.2c-4 0-7.9 1-11.5 3-1 .6-1.9 1.2-2.8 1.9-13.8 11-16.8 29.5-7.2 44.8 5.5 8.8 14 15.1 23.3 17.2 7.4 1.7 14.7.6 20.6-3.2 6.7-4.2 11.1-11.2 12.4-19.8 1.3-8.6-.8-17.8-5.7-25.8-7.2-11.4-18.5-18.1-29.1-18.1zm-11.8 2.3z"/></g><g><path d="M336.6 225.7h-.3c-.4-.1-.6-.6-.5-1 9.4-25.9 13.8-49.2 13.6-71.1-.3-26-7.7-50.4-21-68.8-9-12.5-21.5-23.3-36-31.2-2.6-1.4-5.2-2.7-7.9-3.9-5.1-2.3-10.5-4.3-16-6-21.1-6.3-45.3-7.3-69.9-3.1-1.1.2-2.3.4-3.4.6-.4.1-.8-.2-.9-.6-.1-.4.2-.8.6-.9 1.1-.2 2.3-.4 3.4-.6 24.8-4.3 49.2-3.2 70.5 3.1 5.5 1.6 11 3.7 16.2 6 2.6 1.2 5.3 2.5 8 4 14.7 8 27.3 18.9 36.5 31.6 13.4 18.6 21 43.4 21.3 69.6.2 22.1-4.2 45.6-13.7 71.7.1.4-.2.6-.5.6z"/></g><g><path d="M195.3 41c-.3 0-.5-.2-.5-.5s.2-.5.5-.5.5.2.5.5-.3.5-.5.5z"/></g><g><path d="M115 325.3c-9.5 0-18.4-1-26.8-2.9-12.2-2.8-23.7-8-33.4-15.1-10.1-7.4-18-16.8-22.8-27.2-6.5-14.1-8.2-31.6-5-50.7 2.9-17 9.4-33.6 15.1-48.3.1-.2.2-.5.3-.7l.1-.2c0-.1.1-.1.2-.1s.1.1.1.2l-.1.2c-.1.2-.2.5-.3.7-5.7 14.6-12.1 31.2-15 48.2-3.3 19-1.5 36.5 5 50.5 4.8 10.3 12.6 19.7 22.7 27.1 9.6 7 21.1 12.2 33.3 15 19.3 4.5 41.3 3.8 67-2.1 1.8-.4 3.4-.8 4.9-1.1 10.4-2.6 20.7-5.8 30.7-9.5 5.7-2.2 11.4-4.5 16.8-7 26.4-12.1 49.3-28 68-47.1 3.1-3.2 6-6.3 8.6-9.4 8.7-10.2 16.4-21.4 22.7-33.2 17.4-32.6 24.1-68.9 18.9-102.3-3-19.7-13.3-45.2-33.1-57.3-2.5-1.6-5.2-2.9-7.9-3.9-.1 0-.1-.1-.1-.2s.1-.1.2-.1c2.7 1.1 5.4 2.4 7.9 4 8.9 5.5 16.4 13.8 22.4 24.8 5.3 9.7 9.1 21.1 10.9 32.7 2.6 17.1 2.2 34.8-1.2 52.6-3.3 17.1-9.3 33.9-17.8 49.9-6.3 11.9-14 23.1-22.7 33.3-2.6 3.1-5.5 6.3-8.6 9.4-18.7 19.2-41.7 35.1-68.1 47.2-5.4 2.5-11.1 4.9-16.8 7-9.9 3.7-20.2 6.9-30.7 9.5-1.5.4-3 .7-4.9 1.2-14.7 3.3-28.1 4.9-40.5 4.9z"/></g><g><path d="M49 400.6c-.2 0-.4-.1-.6-.2-14-15.3-19.7-39.2-14.3-61 2.1-8.6 5.7-16.3 10.7-22.8 2.8-3.6 6-7 9.6-9.9 19.9-16.3 48.3-20 70.7-9.3 10.1 4.9 18.9 12.3 27.3 19.5 1.1.9 2.2 1.9 3.3 2.8 7.4 6.2 15.4 12.7 24.8 17 13 5.9 28.9 7.5 44.7 4.3 13.7-2.8 27.7-9 41.6-18.6 12.3-8.5 20-16.8 24.1-26l.1-.1c4.3-9.9 4.8-23.9-3.8-33.1-3-3.2-7-5.6-11.6-6.9-6.6-2-14.6-2-22.4 0-23.4 5.9-40.5 23.7-44.7 46.6-.1.4-.5.7-.9.6-.4-.1-.7-.5-.6-.9 4.3-23.4 21.8-41.7 45.8-47.7 8.1-2 16.3-2 23.2 0 4.9 1.5 9.1 3.9 12.3 7.4 9.1 9.7 8.7 24.3 4.2 34.6 0 .1-.1.1-.1.2-4.3 9.6-12.1 18-24.7 26.7-14 9.7-28.2 16-42.1 18.8-16.1 3.2-32.3 1.7-45.6-4.4-9.5-4.3-17.6-10.9-25.1-17.2-1.1-.9-2.2-1.9-3.3-2.8-8.4-7.1-17.1-14.5-27-19.3-21.6-10.3-50-6.6-69.1 9.1-3.5 2.9-6.7 6.1-9.4 9.7-4.9 6.4-8.4 13.9-10.5 22.3-5.2 21.3.3 44.7 14 59.6.3.3.3.8 0 1.1-.2-.2-.4-.1-.6-.1z"/></g><g><path d="M206.4 183c-4.9 0-9.7-.8-14.2-2.5-.4-.2-.9-.3-1.3-.5-.1 0-.1-.1-.1-.2s.1-.1.2-.1c.4.2.9.4 1.3.5 8.1 3 17.4 3.3 26.4.7 8.6-2.4 16.9-7.4 23.9-14.5 14.9-14.8 21.7-36.9 17.3-56.4-4.6-20.5-21.6-37.2-41.3-40.6-.1 0-.1-.1-.1-.1 0-.1.1-.1.1-.1h.1c19.9 3.5 36.9 20.3 41.5 40.8 2.2 9.7 1.6 20.3-1.5 30.4-3.1 9.9-8.6 19-15.8 26.2-7.1 7.1-15.4 12.1-24 14.5-4.2 1.3-8.4 1.9-12.5 1.9z"/></g><g><path d="M258.1 477.7c-3.3 0-6.7-.1-10-.4-27.7-2.2-56-14.5-77.6-33.7-.3-.3-.3-.8-.1-1.1.3-.3.7-.3 1.1-.1 21.4 19 49.3 31.2 76.7 33.4 26.3 2.1 53.3-4.3 75.9-17.9 33.1-19.9 57.4-56.3 65-97.3 8.4-45.2-4.5-91.1-33.6-119.8-5.8-5.8-12.4-10.8-19.4-15.1-1.9-1.2-4-2.4-6.1-3.5-.4-.2-.5-.6-.3-1s.6-.5 1-.3c2.1 1.1 4.2 2.3 6.2 3.5 7.1 4.3 13.7 9.5 19.6 15.3 29.5 29.1 42.6 75.5 34.1 121.2-7.7 41.4-32.3 78.2-65.8 98.3-19.9 12-43.3 18.5-66.7 18.5z"/></g><g><path d="M190.9 310.3c-.4 0-.7-.3-.7-.7-1.2-28.3 11.2-57.5 32.3-76.2 21.2-18.8 50.6-27.3 78.5-22.7 2.1.3 4.2.8 6.3 1.3 8 1.9 15.9 4.8 23.4 8.7.4.2.5.6.3 1s-.6.5-1 .3c-7.4-3.9-15.2-6.8-23.1-8.6-2.1-.5-4.2-.9-6.2-1.2-27.5-4.5-56.4 3.9-77.3 22.3-20.8 18.4-32.9 47.1-31.8 75 0 .5-.3.8-.7.8z"/></g><g><path d="M249.8 439.1s-.1 0-.1-.1 0-.1.1-.2c23.6-9.4 46.1-25.3 64.9-46.1 17.6-19.4 30.3-41.3 37.7-65 8-25.6 7.9-52.2-.2-74.9-3.8-10.7-9.7-24-21.7-31.3-1.6-1-3.3-1.9-5.1-2.6-.1 0-.1-.1-.1-.2s.1-.1.2-.1c1.8.7 3.5 1.6 5.1 2.6 0 0 .1 0 .1.1 12.1 7.4 18 20.7 21.8 31.4 8.1 22.8 8.2 49.4.2 75-7.4 23.7-20.1 45.6-37.7 65.1-19 21-41.5 36.9-65.2 46.3z"/></g><g><path d="M203.5 448.7c-11.4 0-22.5-1.6-32.6-5-10-3.3-19.6-8.1-28.8-12.8-2.9-1.5-6-3-9-4.5-11.3-5.6-24.9-11.3-39.1-12-15.1-.7-28.6 4.8-36.3 14.8-.2.2-.4.3-.7.3l-23.9-3.4c-.2 0-.4-.2-.5-.4-.1-.2-.1-.5 0-.7 3.9-9.1 9.3-17.7 16-25.7 2.7-3.2 5.6-6.3 8.6-9.2C68.9 378.8 83 370 97.8 364.9c2.5-.9 5.1-1.7 7.7-2.4.4-.1.8.1.9.5.1.4-.1.8-.5.9-2.6.7-5.1 1.5-7.6 2.3-14.6 5.1-28.5 13.7-40.2 24.9-3 2.9-5.9 6-8.5 9.1-6.4 7.6-11.5 15.8-15.3 24.4l22.5 3.2c8-10.1 21.9-15.7 37.3-15 14.5.7 28.2 6.5 39.7 12.1l9 4.5c9.2 4.7 18.7 9.5 28.6 12.7 23.7 7.7 52.2 6.2 78.2-4 .4-.2.8 0 1 .4.2.4 0 .8-.4 1-15.3 6.1-31.3 9.2-46.7 9.2z"/></g><g><path d="M57.6 391.4c-.4 0-.8-.4-.8-.8.3-11.8 6.9-23.4 16.3-28.8 1-.6 1.9-1 2.9-1.4 8.9-3.8 20.4-3 30 2.2.4.2.5.7.3 1s-.7.5-1 .3c-9.2-5-20.2-5.8-28.7-2.2-.9.4-1.8.8-2.7 1.4-9 5.2-15.3 16.3-15.6 27.6 0 .4-.3.7-.7.7z"/></g><g><path d="M156 370.6h-1.1c-16.6-.1-34.7-1.6-56.9-4.9-.1 0-.1-.1-.1-.1 0-.1.1-.1.1-.1 34.2 5 74.5 8.7 113-2 38.4-10.7 68.6-35.8 80.6-67.1.6-1.6 1.2-3.2 1.7-4.7 0-.1.1-.1.2-.1s.1.1.1.2c-.5 1.5-1.1 3.1-1.7 4.7-6.1 15.9-17.3 30.7-32.1 42.6-13.9 11.1-30.7 19.6-48.7 24.6-16.7 4.6-34.7 6.9-55.1 6.9z"/></g><g><path d="M61.3 204.6c-1.3 0-2.6-.3-3.8-.9-.2-.1-.2-.3-.1-.5s.3-.2.5-.1c3.7 2 8.4.1 11.3-2.6 1.7-1.6 3.1-3.5 4.5-5.3 1.2-1.6 2.4-3.2 3.8-4.6 2.9-3 7.6-5.6 12-4 1.9.7 3.4 2.1 4.8 3.4.4.4.8.8 1.2 1.1 1.6 1.4 4.1 2.9 6.4 2.3 3.1-.8 4.3-4.5 5.3-7.8l.1-.2c1.3-4.1 3.9-9.6 8.9-11.8 3.3-1.5 7.1-1.4 10.7-1.2.9 0 1.9.1 2.8.1 12 .1 23.9-5.2 31.8-14.4.1-.2.4-.2.5 0 .2.1.2.4 0 .5-8 9.3-20.1 14.7-32.3 14.6-.9 0-1.9-.1-2.8-.1-3.5-.1-7.2-.3-10.3 1.1-4.7 2.2-7.2 7.4-8.5 11.4l-.1.2c-1 3.3-2.3 7.4-5.9 8.3-2.1.5-4.6-.3-7.1-2.5-.4-.4-.8-.7-1.3-1.1-1.4-1.3-2.8-2.6-4.6-3.2-4-1.5-8.4 1-11.2 3.8-1.3 1.4-2.5 3-3.7 4.5-1.4 1.9-2.9 3.8-4.6 5.4-2.1 2-5.2 3.6-8.3 3.6z"/></g><g><path d="M73.8 208.5c-6.6 0-12-1.5-16.2-4.6-.1 0-.2-.1-.2-.2-.2-.1-.2-.4-.1-.5.1-.2.4-.2.5-.1l.2.2c5.2 3.8 12.2 5.2 21.3 4.2 2-.2 4.1-.6 6.4-1 6.5-1.3 13.1-3.3 19.5-5.7 9.8-3.7 19.1-8.6 27.6-14.4 7.4-5.1 14.1-10.8 19.7-16.9 3.4-3.7 6.4-7.5 9-11.5.1-.2.3-.2.5-.1s.2.3.1.5c-2.6 4-5.7 7.9-9 11.6-5.7 6.2-12.3 11.9-19.8 17-8.5 5.8-17.9 10.7-27.7 14.5-6.4 2.5-13.1 4.4-19.6 5.7-2.3.5-4.5.8-6.5 1.1-2.1.1-3.9.2-5.7.2z"/></g><g><path d="M160.8 208c-.3-.1-.4-.3-.4-.5 1.8-7.6 2.8-15.5 3.1-23.4.3-8.5-.3-16.9-1.9-25.2v-.1c0-.3-.1-.5-.1-.8 0-.2.1-.4.3-.4.2 0 .4.1.4.3.1.3.1.5.1.8v.1c1.5 8.3 2.2 16.9 1.9 25.4-.3 8-1.3 15.9-3.1 23.5.1.2-.1.3-.3.3z"/></g><g><path d="M145.3 243c-.1 0-.2 0-.2-.1-.2-.1-.2-.4-.1-.5 4.9-6.3 9-14.2 12.2-23.5 1.3-3.7 2.4-7.5 3.3-11.3 0-.2.3-.3.5-.3s.3.2.3.5c-.9 3.8-2 7.7-3.3 11.4-3.2 9.4-7.4 17.4-12.4 23.7-.1 0-.2.1-.3.1z"/></g><g><path d="M120.7 260.1c-.2 0-.3-.1-.4-.3-.1-.2.1-.4.3-.5 7.1-2 13.8-5.9 19.5-11.5 1.7-1.7 3.4-3.5 4.9-5.5.1-.2.4-.2.5-.1s.2.4.1.5c-1.5 2-3.2 3.9-5 5.6-5.8 5.8-12.6 9.8-19.9 11.8.1 0 0 0 0 0z"/></g><g><path d="M111 261.5h-1.3c-5.9-.2-11.8-2-17.6-5.2-6.4-3.6-12.4-9-17.2-15.5-1.8-2.5-3.6-5.2-5.2-8.1-2.3-4.1-4.6-8.7-6.8-14-.2-.4-.4-.9-.5-1.3-.8-1.9-1.6-4-2.5-6.5-.1-.2 0-.4.2-.5.2-.1.4 0 .5.2.9 2.5 1.7 4.6 2.5 6.5.2.5.4.9.5 1.3 2.2 5.3 4.4 9.9 6.7 14 1.6 2.8 3.3 5.5 5.2 8 4.7 6.5 10.6 11.8 16.9 15.3 5.6 3.2 11.4 4.9 17.2 5.1 3.6.1 7.2-.3 10.9-1.3.2-.1.4.1.5.3.1.2-.1.4-.3.5-3.2.7-6.5 1.2-9.7 1.2z"/></g><g><path d="M119.7 272.2c-7.1 0-14.4-1.8-21.1-5.5-10-5.4-18.7-14.5-25.6-26.8-3.3-5.8-6.7-13-10-21.3-.2-.4-.4-.9-.5-1.3-.8-2-1.6-4.1-2.5-6.5-.8-2.1-1.6-4.4-2.5-7l-.1-.3c-.1-.2 0-.4.2-.5.2-.1.4 0 .5.2l.1.3c.9 2.7 1.7 4.9 2.5 7 .9 2.4 1.7 4.5 2.5 6.5.2.5.3.9.5 1.3 3.3 8.3 6.7 15.4 10 21.2 6.9 12.2 15.4 21.2 25.4 26.5 11.5 6.3 25.2 7.1 35.7 2.2 14.2-6.7 23.3-16.6 28.5-31.2 7.6-21.1 7.1-49.6-1.5-78-.1-.3-.1-.5-.2-.7l.3-.2.4-.1c.1.3.2.5.2.8 8.6 28.6 9.1 57.2 1.5 78.5-5.3 14.8-14.5 24.9-28.9 31.7-4.7 2.1-10 3.2-15.4 3.2z"/></g><g><path d="M72.2 232.7h-2c-.1 0-.2-.1-.2-.3 0-.1.1-.2.3-.2 4.6.1 9.3-.1 14-.7 8.9-1.1 17.8-3.4 26.5-6.9 9.8-3.8 19.1-9 27.8-15.5 7.4-5.5 14.1-11.7 20-18.5 1.8-2.1 3.6-4.3 5.2-6.5 0-.1.1-.1.2-.1s.3.1.3.3v.1c-1.6 2.2-3.4 4.4-5.2 6.6-5.9 6.9-12.6 13.1-20.1 18.6-8.7 6.4-18.1 11.7-27.9 15.5-8.8 3.5-17.7 5.8-26.7 6.9-4.2.4-8.2.7-12.2.7z"/></g><g><path d="M92.3 256.2c-.1 0-.2-.1-.2-.2-3.2-7.8-5.9-16-8.1-24.3-2.1-7.8-3.7-15.8-4.9-23.8v-.2c0-.1.1-.3.2-.3s.3.1.3.2v.2c1.2 8 2.8 16 4.9 23.8 2.2 8.3 4.9 16.4 8.1 24.2 0 .1 0 .3-.3.4.1 0 .1 0 0 0z"/></g><g><path d="M120.7 260.1c-.2 0-.4-.2-.4-.4s.2-.4.4-.4.4.2.4.4c0 .3-.2.4-.4.4z"/></g><g><path d="M120.7 260c-.1 0-.2-.1-.2-.2-3.6-11.4-6.9-23.2-9.8-35-1.9-7.6-3.7-15.5-5.4-23.5 0-.1.1-.3.2-.3s.3.1.3.2c1.7 8 3.5 15.9 5.4 23.5 2.9 11.8 6.2 23.6 9.8 35 0 .1-.1.2-.3.3.1 0 0 0 0 0z"/></g><g><path d="M145.3 243c-.2 0-.4-.2-.4-.4s.2-.4.4-.4.4.2.4.4c-.1.2-.2.4-.4.4z"/></g><g><path d="M145.3 242.9c-.1 0-.2-.1-.2-.2-1.8-11-4-22.2-6.6-33.3-1.7-7.5-3.6-15.1-5.6-22.6l-.1-.3c0-.1 0-.3.2-.3.1 0 .3 0 .3.2l.1.3c2 7.5 3.9 15.1 5.6 22.7 2.5 11.1 4.7 22.4 6.6 33.3-.1 0-.2.1-.3.2z"/></g><g><path d="M160.8 208c-.2 0-.4-.2-.4-.4s.2-.4.4-.4.4.2.4.4c0 .3-.2.4-.4.4z"/></g><g><path d="M160.8 207.9c-.1 0-.2-.1-.2-.2-.2-5.3-1-11-2.1-16.9-1.4-6.9-3.3-14-5.8-20.9 0-.1 0-.3.2-.3.1 0 .3 0 .3.2 2.5 7 4.4 14.1 5.8 21 1.2 5.9 1.9 11.6 2.1 16.9 0 .1-.1.2-.3.2z"/></g></svg></g><g transform="translate(18.0 435.0) rotate(349.3764437995835 259.5 242.0) scale(1.5386895938333827 1.5365079365079366)"><svg width="337.3" height="315" viewBox="0 0 337.3 315"><g><g><path d="M334.1 8.1c1.2 5.1-3.2 9.6-7.2 13-10.9 9.2-21.7 18.5-32.6 27.7-15 12.8-30.1 25.6-45.1 38.3l-.1.1-.5-.6c-3.4-3-7.2-5.6-11.2-7.8 31.2-25.1 63.2-49.1 96-71.9l.3-.2c.1.5.3 1 .4 1.4z" style="fill:#3d138d"/></g><g><path d="m333.6 6.8-.3.2c-32.9 22.8-64.9 46.8-96 71.9-.5-.3-.9-.5-1.4-.7-5.1-2.5-10.4-4.3-15.9-5.3l-.4-.5c17.6-13.9 35.6-27.4 54-40.3 12.3-8.6 24.8-17 37.5-25.1 3.9-2.4 7.9-4.9 12.5-5.3 3.9-.5 8.4 1.5 10 5.1z" style="fill:#32277b"/></g><g><path d="M321.4 85.3c21.9 43 19.5 96.7-3.5 139.1-19.1 35.1-51.6 62.2-88.8 77.1l-.2-.4c2.7-22.7 3.9-45.5 3.9-68.3 0-6.8-.2-13.7-.5-20.6l-.3-.4c.2-.1.5-.3.7-.5 4.3-3.1 8.4-6.5 12.1-10.2 17.2-16.8 28.1-40.5 27.2-64.5-.7-18.4-8.9-36.7-22.4-49l-.3-.4c15-12.8 30.1-25.6 45.1-38.3l.2.3c10.7 10.5 19.9 22.6 26.8 36.1z" style="fill:#7d4cdb"/></g><g><path d="m248.5 86.7.5.6c-13.3 11.3-26.6 22.6-39.9 34-22.2 18.9-44.4 37.7-66.6 56.6-1 .9-2 1.7-3.1 2.6l-.6-.7c-.5-4.9-.8-9.7-.9-14.6 31.9-30 65-58.8 99.2-86.3 4.2 2.1 8 4.8 11.4 7.8z" style="fill:#3d138d"/></g><g><path d="M235.9 78.2c.5.2.9.5 1.4.7-34.2 27.5-67.2 56.3-99.2 86.3-.1-8.7.6-17.4 2.1-26l-.7-.8c.6-.5 1.2-1 1.8-1.6 16.3-14 32.7-27.8 49.2-41.4 9.3-7.6 18.6-15.2 28-22.6.3-.2.6-.5.9-.7l.4.5c5.6 1.3 11 3 16.1 5.6z" style="fill:#32277b"/></g><g><path d="M190.6 3.8C220 5.5 249.1 15.4 273.5 32c-18.4 12.9-36.3 26.4-54 40.3-.3.2-.6.5-.9.7l-.4-.4c-5.8-1-11.8-1.2-17.7-.6-10.5.8-20.8 3.1-30.8 6.2-.6-.4-1.3-.8-1.9-1.2-22.6-13.6-50.3-17.9-76.3-13.6-5.2.8-10.4 2-15.4 3.5 21.2-30.6 55.5-56.2 90.5-62.7 8-.7 16-.9 24-.4z" style="fill:#7d4cdb"/></g><g><path d="M232.7 232.8c.1 22.8-1.2 45.7-3.9 68.3l.2.4c-.2.1-.3.1-.5.2-7.5 3-15.2 5.4-23 7.4-5.1 1.3-10.1 2.3-15.2 3h-.4l-.1-.6c-3-6-6.1-12-9.1-18-9.7-18.9-19.5-38-27.3-57.7v-.5c9.3-.2 18.5-1 27.6-2.7 18.2-3.3 35.9-10.2 50.9-20.8l.3.4c.4 6.9.5 13.7.5 20.6z" style="fill:#7d4cdb"/></g><g><path d="M101 256.3c-2.4 14.9-9.7 35.2-20.7 44.2-12.1-5.5-22.1-13.1-26.4-23.4-2.1-5.4-2.3-11.2-1.2-16.8 1.5-7.1 5.3-13.9 10.7-19 1.3-1.3 2.8-2.4 4.3-3.5 12.4-8.4 27.1-10 41.6-6.3 14.4 2.5 29.1 4 43.7 3.8h.4v.5c7.8 19.8 17.6 38.8 27.3 57.7 3.1 6 6.1 12 9.1 18l.1.6c-20.3 3-40.1 2.3-61.4.5-4.3-.5-8.9-1.1-13.6-1.9 1.2.2 2.2.2 3.3.3 11.3.2 15.9-7.5 16.6-14.2.6-6.3-1.9-12.4-5.4-17.7-.6-.9-1.2-1.8-1.9-2.6-6.8-9-16.1-16-26.5-20.2z" style="fill:#7d4cdb"/></g><g><path d="m112.1 162.1-2.7 9.3c-4.2 11.7-7.2 18.4-14 26.3-4.2 4.9-9.2 9.2-15.3 11.1-4.4 1.4-9.3 1.3-13.7-.1-2.3-.7-4.6-1.9-6.5-3.3-1.3-1-2.5-2.2-3.6-3.4-3.5-4.3-5.5-9.8-6-13.7-2.1-11.6-2.9-23.5-2.5-35.3 19.5-14 38.4-28.9 58.4-42.3 19.7-13.2 41-25.3 63.5-32.4 10-3.2 20.3-5.4 30.8-6.2-6.1.5-12.2 1.8-18.1 3.8l-4.8 1.8c-18.5 7.7-33.7 22-44.8 38.7-9.2 13.9-15.7 29.6-20.7 45.7zM95 180.5c-1.2-6.3-3.1-12.4-7-17.4-1-1.3-2.1-2.4-3.4-3.4-4.3-3.6-10.1-5.5-15.5-4.2-5.3 1.3-9.3 5.5-11.7 10.4-.6 1.2-1.1 2.5-1.5 3.9-1.8 6.4-1.4 13.3-1 19.9 13.6-1.5 26.2-4.6 40.1-9.2z" style="fill:#7d4cdb"/></g><g><path d="M167.8 77c.6.4 1.3.8 1.9 1.2-22.5 7.1-43.8 19.3-63.5 32.4-20 13.3-38.9 28.2-58.4 42.3C49 125.2 57 97.8 71.4 74.1c1.5-2.4 3.1-4.9 4.7-7.3 5.1-1.5 10.2-2.7 15.4-3.5 26-4.2 53.7.1 76.3 13.7z" style="fill:#3d138d"/></g><g><path d="M166.6 4.1c-35 6.5-69.3 32.1-90.5 62.7-15.2 4.5-29.6 11.7-42.5 20.9C42 75.4 51.7 64 62.6 53.9c26.2-24.5 64.6-44.5 99.8-49.4 1.4-.1 2.8-.3 4.2-.4z" style="fill:#7d4cdb"/></g><g><path d="m139.5 138.5.7.8c-1.5 8.5-2.2 17.2-2.1 26-13.2 12.4-26.1 25-38.9 37.8-10 10-24.1 23-36 17.7-1.3-1.9-2-4.1-2-6.6 1.7-1.8 3.5-3.6 5.3-5.4 4.4 1.4 9.3 1.5 13.7.1 6.1-1.9 11.2-6.3 15.3-11.1 6.8-8 9.8-14.6 14-26.3.8-3.1 1.7-6.2 2.7-9.3 9.1-8 18.2-15.9 27.3-23.7z" style="fill:#32277b"/></g><g><path d="m139 179.8.6.7c-.3.3-.6.6-1 .8-13.3 11.4-26.7 22.7-40.1 34.1-5.9 5.1-12.3 10.3-20 11.5-4.9.8-10.7-1.1-14.1-4.8-.4-.4-.8-.9-1.1-1.4 11.9 5.4 26-7.7 36-17.7 12.8-12.8 25.7-25.4 38.9-37.8 0 4.9.3 9.8.8 14.6z" style="fill:#3d138d"/></g><g><path d="M129.4 279.1c3.6 5.3 6.1 11.4 5.4 17.7-.7 6.7-5.3 14.4-16.6 14.2-9.9-2.8-12-14-9.1-21.6 2.9-7.6 12.4-11.8 20.3-10.3z" style="fill:#3d138d"/></g><g><path d="M127.6 276.5c.6.8 1.3 1.7 1.9 2.6-7.9-1.5-17.4 2.7-20.3 10.3-2.9 7.6-.8 18.8 9.1 21.6-1 0-2.1-.1-3.3-.3-11.5-2-23.9-5.3-34.7-10.2 11-9 18.3-29.3 20.7-44.2 10.4 4.2 19.7 11.2 26.6 20.2z" style="fill:#7d4cdb"/></g><g><path d="M88 163.1c3.9 5 5.8 11.2 7 17.4-13.9 4.6-26.5 7.7-39.9 9.2-.5-6.7-.9-13.5 1-19.9.4-1.3.9-2.6 1.5-3.9l.1.1c3.2 5.1 9.8 7.7 15.6 6.4 5.8-1.4 9.9-4.9 11.4-12.7 1.2.9 2.3 2.1 3.3 3.4z" style="fill:#7d4cdb"/></g><g><path d="M84.6 159.6c-1.5 7.8-5.6 11.3-11.4 12.7-5.8 1.4-12.4-1.3-15.6-6.4l-.1-.1c2.4-4.9 6.4-9.1 11.7-10.4 5.4-1.3 11.1.6 15.4 4.2z" style="fill:#3d138d"/></g><g><path d="M76.1 66.8c-1.7 2.4-3.2 4.8-4.7 7.3C57 97.8 49 125.2 47.9 152.8c-8.3 6-16.7 11.8-25.4 17.3-7 4.5-14.2 8.7-21.7 12.4.4-12.9 2.5-26.2 6-38.3 5.9-20.1 15-39.3 26.8-56.6 12.9-9.1 27.3-16.3 42.5-20.8z" style="fill:#3d138d"/></g><g><path d="M65.7 233.5c.4 2.8-.5 5.7-2.3 7.8-5.4 5.1-9.2 11.9-10.7 19C21 275.7 23.3 289.7 16 292.1c6.8-22.7 17.8-44 32.1-62.8 4.1-5.3 8.4-10.4 13-15.3 0 2.5.8 4.7 2 6.6.3.5.7.9 1.1 1.4-1.5.9-2.8 2.2-4.8 4.3 2.9 1.5 5.9 4.2 6.3 7.2z" style="fill:#3d138d"/></g><g><path d="M40.3 212.5c-1.1-5.6-2.4-11.1-5.3-15.9-1.1-1.8-2.4-3.4-3.9-4.8-3.2-3.1-7.4-5.1-11.8-5-5.5.1-10.6 3.7-13.3 8.4-.6.9-1 1.9-1.3 2.9-1.5 4.3-1.4 9.6-.7 16.3-2.5-9.7-3.5-20.6-3.2-31.8 7.5-3.7 14.7-7.9 21.7-12.4 8.6-5.5 17.1-11.4 25.4-17.3-.5 11.8.3 23.7 2.5 35.3.5 3.9 2.5 9.5 6 13.7.3 8.6-1 17.4-6 24.3-.8 1.1-1.5 2.1-2.3 3-4.9 6.4-9.8 10.9-17.2 11.6-8.5.8-16.5-3.9-21.3-11.7-1.1-2-2-4-2.8-6.2 11.8-2.6 23.3-5.5 33.5-10.4z" style="fill:#7d4cdb"/></g><g><path d="M35 196.6c2.9 4.8 4.2 10.4 5.3 15.9-10.2 4.8-21.7 7.8-33.5 10.4-1.1-2.7-2-5.6-2.8-8.5-.7-6.7-.8-12 .7-16.3h.1c4 3.7 9.8 5.3 15.1 4.1 5.3-1.2 9.7-5.1 11.2-10.5 1.5 1.5 2.8 3.2 3.9 4.9z" style="fill:#7d4cdb"/></g><g><path d="M31.1 191.8c-1.5 5.4-5.9 9.3-11.2 10.5-5.3 1.2-11.1-.4-15.1-4.1h-.1c.3-1 .8-2 1.3-2.9 2.8-4.7 7.8-8.3 13.3-8.4 4.4-.3 8.6 1.8 11.8 4.9z" style="fill:#3d138d"/></g><g><path d="M228.9 301.2c-.1 0-.1-.1-.1-.1 2.7-22.6 3.9-45.6 3.9-68.3 0-7.4-.2-14.1-.5-20.5 0-.1 0-.1.1-.1s.1 0 .1.1c.3 6.4.5 13.1.5 20.6.1 22.8-1.2 45.8-3.9 68.4 0-.1-.1-.1-.1-.1z"/></g><g><path d="M33.6 87.8s-.1 0-.1-.1v-.2C46.9 78.1 61.2 71.1 76 66.7c5.1-1.5 10.3-2.7 15.5-3.5 13.2-2.2 26.5-2.1 39.5.1 13.4 2.3 25.8 6.9 36.9 13.5.6.4 1.2.8 1.9 1.2.6.4 1.3.8 1.9 1.2.1 0 .1.1 0 .2 0 .1-.1.1-.2 0-.6-.4-1.3-.8-1.9-1.2-.7-.5-1.3-.8-1.9-1.2-21.7-13-49.4-18-76.2-13.6-5.1.8-10.3 2-15.4 3.5C61.3 71.3 47 78.3 33.6 87.8z"/></g><g><path d="M160.4 315.3c-10.9 0-21.6-.7-31.9-1.6-.6-.1-1.1-.6-1-1.2s.6-1.1 1.2-1c19.2 1.6 39.9 2.7 61.1-.5h.3c5.2-.8 10.3-1.8 15.1-3 7.7-1.9 15.4-4.4 22.9-7.3.1-.1.3-.1.5-.2 38.3-15.3 69.6-42.5 88.2-76.6 23.6-43.3 24.9-96.2 3.5-138-6.7-13.1-15.7-25.2-26.6-35.9-.4-.4-.4-1.1 0-1.6.4-.4 1.1-.4 1.6 0 11.1 10.9 20.3 23.2 27.1 36.5 21.7 42.5 20.3 96.2-3.6 140.1-18.8 34.5-50.5 62.1-89.4 77.6-.2.1-.3.1-.5.2-7.6 3-15.3 5.5-23.2 7.5-4.9 1.2-10.1 2.3-15.3 3-.2 0-.3 0-.4.1-9.9 1.4-19.9 1.9-29.6 1.9z"/></g><g><path d="M189.9 311.6s-.1 0-.1-.1c-3.1-6.3-6.4-12.6-9.2-18l-.1-.2c-9.6-18.6-19.4-37.9-27.2-57.6 0-.1 0-.1.1-.2.1 0 .1 0 .2.1 7.7 19.7 17.6 38.9 27.2 57.5l.1.2c2.8 5.4 6 11.7 9.2 18 0 .2-.1.3-.2.3.1 0 0 0 0 0z"/></g><g><path d="M139 179.9c-.1 0-.1 0-.1-.1-.5-4.9-.8-9.8-.9-14.6-.1-9 .6-17.7 2.1-26 0-.1.1-.1.1-.1.1 0 .1.1.1.1-1.5 8.2-2.2 17-2.1 25.9.1 4.8.3 9.7.9 14.6 0 .2 0 .2-.1.2z"/></g><g><path d="M109.5 172.4h-.3c-.6-.2-.9-.8-.8-1.3.9-3.2 1.8-6.3 2.7-9.3 5.6-18.2 12.4-33.3 20.9-46 12.1-18.3 27.8-31.8 45.2-39.1 1.6-.7 3.2-1.3 4.9-1.9 6-2 12.2-3.4 18.3-3.9 6.1-.5 12.2-.3 18 .6.6.1 1 .7.9 1.3-.1.6-.7 1-1.3.9-5.7-.9-11.5-1.1-17.5-.6-6 .5-12 1.8-17.8 3.8l-4.8 1.8c-17.1 7.1-32.4 20.4-44.3 38.3-8.3 12.6-15.1 27.4-20.6 45.5-.9 2.9-1.8 6-2.7 9.2.1.4-.3.7-.8.7z"/></g><g><path d="M248.5 86.8c-3.6-3.1-7.3-5.7-11.3-7.8-.5-.2-.9-.5-1.4-.7-4.9-2.5-10.3-4.2-15.9-5.3-.1 0-.1-.1-.1-.1 0-.1.1-.1.1-.1 5.6 1.1 11 2.9 16 5.3.5.2.9.5 1.4.7 4 2.1 7.8 4.7 11.3 7.8.1 0 .1.1-.1.2.1 0 .1 0 0 0z"/></g><g><path d="M150.3 236.4c-12.8 0-26.7-1.3-41.1-3.8-.6-.1-1-.7-.9-1.3.1-.6.7-1 1.3-.9 15.4 2.7 30 3.9 43.5 3.7h.5c9.5-.2 18.7-1.1 27.4-2.7 18.8-3.5 36.3-10.6 50.4-20.6.3-.2.5-.3.7-.5 4.3-3.1 8.3-6.5 12-10.1 17.7-17.3 27.7-41.1 26.9-63.7-.7-18.2-8.9-36.3-22-48.3-.4-.4-.5-1.1-.1-1.6s1.1-.5 1.6-.1c13.5 12.4 22.1 31 22.8 49.8.9 23.2-9.4 47.6-27.5 65.4-3.7 3.7-7.9 7.1-12.3 10.3-.2.2-.5.3-.7.5-14.4 10.2-32.1 17.5-51.3 21-8.8 1.6-18.1 2.5-27.8 2.7h-.5c-1.1.2-2 .2-2.9.2z"/></g><g><path d="M50.3 189.3c-.5 0-1-.4-1.1-.9-2.1-11.6-3-23.6-2.5-35.6 1.1-28.2 9.3-55.6 23.6-79.2 1.5-2.4 3.1-4.9 4.8-7.3 22.7-32.8 57.6-57 91.3-63.3.6-.1 1.2.3 1.3.9.1.6-.3 1.2-.9 1.3-33.1 6.2-67.5 30-89.8 62.3-1.7 2.4-3.2 4.9-4.7 7.2-14.2 23.4-22.2 50.4-23.3 78.2-.5 11.8.4 23.6 2.5 35.1.1.6-.3 1.2-.9 1.3h-.3z"/></g><g><path d="M9.6 230.3c-.4 0-.8-.2-1-.6-1.1-2-2-4.1-2.9-6.3-1.1-2.7-2-5.6-2.8-8.7-2.4-9.4-3.6-20.5-3.2-32.1.4-12.9 2.4-26.3 6-38.5 5.9-20.2 15-39.4 26.9-57 8.4-12.4 18.2-23.9 29.1-34 27.8-26 66.3-45 100.4-49.7.6-.1 1.2.3 1.2.9.1.6-.3 1.2-.9 1.2-33.6 4.7-71.6 23.5-99.1 49.2-10.8 10-20.5 21.3-28.8 33.6-11.8 17.4-20.8 36.3-26.6 56.3-3.5 12.1-5.6 25.2-5.9 38-.3 11.4.8 22.3 3.2 31.5.8 3 1.7 5.8 2.7 8.4.8 2.1 1.8 4.2 2.8 6.1.3.5.1 1.2-.5 1.5-.2.1-.4.2-.6.2z"/></g><g><path d="M73.6 210.9c-2.5 0-5-.4-7.4-1.1-2.5-.8-4.8-2-6.9-3.5-1.3-1-2.6-2.2-3.8-3.6-3.8-4.7-5.8-10.4-6.3-14.3-.1-.6.3-1.2.9-1.2.6-.1 1.2.3 1.2.9.5 3.4 2.3 8.9 5.8 13.2 1.1 1.3 2.2 2.4 3.4 3.3 1.9 1.4 4 2.4 6.2 3.2 4.2 1.4 8.9 1.4 13 .1 5.1-1.6 9.9-5.1 14.8-10.8 6.6-7.7 9.6-14.3 13.8-26 .2-.6.8-.9 1.4-.7.6.2.9.8.7 1.4-4.3 12-7.3 18.7-14.2 26.7-5.1 6-10.3 9.8-15.8 11.5-2.1.5-4.5.9-6.8.9z"/></g><g><path d="M29 242.1c-8 0-15.6-4.6-20.3-12.3-.3-.5-.1-1.2.4-1.5.5-.3 1.2-.2 1.5.4 4.7 7.7 12.4 12 20.2 11.2 7-.7 11.7-5 16.5-11.2.7-1 1.5-2 2.2-3 4.2-5.8 6.1-13.8 5.8-23.7 0-.6.5-1.1 1.1-1.1.6 0 1.1.5 1.1 1.1.3 10.4-1.8 18.8-6.2 25-.8 1.1-1.5 2.1-2.3 3.1-4.5 5.8-9.7 11.2-18 12-.7-.1-1.4 0-2 0z"/></g><g><path d="M95.4 183.3c-.2 0-.3-.1-.4-.3-.1-.8-.3-1.7-.4-2.5-1.4-7.5-3.6-13-6.9-17.3-1-1.2-2.1-2.4-3.3-3.4-.2-.1-.2-.4-.1-.5.1-.2.4-.2.5-.1 1.3 1 2.4 2.2 3.4 3.5 3.4 4.3 5.7 9.9 7.1 17.6.2.8.3 1.7.4 2.5.1.3 0 .5-.3.5.1 0 0 0 0 0z"/></g><g><path d="M55.1 190.3c-.2 0-.4-.1-.4-.3v-.3c-.4-6.3-.9-13.4 1-20.1.4-1.3.9-2.7 1.5-3.9 2.6-5.5 7-9.4 11.9-10.6 5.1-1.3 11 .3 15.8 4.3.2.1.2.4.1.5-.1.2-.4.2-.5.1-4.6-3.8-10.3-5.3-15.1-4.1-4.7 1.2-8.9 4.9-11.4 10.2-.6 1.2-1.1 2.5-1.4 3.8-1.9 6.5-1.4 13.6-1 19.8v.3c-.1.1-.3.3-.5.3z"/></g><g><path d="M55.1 190c-.2 0-.4-.1-.4-.3 0-.2.1-.4.3-.4 12.5-1.4 24.8-4.2 39.8-9.2.2-.1.4 0 .5.2.1.2 0 .4-.2.5-15.1 5-27.4 7.8-40 9.2z"/></g><g><path d="M70.1 173.1c-5 0-10.1-2.6-12.8-6.9-.1-.2-.1-.4.1-.5.2-.1.4-.1.5.1 3.1 4.9 9.5 7.5 15.2 6.2 6.3-1.5 9.8-5.4 11.1-12.4 0-.2.2-.3.4-.3s.4.2.4.4c-1.4 7.4-5.1 11.5-11.7 13.1-1 .1-2.1.3-3.2.3z"/></g><g><path d="M40.8 215.4c-.2 0-.3-.1-.4-.3l-.2-.9c-.1-.5-.2-1.1-.3-1.6-1-5-2.3-10.8-5.3-15.8-1.1-1.8-2.3-3.4-3.8-4.8-.2-.1-.2-.4 0-.5.1-.2.4-.2.5 0 1.5 1.4 2.8 3.1 3.9 4.9 3.1 5.1 4.4 11 5.4 16.1.1.5.2 1.1.3 1.6l.2.9c.1.1 0 .3-.3.4z"/></g><g><path d="M4 214.8c-.2 0-.4-.1-.4-.3-.8-7.8-.6-12.6.7-16.5.4-1.1.8-2.1 1.4-3 3-5.1 8.3-8.5 13.6-8.6 4.2-.1 8.5 1.7 12 5.1.1.1.2.4 0 .5s-.4.2-.5 0c-3.4-3.3-7.5-5-11.5-4.9-5 .1-10.2 3.4-13 8.2-.5.9-1 1.8-1.3 2.9-1.3 3.8-1.5 8.5-.7 16.1.1.3-.1.5-.3.5z"/></g><g><path d="M6.7 223.3c-.2 0-.3-.1-.4-.3 0-.2.1-.4.3-.4 10.6-2.4 22.8-5.4 33.5-10.4.2-.1.5.1.5.3 0 .2-.1.3-.3.4-10.6 5.1-22.8 8-33.6 10.4.1 0 .1 0 0 0z"/></g><g><path d="M16.3 203c-4.3 0-8.6-1.6-11.8-4.6-.2-.1-.2-.4 0-.5.1-.2.4-.2.5 0 3.9 3.7 9.5 5.2 14.8 4 5.3-1.2 9.5-5.1 10.9-10.2 0-.2.2-.3.4-.3s.4.2.4.4v.1c-1.5 5.4-5.9 9.5-11.5 10.8-1.2.2-2.5.3-3.7.3z"/></g><g><path d="M.8 182.7s-.1 0-.1-.1 0-.1.1-.2c6.7-3.3 13.6-7.2 21.7-12.4 7.8-5 15.8-10.5 25.4-17.3 6.8-4.9 13.7-10 20.3-15 12.3-9.2 25.1-18.6 38-27.3 23.9-16 44.1-26.3 63.5-32.5 10.5-3.3 20.9-5.4 30.8-6.2.1 0 .1 0 .1.1s0 .1-.1.1c-10 .8-20.3 2.9-30.8 6.2-19.4 6.2-39.6 16.5-63.4 32.4-13 8.7-25.7 18.1-38 27.3-6.6 4.9-13.5 10-20.3 15-9.5 6.9-17.6 12.4-25.4 17.3-8.2 5.4-15.1 9.3-21.8 12.6z"/></g><g><path d="M53.9 278.3c-.4 0-.9-.3-1-.7-2.1-5.3-2.5-11.4-1.2-17.5 1.5-7.4 5.4-14.3 11-19.6 1.4-1.3 2.9-2.5 4.5-3.6 12.1-8.2 26.8-10.4 42.5-6.4.6.1.9.7.8 1.3-.1.6-.8.9-1.3.8-15.1-3.8-29.2-1.7-40.8 6.1-1.5 1-2.9 2.1-4.2 3.4-5.2 4.9-8.9 11.5-10.4 18.4-1.2 5.7-.8 11.3 1.1 16.2.2.6-.1 1.2-.6 1.4-.1.2-.3.2-.4.2z"/></g><g><path d="M128.6 313.8h-.1c-4.7-.5-9.3-1.2-13.7-2-13.3-2.3-25.4-5.9-35-10.3-13.9-6.3-22.9-14.4-27-23.9-.2-.6 0-1.2.6-1.4.6-.2 1.2 0 1.4.6 3.8 9.1 12.5 16.7 25.9 22.8 9.5 4.3 21.4 7.8 34.4 10.1 4.4.8 8.9 1.4 13.6 1.9.6.1 1 .6 1 1.2 0 .5-.5 1-1.1 1z"/></g><g><path d="M80.3 300.9c-.1 0-.2 0-.3-.1-.1-.2-.1-.4.1-.5 10.7-8.8 18.2-29 20.6-44 0-.2.2-.3.4-.3s.3.2.3.4c-2.4 15.1-9.9 35.5-20.8 44.4-.1.1-.2.1-.3.1z"/></g><g><path d="M118.7 311.3h-.4c-1.1 0-2.2-.1-3.3-.3h-.2c-.2 0-.3-.2-.3-.4s.2-.3.4-.3h.1c1.2.2 2.3.2 3.3.3h.4c10.6 0 15.1-7.1 15.8-13.8.6-5.5-1.2-11.3-5.3-17.5-.5-.8-1.1-1.6-1.8-2.6-6.8-8.9-16-15.8-26.4-20-.9-.4-1.8-.7-2.9-1.1-.2-.1-.3-.3-.2-.5.1-.2.3-.3.5-.2 1.2.4 2.1.7 3 1.1 10.6 4.2 19.8 11.2 26.7 20.2.7.9 1.3 1.8 1.9 2.6 4.2 6.3 6 12.3 5.5 18-1 7.1-5.8 14.5-16.8 14.5z"/></g><g><path d="M16 293.2c-.5 0-.9-.3-1-.7-.2-.6.1-1.2.7-1.4 2.1-.7 3.3-2.7 5.2-5.6 3.8-5.9 10.1-15.9 31.3-26.1.5-.3 1.2 0 1.5.5.3.5 0 1.2-.5 1.5-20.7 10-26.6 19.2-30.4 25.3-2 3.2-3.5 5.6-6.4 6.5H16z"/></g><g><path d="M62.8 243c-.3 0-.6-.1-.8-.3-.4-.4-.4-1.1 0-1.6.2-.1.3-.3.4-.5 1.7-1.9 2.5-4.5 2.1-6.9-.4-2.6-3.1-5.1-5.6-6.3-.5-.3-.8-.9-.5-1.5.3-.5.9-.8 1.5-.5 2.8 1.4 6.2 4.4 6.7 8 .4 3.1-.5 6.3-2.6 8.7l-.6.6c0 .2-.3.3-.6.3z"/></g><g><path d="M61.2 215.6c-.4 0-.7-.1-1-.4-.6-.6-.6-1.5-.1-2.1 1.7-1.8 3.5-3.7 5.3-5.4.6-.6 1.6-.6 2.1 0 .6.6.6 1.5 0 2.1l-.1.1c-1.8 1.8-3.6 3.6-5.3 5.4-.1.1-.5.3-.9.3z"/></g><g><path d="M16 293.6c-.1 0-.3 0-.4-.1-.8-.2-1.2-1.1-1-1.9 6.8-22.9 17.7-44.2 32.4-63.3 4.2-5.4 8.6-10.6 13.1-15.4.6-.6 1.5-.6 2.1-.1.6.6.6 1.5.1 2.1-4.5 4.7-8.8 9.8-12.9 15.2-14.4 18.8-25.2 39.8-31.9 62.3-.2.8-.8 1.2-1.5 1.2z"/></g><g><path d="M76.3 228.5c-4.9 0-9.8-2-13-5.5-.4-.5-.9-1-1.3-1.6-.5-.7-.3-1.6.4-2.1s1.6-.3 2.1.4c.3.4.6.8 1 1.2 3.1 3.3 8.2 5.1 12.8 4.4 7.5-1.1 14-6.7 19.3-11.1l40.4-34.3c.2-.2.5-.4.7-.6l1-.8 2.1-1.8 106.5-90.6.1-.1 77.5-66c3.7-3.1 7.7-7.2 6.7-11.5-.1-.3-.2-.7-.3-1-1.2-2.8-5-4.7-8.8-4.4-4 .3-7.7 2.5-11.8 5.1-12.3 7.8-24.9 16.2-37.4 25.1-17.4 12.2-35 25.4-53.9 40.3-.2.2-.4.3-.6.5l-.2.2c-9.1 7.2-18.5 14.8-28 22.6-14.6 12-30.2 25.1-49.2 41.4l-.6.5c-.4.3-.8.6-1.1 1l-.1.1-24 20.7-3.3 2.9c-.6.5-1.5.5-2.1-.1-.6-.6-.6-1.5 0-2.1l.1-.1 3.4-2.9c8-6.9 16-13.7 23.9-20.6l.1-.1c.4-.3.8-.7 1.2-1l.6-.5c19-16.3 34.6-29.4 49.2-41.4 9.5-7.8 18.9-15.4 28.1-22.6l.2-.2c.2-.2.5-.4.7-.5 18.9-14.9 36.6-28.1 54-40.4 12.6-8.9 25.2-17.3 37.5-25.2C314.6 3 318.6.7 323.3.3 327.6 0 333 2 335 6.5c.2.5.4 1.1.5 1.6 1.3 5.9-3.4 10.8-7.7 14.5l-77.6 66-.2.2L143.6 179l-2.1 1.8-1 .8c-.2.2-.5.4-.7.6l-.3.3-40 34.1c-5.5 4.7-12.4 10.5-20.7 11.8-.9.1-1.7.1-2.5.1z"/></g><g><path d="M63.3 222.2c-.5 0-.9-.2-1.2-.6-1.5-2.2-2.3-4.7-2.3-7.4 0-.8.7-1.5 1.5-1.5s1.5.7 1.5 1.5c0 2.1.6 4 1.8 5.7.5.7.3 1.6-.4 2.1-.3.1-.6.2-.9.2z"/></g><g><path d="M69.2 222.4c-2.1 0-4.2-.4-6.2-1.3-.3-.1-.4-.4-.3-.7.1-.3.4-.4.7-.3 10.8 4.9 23.4-5.6 35.4-17.6 12.7-12.7 25.8-25.4 38.9-37.8 31.9-30 65.3-59 99.2-86.4 31.1-25 63.4-49.2 96.1-71.9.2-.2.5-.1.7.1.2.2.1.5-.1.7-32.7 22.7-65 46.9-96 71.9-33.9 27.3-67.3 56.3-99.1 86.3-13.1 12.4-26.2 25.1-38.9 37.8-10.1 10.2-20.6 19.2-30.4 19.2z"/></g><g><path d="M63.3 222.2c-.8 0-1.5-.7-1.5-1.5s.7-1.5 1.5-1.5 1.5.7 1.5 1.5-.7 1.5-1.5 1.5z"/></g><g><path d="M59.6 227.5c-.3 0-.5-.1-.7-.3-.5-.4-.5-1.1-.1-1.6 1.9-2.2 3.4-3.5 5-4.5.5-.3 1.2-.2 1.5.3.3.5.2 1.2-.3 1.5-1.4.9-2.7 2.1-4.6 4.1-.2.4-.5.5-.8.5z"/></g><g><path d="M273.9 33.1c-.2 0-.4-.1-.6-.2C249.2 16.5 220 6.6 191 4.9c-7.8-.4-15.8-.3-23.9.3-1.4.1-2.8.2-4.2.4-.7.1-1.3.1-2 .2h-.1c-.5.1-1-.2-1.2-.7-.2-.6.1-1.2.7-1.4.1-.1.3-.1.4-.1.7-.1 1.3-.2 2-.2 1.4-.2 2.8-.3 4.3-.4 8.1-.7 16.3-.8 24.2-.3 29.4 1.7 59 11.7 83.4 28.3.5.3.6 1 .3 1.5-.3.4-.6.6-1 .6zM161 5.8z"/></g></g></svg></g><g transform="translate(123.0 948.0) rotate(351.65339342161127 244.5 254.5) scale(6.90677966101695 6.934604904632152)"><svg width="70.8" height="73.4" viewBox="0 0 70.8 73.4"><g><path d="M55.6 29.3c2.8 5.9 8.6 12 14.7 14.3-8 9.4-16.5 19.5-24.5 28.9-8.4-3.1-12.3-9.7-15.5-16.1-3.2-6.3-5.5-13.2-9.7-18.9C16.4 31.6 8.1 26 1 26.6 9 17.2 19.6 8.5 29 .5c7.2 1.3 13.8 5.4 18.1 11.3 3.8 5.2 5.8 11.6 8.5 17.5z" style="fill:#00739d"/></g><g><path d="M1 27c-.1 0-.2 0-.2-.1-.2-.1-.2-.4 0-.5 7.1-8.3 16.1-16 24.8-23.4 1.1-.9 2.1-1.8 3.2-2.7.2-.1.4-.1.5 0 .1.2.1.4 0 .5-1.1.9-2.1 1.8-3.2 2.7-8.7 7.4-17.7 15-24.7 23.3-.2.1-.3.2-.4.2z"/></g><g><path d="M45.8 72.9h-.2C37.1 69.7 33 62.8 29.9 56.6c-1-2-1.9-4.1-2.8-6.1-1.9-4.3-4-8.8-6.8-12.7-4-5.8-12.3-11.3-19-10.7-.3 0-.5-.2-.5-.5s.2-.5.5-.5c7.4-.6 15.8 5.2 19.9 11C24 41.1 26 45.6 28 50c.9 2 1.8 4.1 2.8 6.1 3 6 7 12.8 15.2 15.8.3.1.4.4.3.6-.1.3-.3.4-.5.4z"/></g><g><path d="M70.3 43.9h-.1c-5.8-2.1-11.9-8-14.9-14.4-.8-1.8-1.6-3.7-2.4-5.5-1.7-4.1-3.5-8.4-6.1-12C42.5 6.2 36 2.1 28.9.9c-.2 0-.3-.2-.3-.4s.2-.3.4-.3c7.3 1.3 14 5.4 18.3 11.4 2.7 3.7 4.5 8 6.2 12.1.7 1.8 1.5 3.7 2.4 5.4 2.9 6.2 8.9 12 14.5 14.1.2.1.3.3.2.5 0 .1-.1.2-.3.2z"/></g><g><path d="M45.8 72.8c-.1 0-.2 0-.2-.1-.2-.1-.2-.4 0-.5 4-4.7 8.1-9.6 12.3-14.4 4.1-4.9 8.3-9.8 12.3-14.4.1-.2.4-.2.5 0 .2.1.2.4 0 .5-4 4.7-8.1 9.6-12.3 14.4-4.1 4.9-8.3 9.8-12.3 14.4-.1 0-.2.1-.3.1z"/></g><g><path d="M21.9 28.5c-.1 0-.3 0-.3-.1-.2-.2-.2-.5 0-.7 4.8-5 9.7-10 14.5-14.9l.7-.7c.2-.2.5-.2.7 0 .2.2.2.5 0 .7l-.7.7c-4.8 5-9.6 10-14.5 14.9-.1.1-.2.1-.4.1z"/></g><g><path d="M31.1 37.2c-.1 0-.3-.1-.4-.2-.2-.2-.2-.5 0-.7 5-4.7 9.9-9.6 14.6-14.7.2-.2.5-.2.7 0 .2.2.2.5 0 .7-4.8 5.1-9.7 10.1-14.7 14.8.1 0 0 .1-.2.1z"/></g><g><path d="M33.8 40.7c-.1 0-.3 0-.3-.1-.2-.2-.2-.5 0-.7 1.4-1.4 2.8-2.9 4.2-4.3 1.4-1.4 2.8-2.8 4.1-4.2.2-.2.5-.2.7 0 .2.2.2.5 0 .7-1.4 1.4-2.8 2.8-4.1 4.2-1.4 1.5-2.8 2.9-4.2 4.3-.1 0-.3.1-.4.1z"/></g><g><path d="M37.9 53.5c-.1 0-.3 0-.3-.1-.2-.2-.2-.5 0-.7l15.6-16.1c.2-.2.5-.2.7 0 .2.2.2.5 0 .7l-15.6 16c-.1.1-.2.2-.4.2z"/></g><g><path d="M40.8 56.9c-.1 0-.3-.1-.4-.2-.2-.2-.2-.5 0-.7 4-3.9 7.8-7.9 11.2-12 .2-.2.5-.2.7-.1.2.2.2.5.1.7-3.5 4.1-7.3 8.2-11.3 12.1 0 .1-.1.2-.3.2z"/></g></svg></g><g transform="translate(672.0 20.0) rotate(13.263388472863555 129.0 122.5) scale(3.4724091520861373 3.46045197740113)"><svg width="74.3" height="70.8" viewBox="0 0 74.3 70.8"><g><path d="M53 54.7c12.2-1.2 20.7-.7 21.1 1.3.5 3-15.6 8.2-36 11.6S.8 71.5.3 68.5c-.3-2.1 7.4-5.2 19-8.1 5-1.2 10.8-2.5 17-3.5 6-1 11.6-1.7 16.7-2.2zm-13.6 9c9.8-1.7 17.7-3.9 17.5-5.1-.2-1.1-8.3-.7-18.2 1-9.9 1.7-17.7 3.9-17.5 5.1.2 1.1 8.3.6 18.2-1z" style="fill:#3d138d"/></g><g><path d="M56.9 58.6c.2 1.1-7.6 3.4-17.5 5.1-9.9 1.7-18 2.1-18.2 1-.2-1.1 7.6-3.4 17.5-5.1 9.8-1.7 18-2.1 18.2-1z" style="fill:#333"/></g><g><path d="M51 45.6c.7 3.1 1.3 6.1 2 9.1-5.1.5-10.8 1.2-16.7 2.3-6.2 1-11.9 2.3-17 3.5l-.1-.5c-.5-2.4-.9-4.8-1.3-7.2h.3c9.5-5.3 21.9-7.3 32.8-7.2z" style="fill:#00739d"/></g><g><path d="M51 45.6c-10.9 0-23.4 1.9-32.9 7.2h-.3c-.4-2-.7-3.9-1-5.9 9.5-5.5 21.4-8.5 32.6-8.5.6 2.4 1.1 4.8 1.6 7.2z" style="fill:#7d4cdb"/></g><g><path d="M39.8.3c3.4 12.3 6.7 25.4 9.7 38.2-11.2 0-23.1 3-32.6 8.5-2.3-13.5-4.1-27-5.5-40.6l-.2-.4C19.9 3.3 30.7 1 39.8.3z" style="fill:#00739d"/></g><g><path d="M9.7 71C.2 71-.1 69.2-.2 68.6c-.5-3.2 11.9-6.8 19.4-8.7 5.3-1.3 11.2-2.5 17-3.5 5.8-1 11.5-1.8 16.8-2.3 7.8-.7 21.1-1.5 21.6 1.8.7 4.3-21.4 9.6-36.4 12.2-9.9 1.7-19.3 2.7-26.4 2.9H9.7zm9.7-10.1C5.4 64.4.6 67.3.7 68.5c.1.7 2.5 1.7 10.9 1.5 7.1-.2 16.5-1.2 26.3-2.8 22.6-3.8 35.9-9 35.6-11-.2-1.1-5.8-2.3-20.5-1-5.3.5-10.9 1.3-16.7 2.2-5.8 1-11.6 2.2-16.9 3.5z"/></g><g><path d="M24.5 65.8c-1.7 0-3-.2-3.5-.5-.3-.2-.3-.4-.4-.5 0-.1 0-.4.2-.6 1.1-1.6 10-3.7 17.7-5 7.8-1.3 16.8-2.2 18.4-1.1.3.2.3.4.4.5.4 2.4-14.8 5.1-17.9 5.7-5.2.8-11.2 1.5-14.9 1.5zm-2.7-1.3c1.2.5 7.6.3 17.5-1.4s16-3.6 17-4.5c-1.2-.5-7.7-.3-17.5 1.4-9.9 1.7-16 3.7-17 4.5zm34.6-5.7z"/></g><g><path d="M19.2 60.5c-.2 0-.4-.2-.5-.4-.5-2.4-.9-4.8-1.3-7.2-.4-2-.7-3.9-1-5.9-2.3-13.3-4.1-27-5.5-40.7 0-.3.2-.5.4-.5.3 0 .5.2.5.4 1.4 13.6 3.3 27.3 5.5 40.6.3 2 .7 3.9 1 5.9.4 2.4.9 4.8 1.3 7.1.1.4-.1.6-.4.7z"/></g><g><path d="M11.2 6.5c-.2 0-.4-.1-.5-.3-.1-.3 0-.5.3-.6h.1C20 2.8 31 .6 39.8-.2c.3 0 .5.2.5.5s-.2.5-.5.5c-8.8.8-19.7 3-28.5 5.7h-.1z"/></g><g><path d="M53 55.2c-.3 0-.5-.2-.5-.5-.6-2.9-1.3-6-2-9-.5-2.4-1-4.7-1.6-7.1-3-13-6.2-25.8-9.7-38.2-.1-.3.1-.5.3-.6.3-.1.5.1.6.3 3.4 12.4 6.7 25.3 9.7 38.2.6 2.4 1.1 4.7 1.6 7.1.7 3.1 1.3 6.1 2 9.1v.1c.1.4-.1.6-.4.6z"/></g><g><path d="M18.1 53c-.1 0-.2 0-.2-.1-.1-.1 0-.3.1-.3 11.4-6.3 25.5-7.3 32.9-7.3.2 0 .3.1.3.3 0 .1-.1.3-.3.3h-.1c-7.4 0-21.4.9-32.7 7.2.1-.1.1-.1 0-.1z"/></g><g><path d="M16.8 47.2c-.1 0-.2 0-.2-.1-.1-.1 0-.3.1-.3 9.3-5.4 21.2-8.5 32.7-8.5.1 0 .3.1.3.3s-.1.3-.3.3c-11.4 0-23.2 3.1-32.5 8.5 0-.2 0-.2-.1-.2z"/></g></svg></g></svg>