<?xml version="1.0" standalone="no"?>
<!DOCTYPE svg PUBLIC "-//W3C//DTD SVG 20010904//EN"
 "http://www.w3.org/TR/2001/REC-SVG-20010904/DTD/svg10.dtd">
<svg version="1.0" xmlns="http://www.w3.org/2000/svg"
 width="768.000000pt" height="768.000000pt" viewBox="0 0 768.000000 768.000000"
 preserveAspectRatio="xMidYMid meet">
<metadata>
Created by potrace 1.14, written by Peter Selinger 2001-2017
</metadata>
<g transform="translate(0.000000,768.000000) scale(0.100000,-0.100000)"
fill="#000000" stroke="none">
<path d="M3279 7356 c-2 -2 -42 -7 -89 -10 -47 -3 -98 -8 -114 -11 -15 -3 -47
-8 -70 -10 -54 -6 -101 -13 -156 -26 -25 -5 -54 -11 -65 -14 -11 -2 -45 -11
-75 -20 -30 -9 -68 -20 -85 -25 -49 -13 -165 -59 -235 -93 -57 -27 -217 -122
-230 -137 -3 -3 -23 -18 -45 -35 -42 -31 -139 -126 -190 -186 -43 -51 -115
-155 -115 -167 0 -6 -6 -17 -13 -24 -38 -39 -152 -351 -162 -443 -1 -5 -5 -32
-10 -60 -13 -82 -14 -85 -19 -219 -3 -72 -9 -133 -13 -137 -5 -5 -21 -10 -38
-13 -16 -3 -45 -10 -63 -15 -18 -5 -33 -10 -35 -9 -28 5 -358 -116 -365 -134
-2 -4 -10 -8 -17 -8 -36 0 -239 -129 -380 -242 -91 -73 -315 -312 -315 -336 0
-6 -4 -12 -9 -14 -25 -9 -175 -270 -226 -393 -28 -68 -89 -259 -87 -272 1 -2
-4 -17 -9 -35 -32 -111 -48 -274 -44 -463 2 -99 6 -192 9 -207 2 -16 7 -47 11
-70 12 -70 13 -76 40 -182 42 -162 103 -310 190 -459 22 -38 45 -77 51 -87 13
-24 46 -69 62 -85 6 -8 12 -17 12 -20 0 -31 261 -295 382 -385 108 -81 299
-196 358 -215 3 -1 27 -11 53 -23 27 -12 55 -22 62 -22 8 0 17 -4 20 -10 3 -5
12 -10 20 -10 8 0 24 -4 37 -9 13 -5 25 -8 28 -8 3 0 14 -4 25 -10 11 -6 37
-14 59 -17 21 -4 42 -9 47 -12 5 -3 19 -7 32 -9 12 -2 35 -6 51 -9 16 -3 33
-9 37 -13 5 -5 11 -62 14 -128 3 -66 7 -140 10 -163 9 -78 46 -245 72 -322 24
-72 92 -230 103 -240 3 -3 14 -22 25 -43 11 -21 27 -46 35 -55 8 -9 27 -35 41
-57 56 -87 308 -315 348 -315 5 0 11 -4 13 -9 5 -13 164 -94 253 -128 133 -51
283 -94 380 -108 22 -4 47 -8 55 -10 8 -3 38 -7 65 -10 28 -3 61 -8 75 -10 86
-16 248 -20 755 -20 516 0 684 4 769 20 15 3 47 8 70 10 54 6 101 13 156 26
25 5 54 11 65 14 109 23 280 83 395 138 62 30 213 120 236 142 7 5 24 19 40
30 28 20 165 155 195 192 48 59 156 233 164 263 2 6 31 75 45 105 31 68 71
223 86 335 3 25 8 54 10 65 2 11 7 78 10 150 3 71 6 130 7 131 1 1 18 5 37 8
19 3 53 11 75 16 22 6 49 13 60 15 11 3 51 15 90 27 38 12 72 23 75 23 7 2 75
31 135 58 53 23 227 117 235 126 3 4 25 19 50 35 113 73 310 251 398 361 112
140 242 344 242 380 0 7 4 15 8 17 27 11 139 344 159 473 2 17 6 41 9 55 20
114 27 395 12 513 -11 82 -27 184 -33 199 -2 7 -7 24 -9 38 -19 101 -121 376
-153 413 -9 9 -13 17 -10 17 7 0 -76 143 -109 187 -13 17 -24 36 -24 41 0 6
-3 12 -7 14 -5 2 -21 21 -37 43 -76 103 -255 281 -368 366 -102 76 -323 209
-363 219 -3 0 -26 10 -52 21 -41 18 -169 62 -183 64 -3 0 -9 3 -15 6 -5 4 -55
16 -110 29 -55 12 -103 25 -107 29 -4 3 -10 58 -12 122 -3 63 -8 137 -11 165
-9 72 -42 235 -55 269 -6 17 -11 31 -11 32 1 6 -11 39 -20 55 -5 10 -9 22 -9
28 0 12 -71 172 -80 180 -3 3 -14 22 -25 43 -11 21 -27 46 -35 55 -8 9 -27 35
-41 57 -56 87 -308 315 -348 315 -5 0 -11 4 -13 9 -4 11 -159 92 -228 119 -30
12 -68 27 -85 33 -16 7 -35 13 -42 15 -7 1 -34 9 -60 17 -42 13 -93 26 -108
28 -2 0 -19 5 -37 10 -45 13 -151 30 -278 45 -30 3 -64 9 -75 12 -23 6 -1230
14 -1236 8z m226 -639 c30 -1 55 1 55 4 0 3 23 3 50 -1 28 -4 53 -3 56 2 3 5
10 6 15 3 5 -4 57 -6 117 -5 127 2 115 2 177 1 28 0 58 0 68 0 9 0 37 0 62 0
25 0 51 0 58 0 38 1 287 -11 317 -15 19 -3 55 -8 80 -11 25 -3 56 -7 70 -10
14 -3 39 -7 55 -10 31 -5 38 -6 90 -20 134 -34 257 -87 350 -150 49 -33 148
-131 172 -170 22 -35 56 -100 55 -105 0 -3 3 -9 8 -15 9 -12 43 -113 45 -135
1 -8 5 -31 10 -50 14 -63 16 -83 20 -245 3 -87 7 -165 9 -172 3 -7 2 -13 -2
-13 -4 0 -6 -19 -4 -42 1 -24 3 -47 3 -53 0 -5 0 -35 -1 -65 0 -30 0 -62 0
-70 1 -8 -1 -34 -2 -58 -2 -23 0 -42 3 -42 4 0 4 -14 0 -31 -3 -16 -4 -50 -3
-75 4 -44 4 -44 38 -41 19 3 34 1 34 -2 0 -3 37 -5 82 -3 46 1 88 3 93 3 45 1
238 -10 270 -16 22 -3 49 -8 60 -10 29 -4 106 -26 130 -35 11 -5 38 -14 60
-21 39 -11 180 -80 239 -116 38 -23 49 -31 121 -91 163 -136 260 -258 345
-434 33 -68 40 -85 49 -123 2 -5 7 -15 11 -20 5 -6 12 -26 15 -44 3 -19 10
-42 16 -52 5 -11 8 -19 5 -19 -3 0 0 -15 5 -32 22 -75 32 -353 15 -457 -41
-262 -165 -514 -346 -700 -37 -38 -130 -118 -185 -159 -41 -31 -147 -92 -160
-92 -8 0 -15 -3 -15 -7 0 -5 -21 -16 -48 -26 -26 -11 -56 -23 -67 -27 -23 -10
-68 -23 -75 -22 -3 0 -12 -4 -21 -9 -9 -4 -29 -11 -45 -14 -16 -2 -40 -7 -54
-10 -57 -13 -91 -16 -200 -21 -63 -3 -121 -5 -127 -5 -32 2 -41 2 -83 2 -25
-1 -69 0 -98 1 -28 2 -52 0 -52 -3 0 -4 -15 -4 -33 0 -18 5 -41 5 -52 1 -11
-4 -31 -4 -45 -1 -14 4 -43 4 -65 1 -22 -3 -57 -2 -78 1 -20 4 -39 3 -42 -1
-3 -4 -22 -4 -44 0 -22 4 -45 4 -52 -1 -7 -4 -17 -5 -21 -3 -11 7 -116 9 -123
2 -3 -3 -23 -2 -45 2 -21 4 -44 4 -51 -1 -7 -4 -17 -5 -21 -3 -11 7 -116 9
-123 2 -3 -3 -23 -2 -45 2 -21 4 -44 4 -51 -1 -7 -4 -17 -5 -21 -3 -11 7 -116
9 -123 2 -3 -3 -23 -2 -45 2 -21 4 -44 4 -51 -1 -7 -4 -17 -5 -21 -3 -11 7
-116 9 -123 2 -3 -3 -23 -2 -45 2 -21 4 -44 4 -51 -1 -7 -4 -18 -5 -24 -2 -19
7 -115 9 -115 2 0 -3 -20 -3 -45 1 -25 4 -47 4 -50 1 -2 -4 -3 -28 -3 -53 0
-26 -3 -52 -7 -58 -3 -5 -2 -10 4 -10 6 0 6 -11 1 -30 -5 -17 -5 -30 0 -30 5
0 5 -13 0 -30 -5 -17 -5 -30 0 -30 5 0 5 -13 0 -30 -5 -17 -5 -30 0 -30 5 0 5
-13 0 -30 -5 -17 -5 -30 0 -30 5 0 5 -13 0 -30 -5 -17 -5 -30 0 -30 5 0 5 -13
0 -30 -5 -17 -5 -30 0 -30 5 0 5 -13 0 -30 -5 -17 -5 -30 0 -30 5 0 5 -13 0
-30 -5 -16 -5 -30 0 -30 4 0 7 -8 6 -17 -1 -13 6 -18 22 -17 12 0 22 -3 22 -7
0 -4 13 -4 29 1 15 4 34 4 42 0 7 -5 20 -5 29 0 9 5 22 5 30 0 8 -5 21 -5 30
0 9 5 22 5 30 0 8 -5 21 -5 30 0 9 5 22 5 30 0 8 -5 21 -5 30 0 9 5 22 5 30 0
8 -5 21 -5 30 0 9 5 22 5 30 0 8 -5 21 -5 30 0 9 5 22 5 30 0 8 -5 21 -5 30 0
9 5 22 5 30 0 8 -5 21 -5 30 0 9 5 22 5 30 0 8 -5 21 -5 30 0 9 5 22 5 30 0 8
-5 18 -6 23 -3 13 8 87 9 87 1 0 -4 14 -3 30 2 17 5 30 5 30 0 0 -5 13 -5 30
0 17 5 30 5 30 0 0 -5 13 -5 30 0 17 5 30 5 30 0 0 -5 13 -5 30 0 17 5 30 5
30 0 0 -5 13 -5 30 0 17 5 30 5 30 0 0 -5 13 -5 30 0 17 5 30 5 30 0 0 -4 15
-5 33 -1 17 4 46 4 62 1 17 -3 47 -3 67 1 20 3 42 3 49 -2 7 -4 20 -4 29 1 9
5 22 5 30 0 7 -4 24 -4 36 0 14 6 26 5 29 0 3 -5 18 -5 35 0 17 5 30 5 30 2 0
-4 15 -7 33 -7 l32 0 -1 -65 c-4 -300 -115 -549 -298 -665 -17 -11 -36 -25
-43 -31 -16 -16 -153 -81 -188 -90 -5 -1 -30 -9 -55 -17 -57 -20 -146 -41
-225 -53 -115 -18 -214 -27 -297 -28 -38 -1 -68 -4 -68 -8 0 -4 -7 -5 -15 -2
-19 8 -125 10 -125 3 0 -3 -23 -3 -50 1 -28 4 -53 3 -56 -2 -3 -5 -10 -6 -15
-3 -5 4 -57 6 -117 5 -127 -2 -115 -2 -177 -1 -27 0 -58 0 -67 0 -10 0 -38 0
-63 0 -25 0 -51 0 -57 0 -39 -1 -288 11 -318 15 -19 3 -55 8 -80 11 -72 8
-227 40 -260 52 -21 8 -21 9 -55 18 -61 16 -186 76 -251 120 -41 28 -163 145
-164 157 0 4 -14 29 -30 55 -17 26 -39 72 -51 103 -20 52 -23 63 -34 111 -2
11 -6 28 -9 37 -12 38 -18 106 -21 257 -3 87 -7 165 -9 172 -3 7 -2 13 2 13 4
0 6 19 4 42 -1 24 -3 48 -3 53 0 6 0 35 1 65 0 30 0 62 0 70 -1 8 1 34 2 58 2
23 0 42 -3 42 -4 0 -4 14 0 31 3 16 4 50 3 74 -3 38 -7 45 -25 44 -12 0 -62 0
-112 0 -49 0 -97 0 -105 0 -39 -2 -258 11 -280 16 -14 4 -38 8 -55 11 -32 5
-157 40 -190 53 -45 17 -203 96 -240 120 -290 186 -501 490 -570 822 -28 136
-26 421 5 528 5 17 7 31 5 31 -11 0 73 217 116 300 51 97 57 106 144 213 151
187 339 316 583 401 56 19 104 35 107 35 6 -1 82 12 110 18 11 2 69 6 128 8
60 3 112 7 116 9 4 3 13 1 20 -4 8 -4 26 -4 41 0 15 4 33 4 40 0 7 -4 25 -4
40 0 15 4 33 4 40 0 7 -4 25 -4 40 0 15 4 33 4 40 0 7 -4 25 -4 40 0 15 4 33
4 40 0 7 -4 25 -4 40 0 15 4 33 4 40 0 7 -4 25 -4 40 0 15 4 33 4 40 0 7 -4
24 -5 37 -1 14 4 50 4 79 1 30 -3 54 -4 54 0 0 3 32 3 70 0 39 -3 70 -2 70 1
0 3 18 3 39 -1 22 -4 45 -4 52 1 7 4 18 5 25 2 20 -7 124 -9 124 -2 0 4 18 3
39 -1 22 -4 45 -4 52 1 7 4 18 5 25 2 20 -7 124 -9 124 -2 0 4 18 3 39 -1 22
-4 45 -4 52 1 7 4 18 5 25 2 20 -7 124 -9 124 -2 0 4 18 3 39 -1 22 -4 45 -4
52 1 7 4 22 3 35 -1 12 -5 24 -7 27 -4 5 5 135 7 157 2 11 -2 15 9 17 45 1 27
4 55 7 63 3 8 1 14 -4 14 -5 0 -5 13 0 30 5 17 5 30 0 30 -5 0 -5 13 0 30 5
17 5 30 0 30 -5 0 -5 13 0 30 5 17 5 30 0 30 -5 0 -5 13 0 30 5 17 5 30 0 30
-5 0 -5 13 0 30 5 17 5 30 0 30 -5 0 -5 13 0 30 5 17 5 30 0 30 -5 0 -5 13 0
30 5 17 5 30 0 30 -5 0 -5 13 0 30 5 17 5 30 0 30 -4 0 -7 8 -6 18 1 12 -6 17
-21 16 -13 0 -23 3 -23 7 0 4 -13 4 -29 -1 -15 -4 -34 -4 -42 0 -7 5 -20 5
-29 0 -9 -5 -22 -5 -30 0 -8 5 -21 5 -30 0 -9 -5 -22 -5 -30 0 -8 5 -21 5 -30
0 -9 -5 -22 -5 -30 0 -8 5 -21 5 -30 0 -9 -5 -22 -5 -30 0 -8 5 -21 5 -30 0
-9 -5 -22 -5 -30 0 -8 5 -21 5 -30 0 -9 -5 -22 -5 -30 0 -8 5 -21 5 -30 0 -9
-5 -22 -5 -30 0 -8 5 -21 5 -30 0 -9 -5 -22 -5 -30 0 -8 5 -21 5 -30 0 -9 -5
-22 -5 -30 0 -8 5 -18 6 -23 3 -13 -8 -87 -9 -87 -1 0 4 -13 3 -30 -2 -17 -5
-30 -5 -30 0 0 5 -13 5 -30 0 -17 -5 -30 -5 -30 0 0 5 -13 5 -30 0 -17 -5 -30
-5 -30 0 0 5 -13 5 -30 0 -17 -5 -30 -5 -30 0 0 5 -13 5 -30 0 -17 -5 -30 -5
-30 0 0 5 -13 5 -30 0 -16 -5 -30 -5 -30 -1 0 5 -15 5 -32 2 -18 -4 -46 -4
-63 -1 -16 3 -41 3 -55 0 -14 -4 -37 -3 -52 1 -16 4 -28 5 -28 1 0 -4 -29 -7
-65 -7 -36 0 -65 3 -65 7 0 4 -13 3 -30 -2 -16 -5 -30 -5 -30 -1 0 4 -10 7
-22 7 -22 -1 -23 2 -22 74 0 69 6 127 18 190 3 14 7 36 10 50 25 135 131 310
234 390 68 52 130 90 147 90 8 0 15 3 15 8 0 7 48 31 73 36 6 2 19 6 27 9 65
27 185 58 285 73 115 18 214 27 297 28 38 1 68 4 68 8 0 4 7 5 15 2 8 -3 39
-7 70 -7z"/>
</g>
</svg>
